<?xml version="1.0" encoding="utf-8"?>
<!-- Generator: Adobe Illustrator 18.1.1, SVG Export Plug-In . SVG Version: 6.00 Build 0)  -->
<!DOCTYPE svg PUBLIC "-//W3C//DTD SVG 1.1//EN" "http://www.w3.org/Graphics/SVG/1.1/DTD/svg11.dtd">
<svg version="1.1" id="Layer_1" xmlns="http://www.w3.org/2000/svg" xmlns:xlink="http://www.w3.org/1999/xlink" x="0px" y="0px"
	 viewBox="0 166.4 611.8 459.5" enable-background="new 0 166.4 611.8 459.5" xml:space="preserve">
<polygon fill="#E2E2E2" points="237.2,249.3 262.3,225.4 188.1,225.4 121.7,193.2 154.6,225.4 90.5,225.4 177.1,247.7 207.6,277.3 
	225.7,260.1 293.5,277.3 295.1,277.3 "/>
<path fill="#888888" d="M404.4,277.3V171.2h-13.3v106.3h13.3V277.3z M324.7,225.4h53V213h-53v-29.4h52.8v-12.4h-66.4v106.3h13.3
	v-52.1H324.7z M293.5,277.3H308l-50.3-110.9l-50.1,110.9h14.5l35.6-81.1L293.5,277.3L293.5,277.3z"/>
<path fill="#888888" d="M343.5,590.3h12.2v-4.4h-15.6l-6,20h0.9c1.6-2.1,4.6-3.4,7.3-3.4c5.1,0,9.2,4.1,9.2,9.2
	c0,5.3-4.1,9.6-9.4,9.6c-3.4,0-7.3-2.5-8.5-5.7L330,619c2.3,4.4,7.1,6.9,11.9,6.9c8,0,14.5-5.5,14.5-13.8c0-7.1-5.1-13.5-12.4-13.5
	l-2.8,0.2L343.5,590.3L343.5,590.3z M320.1,624.7h4.6v-38.8H316l-2.8,4.4h6.7v34.4H320.1z M313,605.4c0-8-3.4-20.2-13.5-20.2
	c-10.1,0-13.5,12.2-13.5,20.2c0,8,3.4,20.2,13.5,20.2C309.6,625.6,313,613.2,313,605.4L313,605.4z M308.4,605.2
	c0,5.3-2.1,16.1-9,16.1c-6.9,0-9-10.6-9-16.1c0-5.3,2.1-16.1,9-16.1C306.6,589.1,308.4,599.9,308.4,605.2L308.4,605.2z M255.8,624.7
	h25v-4.4h-15.6l12.9-15.6c1.8-2.3,3-5.1,3-8c0-6.7-5.7-11.7-12.2-11.7c-7.1,0-11.5,4.6-12.4,11.5h4.8c0.2-3.9,3.4-7.1,7.6-7.1
	c4.1,0,7.6,3.4,7.6,7.3c0,2.5-1.8,5.1-3.4,6.9L255.8,624.7L255.8,624.7z"/>
<path fill="#888888" d="M463.4,302.5v-12.2h-70v11.9h28.7v90.5h12.4v-90.2H463.4L463.4,302.5z M330.5,315.2
	c0-9.4,9.4-16.1,20.2-16.1c10.3,0,16.3,4.1,21.1,11.3l10.8-6c-6.4-10.1-17.9-16.1-31.7-16.1c-18.1,0-34.2,10.3-34.2,26.2
	c0,14.7,12.4,20.9,26.6,26.4l7.3,2.8c11.3,4.4,22.5,8.5,22.5,20.4c0,11.7-11.9,20-25,20c-13.1,0-22.7-8.5-24.6-19.1l-13.3,3.2
	c3.9,16.1,18.6,26.6,38.1,26.6c21.4,0,38.4-13.8,38.4-31.9c0-16.3-13.5-23.2-29.4-28.9l-8-3C341.3,328,330.5,324.1,330.5,315.2
	L330.5,315.2z M230.1,392.8h70.7v-12.2h-56.5v-38.1h56v-11.9h-56v-28h56v-12.4h-70.3L230.1,392.8L230.1,392.8z M162.6,342.7h56.3
	v-11.9h-56.3v-28.2h56.3v-12.2h-70.3v102.2h14.2v-49.8H162.6z"/>
<path fill="#888888" d="M606.3,359c-8.5-10.8,0.9-45,0.9-45c-28.5,24.3-30.3,82.4-30.3,82.4C616.4,397.8,614.8,369.8,606.3,359
	L606.3,359z M590.4,264.4c-10.8-43.6-5.7-42.9,2.1-57.4c-34.4,19.3-7.8,109.8-7.8,109.8C615.2,287.4,592.9,274.1,590.4,264.4
	L590.4,264.4z M576.6,317.5c-0.9-21.8-15.6-73-15.6-72.8c-5.3-15.8-9.4-28.5-13.5-37.9c-7.1-16.8-11.3-23.9-15.6-31.7
	c0,0-7.1,4.6-3.4,19.1c1.6,6.7,3.2,12.9,7.6,16.8c6.7,5.7,8.5,2.8,13.1,15.6c1.1,3.2,2.1,5.3,3,11.7c0,0-0.9-0.5-3.2-1.8
	c0.5,3,0.7,6,2.8,7.6c5.5,4.1,6.7,11.9,8.5,17.7c5.5,17.7,7.3,28.9,9.4,46.4c-0.2-0.7-1.4-1.4-2.3-1.8
	c-3.2-16.5-11.9-49.4-30.3-51.2c8,6.2,10.8,4.6,15.6,32.2c1.1,6-7.6,18.4,14.2,27.6c0.5,0.7,1.1,1.4,1.4,2.1
	c2.5,4.4,2.8,8.7,2.8,13.3c0,4.6-0.2,9-0.7,12.9c-0.7,4.4-1.4,8.5-1.6,12.9c-0.9,12.9-1.4,25.7-5.1,38.6c-0.9-0.9-1.6-1.8-2.1-2.8
	c-0.9-10.3-4.6-39.3-20.7-52.8c0,0,6.4,23.7,0.7,31c-5.7,7.3-6.9,25.7,18.8,25.5c0,0.5,0.2,0.9,0.2,1.1c0.9,7.3-0.9,14.7-3.7,21.8
	c-2.8,7.1-6.2,14.5-9.9,21.4c-7.3,13.8-15.4,29.2-28,41.1c1.1-6.9,3.7-19.1,7.1-28.7c5.1-14.2,7.1-27.3-2.5-37.4
	c-0.7,3.7-3.2,14.5-9.4,19.1c-6,4.4-21.8,9.6,1.6,48.9c-0.2,0.5-0.2,0.9-0.5,1.1c-3.2,8.7-11.7,15.8-18.4,22
	c-21.1,19.1-45.2,31.9-68.7,40.9c0.2-0.7,1.6-4.6,1.6-4.6l-8.3,3.4c0,0-0.5,3.7-14.9,9.2c-6.7,2.5-41.1,8.5-62.7,8.7
	c-2.1,0-4.4,0-6.4,0c-1.6,0-10.6-0.7-19.3-1.8c1.8-0.5,3.4-0.7,5.1-1.1c17.7-3.9,40.6-6.9,45.5-14c4.1-6-1.8-14.2-16.8-3.4
	c-6.7,4.8-6.9,6-14.2,9.2c-9.2,4.1-6.4,2.8-19.7,5.5c-3.9,0.9-6.2,1.1-13.1,2.1c-6.9-0.9-9-1.1-13.1-2.1
	c-13.3-2.8-10.6-1.4-19.7-5.5c-7.3-3.2-7.6-4.4-14.2-9.2c-14.9-10.8-20.9-2.5-16.8,3.4c4.8,7.1,27.6,10.1,45.5,14
	c1.6,0.5,3.4,0.7,5.1,1.1c-8.7,1.1-17.7,1.8-19.3,1.8c-2.1-0.2-4.4,0-6.4,0c-21.6-0.2-56-6.2-62.7-8.7c-14.5-5.5-14.9-9.2-14.9-9.2
	l-8.3-3.4c0,0,1.4,3.9,1.6,4.6c-23.4-9-47.5-21.8-68.7-40.9c-6.9-6.2-15.2-13.3-18.4-22c-0.2-0.2-0.2-0.7-0.5-1.1
	c24.6-40.2,8.5-45.5,2.3-50.1s-8.7-15.4-9.4-19.1c-9.6,10.1-7.6,23.2-2.5,37.4c3.2,9.2,5.7,20.9,6.9,27.8l-0.9-0.5
	c0,0,0.5,1.8,0.7,3c-12.9-11.9-20.9-27.3-28.2-41.3c-3.7-6.9-7.1-14.2-9.9-21.4c-2.8-7.1-4.6-14.5-3.7-21.8c0-0.7,0.2-1.6,0.5-2.3
	c26.2,0.5,25-18.4,19.3-25.5c-6-7.3,0.7-31,0.7-31c-15.8,13.5-19.5,41.8-20.4,52.6v-0.2c0,0-0.7,2.8-2.5,4.4
	c-3.2-13.3-3.7-26.2-4.6-39c-0.2-4.4-1.1-8.5-1.6-12.9c-0.5-3.9-0.7-8.3-0.7-12.9s0.2-9,2.8-13.3c0.5-0.9,1.8-2.5,2.3-3.2
	c21.6-9.2,12.9-21.6,14-27.3c4.8-27.6,7.6-25.9,15.6-32.2c-18.6,1.8-27.3,35.6-30.5,51.9c-0.9,0.5-2.5,1.4-2.8,2.1
	c2.3-17.5,3.9-28.7,9.4-46.4c1.8-5.7,2.8-13.8,8.5-17.7c2.1-1.6,2.3-4.4,2.8-7.6c-2.1,1.4-3,2.1-3.2,1.8c0.7-6.4,1.8-8.5,3-11.7
	c4.6-12.9,6.4-9.9,13.1-15.6c4.4-3.7,6-9.9,7.6-16.8c3.4-14.5-3.4-19.3-3.4-19.1c-4.1,7.8-8.5,14.9-15.6,31.7
	c-3.9,9.4-8.3,22-13.5,37.9c0,0-14.7,51-15.6,72.8c-0.9,21.8,0.9,28.2,2.1,40.4c0.7,6,1.1,10.6,1.8,16.3c1.1,10.8,4.4,21.1,5.3,31.7
	c0.2,1.6,1.6,8,4.8,16.1c3.2,7.8,4.6,10.1,8,17.5c1.6,3.4,3.2,7.1,5.3,10.8c7.8,14.5,18.4,28,30.8,42.7c0,0,13.3,13.1,17.9,17
	c3.2,2.8,7.3,6.2,10.8,8.7c17.5,13.8,34.9,25.3,53.7,31.2c0,0,14.2,4.8,17.9,6.2c4.6,1.6,9.4,3,14.2,4.4c9.6,2.5,20.4,4.6,30.5,5.5
	c15.2,1.4,29.2,1.6,44.6,0.2c9.9-0.9,17.2-1.6,23.4-2.5c6.2,0.9,13.5,1.8,23.4,2.5c15.6,1.4,29.6,1.4,44.6-0.2
	c10.1-0.9,20.9-3,30.5-5.5c4.8-1.1,9.6-2.8,14.2-4.4c3.7-1.4,17.9-6.2,17.9-6.2c18.8-6,36.3-17.5,53.7-31.2c3.4-2.8,7.6-6,10.8-8.7
	c4.6-3.9,17.9-17,17.9-17c12.2-14.7,22.7-28.2,30.8-42.7c2.1-3.7,3.7-7.3,5.3-10.8c3.7-7.3,4.8-9.6,8-17.5c3.2-8,4.6-14.5,4.8-16.1
	c0.9-10.6,4.1-20.9,5.3-31.7c0.7-5.7,1.1-10.3,1.8-16.3C575.7,345.9,577.6,339.3,576.6,317.5L576.6,317.5z M27.3,316.8
	c0,0,26.6-90.2-7.8-109.8c7.8,14.2,12.9,13.5,2.1,57.4C19.1,274.1-3.2,287.4,27.3,316.8L27.3,316.8z M35.1,396.2
	c0,0-1.8-57.9-30.3-82.4c0,0,9.4,34.4,0.9,45C-2.8,369.8-4.4,397.8,35.1,396.2L35.1,396.2z M0,405.6c3.9,4.6,14.2,18.6,13.5,30.8
	c-0.7,12.2-11.3,38.1,67.7,48.7c0,0-21.1-23.7-33.3-44.6C35.8,419.9,22.3,404.3,0,405.6L0,405.6z M51.2,500
	c5.3,3,19.7,12.6,23.4,24.3c3.4,11.7,2.3,39.5,80.4,22.7c0,0-28-14.9-46.6-30.3C89.8,501.4,71.6,491.1,51.2,500L51.2,500z
	 M133.2,575.8c0,0,35.6-0.2,43.9,10.8s34.7,19.7,43.6-18.6C220.7,567.8,164.2,554.5,133.2,575.8L133.2,575.8z M391.3,567.8
	c9,38.4,35.4,29.9,43.6,18.6c8-11,43.9-10.8,43.9-10.8C447.8,554.5,391.3,567.8,391.3,567.8L391.3,567.8z M457,547.1
	c78.1,17,76.9-11,80.4-22.7c3.4-11.7,18.1-21.4,23.4-24.3c-20.4-9-38.6,1.1-57.2,16.5C485,531.9,457,547.1,457,547.1L457,547.1z
	 M530.5,485.3c79.2-10.8,68.4-36.5,67.7-48.7s9.9-26.2,13.5-30.8c-22.3-1.4-35.8,14.2-48,35.1C551.8,461.4,530.5,485.3,530.5,485.3
	L530.5,485.3z"/>
<text transform="matrix(1 0 0 1 188.7861 450.6456)" fill="#888888" font-family="'FuturaStd-Medium'" font-size="55.9143" letter-spacing="2">OF</text>
<text transform="matrix(1 0 0 1 264.7274 450.6456)" fill="#888888" font-family="'FuturaStd-Medium'" font-size="55.9143">FI</text>
<text transform="matrix(1 0 0 1 307.0996 450.6456)" fill="#888888" font-family="'FuturaStd-Medium'" font-size="55.9143">CI</text>
<text transform="matrix(1 0 0 1 360.291 450.6456)" fill="#888888" font-family="'FuturaStd-Medium'" font-size="55.9143">AL</text>
<text transform="matrix(1 0 0 1 160.2906 500.1083)" fill="#888888" font-family="'FuturaStd-Medium'" font-size="55.9143">SELE</text>
<text transform="matrix(1 0 0 1 276.5551 500.1083)" fill="#888888" font-family="'FuturaStd-Medium'" font-size="55.9143" letter-spacing="2">CT</text>
<text transform="matrix(1 0 0 1 343.4944 500.1083)" fill="#888888" font-family="'FuturaStd-Medium'" font-size="55.9143" letter-spacing="2">IO</text>
<text transform="matrix(1 0 0 1 407.8077 500.1083)" fill="#888888" font-family="'FuturaStd-Medium'" font-size="55.9143">N</text>
</svg>
