<?xml version="1.0" encoding="UTF-8" standalone="no"?>
<svg width="612px" height="460px" viewBox="0 0 612 460" version="1.1" xmlns="http://www.w3.org/2000/svg" xmlns:xlink="http://www.w3.org/1999/xlink" xmlns:sketch="http://www.bohemiancoding.com/sketch/ns">
    <title>Slice 1</title>
    <description>Created with Sketch (http://www.bohemiancoding.com/sketch)</description>
    <defs></defs>
    <g id="Page-1" stroke="none" stroke-width="1" fill="none" fill-rule="evenodd" sketch:type="MSPage">
        <g id="afiFestLaurel-white" sketch:type="MSLayerGroup">
            <path d="M237.2,83.3 L262.3,59.4 L188.1,59.4 L121.7,27.2 L154.6,59.4 L90.5,59.4 L177.1,81.7 L207.6,111.3 L225.7,94.1 L293.5,111.3 L295.1,111.3 L237.2,83.3 Z" id="Shape" fill="#E2E2E2" sketch:type="MSShapeGroup"></path>
            <path d="M404.4,111.3 L404.4,5.2 L391.1,5.2 L391.1,111.5 L404.4,111.5 L404.4,111.3 L404.4,111.3 Z M324.7,59.4 L377.7,59.4 L377.7,47 L324.7,47 L324.7,17.6 L377.5,17.6 L377.5,5.2 L311.1,5.2 L311.1,111.5 L324.4,111.5 L324.4,59.4 L324.7,59.4 L324.7,59.4 Z M293.5,111.3 L308,111.3 L257.7,0.4 L207.6,111.3 L222.1,111.3 L257.7,30.2 L293.5,111.3 L293.5,111.3 Z" id="Shape" fill="#FFFFFF" sketch:type="MSShapeGroup"></path>
            <path d="M343.5,424.3 L355.7,424.3 L355.7,419.9 L340.1,419.9 L334.1,439.9 L335,439.9 C336.6,437.8 339.6,436.5 342.3,436.5 C347.4,436.5 351.5,440.6 351.5,445.7 C351.5,451 347.4,455.3 342.1,455.3 C338.7,455.3 334.8,452.8 333.6,449.6 L330,453 C332.3,457.4 337.1,459.9 341.9,459.9 C349.9,459.9 356.4,454.4 356.4,446.1 C356.4,439 351.3,432.6 344,432.6 L341.2,432.8 L343.5,424.3 L343.5,424.3 Z M320.1,458.7 L324.7,458.7 L324.7,419.9 L316,419.9 L313.2,424.3 L319.9,424.3 L319.9,458.7 L320.1,458.7 L320.1,458.7 Z M313,439.4 C313,431.4 309.6,419.2 299.5,419.2 C289.4,419.2 286,431.4 286,439.4 C286,447.4 289.4,459.6 299.5,459.6 C309.6,459.6 313,447.2 313,439.4 L313,439.4 L313,439.4 Z M308.4,439.2 C308.4,444.5 306.3,455.3 299.4,455.3 C292.5,455.3 290.4,444.7 290.4,439.2 C290.4,433.9 292.5,423.1 299.4,423.1 C306.6,423.1 308.4,433.9 308.4,439.2 L308.4,439.2 L308.4,439.2 Z M255.8,458.7 L280.8,458.7 L280.8,454.3 L265.2,454.3 L278.1,438.7 C279.9,436.4 281.1,433.6 281.1,430.7 C281.1,424 275.4,419 268.9,419 C261.8,419 257.4,423.6 256.5,430.5 L261.3,430.5 C261.5,426.6 264.7,423.4 268.9,423.4 C273,423.4 276.5,426.8 276.5,430.7 C276.5,433.2 274.7,435.8 273.1,437.6 L255.8,458.7 L255.8,458.7 Z" id="Shape" fill="#FFFFFF" sketch:type="MSShapeGroup"></path>
            <path d="M463.4,136.5 L463.4,124.3 L393.4,124.3 L393.4,136.2 L422.1,136.2 L422.1,226.7 L434.5,226.7 L434.5,136.5 L463.4,136.5 L463.4,136.5 Z M330.5,149.2 C330.5,139.8 339.9,133.1 350.7,133.1 C361,133.1 367,137.2 371.8,144.4 L382.6,138.4 C376.2,128.3 364.7,122.3 350.9,122.3 C332.8,122.3 316.7,132.6 316.7,148.5 C316.7,163.2 329.1,169.4 343.3,174.9 L350.6,177.7 C361.9,182.1 373.1,186.2 373.1,198.1 C373.1,209.8 361.2,218.1 348.1,218.1 C335,218.1 325.4,209.6 323.5,199 L310.2,202.2 C314.1,218.3 328.8,228.8 348.3,228.8 C369.7,228.8 386.7,215 386.7,196.9 C386.7,180.6 373.2,173.7 357.3,168 L349.3,165 C341.3,162 330.5,158.1 330.5,149.2 L330.5,149.2 L330.5,149.2 Z M230.1,226.8 L300.8,226.8 L300.8,214.6 L244.3,214.6 L244.3,176.5 L300.3,176.5 L300.3,164.6 L244.3,164.6 L244.3,136.6 L300.3,136.6 L300.3,124.2 L230,124.2 L230.1,226.8 L230.1,226.8 Z M162.6,176.7 L218.9,176.7 L218.9,164.8 L162.6,164.8 L162.6,136.6 L218.9,136.6 L218.9,124.4 L148.6,124.4 L148.6,226.6 L162.8,226.6 L162.8,176.8 L162.6,176.8 L162.6,176.7 Z" id="Shape" fill="#FFFFFF" sketch:type="MSShapeGroup"></path>
            <path d="M606.3,193 C597.8,182.2 607.2,148 607.2,148 C578.7,172.3 576.9,230.4 576.9,230.4 C616.4,231.8 614.8,203.8 606.3,193 L606.3,193 L606.3,193 Z M590.4,98.4 C579.6,54.8 584.7,55.5 592.5,41 C558.1,60.3 584.7,150.8 584.7,150.8 C615.2,121.4 592.9,108.1 590.4,98.4 L590.4,98.4 L590.4,98.4 Z M576.6,151.5 C575.7,129.7 561,78.5 561,78.7 C555.7,62.9 551.6,50.2 547.5,40.8 C540.4,24 536.2,16.9 531.9,9.1 C531.9,9.1 524.8,13.7 528.5,28.2 C530.1,34.9 531.7,41.1 536.1,45 C542.8,50.7 544.6,47.8 549.2,60.6 C550.3,63.8 551.3,65.9 552.2,72.3 C552.2,72.3 551.3,71.8 549,70.5 C549.5,73.5 549.7,76.5 551.8,78.1 C557.3,82.2 558.5,90 560.3,95.8 C565.8,113.5 567.6,124.7 569.7,142.2 C569.5,141.5 568.3,140.8 567.4,140.4 C564.2,123.9 555.5,91 537.1,89.2 C545.1,95.4 547.9,93.8 552.7,121.4 C553.8,127.4 545.1,139.8 566.9,149 C567.4,149.7 568,150.4 568.3,151.1 C570.8,155.5 571.1,159.8 571.1,164.4 C571.1,169 570.9,173.4 570.4,177.3 C569.7,181.7 569,185.8 568.8,190.2 C567.9,203.1 567.4,215.9 563.7,228.8 C562.8,227.9 562.1,227 561.6,226 C560.7,215.7 557,186.7 540.9,173.2 C540.9,173.2 547.3,196.9 541.6,204.2 C535.9,211.5 534.7,229.9 560.4,229.7 C560.4,230.2 560.6,230.6 560.6,230.8 C561.5,238.1 559.7,245.5 556.9,252.6 C554.1,259.7 550.7,267.1 547,274 C539.7,287.8 531.6,303.2 519,315.1 C520.1,308.2 522.7,296 526.1,286.4 C531.2,272.2 533.2,259.1 523.6,249 C522.9,252.7 520.4,263.5 514.2,268.1 C508.2,272.5 492.4,277.7 515.8,317 C515.6,317.5 515.6,317.9 515.3,318.1 C512.1,326.8 503.6,333.9 496.9,340.1 C475.8,359.2 451.7,372 428.2,381 C428.4,380.3 429.8,376.4 429.8,376.4 L421.5,379.8 C421.5,379.8 421,383.5 406.6,389 C399.9,391.5 365.5,397.5 343.9,397.7 L337.5,397.7 C335.9,397.7 326.9,397 318.2,395.9 C320,395.4 321.6,395.2 323.3,394.8 C341,390.9 363.9,387.9 368.8,380.8 C372.9,374.8 367,366.6 352,377.4 C345.3,382.2 345.1,383.4 337.8,386.6 C328.6,390.7 331.4,389.4 318.1,392.1 C314.2,393 311.9,393.2 305,394.2 C298.1,393.3 296,393.1 291.9,392.1 C278.6,389.3 281.3,390.7 272.2,386.6 C264.9,383.4 264.6,382.2 258,377.4 C243.1,366.6 237.1,374.9 241.2,380.8 C246,387.9 268.8,390.9 286.7,394.8 C288.3,395.3 290.1,395.5 291.8,395.9 C283.1,397 274.1,397.7 272.5,397.7 C270.4,397.5 268.1,397.7 266.1,397.7 C244.5,397.5 210.1,391.5 203.4,389 C188.9,383.5 188.5,379.8 188.5,379.8 L180.2,376.4 C180.2,376.4 181.6,380.3 181.8,381 C158.4,372 134.3,359.2 113.1,340.1 C106.2,333.9 97.9,326.8 94.7,318.1 C94.5,317.9 94.5,317.4 94.2,317 C118.8,276.8 102.7,271.5 96.5,266.9 C90.3,262.3 87.8,251.5 87.1,247.8 C77.5,257.9 79.5,271 84.6,285.2 C87.8,294.4 90.3,306.1 91.5,313 L90.6,312.5 C90.6,312.5 91.1,314.3 91.3,315.5 C78.4,303.6 70.4,288.2 63.1,274.2 C59.4,267.3 56,260 53.2,252.8 C50.4,245.7 48.6,238.3 49.5,231 C49.5,230.3 49.7,229.4 50,228.7 C76.2,229.2 75,210.3 69.3,203.2 C63.3,195.9 70,172.2 70,172.2 C54.2,185.7 50.5,214 49.6,224.8 L49.6,224.6 C49.6,224.6 48.9,227.4 47.1,229 C43.9,215.7 43.4,202.8 42.5,190 C42.3,185.6 41.4,181.5 40.9,177.1 C40.4,173.2 40.2,168.8 40.2,164.2 C40.2,159.6 40.4,155.2 43,150.9 C43.5,150 44.8,148.4 45.3,147.7 C66.9,138.5 58.2,126.1 59.3,120.4 C64.1,92.8 66.9,94.5 74.9,88.2 C56.3,90 47.6,123.8 44.4,140.1 C43.5,140.6 41.9,141.5 41.6,142.2 C43.9,124.7 45.5,113.5 51,95.8 C52.8,90.1 53.8,82 59.5,78.1 C61.6,76.5 61.8,73.7 62.3,70.5 C60.2,71.9 59.3,72.6 59.1,72.3 C59.8,65.9 60.9,63.8 62.1,60.6 C66.7,47.7 68.5,50.7 75.2,45 C79.6,41.3 81.2,35.1 82.8,28.2 C86.2,13.7 79.4,8.9 79.4,9.1 C75.3,16.9 70.9,24 63.8,40.8 C59.9,50.2 55.5,62.8 50.3,78.7 C50.3,78.7 35.6,129.7 34.7,151.5 C33.8,173.3 35.6,179.7 36.8,191.9 C37.5,197.9 37.9,202.5 38.6,208.2 C39.7,219 43,229.3 43.9,239.9 C44.1,241.5 45.5,247.9 48.7,256 C51.9,263.8 53.3,266.1 56.7,273.5 C58.3,276.9 59.9,280.6 62,284.3 C69.8,298.8 80.4,312.3 92.8,327 C92.8,327 106.1,340.1 110.7,344 C113.9,346.8 118,350.2 121.5,352.7 C139,366.5 156.4,378 175.2,383.9 C175.2,383.9 189.4,388.7 193.1,390.1 C197.7,391.7 202.5,393.1 207.3,394.5 C216.9,397 227.7,399.1 237.8,400 C253,401.4 267,401.6 282.4,400.2 C292.3,399.3 299.6,398.6 305.8,397.7 C312,398.6 319.3,399.5 329.2,400.2 C344.8,401.6 358.8,401.6 373.8,400 C383.9,399.1 394.7,397 404.3,394.5 C409.1,393.4 413.9,391.7 418.5,390.1 C422.2,388.7 436.4,383.9 436.4,383.9 C455.2,377.9 472.7,366.4 490.1,352.7 C493.5,349.9 497.7,346.7 500.9,344 C505.5,340.1 518.8,327 518.8,327 C531,312.3 541.5,298.8 549.6,284.3 C551.7,280.6 553.3,277 554.9,273.5 C558.6,266.2 559.7,263.9 562.9,256 C566.1,248 567.5,241.5 567.7,239.9 C568.6,229.3 571.8,219 573,208.2 C573.7,202.5 574.1,197.9 574.8,191.9 C575.7,179.9 577.6,173.3 576.6,151.5 L576.6,151.5 L576.6,151.5 Z M27.3,150.8 C27.3,150.8 53.9,60.6 19.5,41 C27.3,55.2 32.4,54.5 21.6,98.4 C19.1,108.1 -3.2,121.4 27.3,150.8 L27.3,150.8 L27.3,150.8 Z M35.1,230.2 C35.1,230.2 33.3,172.3 4.8,147.8 C4.8,147.8 14.2,182.2 5.7,192.8 C-2.8,203.8 -4.4,231.8 35.1,230.2 L35.1,230.2 L35.1,230.2 Z M0,239.6 C3.9,244.2 14.2,258.2 13.5,270.4 C12.8,282.6 2.2,308.5 81.2,319.1 C81.2,319.1 60.1,295.4 47.9,274.5 C35.8,253.9 22.3,238.3 0,239.6 L0,239.6 L0,239.6 Z M51.2,334 C56.5,337 70.9,346.6 74.6,358.3 C78,370 76.9,397.8 155,381 C155,381 127,366.1 108.4,350.7 C89.8,335.4 71.6,325.1 51.2,334 L51.2,334 L51.2,334 Z M133.2,409.8 C133.2,409.8 168.8,409.6 177.1,420.6 C185.4,431.6 211.8,440.3 220.7,402 C220.7,401.8 164.2,388.5 133.2,409.8 L133.2,409.8 L133.2,409.8 Z M391.3,401.8 C400.3,440.2 426.7,431.7 434.9,420.4 C442.9,409.4 478.8,409.6 478.8,409.6 C447.8,388.5 391.3,401.8 391.3,401.8 L391.3,401.8 L391.3,401.8 Z M457,381.1 C535.1,398.1 533.9,370.1 537.4,358.4 C540.8,346.7 555.5,337 560.8,334.1 C540.4,325.1 522.2,335.2 503.6,350.6 C485,365.9 457,381.1 457,381.1 L457,381.1 L457,381.1 Z M530.5,319.3 C609.7,308.5 598.9,282.8 598.2,270.6 C597.5,258.4 608.1,244.4 611.7,239.8 C589.4,238.4 575.9,254 563.7,274.9 C551.8,295.4 530.5,319.3 530.5,319.3 L530.5,319.3 L530.5,319.3 Z" id="Shape" fill="#FFFFFF" sketch:type="MSShapeGroup"></path>
            <text id="OF" fill="#FFFFFF" sketch:type="MSTextLayer" font-family="Helvetica" font-size="55.9143" font-weight="normal">
                <tspan x="188.7861" y="284.6456">OF</tspan>
            </text>
            <text id="FI" fill="#FFFFFF" sketch:type="MSTextLayer" font-family="Helvetica" font-size="55.9143" font-weight="normal">
                <tspan x="264.7274" y="284.6456">FI</tspan>
            </text>
            <text id="CI" fill="#FFFFFF" sketch:type="MSTextLayer" font-family="Helvetica" font-size="55.9143" font-weight="normal">
                <tspan x="307.0996" y="284.6456">CI</tspan>
            </text>
            <text id="AL" fill="#FFFFFF" sketch:type="MSTextLayer" font-family="Helvetica" font-size="55.9143" font-weight="normal">
                <tspan x="360.291" y="284.6456">AL</tspan>
            </text>
            <text id="SELE" fill="#FFFFFF" sketch:type="MSTextLayer" font-family="Helvetica" font-size="55.9143" font-weight="normal">
                <tspan x="160.2906" y="334.1083">SELE</tspan>
            </text>
            <text id="CT" fill="#FFFFFF" sketch:type="MSTextLayer" font-family="Helvetica" font-size="55.9143" font-weight="normal">
                <tspan x="276.5551" y="334.1083">CT</tspan>
            </text>
            <text id="IO" fill="#FFFFFF" sketch:type="MSTextLayer" font-family="Helvetica" font-size="55.9143" font-weight="normal">
                <tspan x="343.4944" y="334.1083">IO</tspan>
            </text>
            <text id="N" fill="#FFFFFF" sketch:type="MSTextLayer" font-family="Helvetica" font-size="55.9143" font-weight="normal">
                <tspan x="407.8077" y="334.1083">N</tspan>
            </text>
        </g>
    </g>
</svg>