<?xml version="1.0" encoding="utf-8"?>
<!-- Generator: Adobe Illustrator 16.0.0, SVG Export Plug-In . SVG Version: 6.00 Build 0)  -->
<!DOCTYPE svg PUBLIC "-//W3C//DTD SVG 1.1//EN" "http://www.w3.org/Graphics/SVG/1.1/DTD/svg11.dtd">
<svg version="1.1" id="Layer_1" xmlns="http://www.w3.org/2000/svg" xmlns:xlink="http://www.w3.org/1999/xlink" x="0px" y="0px"
	 width="568.954px" height="200px" viewBox="21.522 296.142 568.954 200" enable-background="new 21.522 296.142 568.954 200"
	 xml:space="preserve">
<g>
	<path fill="#898989" d="M143.14,485.118c0,6.299,4.461,10.761,10.761,10.761c6.299,0,10.761-4.462,10.761-10.761
		c0-6.562-4.462-10.763-10.761-10.763C147.601,474.355,143.14,478.556,143.14,485.118L143.14,485.118z M146.814,484.855
		c0-4.2,2.887-7.35,7.086-7.35s7.086,3.149,7.086,7.35c0,4.461-2.887,7.611-7.086,7.611
		C149.701,492.467,146.814,489.316,146.814,484.855L146.814,484.855z M170.436,495.354h3.674v-8.398h8.924v-3.412h-8.924v-5.25
		h9.449v-3.412h-13.123V495.354L170.436,495.354z M188.809,495.354h3.674v-8.398h8.924v-3.412h-8.924v-5.25h9.449v-3.412h-13.123
		V495.354L188.809,495.354z M207.181,495.354h3.674v-20.473h-3.674V495.354L207.181,495.354z M234.215,477.506
		c-2.1-2.362-4.462-3.15-7.087-3.15c-6.299,0-10.761,4.2-10.761,10.763c0,6.299,4.462,10.761,10.761,10.761
		c2.888,0,5.774-1.05,7.612-3.675l-2.887-2.1c-1.312,1.837-2.887,2.362-4.462,2.362c-4.199,0-7.086-3.15-7.086-7.611
		c0-4.2,2.887-7.35,7.086-7.35c1.312,0,2.887,0.524,4.2,2.1L234.215,477.506L234.215,477.506z M238.939,495.354h3.675v-20.473
		h-3.675V495.354L238.939,495.354z M247.076,495.354h4.199l1.837-4.725h8.924l1.837,4.725h4.199l-8.924-20.473H256L247.076,495.354
		L247.076,495.354z M254.163,487.479l3.15-8.399l3.149,8.399H254.163L254.163,487.479z M272.273,495.354h12.336v-3.412h-8.662
		v-17.061h-3.674V495.354L272.273,495.354z M312.693,476.456c-1.575-1.575-3.675-2.101-5.775-2.101c-3.674,0-7.611,1.838-7.611,6.3
		c0,7.35,9.711,4.725,9.711,9.187c0,1.838-1.838,2.887-3.675,2.887c-1.575,0-3.149-0.787-3.937-2.1l-2.625,2.625
		c1.575,2.1,4.2,2.888,6.824,2.888c3.938,0,7.35-2.101,7.35-6.562c0-7.35-9.712-4.986-9.712-8.924c0-1.837,1.575-2.625,3.413-2.625
		c1.312,0,2.888,0.525,3.674,1.575L312.693,476.456L312.693,476.456z M318.467,495.354h14.173v-3.412h-10.498v-5.512h9.449v-3.412
		h-9.449v-4.987h9.974v-3.412h-13.648V495.354L318.467,495.354z M338.152,495.354h12.336v-3.412h-8.661v-17.061h-3.675V495.354
		L338.152,495.354z M355.212,495.354h14.174v-3.412h-10.499v-5.512h9.449v-3.412h-9.449v-4.987h9.975v-3.412h-13.649V495.354
		L355.212,495.354z M391.434,477.506c-2.101-2.362-4.462-3.15-7.088-3.15c-6.299,0-10.761,4.2-10.761,10.763
		c0,6.299,4.462,10.761,10.761,10.761c2.888,0,5.775-1.05,7.611-3.675l-2.887-2.1c-1.312,1.837-2.887,2.362-4.725,2.362
		c-4.198,0-7.086-3.15-7.086-7.611c0-4.2,2.888-7.35,7.086-7.35c1.312,0,2.888,0.524,4.2,2.1L391.434,477.506L391.434,477.506z
		 M401.407,495.354h3.674v-17.061h6.299v-3.412h-16.272v3.412h6.3V495.354L401.407,495.354z M415.58,495.354h3.674v-20.473h-3.674
		V495.354L415.58,495.354z M424.767,485.118c0,6.299,4.461,10.761,10.761,10.761c6.299,0,10.762-4.462,10.762-10.761
		c0-6.562-4.463-10.763-10.762-10.763C429.228,474.355,424.767,478.556,424.767,485.118L424.767,485.118z M428.704,484.855
		c0-4.2,2.887-7.35,7.086-7.35s7.087,3.149,7.087,7.35c0,4.461-2.888,7.611-7.087,7.611
		C431.328,492.467,428.704,489.316,428.704,484.855L428.704,484.855z M452.062,495.354h3.675v-15.748l0,0l10.235,15.748h4.725
		v-20.473h-3.674v15.224l0,0l0,0l0,0l-9.974-15.224h-4.725v20.473H452.062z"/>
	<path fill="#898989" d="M113.743,453.097h7.087v-16.535h17.585v-6.562H120.83V419.5h18.635v-6.299h-25.722V453.097L113.743,453.097
		z M145.239,453.097h7.087v-39.896h-7.087V453.097L145.239,453.097z M160.987,453.097h23.885v-6.3h-16.798v-33.596h-7.087V453.097
		L160.987,453.097z M190.121,453.097h6.825v-33.071l0,0l12.073,33.071h4.986l12.074-33.071l0,0v33.071h6.824v-39.896h-10.761
		l-10.761,27.821l-10.499-27.821h-10.762V453.097L190.121,453.097z M259.149,453.097h7.087v-16.535h17.585v-6.562h-17.585V419.5
		h18.635v-6.299h-25.722V453.097L259.149,453.097z M290.646,453.097h27.297v-6.3h-20.21v-10.761h18.373v-6.3h-18.373v-9.711h19.16
		v-6.299h-26.247V453.097L290.646,453.097z M349.964,416.351c-3.149-2.887-7.35-4.199-11.286-4.199
		c-7.35,0-14.698,3.938-14.698,12.074c0,14.173,18.897,9.186,18.897,17.847c0,3.675-3.675,5.513-7.087,5.513
		c-3.15,0-6.037-1.575-7.874-4.199l-5.249,5.248c3.149,3.938,8.137,5.513,13.123,5.513c7.874,0,14.436-4.199,14.436-12.599
		c0-14.173-18.897-9.711-18.897-17.585c0-3.675,3.149-4.987,6.562-4.987c2.624,0,5.512,1.05,7.087,3.149L349.964,416.351
		L349.964,416.351z M366.236,453.097h7.086v-33.334h12.074v-6.299H353.9v6.299h12.073v33.334H366.236z M390.121,453.097h7.086
		v-39.896h-7.086V453.097L390.121,453.097z M417.418,453.097h6.036l16.011-39.896h-7.611l-11.286,29.922l-10.762-29.922h-8.137
		L417.418,453.097L417.418,453.097z M435.527,453.097h7.874l3.675-9.187h17.322l3.675,9.187h8.137l-17.061-39.896h-6.037
		L435.527,453.097L435.527,453.097z M449.438,437.873l6.299-16.272l6.037,16.272H449.438L449.438,437.873z M480.672,453.097h23.884
		v-6.3h-16.797v-33.596h-7.087V453.097L480.672,453.097z"/>
	<path fill="#898989" d="M88.284,395.091h7.086v-39.895h-7.086V395.091L88.284,395.091z M103.507,395.091h7.086v-30.708l0,0
		l19.685,30.446h8.924v-39.633h-7.087v29.659l0,0l0,0l0,0l-19.16-29.659h-9.449V395.091L103.507,395.091z M155.738,395.091h7.086
		v-33.596h12.073v-6.299h-31.496v6.299h12.074v33.596H155.738z M179.36,395.091h27.296v-6.299h-20.21v-10.761h18.373v-6.3h-18.373
		v-9.711h19.16v-6.299H179.36V395.091L179.36,395.091z M212.956,395.091h7.086v-16.798h5.249l9.187,16.798h8.662l-10.499-17.585
		c5.774-0.788,9.187-4.987,9.187-10.761c0-8.924-7.087-11.286-14.961-11.286h-13.911V395.091L212.956,395.091z M220.042,371.994
		v-10.761h6.037c3.675,0,8.137,0.524,8.137,5.249c0,5.249-4.725,5.512-8.662,5.512H220.042L220.042,371.994z M247.863,395.091h7.087
		v-30.708l0,0l19.685,30.446h8.924v-39.633h-7.086v29.659l0,0l0,0l0,0l-19.16-29.659h-9.449V395.091L247.863,395.091z
		 M288.021,395.091h7.874l3.674-9.187h17.323l3.675,9.187h8.136l-17.061-39.895h-6.037L288.021,395.091L288.021,395.091z
		 M301.932,379.868l6.3-16.273l6.036,16.273H301.932L301.932,379.868z M336.577,395.091h7.087v-33.596h12.073v-6.299h-31.495v6.299
		h12.072v33.596H336.577z M359.937,395.091h7.087v-39.895h-7.087V395.091L359.937,395.091z M373.061,375.144
		c0,12.336,8.661,20.735,20.997,20.735c12.336-0.262,21.26-8.661,21.26-20.997c0-12.861-8.662-20.997-21.26-20.735
		C381.722,354.146,373.061,362.545,373.061,375.144L373.061,375.144z M380.41,374.881c0-7.874,5.511-14.173,13.647-14.173
		s13.648,6.299,13.648,14.173c0,8.399-5.512,14.698-13.648,14.698S380.41,383.28,380.41,374.881L380.41,374.881z M421.354,395.091
		h7.088v-30.708l0,0l19.685,30.446h8.924v-39.633h-7.087v29.659l0,0l0,0l0,0l-19.16-29.659h-9.449V395.091L421.354,395.091z
		 M461.512,395.091h7.874l3.675-9.187h17.322l3.675,9.187h8.137l-17.062-39.895h-6.036L461.512,395.091L461.512,395.091z
		 M475.423,379.868l6.299-16.273l6.037,16.273H475.423L475.423,379.868z M506.131,395.091h23.885v-6.299h-16.798v-33.596h-7.087
		V395.091L506.131,395.091z"/>
	<path fill="#898989" d="M174.373,302.44c-3.937-4.462-8.662-6.299-13.911-6.299c-12.336,0-20.997,8.398-20.997,20.997
		c0,12.336,8.661,20.735,20.997,20.735c5.774,0,11.286-2.1,14.961-7.087l-5.774-4.199c-2.625,3.412-5.774,4.725-8.924,4.725
		c-8.137,0-13.648-6.299-13.648-14.698c0-7.874,5.512-14.173,13.648-14.173c2.625,0,5.512,0.788,8.399,3.937L174.373,302.44
		L174.373,302.44z M180.935,336.824h23.884v-6.299h-16.798v-33.333h-7.086V336.824L180.935,336.824z M210.593,336.824h27.297v-6.299
		h-20.21v-10.761h18.373v-6.562H217.68v-9.711h19.16v-6.299h-26.247V336.824L210.593,336.824z M257.575,336.824h6.037l16.01-39.895
		h-7.612l-11.286,30.184l-10.761-29.921h-8.136L257.575,336.824L257.575,336.824z M285.134,336.824h27.297v-6.299h-20.21v-10.761
		h18.373v-6.562H292.22v-9.711h19.161v-6.299h-26.247V336.824L285.134,336.824z M320.305,336.824h23.884v-6.299h-16.797v-33.333
		h-7.087V336.824L320.305,336.824z M347.863,336.824h7.874l3.675-9.187h17.323l3.675,9.187h8.136l-17.061-39.895h-6.299
		L347.863,336.824L347.863,336.824z M361.774,321.863l6.299-16.273l6.037,16.273H361.774L361.774,321.863z M393.795,336.824h7.087
		v-30.446l0,0l19.686,30.446h8.923v-39.633h-7.086v29.659l0,0l0,0l0,0l-19.161-29.659h-9.448V336.824L393.795,336.824z
		 M439.465,336.824h14.698c9.448,0,20.997-6.299,20.997-19.947c0-13.386-9.711-19.948-20.21-19.948h-15.748v39.895H439.465z
		 M446.551,330.524V303.49h6.562c8.662,0,14.961,3.937,14.961,13.386c0,9.711-7.349,13.385-16.011,13.385h-5.512V330.524z"/>
	<path fill="#898989" d="M75.686,491.68c0,0-59.317-76.116-10.499-175.591c0.525-1.312,0.525-2.362,0.262-4.462
		c0,0-56.43,86.877,8.662,183.464L75.686,491.68L75.686,491.68z"/>
	<path fill="#898989" d="M67.023,466.482c0,0,13.124-3.412,8.137-21.522c0,0-14.96,4.199-10.761,22.047
		C64.399,466.744,65.449,466.744,67.023,466.482L67.023,466.482z"/>
	<path fill="#898989" d="M56.788,472.519c0,0-1.575-18.897-23.097-18.635c0,0,1.05,20.472,18.635,20.734
		C52.326,474.618,55.476,474.618,56.788,472.519L56.788,472.519z"/>
	<path fill="#898989" d="M58.362,443.91c0,0,17.323-4.462,11.024-24.147c0,0-17.585,5.775-13.911,24.41
		C55.476,444.173,56.525,444.173,58.362,443.91L58.362,443.91z"/>
	<path fill="#898989" d="M44.977,442.598c0.788-1.575-0.263-14.173-19.685-19.16c0,0-0.525,21.785,16.536,20.473
		C41.827,443.91,44.452,443.386,44.977,442.598L44.977,442.598z"/>
	<path fill="#898989" d="M53.901,418.188c0,0,13.648-1.312,11.548-22.048c0,0-20.209,5.774-14.698,22.048
		C50.751,418.188,51.801,418.45,53.901,418.188L53.901,418.188z"/>
	<path fill="#898989" d="M39.99,414.775c0,0,1.837-14.436-17.061-24.671c0,0-7.349,17.322,11.549,24.41
		C34.478,414.515,37.627,415.563,39.99,414.775L39.99,414.775z"/>
	<path fill="#898989" d="M37.627,388.004c0,0-18.11-7.611-8.661-25.197c0,0,14.436,7.875,10.499,22.047
		C39.465,384.855,38.678,386.955,37.627,388.004L37.627,388.004z"/>
	<path fill="#898989" d="M48.389,391.417c0,0,16.536,4.199,18.373-18.898c0,0-14.699,0-17.848,16.273L48.389,391.417L48.389,391.417
		z"/>
	<path fill="#898989" d="M43.402,363.07c0.525-0.263,5.512-13.386-6.562-21.522c0,0-8.399,14.698,2.625,20.473
		C39.465,362.283,42.615,363.595,43.402,363.07L43.402,363.07z"/>
	<path fill="#898989" d="M53.638,367.532c0,0,11.811,4.462,14.698-16.536c0,0-12.861,0.263-17.061,15.486
		C51.276,366.482,52.326,367.007,53.638,367.532L53.638,367.532z"/>
	<path fill="#898989" d="M47.339,342.335c0,0,8.399-7.086-2.362-22.31c0,0-12.336,9.186-0.787,20.472
		C43.927,340.498,45.501,341.811,47.339,342.335L47.339,342.335z"/>
	<path fill="#898989" d="M64.399,328.687c0,0.263,8.924,2.362,14.96-8.136c0,0-11.023-5.774-14.436,5.25
		C64.924,325.8,64.399,326.85,64.399,328.687L64.399,328.687z"/>
	<path fill="#898989" d="M67.549,312.677c0,0.263,9.186-1.837,9.711-13.911c0,0-12.599-0.262-10.499,11.024
		C66.762,309.79,66.762,310.839,67.549,312.677L67.549,312.677z"/>
	<path fill="#898989" d="M54.425,305.59c0,0,6.825,6.036,1.575,16.798c0,0-11.023-6.037-3.674-14.961
		C52.326,307.689,52.851,306.902,54.425,305.59L54.425,305.59z"/>
	<path fill="#898989" d="M57.313,344.96c0,0,1.049-9.974,18.11-9.711c0,0-0.525,14.173-14.96,11.286
		C60.725,346.535,58.888,346.01,57.313,344.96L57.313,344.96z"/>
	<path fill="#898989" d="M536.315,491.68c0,0,59.317-76.116,10.498-175.591c-0.525-1.312-0.525-2.362-0.263-4.462
		c0,0,56.431,86.877-8.661,183.464L536.315,491.68L536.315,491.68z"/>
	<path fill="#898989" d="M544.713,466.482c0,0-13.122-3.412-8.137-21.522c0,0,14.962,4.199,10.763,22.047
		C547.602,466.744,546.551,466.744,544.713,466.482L544.713,466.482z"/>
	<path fill="#898989" d="M554.95,472.519c0,0,1.574-18.897,23.097-18.635c0,0-1.05,20.472-18.636,20.734
		C559.674,474.618,556.524,474.618,554.95,472.519L554.95,472.519z"/>
	<path fill="#898989" d="M553.638,443.91c0,0-17.322-4.462-11.023-24.147c0,0,17.585,5.775,13.91,24.41
		C556.524,444.173,555.475,444.173,553.638,443.91L553.638,443.91z"/>
	<path fill="#898989" d="M567.023,442.598c-0.787-1.575,0.262-14.173,19.685-19.16c0,0,0.525,21.785-16.534,20.473
		C570.174,443.91,567.285,443.386,567.023,442.598L567.023,442.598z"/>
	<path fill="#898989" d="M558.1,418.188c0,0-13.648-1.312-11.549-22.048c0,0,20.21,5.774,14.698,22.048
		C561.249,418.188,559.937,418.45,558.1,418.188L558.1,418.188z"/>
	<path fill="#898989" d="M572.01,414.775c0,0-1.836-14.436,17.061-24.671c0,0,7.349,17.322-11.548,24.41
		C577.522,414.515,574.372,415.563,572.01,414.775L572.01,414.775z"/>
	<path fill="#898989" d="M574.11,388.004c0,0,18.11-7.611,8.661-25.197c0,0-14.436,7.875-10.499,22.047
		C572.535,384.855,573.061,386.955,574.11,388.004L574.11,388.004z"/>
	<path fill="#898989" d="M563.349,391.417c0,0-16.535,4.199-18.373-18.898c0,0,14.698,0,17.849,16.273L563.349,391.417
		L563.349,391.417z"/>
	<path fill="#898989" d="M568.336,363.07c-0.525-0.263-5.513-13.386,6.562-21.522c0,0,8.398,14.698-2.625,20.473
		C572.535,362.283,569.386,363.595,568.336,363.07L568.336,363.07z"/>
	<path fill="#898989" d="M558.1,367.532c0,0-11.812,4.462-14.698-16.536c0,0,12.86,0.263,17.061,15.486
		C560.462,366.482,559.674,367.007,558.1,367.532L558.1,367.532z"/>
	<path fill="#898989" d="M564.661,342.335c0,0-8.399-7.086,2.362-22.31c0,0,12.336,9.186,0.787,20.472
		C567.811,340.498,566.498,341.811,564.661,342.335L564.661,342.335z"/>
	<path fill="#898989" d="M547.602,328.687c0,0.263-8.925,2.362-14.961-8.136c0,0,11.023-5.774,14.436,5.25
		C547.076,325.8,547.339,326.85,547.602,328.687L547.602,328.687z"/>
	<path fill="#898989" d="M544.451,312.677c0,0.263-9.187-1.837-9.711-13.911c0,0,12.599-0.262,10.498,11.024
		C545.238,309.79,544.976,310.839,544.451,312.677L544.451,312.677z"/>
	<path fill="#898989" d="M557.574,305.59c0,0-6.823,6.036-1.575,16.798c0,0,11.024-6.037,3.675-14.961
		C559.674,307.689,558.887,306.902,557.574,305.59L557.574,305.59z"/>
	<path fill="#898989" d="M554.425,344.96c0,0-1.05-9.974-18.109-9.711c0,0,0.524,14.173,14.96,11.286
		C551.275,346.535,553.112,346.01,554.425,344.96L554.425,344.96z"/>
</g>
</svg>
