<?xml version="1.0" encoding="UTF-8" standalone="no"?>
<svg width="570px" height="201px" viewBox="0 0 570 201" version="1.1" xmlns="http://www.w3.org/2000/svg" xmlns:xlink="http://www.w3.org/1999/xlink" xmlns:sketch="http://www.bohemiancoding.com/sketch/ns">
    <title>Slice 1</title>
    <description>Created with Sketch (http://www.bohemiancoding.com/sketch)</description>
    <defs></defs>
    <g id="Page-1" stroke="none" stroke-width="1" fill="none" fill-rule="evenodd" sketch:type="MSPage">
        <g id="clevelandLaurel-white" sketch:type="MSLayerGroup" transform="translate(1.000000, 0.000000)" fill="#FFFFFF">
            <g id="Group" sketch:type="MSShapeGroup">
                <path d="M121.14,189.118 C121.14,195.417 125.601,199.879 131.901,199.879 C138.2,199.879 142.662,195.417 142.662,189.118 C142.662,182.556 138.2,178.355 131.901,178.355 C125.601,178.355 121.14,182.556 121.14,189.118 L121.14,189.118 L121.14,189.118 Z M124.814,188.855 C124.814,184.655 127.701,181.505 131.9,181.505 C136.099,181.505 138.986,184.654 138.986,188.855 C138.986,193.316 136.099,196.466 131.9,196.466 C127.701,196.467 124.814,193.316 124.814,188.855 L124.814,188.855 L124.814,188.855 Z M148.436,199.354 L152.11,199.354 L152.11,190.956 L161.034,190.956 L161.034,187.544 L152.11,187.544 L152.11,182.294 L161.559,182.294 L161.559,178.882 L148.436,178.882 L148.436,199.354 L148.436,199.354 L148.436,199.354 Z M166.809,199.354 L170.483,199.354 L170.483,190.956 L179.407,190.956 L179.407,187.544 L170.483,187.544 L170.483,182.294 L179.932,182.294 L179.932,178.882 L166.809,178.882 L166.809,199.354 L166.809,199.354 L166.809,199.354 Z M185.181,199.354 L188.855,199.354 L188.855,178.881 L185.181,178.881 L185.181,199.354 L185.181,199.354 Z M212.215,181.506 C210.115,179.144 207.753,178.356 205.128,178.356 C198.829,178.356 194.367,182.556 194.367,189.119 C194.367,195.418 198.829,199.88 205.128,199.88 C208.016,199.88 210.902,198.83 212.74,196.205 L209.853,194.105 C208.541,195.942 206.966,196.467 205.391,196.467 C201.192,196.467 198.305,193.317 198.305,188.856 C198.305,184.656 201.192,181.506 205.391,181.506 C206.703,181.506 208.278,182.03 209.591,183.606 L212.215,181.506 L212.215,181.506 Z M216.939,199.354 L220.614,199.354 L220.614,178.881 L216.939,178.881 L216.939,199.354 L216.939,199.354 Z M225.076,199.354 L229.275,199.354 L231.112,194.629 L240.036,194.629 L241.873,199.354 L246.072,199.354 L237.148,178.881 L234,178.881 L225.076,199.354 L225.076,199.354 Z M232.163,191.479 L235.313,183.08 L238.462,191.479 L232.163,191.479 L232.163,191.479 Z M250.273,199.354 L262.609,199.354 L262.609,195.942 L253.947,195.942 L253.947,178.881 L250.273,178.881 L250.273,199.354 L250.273,199.354 L250.273,199.354 Z M290.693,180.456 C289.118,178.881 287.018,178.355 284.918,178.355 C281.244,178.355 277.307,180.193 277.307,184.655 C277.307,192.005 287.018,189.38 287.018,193.842 C287.018,195.68 285.18,196.729 283.343,196.729 C281.768,196.729 280.194,195.942 279.406,194.629 L276.781,197.254 C278.356,199.354 280.981,200.142 283.605,200.142 C287.543,200.142 290.955,198.041 290.955,193.58 C290.955,186.23 281.243,188.594 281.243,184.656 C281.243,182.819 282.818,182.031 284.656,182.031 C285.968,182.031 287.544,182.556 288.33,183.606 L290.693,180.456 L290.693,180.456 Z M296.467,199.354 L310.64,199.354 L310.64,195.942 L300.142,195.942 L300.142,190.43 L309.591,190.43 L309.591,187.018 L300.142,187.018 L300.142,182.031 L310.116,182.031 L310.116,178.619 L296.468,178.619 L296.468,199.354 L296.467,199.354 L296.467,199.354 Z M316.152,199.354 L328.488,199.354 L328.488,195.942 L319.827,195.942 L319.827,178.881 L316.152,178.881 L316.152,199.354 L316.152,199.354 Z M333.212,199.354 L347.386,199.354 L347.386,195.942 L336.887,195.942 L336.887,190.43 L346.336,190.43 L346.336,187.018 L336.887,187.018 L336.887,182.031 L346.862,182.031 L346.862,178.619 L333.213,178.619 L333.213,199.354 L333.212,199.354 L333.212,199.354 Z M369.434,181.506 C367.333,179.144 364.972,178.356 362.346,178.356 C356.047,178.356 351.585,182.556 351.585,189.119 C351.585,195.418 356.047,199.88 362.346,199.88 C365.234,199.88 368.121,198.83 369.957,196.205 L367.07,194.105 C365.758,195.942 364.183,196.467 362.345,196.467 C358.147,196.467 355.259,193.317 355.259,188.856 C355.259,184.656 358.147,181.506 362.345,181.506 C363.657,181.506 365.233,182.03 366.545,183.606 L369.434,181.506 L369.434,181.506 Z M379.407,199.354 L383.081,199.354 L383.081,182.293 L389.38,182.293 L389.38,178.881 L373.108,178.881 L373.108,182.293 L379.408,182.293 L379.408,199.354 L379.407,199.354 L379.407,199.354 Z M393.58,199.354 L397.254,199.354 L397.254,178.881 L393.58,178.881 L393.58,199.354 L393.58,199.354 Z M402.767,189.118 C402.767,195.417 407.228,199.879 413.528,199.879 C419.827,199.879 424.29,195.417 424.29,189.118 C424.29,182.556 419.827,178.355 413.528,178.355 C407.228,178.355 402.767,182.556 402.767,189.118 L402.767,189.118 L402.767,189.118 Z M406.704,188.855 C406.704,184.655 409.591,181.505 413.79,181.505 C417.989,181.505 420.877,184.654 420.877,188.855 C420.877,193.316 417.989,196.466 413.79,196.466 C409.328,196.467 406.704,193.316 406.704,188.855 L406.704,188.855 L406.704,188.855 Z M430.062,199.354 L433.737,199.354 L433.737,183.606 L443.972,199.354 L448.697,199.354 L448.697,178.881 L445.023,178.881 L445.023,194.105 L435.049,178.881 L430.324,178.881 L430.324,199.354 L430.062,199.354 L430.062,199.354 Z" id="Shape"></path>
                <path d="M91.743,157.097 L98.83,157.097 L98.83,140.562 L116.415,140.562 L116.415,134 L98.83,134 L98.83,123.5 L117.465,123.5 L117.465,117.201 L91.743,117.201 L91.743,157.097 L91.743,157.097 Z M123.239,157.097 L130.326,157.097 L130.326,117.201 L123.239,117.201 L123.239,157.097 L123.239,157.097 Z M138.987,157.097 L162.872,157.097 L162.872,150.797 L146.074,150.797 L146.074,117.201 L138.987,117.201 L138.987,157.097 L138.987,157.097 Z M168.121,157.097 L174.946,157.097 L174.946,124.026 L187.019,157.097 L192.005,157.097 L204.079,124.026 L204.079,157.097 L210.903,157.097 L210.903,117.201 L200.142,117.201 L189.381,145.022 L178.882,117.201 L168.12,117.201 L168.12,157.097 L168.121,157.097 L168.121,157.097 Z M237.149,157.097 L244.236,157.097 L244.236,140.562 L261.821,140.562 L261.821,134 L244.236,134 L244.236,123.5 L262.871,123.5 L262.871,117.201 L237.149,117.201 L237.149,157.097 L237.149,157.097 Z M268.646,157.097 L295.943,157.097 L295.943,150.797 L275.733,150.797 L275.733,140.036 L294.106,140.036 L294.106,133.736 L275.733,133.736 L275.733,124.025 L294.893,124.025 L294.893,117.726 L268.646,117.726 L268.646,157.097 L268.646,157.097 L268.646,157.097 Z M327.964,120.351 C324.815,117.464 320.614,116.152 316.678,116.152 C309.328,116.152 301.98,120.09 301.98,128.226 C301.98,142.399 320.877,137.412 320.877,146.073 C320.877,149.748 317.202,151.586 313.79,151.586 C310.64,151.586 307.753,150.011 305.916,147.387 L300.667,152.635 C303.816,156.573 308.804,158.148 313.79,158.148 C321.664,158.148 328.226,153.949 328.226,145.549 C328.226,131.376 309.329,135.838 309.329,127.964 C309.329,124.289 312.478,122.977 315.891,122.977 C318.515,122.977 321.403,124.027 322.978,126.126 L327.964,120.351 L327.964,120.351 Z M344.236,157.097 L351.322,157.097 L351.322,123.763 L363.396,123.763 L363.396,117.464 L331.9,117.464 L331.9,123.763 L343.973,123.763 L343.973,157.097 L344.236,157.097 L344.236,157.097 Z M368.121,157.097 L375.207,157.097 L375.207,117.201 L368.121,117.201 L368.121,157.097 L368.121,157.097 Z M395.418,157.097 L401.454,157.097 L417.465,117.201 L409.854,117.201 L398.568,147.123 L387.806,117.201 L379.669,117.201 L395.418,157.097 L395.418,157.097 Z M413.527,157.097 L421.401,157.097 L425.076,147.91 L442.398,147.91 L446.073,157.097 L454.21,157.097 L437.149,117.201 L431.112,117.201 L413.527,157.097 L413.527,157.097 Z M427.438,141.873 L433.737,125.601 L439.774,141.873 L427.438,141.873 L427.438,141.873 Z M458.672,157.097 L482.556,157.097 L482.556,150.797 L465.759,150.797 L465.759,117.201 L458.672,117.201 L458.672,157.097 L458.672,157.097 Z" id="Shape"></path>
                <path d="M66.284,99.091 L73.37,99.091 L73.37,59.196 L66.284,59.196 L66.284,99.091 L66.284,99.091 Z M81.507,99.091 L88.593,99.091 L88.593,68.383 L108.278,98.829 L117.202,98.829 L117.202,59.196 L110.115,59.196 L110.115,88.855 L90.955,59.196 L81.506,59.196 L81.506,99.091 L81.507,99.091 L81.507,99.091 Z M133.738,99.091 L140.824,99.091 L140.824,65.495 L152.897,65.495 L152.897,59.196 L121.401,59.196 L121.401,65.495 L133.475,65.495 L133.475,99.091 L133.738,99.091 L133.738,99.091 Z M157.36,99.091 L184.656,99.091 L184.656,92.792 L164.446,92.792 L164.446,82.031 L182.819,82.031 L182.819,75.731 L164.446,75.731 L164.446,66.02 L183.606,66.02 L183.606,59.721 L157.36,59.721 L157.36,99.091 L157.36,99.091 Z M190.956,99.091 L198.042,99.091 L198.042,82.293 L203.291,82.293 L212.478,99.091 L221.14,99.091 L210.641,81.506 C216.415,80.718 219.828,76.519 219.828,70.745 C219.828,61.821 212.741,59.459 204.867,59.459 L190.956,59.459 L190.956,99.091 L190.956,99.091 L190.956,99.091 Z M198.042,75.994 L198.042,65.233 L204.079,65.233 C207.754,65.233 212.216,65.757 212.216,70.482 C212.216,75.731 207.491,75.994 203.554,75.994 L198.042,75.994 L198.042,75.994 Z M225.863,99.091 L232.95,99.091 L232.95,68.383 L252.635,98.829 L261.559,98.829 L261.559,59.196 L254.473,59.196 L254.473,88.855 L235.313,59.196 L225.864,59.196 L225.864,99.091 L225.863,99.091 L225.863,99.091 Z M266.021,99.091 L273.895,99.091 L277.569,89.904 L294.892,89.904 L298.567,99.091 L306.703,99.091 L289.642,59.196 L283.605,59.196 L266.021,99.091 L266.021,99.091 Z M279.932,83.868 L286.232,67.595 L292.268,83.868 L279.932,83.868 L279.932,83.868 Z M314.577,99.091 L321.664,99.091 L321.664,65.495 L333.737,65.495 L333.737,59.196 L302.242,59.196 L302.242,65.495 L314.314,65.495 L314.314,99.091 L314.577,99.091 L314.577,99.091 Z M337.937,99.091 L345.024,99.091 L345.024,59.196 L337.937,59.196 L337.937,99.091 L337.937,99.091 Z M351.061,79.144 C351.061,91.48 359.722,99.879 372.058,99.879 C384.394,99.617 393.318,91.218 393.318,78.882 C393.318,66.021 384.656,57.885 372.058,58.147 C359.722,58.146 351.061,66.545 351.061,79.144 L351.061,79.144 L351.061,79.144 Z M358.41,78.881 C358.41,71.007 363.921,64.708 372.057,64.708 C380.193,64.708 385.705,71.007 385.705,78.881 C385.705,87.28 380.193,93.579 372.057,93.579 C363.921,93.579 358.41,87.28 358.41,78.881 L358.41,78.881 L358.41,78.881 Z M399.354,99.091 L406.442,99.091 L406.442,68.383 L426.127,98.829 L435.051,98.829 L435.051,59.196 L427.964,59.196 L427.964,88.855 L408.804,59.196 L399.355,59.196 L399.355,99.091 L399.354,99.091 L399.354,99.091 Z M439.512,99.091 L447.386,99.091 L451.061,89.904 L468.383,89.904 L472.058,99.091 L480.195,99.091 L463.133,59.196 L457.097,59.196 L439.512,99.091 L439.512,99.091 Z M453.423,83.868 L459.722,67.595 L465.759,83.868 L453.423,83.868 L453.423,83.868 Z M484.131,99.091 L508.016,99.091 L508.016,92.792 L491.218,92.792 L491.218,59.196 L484.131,59.196 L484.131,99.091 L484.131,99.091 Z" id="Shape"></path>
                <path d="M152.373,6.44 C148.436,1.978 143.711,0.141 138.462,0.141 C126.126,0.141 117.465,8.539 117.465,21.138 C117.465,33.474 126.126,41.873 138.462,41.873 C144.236,41.873 149.748,39.773 153.423,34.786 L147.649,30.587 C145.024,33.999 141.875,35.312 138.725,35.312 C130.588,35.312 125.077,29.013 125.077,20.614 C125.077,12.74 130.589,6.441 138.725,6.441 C141.35,6.441 144.237,7.229 147.124,10.378 L152.373,6.44 L152.373,6.44 Z M158.935,40.824 L182.819,40.824 L182.819,34.525 L166.021,34.525 L166.021,1.192 L158.935,1.192 L158.935,40.824 L158.935,40.824 Z M188.593,40.824 L215.89,40.824 L215.89,34.525 L195.68,34.525 L195.68,23.764 L214.053,23.764 L214.053,17.202 L195.68,17.202 L195.68,7.491 L214.84,7.491 L214.84,1.192 L188.593,1.192 L188.593,40.824 L188.593,40.824 L188.593,40.824 Z M235.575,40.824 L241.612,40.824 L257.622,0.929 L250.01,0.929 L238.724,31.113 L227.963,1.192 L219.827,1.192 L235.575,40.824 L235.575,40.824 Z M263.134,40.824 L290.431,40.824 L290.431,34.525 L270.221,34.525 L270.221,23.764 L288.594,23.764 L288.594,17.202 L270.22,17.202 L270.22,7.491 L289.381,7.491 L289.381,1.192 L263.134,1.192 L263.134,40.824 L263.134,40.824 Z M298.305,40.824 L322.189,40.824 L322.189,34.525 L305.392,34.525 L305.392,1.192 L298.305,1.192 L298.305,40.824 L298.305,40.824 Z M325.863,40.824 L333.737,40.824 L337.412,31.637 L354.735,31.637 L358.41,40.824 L366.546,40.824 L349.485,0.929 L343.186,0.929 L325.863,40.824 L325.863,40.824 Z M339.774,25.863 L346.073,9.59 L352.11,25.863 L339.774,25.863 L339.774,25.863 Z M371.795,40.824 L378.882,40.824 L378.882,10.378 L398.568,40.824 L407.491,40.824 L407.491,1.191 L400.405,1.191 L400.405,30.85 L381.244,1.191 L371.796,1.191 L371.796,40.824 L371.795,40.824 L371.795,40.824 Z M417.465,40.824 L432.163,40.824 C441.611,40.824 453.16,34.525 453.16,20.877 C453.16,7.491 443.449,0.929 432.95,0.929 L417.202,0.929 L417.202,40.824 L417.465,40.824 L417.465,40.824 Z M424.551,34.524 L424.551,7.49 L431.113,7.49 C439.775,7.49 446.074,11.427 446.074,20.876 C446.074,30.587 438.725,34.261 430.063,34.261 L424.551,34.261 L424.551,34.524 L424.551,34.524 Z" id="Shape"></path>
                <path d="M53.686,195.68 C53.686,195.68 -5.631,119.564 43.187,20.089 C43.712,18.777 43.712,17.727 43.449,15.627 C43.449,15.627 -12.981,102.504 52.111,199.091 L53.686,195.68 L53.686,195.68 Z" id="Shape"></path>
                <path d="M45.023,170.482 C45.023,170.482 58.147,167.07 53.16,148.96 C53.16,148.96 38.2,153.159 42.399,171.007 C42.399,170.744 43.449,170.744 45.023,170.482 L45.023,170.482 L45.023,170.482 Z" id="Shape"></path>
                <path d="M34.788,176.519 C34.788,176.519 33.213,157.622 11.691,157.884 C11.691,157.884 12.741,178.356 30.326,178.618 C30.326,178.618 33.476,178.618 34.788,176.519 L34.788,176.519 L34.788,176.519 Z" id="Shape"></path>
                <path d="M36.362,147.91 C36.362,147.91 53.685,143.448 47.386,123.763 C47.386,123.763 29.801,129.538 33.475,148.173 C33.476,148.173 34.525,148.173 36.362,147.91 L36.362,147.91 L36.362,147.91 Z" id="Shape"></path>
                <path d="M22.977,146.598 C23.765,145.023 22.714,132.425 3.292,127.438 C3.292,127.438 2.767,149.223 19.828,147.911 C19.827,147.91 22.452,147.386 22.977,146.598 L22.977,146.598 L22.977,146.598 Z" id="Shape"></path>
                <path d="M31.901,122.188 C31.901,122.188 45.549,120.876 43.449,100.14 C43.449,100.14 23.24,105.914 28.751,122.188 C28.751,122.188 29.801,122.45 31.901,122.188 L31.901,122.188 L31.901,122.188 Z" id="Shape"></path>
                <path d="M17.99,118.775 C17.99,118.775 19.827,104.339 0.929,94.104 C0.929,94.104 -6.42,111.426 12.478,118.514 C12.478,118.515 15.627,119.563 17.99,118.775 L17.99,118.775 L17.99,118.775 Z" id="Shape"></path>
                <path d="M15.627,92.004 C15.627,92.004 -2.483,84.393 6.966,66.807 C6.966,66.807 21.402,74.682 17.465,88.854 C17.465,88.855 16.678,90.955 15.627,92.004 L15.627,92.004 L15.627,92.004 Z" id="Shape"></path>
                <path d="M26.389,95.417 C26.389,95.417 42.925,99.616 44.762,76.519 C44.762,76.519 30.063,76.519 26.914,92.792 L26.389,95.417 L26.389,95.417 Z" id="Shape"></path>
                <path d="M21.402,67.07 C21.927,66.807 26.914,53.684 14.84,45.548 C14.84,45.548 6.441,60.246 17.465,66.021 C17.465,66.283 20.615,67.595 21.402,67.07 L21.402,67.07 L21.402,67.07 Z" id="Shape"></path>
                <path d="M31.638,71.532 C31.638,71.532 43.449,75.994 46.336,54.996 C46.336,54.996 33.475,55.259 29.275,70.482 C29.276,70.482 30.326,71.007 31.638,71.532 L31.638,71.532 L31.638,71.532 Z" id="Shape"></path>
                <path d="M25.339,46.335 C25.339,46.335 33.738,39.249 22.977,24.025 C22.977,24.025 10.641,33.211 22.19,44.497 C21.927,44.498 23.501,45.811 25.339,46.335 L25.339,46.335 L25.339,46.335 Z" id="Shape"></path>
                <path d="M42.399,32.687 C42.399,32.95 51.323,35.049 57.359,24.551 C57.359,24.551 46.336,18.777 42.923,29.801 C42.924,29.8 42.399,30.85 42.399,32.687 L42.399,32.687 L42.399,32.687 Z" id="Shape"></path>
                <path d="M45.549,16.677 C45.549,16.94 54.735,14.84 55.26,2.766 C55.26,2.766 42.661,2.504 44.761,13.79 C44.762,13.79 44.762,14.839 45.549,16.677 L45.549,16.677 L45.549,16.677 Z" id="Shape"></path>
                <path d="M32.425,9.59 C32.425,9.59 39.25,15.626 34,26.388 C34,26.388 22.977,20.351 30.326,11.427 C30.326,11.689 30.851,10.902 32.425,9.59 L32.425,9.59 L32.425,9.59 Z" id="Shape"></path>
                <path d="M35.313,48.96 C35.313,48.96 36.362,38.986 53.423,39.249 C53.423,39.249 52.898,53.422 38.463,50.535 C38.725,50.535 36.888,50.01 35.313,48.96 L35.313,48.96 L35.313,48.96 Z" id="Shape"></path>
                <path d="M514.315,195.68 C514.315,195.68 573.632,119.564 524.813,20.089 C524.288,18.777 524.288,17.727 524.55,15.627 C524.55,15.627 580.981,102.504 515.889,199.091 L514.315,195.68 L514.315,195.68 Z" id="Shape"></path>
                <path d="M522.713,170.482 C522.713,170.482 509.591,167.07 514.576,148.96 C514.576,148.96 529.538,153.159 525.339,171.007 C525.602,170.744 524.551,170.744 522.713,170.482 L522.713,170.482 L522.713,170.482 Z" id="Shape"></path>
                <path d="M532.95,176.519 C532.95,176.519 534.524,157.622 556.047,157.884 C556.047,157.884 554.997,178.356 537.411,178.618 C537.674,178.618 534.524,178.618 532.95,176.519 L532.95,176.519 L532.95,176.519 Z" id="Shape"></path>
                <path d="M531.638,147.91 C531.638,147.91 514.316,143.448 520.615,123.763 C520.615,123.763 538.2,129.538 534.525,148.173 C534.524,148.173 533.475,148.173 531.638,147.91 L531.638,147.91 L531.638,147.91 Z" id="Shape"></path>
                <path d="M545.023,146.598 C544.236,145.023 545.285,132.425 564.708,127.438 C564.708,127.438 565.233,149.223 548.174,147.911 C548.174,147.91 545.285,147.386 545.023,146.598 L545.023,146.598 L545.023,146.598 Z" id="Shape"></path>
                <path d="M536.1,122.188 C536.1,122.188 522.452,120.876 524.551,100.14 C524.551,100.14 544.761,105.914 539.249,122.188 C539.249,122.188 537.937,122.45 536.1,122.188 L536.1,122.188 L536.1,122.188 Z" id="Shape"></path>
                <path d="M550.01,118.775 C550.01,118.775 548.174,104.339 567.071,94.104 C567.071,94.104 574.42,111.426 555.523,118.514 C555.522,118.515 552.372,119.563 550.01,118.775 L550.01,118.775 L550.01,118.775 Z" id="Shape"></path>
                <path d="M552.11,92.004 C552.11,92.004 570.22,84.393 560.771,66.807 C560.771,66.807 546.335,74.682 550.272,88.854 C550.535,88.855 551.061,90.955 552.11,92.004 L552.11,92.004 L552.11,92.004 Z" id="Shape"></path>
                <path d="M541.349,95.417 C541.349,95.417 524.814,99.616 522.976,76.519 C522.976,76.519 537.674,76.519 540.825,92.792 L541.349,95.417 L541.349,95.417 Z" id="Shape"></path>
                <path d="M546.336,67.07 C545.811,66.807 540.823,53.684 552.898,45.548 C552.898,45.548 561.296,60.246 550.273,66.021 C550.535,66.283 547.386,67.595 546.336,67.07 L546.336,67.07 L546.336,67.07 Z" id="Shape"></path>
                <path d="M536.1,71.532 C536.1,71.532 524.288,75.994 521.402,54.996 C521.402,54.996 534.262,55.259 538.463,70.482 C538.462,70.482 537.674,71.007 536.1,71.532 L536.1,71.532 L536.1,71.532 Z" id="Shape"></path>
                <path d="M542.661,46.335 C542.661,46.335 534.262,39.249 545.023,24.025 C545.023,24.025 557.359,33.211 545.81,44.497 C545.811,44.498 544.498,45.811 542.661,46.335 L542.661,46.335 L542.661,46.335 Z" id="Shape"></path>
                <path d="M525.602,32.687 C525.602,32.95 516.677,35.049 510.641,24.551 C510.641,24.551 521.664,18.777 525.077,29.801 C525.076,29.8 525.339,30.85 525.602,32.687 L525.602,32.687 L525.602,32.687 Z" id="Shape"></path>
                <path d="M522.451,16.677 C522.451,16.94 513.264,14.84 512.74,2.766 C512.74,2.766 525.339,2.504 523.238,13.79 C523.238,13.79 522.976,14.839 522.451,16.677 L522.451,16.677 L522.451,16.677 Z" id="Shape"></path>
                <path d="M535.574,9.59 C535.574,9.59 528.751,15.626 533.999,26.388 C533.999,26.388 545.023,20.351 537.674,11.427 C537.674,11.689 536.887,10.902 535.574,9.59 L535.574,9.59 L535.574,9.59 Z" id="Shape"></path>
                <path d="M532.425,48.96 C532.425,48.96 531.375,38.986 514.316,39.249 C514.316,39.249 514.84,53.422 529.276,50.535 C529.275,50.535 531.112,50.01 532.425,48.96 L532.425,48.96 L532.425,48.96 Z" id="Shape"></path>
            </g>
        </g>
    </g>
</svg>