<?xml version="1.0" encoding="utf-8"?>
<!-- Generator: Adobe Illustrator 18.1.1, SVG Export Plug-In . SVG Version: 6.00 Build 0)  -->
<!DOCTYPE svg PUBLIC "-//W3C//DTD SVG 1.1//EN" "http://www.w3.org/Graphics/SVG/1.1/DTD/svg11.dtd">
<svg version="1.1" id="Layer_1" xmlns="http://www.w3.org/2000/svg" xmlns:xlink="http://www.w3.org/1999/xlink" x="0px" y="0px"
	 viewBox="0.2 223.9 611.8 344.6" enable-background="new 0.2 223.9 611.8 344.6" xml:space="preserve">
<path display="none" fill="#6E6F72" d="M391.7,279.4l-3.7,11.2l9.5-7l9.5,7l-3.7-11.2l9.7-7h-12l-3.7-11.2l-3.7,11.2h-11.9
	L391.7,279.4z"/>
<path display="none" fill="#6E6F72" d="M208.6,279.4l-3.7,11.2l9.5-7l9.5,7l-3.7-11.2l9.7-7H218l-3.7-11.2l-3.7,11.2h-11.9
	L208.6,279.4z"/>
<g>
	<path fill="#FFFFFF" d="M507.5,552.9c-2.9,0.3-5.4,1.2-8.2,1.9c1.7-1.2,7-4.9,7-4.9c9.2-6.3,12.4-20.4,20.2-27.9
		c-0.5,0.2-10.9,2.9-17,7.8c-2.5,2-4.9,4.9-7,7.5c-4.2,4.9-6.6,12.8-10.7,17.7c-4.4,5.1-8.2,7.1-8.2,7.1s6,0.2,9.4,1.4
		c6,2,11.7,4.4,16.7,4.9c6.5,0.5,13.1-0.2,19-2.9c12.6-5.4,21.6-18.4,21.6-18.4s-8.5,3.7-14.1,4.1c-4.8,0.3-9,0-15.6,0.3
		C515.8,551.5,512.5,552.2,507.5,552.9z M580.5,308.1c1-6.5,0.9-13.1-1.4-19.2c-4.6-12.9-16.7-22.8-16.7-22.8s3.1,8.7,3.1,14.3
		c0,4.8-0.7,9-0.8,15.6c0,4.9,0.3,8.3,0.7,13.3c0.2,2.9,0.7,5.6,1.2,8.3c-1-1.9-4.4-7.3-4.4-7.3c-5.6-9.5-19.4-13.9-26.4-22.3
		c0,0.5,2,11,6.5,17.7c1.9,2.6,4.6,5.3,6.8,7.5c4.6,4.6,12.2,7.5,16.8,12.1c4.8,4.8,6.6,8.7,6.6,8.7s0.7-5.9,2-9.2
		C577,318.7,579.7,313,580.5,308.1z M550.6,285c1-6.3,2.4-12.4,1.9-17.3c-0.7-6.5-2.5-12.8-6.1-18.4c-7.7-11.4-21.8-18-21.8-18
		s5.1,7.7,6.5,13.1c1.2,4.6,1.5,8.8,3.1,15.3c1.2,4.9,2.4,8,3.9,12.8c0.8,2.7,2,5.3,3.2,7.6c-1.5-1.5-6.1-5.9-6.1-5.9
		c-7.8-8-22.3-8.7-31.1-15.1c0.2,0.5,4.8,10.2,10.7,15.5c2.4,2,5.8,4.1,8.5,5.6c5.6,3.2,13.8,4.2,19.2,7.5c5.8,3.4,8.5,6.8,8.5,6.8
		S550,288.6,550.6,285z M525.6,253.2c-1.7-5.6-2.7-7.8-2.7-7.8c-4.9-13.1-18.4-15.3-18.4-15.3c-2.4-0.7-6.6-1.7-9.2-2.7
		c-4.4-1.7-7.1-3.4-7.1-3.4c1.5,7.6,4.4,13.8,8.8,18.4c6.6,7.1,15.6,10.7,15.6,10.7c11.6,4.2,15.6,11.2,15.6,11.2
		C527.5,261.5,526.7,256.4,525.6,253.2z M611.2,385.6c2.2-13.6-3.7-28-3.7-28s-1.5,9-4.2,13.9c-2.2,4.1-4.9,7.7-8.2,13.3
		c-2.4,4.4-3.7,7.5-5.8,12.1c-1.2,2.5-2,5.3-2.9,7.8c0-2-0.3-8.5-0.3-8.5c-0.3-11.1-10.4-21.4-12.4-32.1c-0.2,0.5-3.6,10.7-2.7,18.5
		c0.3,3.1,1.5,6.8,2.4,9.9c1.9,6.1,7.1,12.4,9,18.5c1.9,6.5,1.7,10.7,1.7,10.7s3.4-4.9,6.3-7.1c5.1-3.9,10-7.5,13.1-11.4
		C607.1,398,610,392.1,611.2,385.6z M597.7,354.2c2.5-5.9,3.9-12.4,3.4-19c-1.2-13.6-10.5-26.2-10.5-26.2s0.8,9.2-0.5,14.6
		c-1.2,4.6-2.9,8.5-4.6,15c-1.4,4.8-1.7,8.2-2.7,13.1c-0.5,2.7-0.7,5.6-0.9,8.3c-0.5-2-2.5-8.2-2.5-8.2
		c-3.1-10.7-15.5-18.2-20.1-28.1c0,0.5-0.7,11.2,2,18.7c1,2.9,3.1,6.3,4.8,9c3.4,5.4,10,10.4,13.3,15.8c3.4,5.8,4.2,10,4.2,10
		s2-5.6,4.2-8.3C591.8,363.5,595.9,358.8,597.7,354.2z M608.3,436.8c5.4-12.6,3.4-28.1,3.4-28.1s-3.7,8.5-7.5,12.6
		c-3.2,3.4-6.6,6.1-11.2,10.9c-3.4,3.6-5.4,6.3-8.7,10.2c-1.9,2.2-3.2,4.6-4.8,6.8c0.5-2,1.7-8.3,1.7-8.3
		c2.4-10.9-4.8-23.5-4.1-34.3c-0.3,0.5-6.1,9.5-7.1,17.3c-0.5,3.1-0.2,7,0,10.2c0.3,6.5,3.9,13.9,4.1,20.2c0.3,6.6-1,10.7-1,10.7
		s4.4-3.9,7.8-5.3c5.8-2.5,11.6-4.8,15.6-7.8C601.3,447.9,605.7,442.9,608.3,436.8z M548.1,536.9c6.5-1,12.6-3.4,17.8-7.5
		c10.9-8.5,16.3-23.1,16.3-23.1s-7.3,5.6-12.6,7.5c-4.4,1.5-8.8,2.2-15,4.2c-4.8,1.5-7.8,2.9-12.4,4.8c-2.7,1-5.1,2.4-7.5,3.7
		c1.4-1.5,5.6-6.5,5.6-6.5c7.3-8.3,7-22.8,12.8-32.1c-0.5,0.3-9.9,5.4-14.6,11.7c-1.9,2.5-3.6,6-4.9,8.8c-2.9,5.8-3.2,13.9-6.1,19.7
		c-3.1,6-6.1,9-6.1,9s5.8-1.4,9.4-1C537,536.9,543.2,537.8,548.1,536.9z M577.5,497.5c6-2.7,11.4-6.5,15.5-11.6
		c8.3-10.9,10.2-26.4,10.2-26.4s-5.6,7.3-10.4,10.4c-3.9,2.5-8,4.2-13.6,7.8c-4.2,2.7-6.8,4.8-10.9,7.6c-2.2,1.7-4.2,3.6-6.3,5.4
		c1-1.9,3.7-7.6,3.7-7.6c5.1-9.9,1.2-23.8,4.4-34.2c-0.3,0.3-8.2,7.8-11.2,15c-1.2,2.9-2,6.8-2.5,9.9c-1.2,6.3,0.3,14.5-1,20.6
		c-1.4,6.6-3.7,10.2-3.7,10.2s5.3-2.7,8.8-3.2C566.8,500.2,572.9,499.5,577.5,497.5z"/>
</g>
<g>
	<path fill="#FFFFFF" d="M91.3,551.2c-6.6-0.3-10.9,0-15.6-0.3c-5.6-0.3-14.1-4.1-14.1-4.1s9,12.8,21.6,18.4
		c6.1,2.7,12.6,3.4,19,2.9c4.9-0.3,10.7-2.7,16.7-4.9c3.4-1.2,9.3-1.4,9.3-1.4s-3.7-2-8.2-7.1c-4.1-4.9-6.6-12.6-10.7-17.7
		c-2-2.4-4.6-5.4-7-7.5c-6.1-4.9-16.5-7.7-17-7.8c7.8,7.5,11.1,21.6,20.2,27.9c0,0,5.3,3.7,7,4.9c-2.7-0.7-5.3-1.4-8.2-1.9
		C99.5,552.2,96.2,551.5,91.3,551.2z M37.6,324.4c1.5,3.4,2,9.2,2,9.2s1.9-3.9,6.6-8.7c4.6-4.4,12.1-7.5,16.8-12.1
		c2.2-2.2,5.1-4.9,6.8-7.5c4.4-6.5,6.5-17,6.5-17.7c-7,8.3-20.7,12.8-26.4,22.3c0,0-3.4,5.4-4.4,7.3c0.5-2.7,1-5.4,1.2-8.3
		c0.3-4.9,0.7-8.3,0.7-13.3c-0.2-6.6-0.8-10.9-0.8-15.6c0-5.6,3.1-14.3,3.1-14.3s-12.1,9.9-16.7,22.8c-2.2,6.3-2.4,12.8-1.4,19.2
		C32.3,313,35,318.7,37.6,324.4z M61.2,294.5c0,0,2.7-3.4,8.5-6.8c5.4-3.2,13.6-4.2,19.2-7.5c2.7-1.5,6.1-3.6,8.5-5.6
		c5.9-5.1,10.4-15,10.7-15.5c-8.8,6.5-23.3,7.1-31.1,15.1c0,0-4.6,4.6-6.1,6c1.2-2.6,2.4-5.1,3.2-7.6c1.5-4.8,2.7-7.8,3.9-12.8
		c1.5-6.3,1.9-10.7,3.1-15.3c1.4-5.4,6.5-13.1,6.5-13.1s-14.1,6.6-21.8,18c-3.7,5.4-5.4,11.7-6.1,18.4c-0.5,4.9,0.8,11,1.9,17.3
		C62.1,288.6,61.2,294.5,61.2,294.5z M83.5,264.2c0,0,4.1-7.1,15.6-11.2c0,0,9-3.6,15.6-10.7c4.4-4.6,7.3-10.7,8.8-18.4
		c0,0-2.7,1.7-7.1,3.4c-2.6,1-6.8,2-9.2,2.7c0,0-13.4,2.2-18.4,15.3c0,0-1.2,2.4-2.7,7.8C85.3,256.4,84.5,261.5,83.5,264.2z
		 M8.8,403.1c3.1,3.9,8.2,7.5,13.1,11.4c2.9,2.2,6.3,7.1,6.3,7.1s-0.3-4.2,1.7-10.7c1.9-6.1,7.1-12.4,9-18.5c1-3.1,2-6.8,2.4-9.9
		c0.9-7.8-2.5-18-2.7-18.5c-2,10.7-12.1,21.1-12.4,32.1c0,0-0.3,6.5-0.3,8.5c-0.9-2.5-1.7-5.3-2.9-7.8c-2-4.6-3.4-7.7-5.8-12.1
		c-3.2-5.8-6-9.2-8.2-13.3c-2.7-4.9-4.2-13.9-4.2-13.9s-6,14.5-3.8,28.1C2,392.1,4.9,398,8.8,403.1z M24.1,368.6
		c2.2,2.9,4.2,8.3,4.2,8.3s0.9-4.2,4.3-10c3.2-5.4,9.9-10.2,13.3-15.8c1.7-2.7,3.7-5.9,4.8-9c2.7-7.3,2-18.2,2-18.7
		c-4.6,9.9-17,17.3-20.1,28c0,0-1.9,6.1-2.6,8.2c-0.2-2.7-0.3-5.6-0.9-8.3c-1-4.9-1.4-8.2-2.7-13.1c-1.7-6.3-3.4-10.4-4.6-15
		c-1.4-5.4-0.5-14.6-0.5-14.6s-9.2,12.6-10.5,26.2c-0.5,6.6,0.9,13.1,3.4,19C16.1,358.8,20.2,363.5,24.1,368.6z M15.8,451.9
		c3.9,3.1,9.7,5.3,15.6,7.8c3.4,1.5,7.8,5.3,7.8,5.3s-1.4-4.1-1-10.7c0.3-6.3,3.7-13.8,4.1-20.2c0.2-3.2,0.3-7,0-10.2
		c-1.2-7.8-6.8-16.8-7.1-17.3c0.7,10.9-6.6,23.5-4.1,34.3c0,0,1.4,6.3,1.7,8.3c-1.5-2.4-2.9-4.8-4.8-6.8c-3.2-3.9-5.1-6.6-8.7-10.2
		c-4.6-4.8-8-7.5-11.2-10.9c-3.7-4.1-7.5-12.6-7.5-12.6s-2,15.5,3.4,28C6.3,442.9,10.7,447.9,15.8,451.9z M81.4,536.4
		c3.6-0.3,9.3,1,9.3,1s-3.1-2.9-6.1-9c-2.9-5.8-3.2-13.9-6.1-19.7c-1.4-2.9-3.1-6.3-4.9-8.8c-4.8-6.3-14.1-11.6-14.6-11.7
		c5.8,9.2,5.4,23.6,12.8,32.1c0,0,4.2,4.9,5.6,6.5c-2.4-1.4-4.8-2.7-7.5-3.7c-4.6-1.9-7.6-3.2-12.4-4.8c-6.3-2-10.5-2.7-15-4.2
		c-5.3-1.7-12.6-7.5-12.6-7.5s5.6,14.6,16.3,23.1c5.3,4.1,11.4,6.5,17.9,7.5C68.8,537.8,75,536.9,81.4,536.4z M51.5,501.2
		c3.6,0.5,8.8,3.2,8.8,3.2s-2.2-3.6-3.7-10.2c-1.4-6.3,0.3-14.3-1-20.6c-0.7-3.1-1.4-7-2.6-9.9c-3.1-7.3-10.9-14.6-11.2-15
		c3.2,10.4-0.5,24.3,4.4,34.2c0,0,2.9,5.8,3.7,7.6c-2-1.9-4.1-3.7-6.3-5.4c-4.1-2.9-6.6-5.1-10.9-7.6c-5.6-3.4-9.5-5.3-13.6-7.8
		c-4.8-3.1-10.4-10.4-10.4-10.4s1.7,15.5,10.2,26.4c4.1,5.3,9.4,9,15.5,11.6C39.1,499.5,45.2,500.2,51.5,501.2z"/>
</g>
<g>
	<g>
		<path fill="#FFFFFF" d="M279.8,289.1h11.7c11.7,0,20.1,7.8,20.1,19s-8.3,19-20.1,19h-11.7V289.1z M291,320.4
			c8.5,0,12.2-5.1,12.2-12.1c0-7.1-3.9-12.1-12.2-12.1h-3.4v24.3L291,320.4L291,320.4z"/>
		<path fill="#FFFFFF" d="M328.6,288.7h0.7l17.5,38.4h-8.2l-1.9-4.2h-15.5l-1.9,4.2H312L328.6,288.7z M333.9,316.3l-2.7-6.6
			c-1.2-2.7-2.4-6.8-2.4-6.8s-1.2,4.1-2.2,6.8l-2.7,6.6H333.9z"/>
		<path fill="#FFFFFF" d="M351.9,289.1h7.8v31.1h17.2v6.8h-25V289.1z"/>
		<path fill="#FFFFFF" d="M383.4,289.1h7.8v31.1h17.2v6.8h-25V289.1L383.4,289.1z"/>
		<path fill="#FFFFFF" d="M428.6,288.7h0.7l17.3,38.4h-8.2l-1.9-4.2H421l-1.9,4.2h-7.5L428.6,288.7z M433.8,316.3l-2.7-6.6
			c-1.2-2.7-2.2-6.8-2.2-6.8s-1.2,4.1-2.2,6.8l-2.7,6.6H433.8z"/>
		<path fill="#FFFFFF" d="M448.3,319.7l6.5-3.7c1.7,2.7,3.9,4.8,7.7,4.8c3.2,0,5.3-1.7,5.3-3.9c0-2.7-2.2-3.6-5.8-5.3l-2-0.9
			c-5.6-2.4-9.4-5.4-9.4-11.7c0-5.9,4.4-10.4,11.4-10.4c4.9,0,8.5,1.7,11,6.3l-6.1,3.9c-1.4-2.4-2.7-3.4-5.1-3.4s-3.7,1.5-3.7,3.4
			c0,2.4,1.5,3.2,4.8,4.8l2,0.8c6.6,2.9,10.4,5.8,10.4,12.2c0,7-5.6,10.9-12.9,10.9C455.3,327.7,450.5,324.3,448.3,319.7z"/>
		<g>
			<path fill="#FFFFFF" d="M136.5,326.5l15.6-16.3c4.1-4.2,5.3-6.8,5.3-9.3c0-2.7-1.7-4.9-5.1-4.9c-3.4,0-5.6,2.6-6.8,6.3l-7.8-1.5
				c1.5-6.8,6.6-11.9,14.8-11.9c8,0,13.1,5.1,13.1,12.1c0,4.2-2,8-6.5,12.6l-4.8,4.9c-1,1-2.7,2.2-2.7,2.2s1.7-0.2,3.1-0.2h10.4v6.8
				h-28.6V326.5z"/>
			<path fill="#FFFFFF" d="M170,308.1c0-11.4,8.5-19.6,18.5-19.6s18.5,8,18.5,19.6c0,11.4-8.5,19.5-18.5,19.5
				C178.5,327.7,170,319.7,170,308.1z M198.9,308.1c0-7.5-4.2-12.4-10.4-12.4c-6.1,0-10.4,4.9-10.4,12.4s4.2,12.4,10.4,12.4
				S198.9,315.6,198.9,308.1z"/>
			<path fill="#FFFFFF" d="M216.8,296.2H210v-7h14.8v38.1H217v-31.1H216.8z"/>
			<path fill="#FFFFFF" d="M229.7,319.2l6.6-3.4c1.4,2.4,3.4,4.9,8.3,4.9c4.1,0,6.6-2.7,6.6-6.5c0-4.1-3.1-6.3-7.8-6.3
				c-4.6,0-7.3,1.7-9.5,3.4l-0.7-0.3v-21.9h22.6v6.8H240v6.3c1.4-0.7,2.9-0.9,4.9-0.9c8.7,0,14.4,5.3,14.4,12.8
				c0,8.7-6.1,13.6-14.8,13.6C237.3,327.7,232.1,323.9,229.7,319.2z"/>
		</g>
	</g>
	<path fill="#FFFFFF" d="M93.3,350.6h7.8v38.2h-7.8V350.6z"/>
	<path fill="#FFFFFF" d="M120.7,371c-1.9-1.9-4.6-5.3-4.6-5.3s0.5,4.2,0.5,7v16.1h-7.3v-38.6h0.9l19.4,18.2c1.9,1.7,4.6,5.3,4.6,5.3
		s-0.5-4.4-0.5-7v-16h7.3v38.6h-0.9L120.7,371z"/>
	<path fill="#FFFFFF" d="M157.6,357.6h-10.9v-7h29.8v7h-10.9v31.3h-7.8v-31.3H157.6z"/>
	<path fill="#FFFFFF" d="M182.2,350.6h25.3v7H190v12.2h15.3v6.8H190v5.4h18.2v6.8H182v-38.2L182.2,350.6L182.2,350.6z"/>
	<path fill="#FFFFFF" d="M244,388.9h-9.2l-6.3-9.7c-0.7,0.2-1.5,0.2-2.2,0.2h-2.7v9.5h-7.8v-38.2h10.5c10.7,0,17.2,5.1,17.2,14.4
		c0,6-2.7,9.7-7.3,11.9L244,388.9z M226.1,372.5c6.5,0,9.2-2,9.2-7.5c0-5.4-2.9-7.5-9.2-7.5h-2.6v15H226.1z"/>
	<path fill="#FFFFFF" d="M261.6,371c-1.9-1.9-4.6-5.3-4.6-5.3s0.5,4.2,0.5,7v16.1h-7.3v-38.6h0.8l19.4,18.2c1.9,1.7,4.6,5.3,4.6,5.3
		s-0.5-4.4-0.5-7v-16h7.3v38.6H281L261.6,371z"/>
	<path fill="#FFFFFF" d="M303.8,350.3h0.7l17.5,38.6h-8.3l-1.9-4.4h-15.5l-1.9,4.4h-7.6L303.8,350.3z M309.1,378l-2.7-6.6
		c-1.2-2.7-2.4-6.8-2.4-6.8s-1.2,4.2-2.2,6.8L299,378H309.1z"/>
	<path fill="#FFFFFF" d="M330.7,357.6h-11.1v-7h29.8v7h-10.9v31.3h-7.8V357.6z"/>
	<path fill="#FFFFFF" d="M355.5,350.6h7.8v38.2h-7.8V350.6z"/>
	<path fill="#FFFFFF" d="M370.1,369.6c0-11.4,8.8-19.7,19.9-19.7c11,0,19.9,8.3,19.9,19.7c0,11.4-8.8,19.7-19.9,19.7
		C378.9,389.4,370.1,381,370.1,369.6z M401.7,369.6c0-7.1-4.8-12.6-11.7-12.6c-7,0-11.7,5.4-11.7,12.6c0,7.1,4.8,12.6,11.7,12.6
		C397,382.4,401.7,377,401.7,369.6z"/>
	<path fill="#FFFFFF" d="M427.9,371c-1.9-1.9-4.6-5.3-4.6-5.3s0.5,4.2,0.5,7v16.1h-7.3v-38.6h0.9l19.2,18.2c1.9,1.7,4.6,5.3,4.6,5.3
		s-0.5-4.4-0.5-7v-16h7.3v38.6h-0.9L427.9,371z"/>
	<path fill="#FFFFFF" d="M470.1,350.3h0.7l17.5,38.6H480l-1.9-4.4h-15.5l-1.9,4.4h-7.6L470.1,350.3z M475.3,378l-2.7-6.6
		c-1.2-2.7-2.4-6.8-2.4-6.8s-1.2,4.2-2.2,6.8l-2.7,6.6H475.3z"/>
	<path fill="#FFFFFF" d="M493.3,350.6h7.8V382h17.3v6.8h-25.2L493.3,350.6L493.3,350.6z"/>
	<path fill="#FFFFFF" d="M118.7,412.3h24.7v7h-16.8V432h15.3v7h-15.3v11.7h-7.8L118.7,412.3L118.7,412.3z"/>
	<path fill="#FFFFFF" d="M150.1,412.3h7.8v38.2h-7.8V412.3z"/>
	<path fill="#FFFFFF" d="M166.1,412.3h7.8v31.5h17.3v7H166L166.1,412.3L166.1,412.3z"/>
	<path fill="#FFFFFF" d="M197.7,412h0.7l18.9,20.7l18.5-20.7h0.7v38.8h-7.6v-14.3c0-2.5,0.3-6.6,0.3-6.6s-2.4,3.4-4.1,5.4l-7.7,8.5
		h-0.7l-7.7-8.5c-1.9-2-4.1-5.4-4.1-5.4s0.3,4.1,0.3,6.6v14.3h-7.5L197.7,412L197.7,412z"/>
	<path fill="#FFFFFF" d="M256.9,412.3h24.6v7h-16.8V432H280v7h-15.3v11.7h-7.8L256.9,412.3L256.9,412.3z"/>
	<path fill="#FFFFFF" d="M288.3,412.3h25.3v7h-17.5v12.2h15.3v6.8h-15.3v5.4h18.2v7h-26.2v-38.4H288.3z"/>
	<path fill="#FFFFFF" d="M318.8,443.1l6.5-3.7c1.7,2.7,3.9,4.8,7.8,4.8c3.2,0,5.3-1.7,5.3-3.9c0-2.7-2.2-3.7-5.8-5.3l-2-0.9
		c-5.6-2.4-9.5-5.4-9.5-11.9c0-6,4.6-10.4,11.6-10.4c4.9,0,8.7,1.7,11.2,6.3l-6.1,3.9c-1.4-2.4-2.9-3.4-5.1-3.4
		c-2.4,0-3.7,1.5-3.7,3.4c0,2.4,1.5,3.4,4.9,4.8l2,0.9c6.6,2.9,10.5,5.8,10.5,12.4c0,7.1-5.6,11-13.1,11
		C325.7,451.1,321,447.7,318.8,443.1z"/>
	<path fill="#FFFFFF" d="M359.9,419.3H349v-7h29.8v7h-10.9v31.4h-7.8v-31.4H359.9z"/>
	<path fill="#FFFFFF" d="M384.7,412.3h7.8v38.2h-7.8V412.3z"/>
	<path fill="#FFFFFF" d="M397.8,412.3h8.5l6.6,14.8c1.5,3.2,3.1,8.7,3.1,8.7s1.5-5.3,2.9-8.7l6.5-14.8h7.7l-16.8,38.6h-0.8
		L397.8,412.3z"/>
	<path fill="#FFFFFF" d="M444.7,412h0.7l17.5,38.6h-8.3l-1.9-4.4h-15.5l-1.9,4.4h-7.6L444.7,412z M450.2,439.7l-2.7-6.6
		c-1.2-2.7-2.4-6.8-2.4-6.8s-1.2,4.2-2.2,6.8l-2.7,6.6H450.2z"/>
	<path fill="#FFFFFF" d="M468.2,412.3h7.8v31.5h17.3v7h-25.2L468.2,412.3L468.2,412.3z"/>
</g>
<g>
	<path fill="#FFFFFF" d="M118.7,491.7c0-8,5.9-13.4,13.4-13.4c7.5,0,13.4,5.4,13.4,13.4s-6,13.4-13.4,13.4
		C124.6,505.1,118.7,499.7,118.7,491.7z M142.6,491.7c0-6.3-4.4-10.9-10.5-10.9s-10.5,4.6-10.5,10.9s4.4,10.9,10.5,10.9
		C138.2,502.6,142.6,498,142.6,491.7z"/>
	<path fill="#FFFFFF" d="M151.1,478.6h15.8v2.5H154v12.2h11.7v2.6H154v8.8h-2.7v-26.2h-0.2V478.6z"/>
	<path fill="#FFFFFF" d="M172.7,478.6h15.8v2.5h-12.9v12.2h11.7v2.6h-11.7v8.8h-2.7v-26.2h-0.2V478.6z"/>
	<path fill="#FFFFFF" d="M194.1,478.6h2.9v26.2h-2.9V478.6z"/>
	<path fill="#FFFFFF" d="M202.8,491.7c0-8,5.9-13.4,13.4-13.4c4.6,0,8.2,1.7,10.4,5.1l-2,1.5c-1.7-2.5-4.6-4.1-8.3-4.1
		c-6.1,0-10.5,4.6-10.5,10.9s4.4,10.9,10.5,10.9c3.7,0,6.8-1.7,8.7-4.4l2.2,1.5c-2.4,3.4-6.1,5.4-10.9,5.4
		C208.8,505.1,202.8,499.7,202.8,491.7z"/>
	<path fill="#FFFFFF" d="M232.4,478.6h2.9v26.2h-2.9V478.6z"/>
	<path fill="#FFFFFF" d="M251.3,478.5h0.5l11,26.5h-2.9l-1.7-4.4h-13.4l-1.7,4.4h-2.7L251.3,478.5z M257,498l-4.6-11.7
		c-0.5-1.2-1-3.1-1-3.1s-0.5,1.9-1,3.1l-4.6,11.7H257z"/>
	<path fill="#FFFFFF" d="M267.8,478.6h2.7v23.8h12.4v2.6h-15.1V478.6L267.8,478.6z"/>
	<path fill="#FFFFFF" d="M294.8,499.9l2.4-1.2c1.2,2.2,3.1,4.1,6.8,4.1c3.1,0,5.4-1.7,5.4-4.4c0-2.7-1.7-4.1-4.9-5.4l-2-1
		c-3.7-1.7-5.8-3.6-5.8-7.1c0-3.7,2.9-6.3,7-6.3c3.6,0,5.8,1.7,7.1,3.9l-2.2,1.4c-1-1.7-2.4-2.9-4.9-2.9c-2.6,0-4.2,1.5-4.2,3.7
		c0,2.4,1.2,3.4,4.2,4.8l2,1c4.4,1.9,6.6,4.1,6.6,8c0,4.2-3.4,7-8.2,7C298.9,505.1,296.1,502.6,294.8,499.9z"/>
	<path fill="#FFFFFF" d="M317.7,478.6h16v2.5h-13.3v12.2h11.7v2.4h-11.7v6.6h13.8v2.6h-16.5V478.6z"/>
	<path fill="#FFFFFF" d="M340,478.6h2.7v23.8h12.4v2.6H340V478.6z"/>
	<path fill="#FFFFFF" d="M360.4,478.6h16v2.5h-13.3v12.2h11.7v2.4h-11.7v6.6h13.8v2.6h-16.5V478.6z"/>
	<path fill="#FFFFFF" d="M381,491.7c0-8,5.9-13.4,13.4-13.4c4.6,0,8.2,1.7,10.4,5.1l-2,1.5c-1.7-2.5-4.6-4.1-8.3-4.1
		c-6.1,0-10.5,4.6-10.5,10.9s4.4,10.9,10.5,10.9c3.7,0,6.8-1.7,8.7-4.4l2.2,1.5c-2.4,3.4-6.1,5.4-10.9,5.4
		C387.1,505.1,381,499.7,381,491.7z"/>
	<path fill="#FFFFFF" d="M416.2,481.2H408v-2.5h18.9v2.5h-8V505h-2.7L416.2,481.2L416.2,481.2z"/>
	<path fill="#FFFFFF" d="M431.8,478.6h2.9v26.2h-2.9V478.6z"/>
	<path fill="#FFFFFF" d="M440.5,491.7c0-8,5.9-13.4,13.4-13.4s13.4,5.4,13.4,13.4s-6,13.4-13.4,13.4
		C446.4,505.1,440.5,499.7,440.5,491.7z M464.6,491.7c0-6.3-4.4-10.9-10.5-10.9s-10.5,4.6-10.5,10.9s4.4,10.9,10.5,10.9
		C460,502.6,464.6,498,464.6,491.7z"/>
	<path fill="#FFFFFF" d="M477.4,486.6c-0.7-0.9-1.9-2.4-1.9-2.4s0.2,1.9,0.2,2.9v17.7h-2.6v-26.5h0.5l15.6,18.5
		c0.7,0.9,1.9,2.4,1.9,2.4s-0.2-1.9-0.2-2.9v-17.7h2.5v26.5H493L477.4,486.6z"/>
</g>
<rect x="111.7" y="462.3" fill="#FFFFFF" width="388.6" height="4.4"/>
</svg>
