<?xml version="1.0" encoding="utf-8"?>
<!-- Generator: Adobe Illustrator 19.0.1, SVG Export Plug-In . SVG Version: 6.00 Build 0)  -->
<!DOCTYPE svg PUBLIC "-//W3C//DTD SVG 1.1//EN" "http://www.w3.org/Graphics/SVG/1.1/DTD/svg11.dtd">
<svg version="1.1" id="Layer_1" xmlns="http://www.w3.org/2000/svg" xmlns:xlink="http://www.w3.org/1999/xlink" x="0px" y="0px"
	 viewBox="-122.4 296.9 355.1 200" style="enable-background:new -122.4 296.9 355.1 200;" xml:space="preserve">
<style type="text/css">
	.st0{display:none;fill:#6E6F72;}
	.st1{fill:#898989;}
</style>
<path class="st0" d="M105.4,328.2l-2.2,6.6l5.6-4.1l5.6,4.1l-2.2-6.6l5.7-4.1h-7l-2.2-6.6l-2.2,6.6h-7L105.4,328.2z"/>
<path class="st0" d="M-2.3,328.2l-2.2,6.6l5.6-4.1l5.6,4.1l-2.2-6.6l5.7-4.1h-7L1,317.5l-2.2,6.6h-7L-2.3,328.2z"/>
<g>
	<path class="st1" d="M171.9,487.9c-1.7,0.2-3.2,0.7-4.7,1.1c1-0.7,4-2.9,4-2.9c5.3-3.7,7.2-11.8,11.7-16.2
		c-0.3,0.1-6.3,1.7-9.9,4.5c-1.5,1.2-2.9,2.9-4,4.3c-2.5,2.9-3.8,7.4-6.2,10.3c-2.6,3-4.7,4.1-4.7,4.1s3.5,0.1,5.4,0.8
		c3.5,1.2,6.8,2.6,9.7,2.9c3.7,0.3,7.6-0.1,11.1-1.7c7.3-3.2,12.5-10.7,12.5-10.7s-4.9,2.2-8.2,2.4c-2.8,0.2-5.2,0-9.1,0.2
		C176.8,487.1,174.9,487.5,171.9,487.9z M214.4,345.8c0.6-3.7,0.5-7.6-0.8-11.1c-2.7-7.5-9.7-13.2-9.7-13.2s1.8,5,1.8,8.3
		c0,2.8-0.4,5.2-0.5,9.1c0,2.9,0.2,4.8,0.4,7.7c0.1,1.7,0.4,3.3,0.7,4.8c-0.6-1.1-2.6-4.2-2.6-4.2c-3.3-5.5-11.2-8.1-15.3-12.9
		c0,0.3,1.2,6.4,3.7,10.3c1.1,1.5,2.7,3.1,3.9,4.3c2.7,2.7,7.1,4.3,9.8,7c2.8,2.8,3.8,5,3.8,5s0.4-3.5,1.2-5.3
		C212.3,351.9,213.9,348.7,214.4,345.8z M197,332.4c0.6-3.7,1.4-7.2,1.1-10.1c-0.4-3.7-1.5-7.4-3.6-10.7
		c-4.4-6.6-12.6-10.5-12.6-10.5s3,4.4,3.7,7.6c0.7,2.7,0.9,5.1,1.8,8.9c0.7,2.9,1.4,4.6,2.3,7.4c0.5,1.6,1.2,3.1,1.9,4.4
		c-0.9-0.9-3.6-3.5-3.6-3.5c-4.5-4.6-12.9-5-18.1-8.8c0.1,0.3,2.8,5.9,6.2,9c1.4,1.2,3.4,2.4,4.9,3.3c3.3,1.9,8,2.5,11.1,4.3
		c3.4,2,4.9,3.9,4.9,3.9S196.6,334.4,197,332.4z M182.5,313.9c-1-3.3-1.6-4.5-1.6-4.5c-2.9-7.6-10.7-8.9-10.7-8.9
		c-1.4-0.4-3.8-1-5.3-1.6c-2.6-1-4.1-2-4.1-2c0.9,4.4,2.6,8,5.1,10.7c3.8,4.1,9.1,6.2,9.1,6.2c6.7,2.5,9.1,6.5,9.1,6.5
		C183.6,318.8,183.1,315.8,182.5,313.9z M232.1,390.8c1.3-7.9-2.2-16.3-2.2-16.3s-0.9,5.2-2.5,8.1c-1.3,2.4-2.9,4.4-4.7,7.7
		c-1.4,2.6-2.2,4.3-3.4,7c-0.7,1.5-1.2,3.1-1.7,4.5c0-1.2-0.2-4.9-0.2-4.9c-0.2-6.4-6-12.4-7.2-18.6c-0.1,0.3-2.1,6.2-1.6,10.8
		c0.2,1.8,0.9,3.9,1.4,5.7c1.1,3.6,4.1,7.2,5.2,10.8c1.1,3.7,1,6.2,1,6.2s2-2.9,3.7-4.1c3-2.3,5.8-4.3,7.6-6.6
		C229.7,398,231.4,394.5,232.1,390.8z M224.3,372.5c1.5-3.5,2.3-7.2,2-11.1c-0.7-7.9-6.1-15.2-6.1-15.2s0.5,5.3-0.3,8.5
		c-0.7,2.7-1.7,4.9-2.7,8.7c-0.8,2.8-1,4.7-1.6,7.6c-0.3,1.6-0.4,3.3-0.5,4.8c-0.3-1.2-1.5-4.7-1.5-4.7c-1.8-6.2-9-10.6-11.6-16.3
		c0,0.3-0.4,6.5,1.2,10.9c0.6,1.7,1.8,3.7,2.8,5.2c2,3.2,5.8,6,7.7,9.2c2,3.4,2.5,5.8,2.5,5.8s1.2-3.3,2.5-4.8
		C220.9,378,223.2,375.2,224.3,372.5z M230.4,420.5c3.2-7.3,2-16.3,2-16.3s-2.2,4.9-4.3,7.3c-1.9,2-3.8,3.6-6.5,6.3
		c-2,2.1-3.2,3.7-5,5.9c-1.1,1.3-1.9,2.7-2.8,3.9c0.3-1.2,1-4.8,1-4.8c1.4-6.3-2.8-13.6-2.4-19.9c-0.2,0.3-3.6,5.5-4.1,10.1
		c-0.3,1.8-0.1,4,0,5.9c0.2,3.7,2.3,8.1,2.4,11.7c0.2,3.8-0.6,6.2-0.6,6.2s2.6-2.3,4.5-3.1c3.4-1.5,6.7-2.8,9.1-4.5
		C226.4,426.9,229,424,230.4,420.5z M195.5,478.6c3.7-0.6,7.3-2,10.4-4.3c6.3-4.9,9.5-13.4,9.5-13.4s-4.2,3.3-7.3,4.3
		c-2.6,0.9-5.1,1.3-8.7,2.5c-2.8,0.9-4.5,1.7-7.2,2.8c-1.6,0.6-3,1.4-4.3,2.2c0.8-0.9,3.3-3.7,3.3-3.7c4.2-4.8,4-13.2,7.4-18.6
		c-0.3,0.2-5.7,3.2-8.5,6.8c-1.1,1.5-2.1,3.5-2.9,5.1c-1.7,3.4-1.9,8.1-3.6,11.4c-1.8,3.5-3.6,5.2-3.6,5.2s3.4-0.8,5.4-0.6
		C189.1,478.6,192.6,479.1,195.5,478.6z M212.6,455.7c3.5-1.6,6.6-3.7,9-6.7c4.8-6.3,5.9-15.3,5.9-15.3s-3.3,4.2-6,6
		c-2.3,1.5-4.6,2.5-7.9,4.5c-2.5,1.6-3.9,2.8-6.3,4.4c-1.3,1-2.5,2.1-3.7,3.2c0.6-1.1,2.2-4.4,2.2-4.4c3-5.7,0.7-13.8,2.6-19.8
		c-0.2,0.2-4.7,4.5-6.5,8.7c-0.7,1.7-1.2,3.9-1.5,5.7c-0.7,3.7,0.2,8.4-0.6,11.9c-0.8,3.8-2.2,5.9-2.2,5.9s3.1-1.6,5.1-1.9
		C206.4,457.3,209.9,456.9,212.6,455.7z"/>
</g>
<g>
	<path class="st1" d="M-69.6,486.9c-3.8-0.2-6.3,0-9.1-0.2c-3.3-0.2-8.2-2.4-8.2-2.4s5.2,7.4,12.5,10.7c3.6,1.6,7.3,2,11.1,1.7
		c2.9-0.2,6.2-1.6,9.7-2.9c2-0.7,5.4-0.8,5.4-0.8s-2.2-1.2-4.7-4.1c-2.4-2.9-3.8-7.3-6.2-10.3c-1.2-1.4-2.7-3.2-4-4.3
		c-3.6-2.9-9.6-4.4-9.9-4.5c4.5,4.3,6.4,12.5,11.7,16.2c0,0,3.1,2.2,4,2.9c-1.6-0.4-3.1-0.8-4.7-1.1
		C-64.9,487.5-66.8,487.1-69.6,486.9z M-100.8,355.3c0.9,2,1.2,5.3,1.2,5.3s1.1-2.3,3.8-5c2.7-2.6,7-4.3,9.8-7
		c1.3-1.3,3-2.9,3.9-4.3c2.6-3.7,3.7-9.9,3.7-10.3c-4,4.8-12,7.4-15.3,12.9c0,0-2,3.2-2.6,4.2c0.3-1.6,0.6-3.2,0.7-4.8
		c0.2-2.9,0.4-4.8,0.4-7.7c-0.1-3.8-0.5-6.3-0.5-9.1c0-3.3,1.8-8.3,1.8-8.3s-7,5.7-9.7,13.2c-1.3,3.7-1.4,7.4-0.8,11.1
		C-103.9,348.7-102.3,351.9-100.8,355.3z M-87.1,337.9c0,0,1.6-2,4.9-3.9c3.2-1.9,7.9-2.5,11.1-4.3c1.6-0.9,3.6-2.1,4.9-3.3
		c3.5-3,6-8.7,6.2-9c-5.1,3.7-13.5,4.1-18.1,8.8c0,0-2.7,2.7-3.6,3.5c0.7-1.5,1.4-3,1.9-4.4c0.9-2.8,1.6-4.5,2.3-7.4
		c0.9-3.7,1.1-6.2,1.8-8.9c0.8-3.2,3.7-7.6,3.7-7.6s-8.2,3.8-12.6,10.5c-2.2,3.2-3.2,6.8-3.6,10.7c-0.3,2.9,0.5,6.4,1.1,10.1
		C-86.6,334.4-87.1,337.9-87.1,337.9z M-74.2,320.3c0,0,2.4-4.1,9.1-6.5c0,0,5.2-2.1,9.1-6.2c2.6-2.7,4.2-6.2,5.1-10.7
		c0,0-1.6,1-4.1,2c-1.5,0.6-3.9,1.2-5.3,1.6c0,0-7.8,1.3-10.7,8.9c0,0-0.7,1.4-1.6,4.5C-73.1,315.8-73.6,318.8-74.2,320.3z
		 M-117.5,400.9c1.8,2.3,4.7,4.3,7.6,6.6c1.7,1.3,3.7,4.1,3.7,4.1s-0.2-2.5,1-6.2c1.1-3.6,4.1-7.2,5.2-10.8c0.6-1.8,1.2-3.9,1.4-5.7
		c0.5-4.5-1.5-10.5-1.6-10.8c-1.2,6.2-7,12.2-7.2,18.6c0,0-0.2,3.7-0.2,4.9c-0.5-1.5-1-3.1-1.7-4.5c-1.2-2.7-2-4.4-3.4-7
		c-1.9-3.4-3.5-5.3-4.7-7.7c-1.6-2.9-2.5-8.1-2.5-8.1s-3.5,8.4-2.2,16.3C-121.4,394.5-119.7,398-117.5,400.9z M-108.6,380.9
		c1.3,1.7,2.5,4.8,2.5,4.8s0.5-2.5,2.5-5.8c1.9-3.2,5.7-5.9,7.7-9.2c1-1.6,2.2-3.5,2.8-5.2c1.6-4.2,1.2-10.6,1.2-10.9
		c-2.7,5.7-9.9,10.1-11.6,16.3c0,0-1.1,3.6-1.5,4.7c-0.1-1.6-0.2-3.3-0.5-4.8c-0.6-2.9-0.8-4.7-1.6-7.6c-1-3.7-2-6-2.7-8.7
		c-0.8-3.2-0.3-8.5-0.3-8.5s-5.3,7.3-6.1,15.2c-0.3,3.8,0.5,7.6,2,11.1C-113.2,375.2-110.9,378-108.6,380.9z M-113.4,429.3
		c2.3,1.8,5.6,3.1,9.1,4.5c2,0.9,4.5,3.1,4.5,3.1s-0.8-2.4-0.6-6.2c0.2-3.7,2.2-8,2.4-11.7c0.1-1.9,0.2-4,0-5.9
		c-0.7-4.5-3.9-9.8-4.1-10.1c0.4,6.3-3.8,13.6-2.4,19.9c0,0,0.8,3.7,1,4.8c-0.9-1.4-1.7-2.8-2.8-3.9c-1.9-2.3-3-3.8-5-5.9
		c-2.7-2.8-4.6-4.3-6.5-6.3c-2.2-2.4-4.3-7.3-4.3-7.3s-1.2,9,2,16.3C-119,424-116.4,426.9-113.4,429.3z M-75.3,478.3
		c2.1-0.2,5.4,0.6,5.4,0.6s-1.8-1.7-3.6-5.2c-1.7-3.4-1.9-8.1-3.6-11.4c-0.8-1.7-1.8-3.7-2.9-5.1c-2.8-3.7-8.2-6.7-8.5-6.8
		c3.4,5.3,3.2,13.7,7.4,18.6c0,0,2.5,2.9,3.3,3.7c-1.4-0.8-2.8-1.6-4.3-2.2c-2.7-1.1-4.4-1.9-7.2-2.8c-3.7-1.2-6.1-1.6-8.7-2.5
		c-3.1-1-7.3-4.3-7.3-4.3s3.3,8.5,9.5,13.4c3.1,2.4,6.6,3.7,10.4,4.3C-82.6,479.1-79.1,478.6-75.3,478.3z M-92.7,457.9
		c2.1,0.3,5.1,1.9,5.1,1.9s-1.3-2.1-2.2-5.9c-0.8-3.7,0.2-8.3-0.6-11.9c-0.4-1.8-0.8-4-1.5-5.7c-1.8-4.2-6.3-8.5-6.5-8.7
		c1.9,6-0.3,14.1,2.6,19.8c0,0,1.7,3.4,2.2,4.4c-1.2-1.1-2.4-2.2-3.7-3.2c-2.4-1.7-3.8-3-6.3-4.4c-3.3-2-5.5-3.1-7.9-4.5
		c-2.8-1.8-6-6-6-6s1,9,5.9,15.3c2.4,3.1,5.4,5.2,9,6.7C-99.9,456.9-96.4,457.3-92.7,457.9z"/>
</g>
<g>
	<g>
		<path class="st1" d="M39.8,334.7h6.8c6.8,0,11.6,4.5,11.6,11.1c0,6.5-4.8,11.1-11.6,11.1h-6.8V334.7z M46.3,352.9
			c4.9,0,7.1-3,7.1-7c0-4.1-2.3-7-7.1-7h-2V353L46.3,352.9L46.3,352.9z"/>
		<path class="st1" d="M68.1,334.5h0.4l10.2,22.3h-4.7l-1.1-2.5h-9l-1.1,2.5h-4.3L68.1,334.5z M71.2,350.5l-1.6-3.8
			c-0.7-1.6-1.4-3.9-1.4-3.9s-0.7,2.4-1.3,3.9l-1.6,3.8H71.2z"/>
		<path class="st1" d="M81.6,334.7h4.5v18.1h10v3.9H81.6V334.7z"/>
		<path class="st1" d="M99.9,334.7h4.5v18.1h10v3.9H99.9L99.9,334.7L99.9,334.7z"/>
		<path class="st1" d="M126.1,334.5h0.4l10.1,22.3h-4.7l-1.1-2.5h-9l-1.1,2.5h-4.3L126.1,334.5z M129.2,350.5l-1.6-3.8
			c-0.7-1.6-1.3-3.9-1.3-3.9s-0.7,2.4-1.3,3.9l-1.6,3.8H129.2z"/>
		<path class="st1" d="M137.6,352.5l3.7-2.2c1,1.6,2.3,2.8,4.4,2.8c1.9,0,3.1-1,3.1-2.3c0-1.6-1.3-2.1-3.4-3.1l-1.2-0.5
			c-3.3-1.4-5.4-3.2-5.4-6.8c0-3.5,2.6-6,6.6-6c2.9,0,4.9,1,6.4,3.7l-3.6,2.3c-0.8-1.4-1.6-2-3-2c-1.4,0-2.2,0.9-2.2,2
			c0,1.4,0.9,1.9,2.8,2.8l1.2,0.5c3.8,1.7,6,3.4,6,7.1c0,4-3.3,6.3-7.5,6.3C141.6,357.1,138.9,355.2,137.6,352.5z"/>
		<g>
			<path class="st1" d="M-43.4,356.4l9.1-9.5c2.4-2.5,3.1-3.9,3.1-5.4c0-1.6-1-2.9-3-2.9s-3.3,1.5-3.9,3.7l-4.5-0.9
				c0.9-3.9,3.8-6.9,8.6-6.9c4.6,0,7.6,3,7.6,7c0,2.5-1.2,4.6-3.7,7.3l-2.8,2.9c-0.6,0.6-1.6,1.3-1.6,1.3s1-0.1,1.8-0.1h6v3.9h-16.6
				V356.4z"/>
			<path class="st1" d="M-23.9,345.8c0-6.6,4.9-11.3,10.8-11.3s10.8,4.6,10.8,11.3c0,6.6-4.9,11.3-10.8,11.3S-23.9,352.5-23.9,345.8
				z M-7.2,345.8c0-4.3-2.5-7.2-6-7.2s-6,2.9-6,7.2c0,4.3,2.5,7.2,6,7.2S-7.2,350.1-7.2,345.8z"/>
			<path class="st1" d="M3.2,338.9h-3.9v-4h8.6v22.1H3.3L3.2,338.9L3.2,338.9z"/>
			<path class="st1" d="M10.7,352.2l3.8-2c0.8,1.4,2,2.9,4.8,2.9c2.4,0,3.8-1.6,3.8-3.7c0-2.4-1.8-3.7-4.5-3.7c-2.7,0-4.2,1-5.5,2
				l-0.4-0.2v-12.7h13.1v3.9h-9.2v3.7c0.8-0.4,1.7-0.5,2.9-0.5c5,0,8.4,3.1,8.4,7.4c0,5-3.6,7.9-8.6,7.9
				C15.1,357.1,12.1,355,10.7,352.2z"/>
		</g>
	</g>
	<path class="st1" d="M-68.4,370.5h4.5v22.2h-4.5V370.5z"/>
	<path class="st1" d="M-52.6,382.3c-1.1-1.1-2.7-3.1-2.7-3.1s0.3,2.5,0.3,4v9.4h-4.2v-22.4h0.5l11.2,10.6c1.1,1,2.7,3.1,2.7,3.1
		s-0.3-2.6-0.3-4v-9.3h4.2V393h-0.5L-52.6,382.3z"/>
	<path class="st1" d="M-31.1,374.5h-6.3v-4h17.3v4h-6.3v18.2H-31L-31.1,374.5L-31.1,374.5z"/>
	<path class="st1" d="M-16.8,370.5h14.7v4h-10.2v7.1h8.9v3.9h-8.9v3.2h10.6v3.9h-15.2L-16.8,370.5L-16.8,370.5z"/>
	<path class="st1" d="M19,392.7h-5.3L10,387c-0.4,0.1-0.9,0.1-1.3,0.1H7.1v5.5H2.6v-22.2h6.1c6.2,0,10,3,10,8.4
		c0,3.5-1.6,5.6-4.2,6.9L19,392.7z M8.6,383.2c3.7,0,5.3-1.2,5.3-4.3s-1.7-4.3-5.3-4.3H7.1v8.7H8.6z"/>
	<path class="st1" d="M29.2,382.3c-1.1-1.1-2.7-3.1-2.7-3.1s0.3,2.5,0.3,4v9.4h-4.2v-22.4h0.5l11.2,10.6c1.1,1,2.7,3.1,2.7,3.1
		s-0.3-2.6-0.3-4v-9.3H41V393h-0.5L29.2,382.3z"/>
	<path class="st1" d="M53.7,370.3h0.4l10.2,22.4h-4.8l-1.1-2.6h-9l-1.1,2.6h-4.4L53.7,370.3z M56.8,386.3l-1.6-3.8
		c-0.7-1.6-1.4-3.9-1.4-3.9s-0.7,2.5-1.3,3.9l-1.6,3.8H56.8z"/>
	<path class="st1" d="M69.3,374.5h-6.4v-4h17.3v4h-6.3v18.2h-4.5V374.5z"/>
	<path class="st1" d="M83.7,370.5h4.5v22.2h-4.5V370.5z"/>
	<path class="st1" d="M92.2,381.5c0-6.6,5.1-11.4,11.5-11.4s11.5,4.8,11.5,11.4c0,6.6-5.1,11.4-11.5,11.4S92.2,388.1,92.2,381.5z
		 M110.6,381.5c0-4.1-2.8-7.3-6.8-7.3c-4,0-6.8,3.2-6.8,7.3c0,4.1,2.8,7.3,6.8,7.3C107.8,388.9,110.6,385.8,110.6,381.5z"/>
	<path class="st1" d="M125.7,382.3c-1.1-1.1-2.7-3.1-2.7-3.1s0.3,2.5,0.3,4v9.4h-4.2v-22.4h0.5l11.1,10.6c1.1,1,2.7,3.1,2.7,3.1
		s-0.3-2.6-0.3-4v-9.3h4.2V393h-0.5L125.7,382.3z"/>
	<path class="st1" d="M150.2,370.3h0.4l10.2,22.4h-4.8l-1.1-2.6h-9l-1.1,2.6h-4.4L150.2,370.3z M153.3,386.3l-1.6-3.8
		c-0.7-1.6-1.4-3.9-1.4-3.9s-0.7,2.5-1.3,3.9l-1.6,3.8H153.3z"/>
	<path class="st1" d="M163.7,370.5h4.5v18.3h10.1v3.9h-14.6L163.7,370.5L163.7,370.5z"/>
	<path class="st1" d="M-53.7,406.3h14.3v4h-9.8v7.4h8.9v4h-8.9v6.8h-4.5V406.3z"/>
	<path class="st1" d="M-35.5,406.3h4.5v22.2h-4.5V406.3z"/>
	<path class="st1" d="M-26.2,406.3h4.5v18.3h10.1v4h-14.6V406.3z"/>
	<path class="st1" d="M-7.9,406.1h0.4l11,12l10.8-12h0.4v22.5h-4.4v-8.3c0-1.5,0.2-3.8,0.2-3.8s-1.4,2-2.4,3.2l-4.4,4.9H3.2
		l-4.4-4.9c-1.1-1.2-2.4-3.2-2.4-3.2s0.2,2.4,0.2,3.8v8.3h-4.3L-7.9,406.1L-7.9,406.1z"/>
	<path class="st1" d="M26.5,406.3h14.3v4H31v7.4h8.9v4H31v6.8h-4.5V406.3z"/>
	<path class="st1" d="M44.7,406.3h14.7v4H49.3v7.1h8.9v3.9h-8.9v3.2h10.6v4H44.6L44.7,406.3L44.7,406.3z"/>
	<path class="st1" d="M62.4,424.1l3.7-2.2c1,1.6,2.3,2.8,4.5,2.8c1.9,0,3.1-1,3.1-2.3c0-1.6-1.3-2.2-3.4-3.1l-1.2-0.5
		c-3.3-1.4-5.5-3.2-5.5-6.9c0-3.5,2.7-6,6.7-6c2.9,0,5,1,6.5,3.7l-3.6,2.3c-0.8-1.4-1.7-2-3-2c-1.4,0-2.2,0.9-2.2,2
		c0,1.4,0.9,2,2.9,2.8l1.2,0.5c3.8,1.7,6.1,3.4,6.1,7.2c0,4.1-3.3,6.4-7.6,6.4C66.4,428.8,63.7,426.8,62.4,424.1z"/>
	<path class="st1" d="M86.3,410.3H80v-4h17.3v4h-6.3v18.3h-4.5L86.3,410.3L86.3,410.3z"/>
	<path class="st1" d="M100.7,406.3h4.5v22.2h-4.5V406.3z"/>
	<path class="st1" d="M108.3,406.3h4.9l3.8,8.6c0.9,1.9,1.8,5,1.8,5s0.9-3.1,1.7-5l3.7-8.6h4.4l-9.8,22.4h-0.5L108.3,406.3z"/>
	<path class="st1" d="M135.5,406.1h0.4l10.2,22.4h-4.8l-1.1-2.6h-9l-1.1,2.6h-4.4L135.5,406.1z M138.7,422.2l-1.6-3.8
		c-0.7-1.6-1.4-3.9-1.4-3.9s-0.7,2.5-1.3,3.9l-1.6,3.8H138.7z"/>
	<path class="st1" d="M149.1,406.3h4.5v18.3h10.1v4h-14.6L149.1,406.3L149.1,406.3z"/>
</g>
<g>
	<path class="st1" d="M-53.7,452.4c0-4.6,3.5-7.8,7.8-7.8s7.8,3.2,7.8,7.8s-3.5,7.8-7.8,7.8S-53.7,457-53.7,452.4z M-39.8,452.4
		c0-3.7-2.6-6.3-6.1-6.3s-6.1,2.7-6.1,6.3s2.6,6.3,6.1,6.3S-39.8,456-39.8,452.4z"/>
	<path class="st1" d="M-34.9,444.8h9.2v1.5h-7.5v7.1h6.8v1.5h-6.8v5.1h-1.6L-34.9,444.8L-34.9,444.8z"/>
	<path class="st1" d="M-22.4,444.8h9.2v1.5h-7.5v7.1h6.8v1.5h-6.8v5.1h-1.6L-22.4,444.8L-22.4,444.8z"/>
	<path class="st1" d="M-9.9,444.8h1.7V460h-1.7V444.8z"/>
	<path class="st1" d="M-4.9,452.4c0-4.6,3.5-7.8,7.8-7.8c2.7,0,4.7,1,6,3l-1.2,0.9c-1-1.5-2.7-2.4-4.8-2.4c-3.6,0-6.1,2.7-6.1,6.3
		s2.6,6.3,6.1,6.3c2.2,0,3.9-1,5-2.6l1.3,0.9c-1.4,2-3.6,3.2-6.3,3.2C-1.4,460.1-4.9,457-4.9,452.4z"/>
	<path class="st1" d="M12.3,444.8H14V460h-1.7V444.8z"/>
	<path class="st1" d="M23.2,444.7h0.3l6.4,15.4h-1.7l-1-2.6h-7.8l-1,2.6h-1.6L23.2,444.7z M26.6,456l-2.7-6.8
		c-0.3-0.7-0.6-1.8-0.6-1.8s-0.3,1.1-0.6,1.8l-2.7,6.8H26.6z"/>
	<path class="st1" d="M32.8,444.8h1.6v13.8h7.2v1.5h-8.8L32.8,444.8L32.8,444.8z"/>
	<path class="st1" d="M48.5,457.1l1.4-0.7c0.7,1.3,1.8,2.4,3.9,2.4c1.8,0,3.2-1,3.2-2.6c0-1.6-1-2.4-2.9-3.2l-1.2-0.6
		c-2.2-1-3.4-2.1-3.4-4.1c0-2.2,1.7-3.7,4-3.7c2.1,0,3.4,1,4.1,2.3l-1.3,0.8c-0.6-1-1.4-1.7-2.9-1.7c-1.5,0-2.5,0.9-2.5,2.2
		c0,1.4,0.7,2,2.5,2.8l1.2,0.6c2.6,1.1,3.8,2.4,3.8,4.6c0,2.5-2,4-4.7,4C50.9,460.1,49.3,458.7,48.5,457.1z"/>
	<path class="st1" d="M61.8,444.8h9.3v1.5h-7.7v7.1h6.8v1.4h-6.8v3.8h8v1.5h-9.6V444.8z"/>
	<path class="st1" d="M74.7,444.8h1.6v13.8h7.2v1.5h-8.8V444.8z"/>
	<path class="st1" d="M86.6,444.8h9.3v1.5h-7.7v7.1H95v1.4h-6.8v3.8h8v1.5h-9.6V444.8z"/>
	<path class="st1" d="M98.5,452.4c0-4.6,3.5-7.8,7.8-7.8c2.7,0,4.7,1,6,3l-1.2,0.9c-1-1.5-2.7-2.4-4.8-2.4c-3.6,0-6.1,2.7-6.1,6.3
		s2.6,6.3,6.1,6.3c2.2,0,3.9-1,5-2.6l1.3,0.9c-1.4,2-3.6,3.2-6.3,3.2C102.1,460.1,98.5,457,98.5,452.4z"/>
	<path class="st1" d="M118.9,446.2h-4.7v-1.5h11v1.5h-4.6v13.8h-1.6V446.2z"/>
	<path class="st1" d="M128,444.8h1.7V460H128V444.8z"/>
	<path class="st1" d="M133.1,452.4c0-4.6,3.5-7.8,7.8-7.8c4.3,0,7.8,3.2,7.8,7.8s-3.5,7.8-7.8,7.8
		C136.5,460.1,133.1,457,133.1,452.4z M147.1,452.4c0-3.7-2.6-6.3-6.1-6.3c-3.6,0-6.1,2.7-6.1,6.3s2.6,6.3,6.1,6.3
		C144.4,458.7,147.1,456,147.1,452.4z"/>
	<path class="st1" d="M154.5,449.4c-0.4-0.5-1.1-1.4-1.1-1.4s0.1,1.1,0.1,1.7V460H152v-15.4h0.3l9.1,10.8c0.4,0.5,1.1,1.4,1.1,1.4
		s-0.1-1.1-0.1-1.7v-10.3h1.5v15.4h-0.3L154.5,449.4z"/>
</g>
<rect x="-57.8" y="435.3" class="st1" width="225.6" height="2.6"/>
</svg>
