<?xml version="1.0" encoding="utf-8"?>
<!-- Generator: Adobe Illustrator 19.0.1, SVG Export Plug-In . SVG Version: 6.00 Build 0)  -->
<!DOCTYPE svg PUBLIC "-//W3C//DTD SVG 1.1//EN" "http://www.w3.org/Graphics/SVG/1.1/DTD/svg11.dtd">
<svg version="1.1" id="Layer_1" xmlns="http://www.w3.org/2000/svg" xmlns:xlink="http://www.w3.org/1999/xlink" x="0px" y="0px"
	 viewBox="-196.9 297.1 215.5 200" style="enable-background:new -196.9 297.1 215.5 200;" xml:space="preserve">
<style type="text/css">
	.st0{fill:#898989;}
</style>
<path class="st0" d="M-43.5,301.4c0.6,0.3,1.3,0.7,1.9,1c-1.2-1.4-1.8-3.1-2.2-5.3c5.5,1.6,7.2,3.6,7.9,8.5l-0.1,0.1
	c1.2,0.7,2.3,1.5,3.4,2.3c-1.3-1.8-1.7-3.9-1.9-6.6c6.2,2.6,7.9,5.2,8,11.1h-0.1c0.9,0.7,1.7,1.4,2.5,2.1c-0.9-2-1-4.2-0.9-7
	c6.3,3.8,8,6.9,7.3,13.1c0.7,0.7,1.4,1.5,2.1,2.2c-0.4-2-0.1-4,0.4-6.6c5.5,4.5,6.7,7.8,5.3,13.4c0.9,1.2,1.8,2.5,2.7,3.8
	c-0.4-2.7,0.2-5.2,1.3-8.3c5.5,6,6.3,9.9,3.6,16.3c0.9,1.6,1.8,3.3,2.6,5c-0.4-3.2,0.6-5.8,2.4-9.1c4.7,6.9,4.9,10.8,1.1,17
	c0.9,2.4,1.7,4.7,2.4,7.2c-0.3-4,1.3-6.8,3.9-10.5c3.9,8.1,3.3,12.2-1.8,18.2H8c0.6,2.7,1,5.5,1.4,8.3c0-5,2.2-7.9,6-11.6
	c2.7,9.1,1.5,13.4-4.9,18.8l-0.4-0.1c0.1,1.7,0.1,3.5,0.1,5.3c0,1.1,0,2.3-0.1,3.4c0.1,0.5,0.2,1,0.2,1.6c0.2-6.9,2.9-9.8,7.8-13.4
	c1.4,9.4-0.5,13.5-7.6,17.9c-0.3-0.1-0.5-0.3-0.8-0.4c-0.3,3-0.7,6-1.2,9c1.7-5,4.8-7.1,9.6-9.6c-0.2,10-2.8,13.9-10.9,17.3
	l-0.4-0.3c-0.6,2.4-1.4,4.8-2.2,7.1c2.7-5.6,6.6-7.5,12.6-9.5c-1.9,11.1-5.5,14.9-15.1,17.2l-0.4-0.4c-0.6,1.4-1.3,2.9-2,4.3
	c3.2-2.5,6.9-3.4,11.8-4.1c-4.1,10.8-8.4,14.3-18.1,15c-1.3,1.9-2.6,3.7-3.9,5.5c4.4-3,8.8-3.2,14.8-2.9
	c-6.6,10.7-11.9,13.3-22.6,11.9c-1.4,1.4-2.8,2.8-4.2,4.1c4.1-1.2,8.1-0.5,13.2,0.8c-8.3,8.9-13.9,10.6-23.6,7.4
	c-2,1.4-4.1,2.7-6.2,4c5.1-0.5,9.3,1.2,14.7,4c-11.1,7.5-17.5,7.9-27.1,2.2c-4.1,1.7-8.3,3.1-12.6,4.3c5.9,0.6,9.9,3.6,14.9,8.4
	c-13.4,4.5-20,3-28.2-5.8c-4,0.5-8.2,0.8-12.3,0.8c-3.9,0-7.8-0.2-11.7-0.7c-8.2,8.7-14.8,10.2-28.1,5.7c4.8-4.6,8.8-7.5,14.4-8.3
	c-4.3-1.1-8.4-2.5-12.4-4.1c-9.5,5.5-15.9,5.1-26.8-2.4c5.1-2.7,9.2-4.3,13.9-4c-2-1.2-3.9-2.4-5.8-3.7c-9.3,2.9-14.9,1.1-23.1-7.6
	c4.7-1.2,8.4-1.9,12.2-1.1c-1.3-1.2-2.6-2.5-3.9-3.7c-10.3,1.2-15.5-1.5-22-11.9c5.4-0.3,9.5-0.2,13.4,2c-1.2-1.5-2.3-3.1-3.3-4.7
	c-9.2-0.9-13.4-4.4-17.3-14.9c4.3,0.6,7.7,1.3,10.7,3.2c-0.5-1-1-2.1-1.4-3.1c-9.4-2.3-12.9-6.2-14.9-17.2c4.9,1.6,8.3,3.2,10.9,6.7
	c-0.4-1.4-0.8-2.8-1.2-4.2c-7.8-3.3-10.4-7.2-10.6-17.1c3.9,2,6.6,3.8,8.4,6.9c-0.3-1.9-0.5-3.9-0.7-5.9h-0.1
	c-7.1-4.4-9-8.4-7.6-17.9c3.8,2.8,6.2,5.1,7.3,9.1v-0.7c0-1.8,0-3.6,0.1-5.4c-6.1-5.3-7.3-9.6-4.6-18.5c2.9,2.9,4.9,5.3,5.6,8.6
	c0.3-1.9,0.7-3.9,1.1-5.7c-4.7-6.1-5.1-10.2-1.3-18c2.1,2.9,3.6,5.3,3.9,8.2c0.6-1.9,1.3-3.8,2-5.7c-3.3-5.8-3-9.7,1.5-16.3
	c1.4,2.7,2.4,5,2.4,7.5c0.7-1.4,1.4-2.7,2.2-4.1c-2.3-5.9-1.4-9.7,3.9-15.5c0.9,2.6,1.5,4.8,1.4,7.1c0.8-1.1,1.6-2.2,2.4-3.2
	c-1.1-5.2,0.3-8.3,5.5-12.7c0.4,2.1,0.7,3.9,0.5,5.6c0.6-0.7,1.2-1.3,1.9-2c-0.5-5.8,1.2-8.8,7.3-12.4c0.1,2.4,0.1,4.3-0.5,6.1
	c0.7-0.6,1.4-1.2,2.1-1.7c0.2-5.5,2-8,8-10.6c-0.1,2.1-0.5,4-1.3,5.6c0.9-0.6,1.9-1.2,2.8-1.8c0.7-4.6,2.5-6.6,7.8-8.1
	c-0.4,1.9-0.8,3.4-1.7,4.6l0.6-0.3l-0.6,0.3c-0.8,1.1-1.9,2.1-3.7,2.9c3.9-1.2,6-0.3,9,1.8c-5.1,2.5-7.7,2.2-11.5-0.9v-0.3
	c-1,0.7-2,1.3-3,2c-0.8,1.3-1.9,2.4-3.7,3.6c4.4-2,7.1-1.2,10.9,0.9c-5.6,3.7-8.7,3.7-13.7,0.6v-0.1c-0.8,0.7-1.6,1.3-2.3,2
	c-0.6,1.6-1.8,3.1-3.6,4.7c4.6-2.9,7.7-2.4,12.2-0.6c-5.7,5-9.1,5.4-15.1,2.7l-0.1-0.4c-0.7,0.8-1.4,1.5-2.1,2.3
	c-0.4,1.8-1.2,3.5-2.9,5.4c4.1-3.6,7.2-3.5,11.9-2.5c-4.8,5.8-8.2,6.8-14.4,5c-0.1-0.3-0.2-0.6-0.2-0.9c-1,1.3-1.9,2.7-2.8,4.1
	c-0.3,1.5-1,3.1-2.2,4.9c4-4.6,7.4-5,12.9-4.7c-4.5,7.2-8,8.8-15.3,7.8l-0.1-0.2c-1.1,2.1-2.2,4.2-3.1,6.4c-0.2,0.9-0.6,1.8-1,2.7
	c3.3-5.1,6.7-6,12.1-6.4c-3.4,7.5-6.6,9.7-13.6,9.8c-1.1,3-2.1,6.1-2.9,9.2c2.5-4.6,5.8-5.9,10.9-7.1c-2.2,8.2-5.2,11.2-12.1,12.5
	c-0.5,2.7-1,5.4-1.3,8.2c1.9-4.3,5-6.1,9.7-8c-0.9,8.9-3.5,12.5-10.3,15c-0.1,1.5-0.1,3-0.1,4.5c0,0.4,0,0.9,0,1.3
	c1.5-3.5,4.1-5.4,7.9-7.7c0.4,8.7-1.5,12.6-7.4,16c0.3,2.8,0.7,5.6,1.1,8.3c0.7-4.4,3.2-7.1,7.1-10.3c1.9,9.1,0.5,13.5-5.3,18.1
	c0.5,1.9,1.1,3.8,1.7,5.6c0.1-4.9,2.4-8.2,6-12.4c3.7,9.8,2.9,14.9-2.8,21c1.5,3.4,3.1,6.7,5,9.8c0.3,0.5,0.6,1,0.9,1.5
	c-3.3-8-1.6-12.7,2.4-19.3c6.1,10,6,15.6,0.5,23.8c1.7,2.5,3.5,5,5.5,7.3c-3.1-6.2-2.2-11,0.2-17.7c8.2,9,9.4,14.8,5.5,24.1
	c2.7,2.8,5.5,5.3,8.5,7.8c0.7,0.4,1.3,0.9,2,1.4c-6.5-6.5-6.7-11.8-5.5-19.9c10.1,7.4,12.2,12.9,10,23.3c3.9,2.6,7.9,5,12.1,7
	l0.4,0.2c-8.5-5.4-9.9-11-10.6-19.9c12.5,5.5,16.1,10.8,16.3,22.4c5,2,10.3,3.7,15.7,4.8c-7.7-3.1-10.4-8.1-13.3-15.9
	c13.9,2,19.2,6.2,22.6,17.5c3.7,0.4,7.4,0.6,11.2,0.6c4.1,0,8.1-0.3,12-0.7c3.5-11.2,8.7-15.4,22.6-17.4
	c-2.8,7.6-5.4,12.4-12.5,15.6c5.1-1.2,10.1-2.8,14.9-4.8c0.2-11.4,3.9-16.7,16.3-22.1c-0.6,8.2-1.9,13.6-8.7,18.6
	c3.7-1.9,7.2-4,10.6-6.4c-2-10.1,0.2-15.6,10.1-22.9c1.1,7.5,1,12.5-4.1,18.3c3.1-2.5,6.1-5.3,8.9-8.2c-3.6-9-2.3-14.7,5.7-23.6
	c2.1,5.9,3.1,10.4,1.2,15.6c1.5-1.9,2.8-3.8,4.2-5.8c-5.2-7.9-5.1-13.4,0.8-23.3c3.4,5.8,5.2,10,3.4,16.3c1.6-2.9,3-5.8,4.3-8.8
	c-5.2-5.9-5.8-11-2.2-20.5c3.2,3.6,5.3,6.6,5.9,10.5c0.4-1.4,0.8-2.8,1.2-4.2c-5.3-4.4-6.5-8.9-4.7-17.6c3.3,2.7,5.6,5.1,6.6,8.4
	c0.4-2.3,0.7-4.5,0.9-6.8c-5.4-3.3-7.1-7.3-6.7-15.6c3.2,1.9,5.6,3.6,7.1,6.2c0-1.5,0-3-0.1-4.5c-6.2-2.5-8.6-6.1-9.5-14.7
	c4,1.6,6.8,3.1,8.8,6.2c-0.3-2.2-0.7-4.3-1.1-6.5c-6.4-1.4-9.1-4.4-11.3-12.3c4.3,1,7.2,2.1,9.6,5.1c-0.7-2.5-1.5-4.9-2.3-7.2
	c-6.5-0.2-9.6-2.6-12.8-9.8c4.6,0.3,7.8,1,10.7,4.4c-1-2.4-2.1-4.7-3.3-6.9c-6.9,0.9-10.4-0.9-14.7-7.9c5.4-0.4,8.9,0,12.9,4.7
	c-0.5-0.8-0.9-1.6-1.3-2.3c-1.2-2-2.6-4-3.9-5.9v0.1c-6.3,1.8-9.6,0.7-14.4-5c4.7-1,7.9-1,11.9,2.5c-1.3-1.5-2.1-2.8-2.5-4.1
	c-0.9-1-1.8-2.1-2.7-3c-5.8,2.6-9.2,2.1-14.8-2.8c4.5-1.7,7.6-2.3,12.2,0.6c-1.4-1.2-2.4-2.3-3-3.5c-1.1-1-2.2-1.9-3.3-2.9
	c-4.7,2.9-7.8,2.8-13.3-0.8c3.8-2.1,6.5-2.9,10.9-0.9c-1.3-0.8-2.2-1.6-2.9-2.5c-1.3-0.9-2.6-1.8-3.9-2.7c-3.7,3-6.3,3.2-11.3,0.7
	c3-2.1,5.1-3.1,9-1.8c-1.4-0.7-2.3-1.4-3.1-2.2C-42.2,302.1-42.9,301.7-43.5,301.4z"/>
<g>
	<path class="st0" d="M-164.6,369.1h0.3l9.1,10l8.9-10h0.3v18.6h-3.7v-6.9c0-1.2,0.1-3.2,0.1-3.2s-1.1,1.6-2,2.6l-3.7,4.1h-0.4
		l-3.6-4.1c-0.9-1-2-2.6-2-2.6s0.1,2,0.1,3.2v6.9h-3.6v-18.6H-164.6z"/>
	<path class="st0" d="M-142.8,378.4c0-5.4,4.2-9.4,9.5-9.4c5.3,0,9.5,4,9.5,9.4s-4.2,9.4-9.5,9.4
		C-138.6,387.9-142.8,383.9-142.8,378.4z M-127.7,378.4c0-3.4-2.3-6.1-5.6-6.1c-3.4,0-5.6,2.6-5.6,6.1c0,3.4,2.3,6.1,5.6,6.1
		C-130,384.5-127.7,381.9-127.7,378.4z"/>
	<path class="st0" d="M-115.1,379.1c-0.9-0.9-2.2-2.5-2.2-2.5s0.3,2,0.3,3.4v7.7h-3.5v-18.6h0.4l9.3,8.7c0.9,0.8,2.2,2.5,2.2,2.5
		s-0.4-2.1-0.4-3.3v-7.7h3.5v18.5h-0.4L-115.1,379.1z"/>
	<path class="st0" d="M-97.5,372.6h-5.2v-3.3h14.3v3.3h-5.2v15.1h-3.8L-97.5,372.6L-97.5,372.6z"/>
	<path class="st0" d="M-87.4,378.4c0-5.4,4.2-9.4,9.5-9.4c3.3,0,5.7,1.2,7.4,3.8l-2.9,2.1c-0.9-1.4-2.4-2.4-4.5-2.4
		c-3.3,0-5.6,2.6-5.6,6s2.2,6.1,5.6,6.1c2.4,0,3.7-1.1,4.7-2.7l2.9,2c-1.6,2.5-4.1,4.1-7.7,4.1C-83.2,387.9-87.4,383.9-87.4,378.4z"
		/>
	<path class="st0" d="M-67.4,369.3h3.8v15.1h8.3v3.3h-12.1V369.3z"/>
	<path class="st0" d="M-45.5,369.1h0.3l8.4,18.5h-4l-0.9-2.1h-7.5l-0.9,2.1h-3.7L-45.5,369.1z M-43,382.4l-1.3-3.2
		c-0.5-1.3-1.1-3.3-1.1-3.3s-0.5,2-1.1,3.3l-1.3,3.2H-43z"/>
	<path class="st0" d="M-34.2,369.3h3.8v18.4h-3.8V369.3z"/>
	<path class="st0" d="M-13.1,387.6h-4.4l-3-4.7c-0.4,0.1-0.7,0.1-1.1,0.1h-1.3v4.6h-3.8v-18.3h5.1c5.1,0,8.2,2.5,8.2,6.9
		c0,2.9-1.3,4.7-3.5,5.7L-13.1,387.6z M-21.7,379.8c3.1,0,4.4-1,4.4-3.6s-1.4-3.6-4.4-3.6h-1.2v7.2H-21.7z"/>
	<path class="st0" d="M-165.4,392.8h10.1v2.8h-6.9v5.2h6.3v2.9h-6.2v4.8h-3.2L-165.4,392.8L-165.4,392.8z"/>
	<path class="st0" d="M-152.5,392.8h3.2v15.7h-3.2V392.8z"/>
	<path class="st0" d="M-146.1,392.8h3.2v12.8h7.1v2.8h-10.3V392.8z"/>
	<path class="st0" d="M-133.1,392.7h0.3l7.7,8.5l7.6-8.5h0.3v15.8h-3.1v-5.9c0-1.1,0.1-2.7,0.1-2.7s-0.9,1.4-1.7,2.2l-3.1,3.5h-0.3
		l-3.1-3.5c-0.7-0.8-1.7-2.2-1.7-2.2s0.1,1.7,0.1,2.7v5.9h-3.1C-133.1,408.5-133.1,392.7-133.1,392.7z"/>
	<path class="st0" d="M-108.9,392.8h10.1v2.8h-6.9v5.2h6.2v2.9h-6.2v4.8h-3.2V392.8z"/>
	<path class="st0" d="M-96.1,392.8h10.4v2.8h-7.1v5h6.3v2.8h-6.3v2.3h7.5v2.8H-96L-96.1,392.8L-96.1,392.8z"/>
	<path class="st0" d="M-83.7,405.4l2.6-1.5c0.7,1.1,1.6,2,3.2,2c1.3,0,2.2-0.7,2.2-1.6c0-1.1-0.9-1.5-2.3-2.1l-0.8-0.3
		c-2.3-1-3.9-2.2-3.9-4.9c0-2.4,1.8-4.3,4.7-4.3c2,0,3.5,0.7,4.6,2.6l-2.5,1.6c-0.6-1-1.2-1.4-2.1-1.4c-0.9,0-1.5,0.6-1.5,1.4
		c0,1,0.6,1.4,2,2l0.8,0.3c2.7,1.2,4.3,2.4,4.3,5.1c0,2.9-2.3,4.5-5.3,4.5C-80.8,408.7-82.8,407.3-83.7,405.4z"/>
	<path class="st0" d="M-66.9,395.7h-4.5v-2.8h12.2v2.8h-4.5v12.8h-3.2V395.7z"/>
	<path class="st0" d="M-56.7,392.8h3.2v15.7h-3.2V392.8z"/>
	<path class="st0" d="M-51.3,392.8h3.5l2.7,6c0.6,1.3,1.2,3.5,1.2,3.5s0.6-2.2,1.2-3.5l2.6-6h3.1l-6.9,15.8h-0.3L-51.3,392.8z"/>
	<path class="st0" d="M-32.2,392.7h0.3l7.2,15.8h-3.4l-0.7-1.8h-6.4l-0.7,1.8H-39L-32.2,392.7z M-30.1,404l-1.1-2.7
		c-0.5-1.1-0.9-2.8-0.9-2.8s-0.5,1.7-0.9,2.8L-34,404H-30.1z"/>
	<path class="st0" d="M-22.7,392.8h3.2v12.8h7.1v2.8h-10.3V392.8z"/>
</g>
<g>
	<path class="st0" d="M-105.6,356.9l3.6-5.9c1.2-2,2.1-3.7,2.1-5.4v-0.3c0-1.7-0.9-2.5-2-2.5s-1.7,0.6-2.2,1.6l-1.2-0.9
		c0.7-1.4,1.8-2.3,3.5-2.3c1.9,0,3.5,1.4,3.5,4v0.3c0,2.1-1.1,4-2.5,6.3l-2.2,3.7h5v1.5L-105.6,356.9L-105.6,356.9L-105.6,356.9z"/>
	<path class="st0" d="M-96.8,349.6V349c0-4.8,2-7.7,4.8-7.7s4.8,2.9,4.8,7.7v0.6c0,4.8-2,7.7-4.8,7.7
		C-94.9,357.3-96.8,354.4-96.8,349.6z M-88.8,349.5V349c0-3.8-1.2-6.1-3.2-6.1c-2,0-3.2,2.3-3.2,6.1v0.6c0,3.8,1.2,6.2,3.2,6.2
		C-90,355.7-88.8,353.4-88.8,349.5z"/>
	<path class="st0" d="M-84.2,343.1h-1.7v-1.5h3.3V357h-1.6C-84.2,357-84.2,343.1-84.2,343.1z"/>
	<path class="st0" d="M-80.4,355.9l0.9-1.1c0.6,0.6,1.3,1,2.3,1c1.5,0,2.7-1.2,2.7-3.6V352c0-2.2-1.1-3.4-2.5-3.4
		c-1.1,0-1.9,0.5-2.5,1.1l-0.2-0.1v-8.2h6v1.6h-4.7v4.6c0.3-0.2,0.9-0.5,1.7-0.5c2,0,3.7,1.7,3.7,4.9v0.2c0,3.2-1.8,5-4.2,5
		C-78.8,357.3-79.7,356.6-80.4,355.9z"/>
</g>
<g>
	<path class="st0" d="M-147.7,424.9c0-2.5,1.8-4.4,4-4.4s4,1.9,4,4.4s-1.8,4.4-4,4.4S-147.7,427.5-147.7,424.9z M-141.4,424.9
		c0-1.6-1-2.8-2.4-2.8s-2.4,1.2-2.4,2.8s1,2.8,2.4,2.8C-142.3,427.8-141.4,426.5-141.4,424.9z"/>
	<path class="st0" d="M-138.3,420.7h5v1.6h-3.4v2.8h3.1v1.6h-3.1v2.6h-1.6V420.7z"/>
	<path class="st0" d="M-131.6,420.7h5v1.6h-3.4v2.8h3.1v1.6h-3.1v2.6h-1.6V420.7z"/>
	<path class="st0" d="M-124.9,420.7h1.6v8.6h-1.6V420.7z"/>
	<path class="st0" d="M-121.9,424.9c0-2.5,1.8-4.4,4-4.4c1.4,0,2.4,0.6,3.1,1.8l-1.2,1c-0.4-0.7-1-1.1-1.9-1.1
		c-1.4,0-2.4,1.2-2.4,2.8s1,2.8,2.4,2.8c1,0,1.6-0.5,2-1.3l1.3,0.9c-0.7,1.2-1.8,1.9-3.3,1.9C-120.1,429.3-121.9,427.5-121.9,424.9z
		"/>
	<path class="st0" d="M-113.1,420.7h1.6v8.6h-1.6V420.7z"/>
	<path class="st0" d="M-106.7,420.6L-106.7,420.6l3.7,8.7h-1.7l-0.4-1h-3.2l-0.4,1h-1.5L-106.7,420.6z M-105.6,426.8l-0.6-1.5
		c-0.2-0.6-0.5-1.5-0.5-1.5s-0.2,0.9-0.5,1.5l-0.6,1.5H-105.6z"/>
	<path class="st0" d="M-101.6,420.7h1.6v7h3.5v1.6h-5.1V420.7z"/>
	<path class="st0" d="M-92.8,427.5l1.3-0.8c0.3,0.6,0.8,1.1,1.6,1.1c0.7,0,1.1-0.4,1.1-0.9c0-0.6-0.4-0.8-1.2-1.2l-0.4-0.2
		c-1.2-0.5-1.9-1.2-1.9-2.7c0-1.3,0.9-2.3,2.4-2.3c1,0,1.8,0.4,2.3,1.4l-1.3,0.9c-0.3-0.5-0.6-0.8-1-0.8c-0.5,0-0.8,0.3-0.8,0.8
		s0.3,0.7,1,1.1l0.4,0.2c1.4,0.6,2.1,1.3,2.1,2.8c0,1.6-1.1,2.5-2.7,2.5C-91.3,429.3-92.3,428.6-92.8,427.5z"/>
	<path class="st0" d="M-85.7,420.7h5.2v1.6h-3.6v2.7h3.1v1.5h-3.1v1.2h3.7v1.6h-5.3C-85.7,429.3-85.7,420.7-85.7,420.7z"/>
	<path class="st0" d="M-78.6,420.7h1.6v7h3.5v1.6h-5.1V420.7z"/>
	<path class="st0" d="M-71.8,420.7h5.2v1.6h-3.6v2.7h3.1v1.5h-3.1v1.2h3.7v1.6h-5.3V420.7z"/>
	<path class="st0" d="M-65.3,424.9c0-2.5,1.8-4.4,4-4.4c1.4,0,2.4,0.6,3.1,1.8l-1.2,1c-0.4-0.7-1-1.1-1.9-1.1
		c-1.4,0-2.4,1.2-2.4,2.8s1,2.8,2.4,2.8c1,0,1.6-0.5,2-1.3l1.3,0.9c-0.7,1.2-1.8,1.9-3.3,1.9C-63.6,429.3-65.3,427.5-65.3,424.9z"/>
	<path class="st0" d="M-55,422.2h-2.2v-1.6h6.1v1.6h-2.2v7H-55V422.2z"/>
	<path class="st0" d="M-49.7,420.7h1.6v8.6h-1.6V420.7z"/>
	<path class="st0" d="M-46.4,424.9c0-2.5,1.8-4.4,4-4.4c2.2,0,4,1.9,4,4.4s-1.8,4.4-4,4.4C-44.6,429.3-46.4,427.5-46.4,424.9z
		 M-40,424.9c0-1.6-1-2.8-2.4-2.8c-1.4,0-2.4,1.2-2.4,2.8s1,2.8,2.4,2.8C-41,427.8-40,426.5-40,424.9z"/>
	<path class="st0" d="M-34.6,425.2c-0.4-0.4-0.9-1.2-0.9-1.2s0.1,0.9,0.1,1.6v3.6h-1.5v-8.7h0.2l3.9,4.1c0.4,0.4,0.9,1.2,0.9,1.2
		s-0.1-1-0.1-1.6v-3.6h1.5v8.7h-0.2L-34.6,425.2z"/>
</g>
</svg>
