<?xml version="1.0" encoding="utf-8"?>
<!-- Generator: Adobe Illustrator 18.1.1, SVG Export Plug-In . SVG Version: 6.00 Build 0)  -->
<!DOCTYPE svg PUBLIC "-//W3C//DTD SVG 1.1//EN" "http://www.w3.org/Graphics/SVG/1.1/DTD/svg11.dtd">
<svg version="1.1" id="Layer_1" xmlns="http://www.w3.org/2000/svg" xmlns:xlink="http://www.w3.org/1999/xlink" x="0px" y="0px"
	 viewBox="-0.1 112.1 612.1 568.3" enable-background="new -0.1 112.1 612.1 568.3" xml:space="preserve">
<path fill="#FFFFFF" d="M435.7,124.3c1.7,0.9,3.7,2,5.4,2.8c-3.4-4-5.1-8.8-6.2-15c15.6,4.5,20.4,10.2,22.4,24.1l-0.3,0.3
	c3.4,2,6.5,4.3,9.7,6.5c-3.7-5.1-4.8-11.1-5.4-18.7c17.6,7.4,22.4,14.8,22.7,31.5h-0.3c2.6,2,4.8,4,7.1,6
	c-2.6-5.7-2.8-11.9-2.6-19.9c17.9,10.8,22.7,19.6,20.7,37.2c2,2,4,4.3,6,6.2c-1.1-5.7-0.3-11.4,1.1-18.7c15.6,12.8,19,22.1,15,38
	c2.6,3.4,5.1,7.1,7.7,10.8c-1.1-7.7,0.6-14.8,3.7-23.6c15.6,17,17.9,28.1,10.2,46.3c2.6,4.5,5.1,9.4,7.4,14.2
	c-1.1-9.1,1.7-16.5,6.8-25.8c13.3,19.6,13.9,30.7,3.1,48.3c2.6,6.8,4.8,13.3,6.8,20.4c-0.9-11.4,3.7-19.3,11.1-29.8
	c11.1,23,9.4,34.6-5.1,51.7h-0.6c1.7,7.7,2.8,15.6,4,23.6c0-14.2,6.2-22.4,17-32.9c7.7,25.8,4.3,38-13.9,53.4l-1.1-0.3
	c0.3,4.8,0.3,9.9,0.3,15c0,3.1,0,6.5-0.3,9.7c0.3,1.4,0.6,2.8,0.6,4.5c0.6-19.6,8.2-27.8,22.1-38c4,26.7-1.4,38.3-21.6,50.8
	c-0.9-0.3-1.4-0.9-2.3-1.1c-0.9,8.5-2,17-3.4,25.5c4.8-14.2,13.6-20.2,27.3-27.3c-0.6,28.4-7.9,39.5-30.9,49.1l-1.1-0.9
	c-1.7,6.8-4,13.6-6.2,20.2c7.7-15.9,18.7-21.3,35.8-27c-5.4,31.5-15.6,42.3-42.9,48.8l-1.1-1.1c-1.7,4-3.7,8.2-5.7,12.2
	c9.1-7.1,19.6-9.7,33.5-11.6c-11.6,30.7-23.8,40.6-51.4,42.6c-3.7,5.4-7.4,10.5-11.1,15.6c12.5-8.5,25-9.1,42-8.2
	c-18.7,30.4-33.8,37.8-64.2,33.8c-4,4-7.9,7.9-11.9,11.6c11.6-3.4,23-1.4,37.5,2.3c-23.6,25.3-39.5,30.1-67,21
	c-5.7,4-11.6,7.7-17.6,11.4c14.5-1.4,26.4,3.4,41.7,11.4c-31.5,21.3-49.7,22.4-76.9,6.2c-11.6,4.8-23.6,8.8-35.8,12.2
	c16.7,1.7,28.1,10.2,42.3,23.8c-38,12.8-56.8,8.5-80-16.5c-11.4,1.4-23.3,2.3-34.9,2.3c-11.1,0-22.1-0.6-33.2-2
	c-23.3,24.7-42,29-79.8,16.2c13.6-13.1,25-21.3,40.9-23.6c-12.2-3.1-23.8-7.1-35.2-11.6c-27,15.6-45.1,14.5-76.1-6.8
	c14.5-7.7,26.1-12.2,39.5-11.4c-5.7-3.4-11.1-6.8-16.5-10.5c-26.4,8.2-42.3,3.1-65.6-21.6c13.3-3.4,23.8-5.4,34.6-3.1
	c-3.7-3.4-7.4-7.1-11.1-10.5c-29.2,3.4-44-4.3-62.4-33.8c15.3-0.9,27-0.6,38,5.7c-3.4-4.3-6.5-8.8-9.4-13.3
	c-26.1-2.6-38-12.5-49.1-42.3c12.2,1.7,21.9,3.7,30.4,9.1c-1.4-2.8-2.8-6-4-8.8C19.3,484.3,9.4,473.2,3.7,442
	c13.9,4.5,23.6,9.1,30.9,19c-1.1-4-2.3-7.9-3.4-11.9c-22.1-9.4-29.5-20.4-30.1-48.5c11.1,5.7,18.7,10.8,23.8,19.6
	c-0.9-5.4-1.4-11.1-2-16.7h-0.3c-20-12.6-25.4-24-21.5-50.9c10.8,7.9,17.6,14.5,20.7,25.8v-2c0-5.1,0-10.2,0.3-15.3
	C4.8,346,1.4,333.8,9.1,308.6c8.2,8.2,13.9,15,15.9,24.4c0.9-5.4,2-11.1,3.1-16.2c-13.3-17.3-14.5-29-3.7-51.1
	c6,8.2,10.2,15,11.1,23.3c1.7-5.4,3.7-10.8,5.7-16.2c-9.4-16.5-8.5-27.5,4.3-46.3c4,7.7,6.8,14.2,6.8,21.3c2-4,4-7.7,6.2-11.6
	c-6.5-16.7-4-27.5,11.1-44c2.6,7.4,4.3,13.6,4,20.2c2.3-3.1,4.5-6.2,6.8-9.1c-3.1-14.8,0.9-23.6,15.6-36.1c1.1,6,2,11.1,1.4,15.9
	c1.7-2,3.4-3.7,5.4-5.7c-1.4-16.5,3.4-25,20.7-35.2c0.3,6.8,0.3,12.2-1.4,17.3c2-1.7,4-3.4,6-4.8c0.6-15.6,5.7-22.7,22.7-30.1
	c-0.3,6-1.4,11.4-3.7,15.9c2.6-1.7,5.4-3.4,7.9-5.1c2-13.1,7.1-18.7,22.1-23c-1.1,5.4-2.3,9.7-4.8,13.1l1.7-0.9l-1.7,0.9
	c-2.3,3.1-5.4,6-10.5,8.2c11.1-3.4,17-0.9,25.5,5.1c-14.5,7.1-21.9,6.2-32.6-2.6v-0.9c-2.8,2-5.7,3.7-8.5,5.7
	c-2.3,3.7-5.4,6.8-10.5,10.2c12.5-5.7,20.2-3.4,30.9,2.6c-15.9,10.5-24.7,10.5-38.9,1.7v-0.3c-2.3,2-4.5,3.7-6.5,5.7
	c-1.7,4.5-5.1,8.8-10.2,13.3c13.1-8.2,21.9-6.8,34.6-1.7c-16.2,14.2-25.8,15.3-42.9,7.7l-0.3-1.1c-2,2.3-4,4.3-6,6.5
	c-1.1,5.1-3.4,9.9-8.2,15.3c11.6-10.2,20.4-9.9,33.8-7.1c-13.6,16.5-23.3,19.3-40.9,14.2c-0.3-0.9-0.6-1.7-0.6-2.6
	c-2.8,3.7-5.4,7.7-7.9,11.6c-0.9,4.3-2.8,8.8-6.2,13.9c11.4-13.1,21-14.2,36.6-13.3c-12.8,20.4-22.7,25-43.4,22.1l-0.3-0.6
	c-3.1,6-6.2,11.9-8.8,18.2c-0.6,2.6-1.7,5.1-2.8,7.7c9.4-14.5,19-17,34.3-18.2c-9.7,21.3-18.7,27.5-38.6,27.8
	c-3.1,8.5-6,17.3-8.2,26.1c7.1-13.1,16.5-16.7,30.9-20.2c-6.2,23.3-14.8,31.8-34.3,35.5c-1.4,7.7-2.8,15.3-3.7,23.3
	c5.4-12.2,14.2-17.3,27.5-22.7c-2.6,25.3-9.9,35.5-29.2,42.6c-0.3,4.3-0.3,8.5-0.3,12.8c0,1.1,0,2.6,0,3.7
	c4.3-9.9,11.6-15.3,22.4-21.9c1.1,24.7-4.3,35.8-21,45.4c0.9,7.9,2,15.9,3.1,23.6c2-12.5,9.1-20.2,20.2-29.2
	c5.4,25.8,1.4,38.3-15,51.4c1.4,5.4,3.1,10.8,4.8,15.9c0.3-13.9,6.8-23.3,17-35.2c10.5,27.8,8.2,42.3-7.9,59.6
	c4.3,9.7,8.8,19,14.2,27.8c0.9,1.4,1.7,2.8,2.6,4.3c-9.4-22.7-4.5-36.1,6.8-54.8c17.3,28.4,17,44.3,1.4,67.6
	c4.8,7.1,9.9,14.2,15.6,20.7c-8.8-17.6-6.2-31.2,0.6-50.2c23.3,25.5,26.7,42,15.6,68.4c7.7,7.9,15.6,15,24.1,22.1
	c2,1.1,3.7,2.6,5.7,4c-18.5-18.5-19-33.5-15.6-56.5c28.7,21,34.6,36.6,28.4,66.1c11.1,7.4,22.4,14.2,34.3,19.9l1.1,0.6
	c-24.1-15.3-28.1-31.2-30.1-56.5c35.5,15.6,45.7,30.7,46.3,63.6c14.2,5.7,29.2,10.5,44.6,13.6c-21.9-8.8-29.5-23-37.8-45.1
	c39.5,5.7,54.5,17.6,64.2,49.7c10.5,1.1,21,1.7,31.8,1.7c11.6,0,23-0.9,34.1-2c9.9-31.8,24.7-43.7,64.2-49.4
	c-7.9,21.6-15.3,35.2-35.5,44.3c14.5-3.4,28.7-7.9,42.3-13.6c0.6-32.4,11.1-47.4,46.3-62.7c-1.7,23.3-5.4,38.6-24.7,52.8
	c10.5-5.4,20.4-11.4,30.1-18.2c-5.7-28.7,0.6-44.3,28.7-65c3.1,21.3,2.8,35.5-11.6,51.9c8.8-7.1,17.3-15,25.3-23.3
	c-10.2-25.5-6.5-41.7,16.2-67c6,16.7,8.8,29.5,3.4,44.3c4.3-5.4,7.9-10.8,11.9-16.5c-14.8-22.4-14.5-38,2.3-66.1
	c9.7,16.5,14.8,28.4,9.7,46.3c4.5-8.2,8.5-16.5,12.2-25c-14.8-16.7-16.5-31.2-6.2-58.2c9.1,10.2,15,18.7,16.7,29.8
	c1.1-4,2.3-7.9,3.4-11.9c-15-12.5-18.5-25.3-13.3-50c9.4,7.7,15.9,14.5,18.7,23.8c1.1-6.5,2-12.8,2.6-19.3
	c-15.3-9.4-20.2-20.7-19-44.3c9.1,5.4,15.9,10.2,20.2,17.6c0-4.3,0-8.5-0.3-12.8c-17.6-7.1-24.4-17.3-27-41.7
	c11.4,4.5,19.3,8.8,25,17.6c-0.9-6.2-2-12.2-3.1-18.5c-18.2-4-25.8-12.5-32.1-34.9c12.2,2.8,20.4,6,27.3,14.5
	c-2-7.1-4.3-13.9-6.5-20.4c-18.5-0.6-27.3-7.4-36.3-27.8c13.1,0.9,22.1,2.8,30.4,12.5c-2.8-6.8-6-13.3-9.4-19.6
	c-19.6,2.6-29.5-2.6-41.7-22.4c15.3-1.1,25.3,0,36.6,13.3c-1.4-2.3-2.6-4.5-3.7-6.5c-3.4-5.7-7.4-11.4-11.1-16.7v0.3
	c-17.9,5.1-27.3,2-40.9-14.2c13.3-2.8,22.4-2.8,33.8,7.1c-3.7-4.3-6-7.9-7.1-11.6c-2.6-2.8-5.1-6-7.7-8.5c-16.5,7.4-26.1,6-42-7.9
	c12.8-4.8,21.6-6.5,34.6,1.7c-4-3.4-6.8-6.5-8.5-9.9c-3.1-2.8-6.2-5.4-9.4-8.2c-13.3,8.2-22.1,7.9-37.8-2.3
	c10.8-6,18.5-8.2,30.9-2.6c-3.7-2.3-6.2-4.5-8.2-7.1c-3.7-2.6-7.4-5.1-11.1-7.7c-10.5,8.5-17.9,9.1-32.1,2c8.5-6,14.5-8.8,25.5-5.1
	c-4-2-6.5-4-8.8-6.2C439.4,126.3,437.4,125.2,435.7,124.3z"/>
<g>
	<path fill="#FFFFFF" d="M91.7,316.8h0.9l25.8,28.4l25.3-28.4h0.9v52.8H134V350c0-3.4,0.3-9.1,0.3-9.1s-3.1,4.5-5.7,7.4l-10.5,11.6
		H117l-10.2-11.6c-2.6-2.8-5.7-7.4-5.7-7.4s0.3,5.7,0.3,9.1v19.6H91.1v-52.8L91.7,316.8L91.7,316.8z"/>
	<path fill="#FFFFFF" d="M153.9,343.2c0-15.3,11.9-26.7,27-26.7s27,11.4,27,26.7s-11.9,26.7-27,26.7
		C165.8,370.2,153.9,358.8,153.9,343.2z M196.7,343.2c0-9.7-6.5-17.3-15.9-17.3c-9.7,0-15.9,7.4-15.9,17.3c0,9.7,6.5,17.3,15.9,17.3
		S196.7,353.1,196.7,343.2z"/>
	<path fill="#FFFFFF" d="M232.5,345.2c-2.6-2.6-6.2-7.1-6.2-7.1s0.9,5.7,0.9,9.7v21.9h-9.9v-52.8h1.1l26.4,24.7
		c2.6,2.3,6.2,7.1,6.2,7.1s-1.1-6-1.1-9.4v-21.9h9.9v52.5h-1.1L232.5,345.2z"/>
	<path fill="#FFFFFF" d="M282.4,326.7h-14.8v-9.4h40.6v9.4h-14.8v42.9h-10.8v-42.9H282.4z"/>
	<path fill="#FFFFFF" d="M311.1,343.2c0-15.3,11.9-26.7,27-26.7c9.4,0,16.2,3.4,21,10.8l-8.2,6c-2.6-4-6.8-6.8-12.8-6.8
		c-9.4,0-15.9,7.4-15.9,17c0,9.7,6.2,17.3,15.9,17.3c6.8,0,10.5-3.1,13.3-7.7l8.2,5.7c-4.5,7.1-11.6,11.6-21.9,11.6
		C323,370.2,311.1,358.8,311.1,343.2z"/>
	<path fill="#FFFFFF" d="M367.9,317.4h10.8v42.9h23.6v9.4H368v-52.3H367.9z"/>
	<path fill="#FFFFFF" d="M430,316.8h0.9l23.8,52.5h-11.4l-2.6-6h-21.3l-2.6,6h-10.5L430,316.8z M437.1,354.6l-3.7-9.1
		c-1.4-3.7-3.1-9.4-3.1-9.4s-1.4,5.7-3.1,9.4l-3.7,9.1H437.1z"/>
	<path fill="#FFFFFF" d="M462.1,317.4h10.8v52.2h-10.8V317.4z"/>
	<path fill="#FFFFFF" d="M522.3,369.3h-12.5l-8.5-13.3c-1.1,0.3-2,0.3-3.1,0.3h-3.7v13.1h-10.8v-51.9h14.5
		c14.5,0,23.3,7.1,23.3,19.6c0,8.2-3.7,13.3-9.9,16.2L522.3,369.3z M497.9,347.2c8.8,0,12.5-2.8,12.5-10.2c0-7.4-4-10.2-12.5-10.2
		h-3.4v20.4L497.9,347.2L497.9,347.2z"/>
	<path fill="#FFFFFF" d="M89.4,384.1h28.7v7.9H98.5v14.8h17.9v8.2H98.8v13.6h-9.1V384h-0.3V384.1z"/>
	<path fill="#FFFFFF" d="M126,384.1h9.1v44.6H126V384.1z"/>
	<path fill="#FFFFFF" d="M144.5,384.1h9.1v36.3h20.2v7.9h-29.2v-44.2H144.5z"/>
	<path fill="#FFFFFF" d="M181.4,383.8h0.9l21.9,24.1l21.6-24.1h0.9v44.8h-8.8v-16.7c0-3.1,0.3-7.7,0.3-7.7s-2.6,4-4.8,6.2l-8.8,9.9
		h-0.9l-8.8-9.9c-2-2.3-4.8-6.2-4.8-6.2s0.3,4.8,0.3,7.7v16.7h-8.8L181.4,383.8L181.4,383.8z"/>
	<path fill="#FFFFFF" d="M250.1,384.1h28.7v7.9h-19.6v14.8h17.6v8.2h-17.6v13.6h-9.1V384.1z"/>
	<path fill="#FFFFFF" d="M286.4,384.1h29.5v7.9h-20.2v14.2h17.9v7.9h-17.9v6.5H317v7.9h-30.4v-44.6h-0.2V384.1z"/>
	<path fill="#FFFFFF" d="M321.6,419.8l7.4-4.3c2,3.1,4.5,5.7,9.1,5.7c3.7,0,6.2-2,6.2-4.5c0-3.1-2.6-4.3-6.5-6l-2.3-0.9
		c-6.5-2.8-11.1-6.2-11.1-13.9c0-6.8,5.1-12.2,13.3-12.2c5.7,0,9.9,2,13.1,7.4l-7.1,4.5c-1.7-2.8-3.4-4-6-4s-4.3,1.7-4.3,4
		c0,2.8,1.7,4,5.7,5.7l2.3,0.9c7.7,3.4,12.2,6.8,12.2,14.5c0,8.2-6.5,12.8-15,12.8C329.8,429.2,324.2,425.2,321.6,419.8z"/>
	<path fill="#FFFFFF" d="M369.3,392.3h-12.8v-7.9h34.6v7.9h-12.8v36.3h-9.1L369.3,392.3L369.3,392.3z"/>
	<path fill="#FFFFFF" d="M398.3,384.1h9.1v44.6h-9.1V384.1z"/>
	<path fill="#FFFFFF" d="M413.6,384.1h9.9l7.7,17c1.7,3.7,3.4,9.9,3.4,9.9s1.7-6.2,3.4-9.9l7.4-17h8.8l-19.6,44.8h-0.9L413.6,384.1z
		"/>
	<path fill="#FFFFFF" d="M467.8,383.8h0.9l20.4,44.8h-9.7l-2-5.1h-18.2l-2,5.1h-8.8L467.8,383.8z M474,415.9l-3.1-7.7
		c-1.4-3.1-2.6-7.9-2.6-7.9s-1.4,4.8-2.6,7.9l-3.1,7.7H474z"/>
	<path fill="#FFFFFF" d="M495.1,384.1h9.1v36.3h20.2v7.9h-29.2v-44.2H495.1z"/>
</g>
<g>
	<path fill="#FFFFFF" d="M259.4,282.2l10.2-16.7c3.4-5.7,6-10.5,6-15.3v-0.9c0-4.8-2.6-7.1-5.7-7.1s-4.8,1.7-6.2,4.5l-3.4-2.6
		c2-4,5.1-6.5,9.9-6.5c5.4,0,9.9,4,9.9,11.4v0.9c0,6-3.1,11.4-7.1,17.9l-6.2,10.5H281v4.3h-21.3v-0.3L259.4,282.2L259.4,282.2z"/>
	<path fill="#FFFFFF" d="M284.4,261.5v-1.7c0-13.6,5.7-21.9,13.6-21.9s13.6,8.2,13.6,21.9v1.7c0,13.6-5.7,21.9-13.6,21.9
		C289.8,283.3,284.4,275.1,284.4,261.5z M307.1,261.2v-1.4c0-10.8-3.4-17.3-9.1-17.3s-9.1,6.5-9.1,17.3v1.7
		c0,10.8,3.4,17.6,9.1,17.6C303.7,278.8,307.1,272.2,307.1,261.2z"/>
	<path fill="#FFFFFF" d="M320.2,243h-4.8v-4.3h9.4v43.7h-4.5V243H320.2z"/>
	<path fill="#FFFFFF" d="M331,279.3l2.6-3.1c1.7,1.7,3.7,2.8,6.5,2.8c4.3,0,7.7-3.4,7.7-10.2v-0.6c0-6.2-3.1-9.7-7.1-9.7
		c-3.1,0-5.4,1.4-7.1,3.1l-0.6-0.3V238h17v4.5h-13.3v13.1c0.9-0.6,2.6-1.4,4.8-1.4c5.7,0,10.5,4.8,10.5,13.9v0.6
		c0,9.1-5.1,14.2-11.9,14.2C335.5,283.3,333,281.3,331,279.3z"/>
</g>
<g>
	<path fill="#FFFFFF" d="M139.7,475.2c0-7.1,5.1-12.5,11.4-12.5s11.4,5.4,11.4,12.5s-5.1,12.5-11.4,12.5S139.7,482.6,139.7,475.2z
		 M157.8,475.2c0-4.5-2.8-7.9-6.8-7.9s-6.8,3.4-6.8,7.9s2.8,7.9,6.8,7.9C155.3,483.4,157.8,479.7,157.8,475.2z"/>
	<path fill="#FFFFFF" d="M166.6,463.3h14.2v4.5h-9.7v7.9h8.8v4.5h-8.8v7.4h-4.5V463.3z"/>
	<path fill="#FFFFFF" d="M185.6,463.3h14.2v4.5h-9.7v7.9h8.8v4.5h-8.8v7.4h-4.5V463.3z"/>
	<path fill="#FFFFFF" d="M204.7,463.3h4.5v24.4h-4.5V463.3z"/>
	<path fill="#FFFFFF" d="M213.2,475.2c0-7.1,5.1-12.5,11.4-12.5c4,0,6.8,1.7,8.8,5.1l-3.4,2.8c-1.1-2-2.8-3.1-5.4-3.1
		c-4,0-6.8,3.4-6.8,7.9s2.8,7.9,6.8,7.9c2.8,0,4.5-1.4,5.7-3.7l3.7,2.6c-2,3.4-5.1,5.4-9.4,5.4C218.3,487.7,213.2,482.6,213.2,475.2
		z"/>
	<path fill="#FFFFFF" d="M238.2,463.3h4.5v24.4h-4.5V463.3z"/>
	<path fill="#FFFFFF" d="M256.3,463h0.3l10.2,24.7H262l-1.1-2.8h-9.1l-1.1,2.8h-4.3L256.3,463z M259.4,480.6l-1.7-4.3
		c-0.6-1.7-1.4-4.3-1.4-4.3s-0.6,2.6-1.4,4.3l-1.7,4.3H259.4z"/>
	<path fill="#FFFFFF" d="M270.8,463.3h4.5v19.9h9.9v4.5h-14.5v-24.4H270.8z"/>
	<path fill="#FFFFFF" d="M295.8,482.6l3.7-2.3c0.9,1.7,2.3,3.1,4.5,3.1c2,0,3.1-1.1,3.1-2.6c0-1.7-1.1-2.3-3.4-3.4l-1.1-0.6
		c-3.4-1.4-5.4-3.4-5.4-7.7c0-3.7,2.6-6.5,6.8-6.5c2.8,0,5.1,1.1,6.5,4l-3.7,2.6c-0.9-1.4-1.7-2.3-2.8-2.3c-1.4,0-2.3,0.9-2.3,2.3
		s0.9,2,2.8,3.1l1.1,0.6c4,1.7,6,3.7,6,7.9c0,4.5-3.1,7.1-7.7,7.1C300,487.7,297.2,485.7,295.8,482.6z"/>
	<path fill="#FFFFFF" d="M315.9,463.3h14.8v4.5h-10.2v7.7h8.8v4.3h-8.8v3.4H331v4.5h-15v-24.4H315.9z"/>
	<path fill="#FFFFFF" d="M336.1,463.3h4.5v19.9h9.9v4.5H336v-24.4H336.1z"/>
	<path fill="#FFFFFF" d="M355.4,463.3h14.8v4.5H360v7.7h8.8v4.3H360v3.4h10.5v4.5h-15L355.4,463.3L355.4,463.3z"/>
	<path fill="#FFFFFF" d="M373.8,475.2c0-7.1,5.1-12.5,11.4-12.5c4,0,6.8,1.7,8.8,5.1l-3.4,2.8c-1.1-2-2.8-3.1-5.4-3.1
		c-4,0-6.8,3.4-6.8,7.9s2.8,7.9,6.8,7.9c2.8,0,4.5-1.4,5.7-3.7l3.7,2.6c-2,3.4-5.1,5.4-9.4,5.4C378.7,487.7,373.8,482.6,373.8,475.2
		z"/>
	<path fill="#FFFFFF" d="M403.1,467.5h-6.2V463h17.3v4.5H408v19.9h-4.8L403.1,467.5L403.1,467.5z"/>
	<path fill="#FFFFFF" d="M418.1,463.3h4.5v24.4h-4.5V463.3z"/>
	<path fill="#FFFFFF" d="M427.5,475.2c0-7.1,5.1-12.5,11.4-12.5c6.2,0,11.4,5.4,11.4,12.5s-5.1,12.5-11.4,12.5
		S427.5,482.6,427.5,475.2z M445.7,475.2c0-4.5-2.8-7.9-6.8-7.9s-6.8,3.4-6.8,7.9s2.8,7.9,6.8,7.9
		C442.8,483.4,445.7,479.7,445.7,475.2z"/>
	<path fill="#FFFFFF" d="M461,476c-1.1-1.1-2.6-3.4-2.6-3.4s0.3,2.6,0.3,4.5v10.2h-4.3v-24.7h0.6l11.1,11.6c1.1,1.1,2.6,3.4,2.6,3.4
		s-0.3-2.8-0.3-4.5V463h4.3v24.7h-0.6L461,476z"/>
</g>
</svg>
