<?xml version="1.0" encoding="UTF-8" standalone="no"?>
<svg width="613px" height="375px" viewBox="0 0 613 375" version="1.1" xmlns="http://www.w3.org/2000/svg" xmlns:xlink="http://www.w3.org/1999/xlink" xmlns:sketch="http://www.bohemiancoding.com/sketch/ns">
    <title>Slice 1</title>
    <description>Created with Sketch (http://www.bohemiancoding.com/sketch)</description>
    <defs></defs>
    <g id="Page-1" stroke="none" stroke-width="1" fill="none" fill-rule="evenodd" sketch:type="MSPage">
        <g id="newportFILMlaurel-white" sketch:type="MSLayerGroup" transform="translate(1.000000, 0.000000)" fill="#FFFFFF">
            <g id="Group" sketch:type="MSShapeGroup">
                <path d="M107.7,149.5 L107.7,149.5 C107.7,143.8 111.9,138.7 118.1,138.7 C124.4,138.7 128.5,143.7 128.5,149.3 L128.5,149.4 C128.5,155 124.3,160.1 118.1,160.1 C111.8,160 107.7,155 107.7,149.5 L107.7,149.5 Z M126.9,149.5 L126.9,149.5 C126.9,144.3 123.2,140.1 118.1,140.1 C113,140.1 109.3,144.2 109.3,149.3 L109.3,149.4 C109.3,154.5 113,158.7 118.1,158.7 C123.2,158.7 126.9,154.5 126.9,149.5 L126.9,149.5 Z" id="Shape"></path>
                <path d="M133.7,139 L148.2,139 L148.2,140.5 L135.2,140.5 L135.2,149 L146.9,149 L146.9,150.4 L135.2,150.4 L135.2,159.8 L133.7,159.8 L133.7,139 Z" id="Shape"></path>
                <path d="M153,139 L167.6,139 L167.6,140.5 L154.6,140.5 L154.6,149 L166.3,149 L166.3,150.4 L154.6,150.4 L154.6,159.8 L153,159.8 L153,139 Z" id="Shape"></path>
                <rect id="Rectangle" x="173" y="139" width="1.5" height="20.6"></rect>
                <path d="M179.5,149.5 L179.5,149.5 C179.5,143.6 183.9,138.7 189.8,138.7 C193.5,138.7 195.7,140.1 197.8,142 L196.7,143.1 C194.9,141.4 192.8,140.1 189.7,140.1 C184.8,140.1 181,144.2 181,149.3 L181,149.4 C181,154.6 184.8,158.7 189.7,158.7 C192.7,158.7 194.7,157.6 196.8,155.5 L197.8,156.5 C195.6,158.6 193.3,160.1 189.6,160.1 C183.9,160 179.5,155.4 179.5,149.5 L179.5,149.5 Z" id="Shape"></path>
                <rect id="Rectangle" x="202" y="139" width="1.5" height="20.6"></rect>
                <path d="M218.2,139 L219.7,139 L229.3,159.8 L227.6,159.8 L225,154 L212.8,154 L210.2,159.8 L208.6,159.8 L218.2,139 L218.2,139 Z M224.3,152.5 L218.9,140.6 L213.4,152.5 L224.3,152.5 L224.3,152.5 Z" id="Shape"></path>
                <path d="M233.6,139 L235.1,139 L235.1,158.2 L247.3,158.2 L247.3,159.8 L233.6,159.8 L233.6,139 Z" id="Shape"></path>
                <path d="M259.4,156.7 L260.4,155.6 C262.7,157.7 264.8,158.7 267.8,158.7 C270.9,158.7 273,157 273,154.6 L273,154.5 C273,152.3 271.9,151 267.2,150.1 C262.3,149.1 260.2,147.4 260.2,144.3 L260.2,144.2 C260.2,141.1 263,138.8 266.8,138.8 C269.8,138.8 271.8,139.6 273.9,141.3 L272.9,142.5 C270.9,140.8 269,140.2 266.7,140.2 C263.7,140.2 261.6,141.9 261.6,144.1 L261.6,144.2 C261.6,146.4 262.7,147.7 267.6,148.7 C272.4,149.7 274.4,151.4 274.4,154.4 L274.4,154.5 C274.4,157.8 271.5,160.1 267.5,160.1 C264.4,160 261.9,159 259.4,156.7 L259.4,156.7 Z" id="Shape"></path>
                <path d="M279.6,139 L294.3,139 L294.3,140.5 L281.2,140.5 L281.2,148.5 L293,148.5 L293,150 L281.2,150 L281.2,158.2 L294.4,158.2 L294.4,159.8 L279.6,159.8 L279.6,139 Z" id="Shape"></path>
                <path d="M299.4,139 L300.9,139 L300.9,158.2 L313,158.2 L313,159.8 L299.4,159.8 L299.4,139 Z" id="Shape"></path>
                <path d="M317.6,139 L332.3,139 L332.3,140.5 L319.2,140.5 L319.2,148.5 L331,148.5 L331,150 L319.2,150 L319.2,158.2 L332.5,158.2 L332.5,159.8 L317.6,159.8 L317.6,139 Z" id="Shape"></path>
                <path d="M336.5,149.5 L336.5,149.5 C336.5,143.6 340.9,138.7 346.8,138.7 C350.5,138.7 352.7,140.1 354.8,142 L353.7,143.1 C351.9,141.4 349.8,140.1 346.7,140.1 C341.8,140.1 338,144.2 338,149.3 L338,149.4 C338,154.6 341.8,158.7 346.7,158.7 C349.7,158.7 351.7,157.6 353.8,155.5 L354.8,156.5 C352.6,158.6 350.3,160.1 346.6,160.1 C340.9,160 336.5,155.4 336.5,149.5 L336.5,149.5 Z" id="Shape"></path>
                <path d="M364.9,140.5 L357.7,140.5 L357.7,139 L373.6,139 L373.6,140.5 L366.4,140.5 L366.4,159.8 L364.9,159.8 L364.9,140.5 Z" id="Shape"></path>
                <rect id="Rectangle" x="379" y="139" width="1.5" height="20.6"></rect>
                <path d="M385.4,149.5 L385.4,149.5 C385.4,143.8 389.6,138.7 395.8,138.7 C402.1,138.7 406.2,143.7 406.2,149.3 L406.2,149.4 C406.2,155 402,160.1 395.8,160.1 C389.6,160.1 385.4,155 385.4,149.5 L385.4,149.5 Z M404.6,149.5 L404.6,149.5 C404.6,144.3 400.9,140.1 395.8,140.1 C390.7,140.1 387,144.2 387,149.3 L387,149.4 C387,154.5 390.7,158.7 395.8,158.7 C401,158.7 404.6,154.5 404.6,149.5 L404.6,149.5 Z" id="Shape"></path>
                <path d="M411.4,139 L412.9,139 L427.1,157 L427.1,139 L428.6,139 L428.6,159.8 L427.5,159.8 L412.9,141.4 L412.9,159.8 L411.4,159.8 L411.4,139 Z" id="Shape"></path>
                <path d="M441.9,158.5 L449.6,151.5 C453,148.4 454.2,146.6 454.2,144.5 C454.2,141.8 452,140.1 449.6,140.1 C447,140.1 445.2,141.5 443.6,143.9 L442.5,143.1 C444.3,140.4 446.2,138.7 449.8,138.7 C453.3,138.7 455.9,141.1 455.9,144.4 L455.9,144.5 C455.9,147.3 454.4,149.2 450.7,152.5 L444.4,158.2 L456.1,158.2 L456.1,159.7 L442,159.7 L441.9,158.5 L441.9,158.5 Z" id="Shape"></path>
                <path d="M459.9,149.5 L459.9,149.5 C459.9,143.7 463.2,138.7 468.5,138.7 C473.8,138.7 477,143.6 477,149.3 L477,149.4 C477,155.1 473.7,160.1 468.4,160.1 C463.1,160 459.9,155.2 459.9,149.5 L459.9,149.5 Z M475.4,149.5 L475.4,149.5 C475.4,144.6 472.7,140.1 468.4,140.1 C464.1,140.1 461.5,144.5 461.5,149.3 L461.5,149.4 C461.5,154.2 464.2,158.7 468.5,158.7 C472.7,158.7 475.4,154.2 475.4,149.5 L475.4,149.5 Z" id="Shape"></path>
                <path d="M484,140.5 L480,141.9 L479.6,140.7 L484.3,139 L485.5,139 L485.5,159.8 L484,159.8 L484,140.5 Z" id="Shape"></path>
                <path d="M490.3,156.8 L491.4,155.7 C493.2,157.5 495.4,158.7 497.6,158.7 C500.9,158.7 503.1,156.4 503.1,153.5 L503.1,153.4 C503.1,150.5 500.8,148.5 497.4,148.5 C495.5,148.5 494,149.1 492.8,149.8 L491.6,149 L492.2,139 L503.8,139 L503.8,140.5 L493.5,140.5 L493,148.2 C494.3,147.5 495.7,147.1 497.6,147.1 C501.6,147.1 504.7,149.6 504.7,153.3 L504.7,153.4 C504.7,157.3 501.7,160 497.5,160 C494.7,160 492.1,158.5 490.3,156.8 L490.3,156.8 Z" id="Shape"></path>
                <path d="M422.6,367 C490.8,359 540.4,313.8 563.1,252 C572.4,226.4 573.8,198.1 570.5,168.4 C564.5,115.4 535.7,69.4 493.6,35.9 C493.5,35.8 493.3,35.7 493.3,35.8 C493.2,35.9 492.8,36.1 492.6,36.2 C492.4,36.3 492.3,36.2 492.5,36.5 C537.1,71 565.8,125.8 568.9,181.2 C573.7,260.3 528.2,330.4 460,354.5 C448.5,358.6 436.6,361.7 424.1,363.3 C423.2,364.2 422.6,365.6 422.6,367" id="Shape"></path>
                <path d="M592.6,234.9 C587,240.5 578.2,246 568.6,243.9 C568.1,244.5 565.6,247.6 565.2,248.1 C564.8,248.7 563.9,249.2 563.3,248.8 C562.9,248.6 562.6,248.1 563,247.4 C564.4,245.9 565.8,244.5 567.4,242.9 C570.2,230.3 574.3,222 582.9,213.5 C592.8,203.8 603,199.5 609.2,197.6 C610.1,197.4 611,197.2 611.9,196.9 C612.5,201.8 609.9,208.8 607.8,212.9 C603.8,221 599.4,228.2 592.6,234.9" id="Shape"></path>
                <path d="M510.5,58 C511.3,58.3 515.9,59.3 516.5,58.5 C516.7,58.3 516.4,57.5 516,57.5 C514.3,57.4 512.4,57.2 510.8,56.9 C507.9,48.9 499.5,45.5 491.8,44.1 C482.6,42.6 472.5,44.9 461.7,46.2 C461.1,46.3 460.6,46.3 460,46.3 C460.1,46.6 460.4,46.8 460.7,47.1 C465.3,52.3 472.3,57.1 479.2,59.5 C483.8,61.2 489.4,62.1 494.9,61.9 C500.7,61.9 505.5,60.8 510.5,58" id="Shape"></path>
                <path d="M492.6,36.2 C492.2,36.3 492.2,36.2 491.6,35.9 C490.3,34.9 489.2,34.3 487.9,33.2 C480.5,33.2 473.6,31.4 467,27.7 C464.1,26 461.1,24 458.7,21.6 C452.8,16.3 448.1,8.5 445.9,1.4 C445.8,1 445.7,0.7 445.7,0.3 C446.3,0.5 446.7,0.7 447.3,0.9 C459.2,4.9 470.7,6.8 480.2,14.6 C486.7,19.8 490,26.1 488.7,32.2 C490.1,33.2 491.7,34.1 493.1,35.3 C493.7,35.8 493,36.2 492.6,36.2" id="Shape"></path>
                <path d="M535.8,91.4 C536.6,91.8 541.1,93.7 541.7,93.1 C542,92.8 541.8,92 541.4,91.9 C539.7,91.3 537.7,91 536.2,90.4 C535.6,84.8 531.9,79.5 524.4,75.9 C513.1,70.8 500.2,71.7 488.1,70.8 C487.5,70.8 487,70.7 486.4,70.7 C486.6,71 486.8,71.3 486.9,71.6 C491,77.5 497.5,83.8 504.2,87.5 C508.7,90 514.2,92 519.7,92.9 C525.5,93.5 530.5,93 535.8,91.4" id="Shape"></path>
                <path d="M595.1,178.2 C591.4,185.2 584.8,192.8 575.2,193.4 C574.9,194.1 573.1,197.5 572.9,198 C572.7,198.7 572.1,199.5 571.3,199.2 C571,199.1 570.6,198.7 570.6,197.9 C571.6,196 572.7,194.6 573.8,192.7 C572.9,179.9 573.8,170.5 579.6,160 C586.2,147.8 595.3,140.9 600.9,137.4 C601.6,136.9 602.4,136.5 603.2,136 C604.5,140.9 604.1,148.6 603.3,153.1 C601.7,162.2 599.4,170 595.1,178.2" id="Shape"></path>
                <path d="M584.3,126.8 C582.7,134.2 578.7,141.8 569.9,145 C569.8,145.8 568.8,149.4 568.7,149.9 C568.7,150.7 568.4,151.5 567.5,151.4 C567.2,151.3 566.6,151.1 566.6,150.4 C567,148.4 567.6,146.2 568.1,144.1 C565.2,135.1 563.6,126.8 564.1,117.9 C564.9,105.5 570.4,94.7 579.1,85.9 C579.8,85.3 580.3,84.6 580.9,84 C583.3,88.3 584.9,95.6 585.4,100 C586.2,109 586.1,118 584.3,126.8" id="Shape"></path>
                <path d="M562.1,79.9 C562.3,87.6 560.1,96.1 552.5,101.1 C552.6,101.9 552.7,105.6 552.8,106.1 C552.9,106.8 552.9,107.7 552,107.9 C551.7,107.9 551.2,107.9 550.9,107.1 C550.7,105.1 550.7,102.2 550.5,100.1 C544,90.8 540.5,80.7 540.4,69.1 C540.1,55.7 544.1,47.2 547.2,41.8 C547.6,41.1 548,40.4 548.5,39.7 C551.9,43.2 555.2,49.9 556.6,54.1 C559.6,62.2 561.8,71 562.1,79.9" id="Shape"></path>
                <path d="M528.4,37 C530.4,44.2 529.8,54.7 523.5,59.1 C523.7,60 524.3,63.2 524.3,63.9 C524.5,64.7 524.7,65.4 524,65.7 C523.7,65.8 523.5,65.8 523.1,65.1 C522.7,63.1 522.5,61.4 522.1,59.3 C513,51.2 507.9,43.1 505.1,32.1 C502.2,20.6 502.6,11.4 503.9,5 C504,4.2 504.3,3.5 504.5,2.6 C512.5,8 518.1,15.1 522.9,23.1 C525.4,27.5 527.4,32 528.4,37" id="Shape"></path>
                <path d="M556.1,135.4 C556.8,136 560.9,139.2 561.9,138.8 C562.2,138.6 562.3,137.5 561.9,137.3 C560.4,136.3 558.4,135.5 556.9,134.5 C557.4,128.3 555.7,122 549,116.1 C538.7,107.7 525.1,104.9 512.7,100.5 C512.1,100.3 511.6,100 511,99.8 C511.1,100.2 511.2,100.6 511.3,100.9 C513.7,108.1 518.6,116.6 524.6,122.3 C528.5,126.1 533.7,129.8 539.1,132.2 C544.7,134.8 550.2,135.5 556.1,135.4" id="Shape"></path>
                <path d="M564.7,185.8 C565.3,186.6 568.5,191.1 569.5,190.9 C569.9,190.9 570.3,189.8 570,189.4 C568.6,187.9 567,186.7 565.8,185.1 C567.9,179.4 566.9,171.2 561.9,163.3 C553.9,151.8 542.3,146.3 531,138.2 L529.5,137 C529.5,137.4 529.4,137.8 529.5,138.3 C529.8,146.2 532.2,156 536.5,163.4 C539.3,168.4 543.5,173.4 548.3,177.6 C553.3,181.9 558.5,184.2 564.7,185.8" id="Shape"></path>
                <path d="M559,235.2 C559.4,236.2 561.6,241.5 562.7,241.7 C563.1,241.7 563.8,240.9 563.5,240.3 C562.6,238.6 561.5,236.5 560.7,234.7 C564.5,231.7 565.8,223.2 562.7,214.3 C557.6,201.3 546.3,191.5 537.1,180.7 C536.7,180.2 536.3,179.7 535.8,179.2 L535.5,180.4 C534,188 534,198.1 536.5,206.3 C538.2,211.8 541,217.8 544.8,223 C548.8,228.5 553.4,232.2 559,235.2" id="Shape"></path>
                <path d="M572.7,293.2 C565.8,297 553.4,299.9 544.9,295.2 C544.2,295.6 540.7,297.4 540.3,297.7 C539.7,298.2 538.8,298.6 538.3,297.8 C538,297.5 537.8,297 538.4,296.4 C540.1,295.4 542.1,294.7 544,293.7 C550.5,282.3 557.5,274.6 568.2,269 C580.4,262.4 590.7,262.3 597.2,262.3 C598.1,262.3 599,262.3 600,262.4 C598.3,273.5 581.9,288.5 572.7,293.2" id="Shape"></path>
                <path d="M538.8,284.5 C538.9,285.2 539.3,288.4 539.9,290.4 C540.1,291 540.2,291.8 541.1,291.5 C541.5,291.4 541.8,290.8 541.8,290.5 C541.4,288.6 541,286.4 540.8,284.5 C545,282.2 548.4,274.8 549,265.7 C548.3,251.9 540.9,239.4 535.1,226.4 C534.9,225.8 534.7,225.2 534.4,224.6 L533.8,225.5 C529.9,232.3 526.9,241.9 526.6,250.5 C526.4,256.1 527.3,262.7 529.3,268.8 C531.3,274.9 534.4,279.8 538.8,284.5" id="Shape"></path>
                <path d="M535.2,340.4 C527.3,341.7 516.5,341.4 509.8,334.2 C508.1,334.4 505.4,334.8 503.6,334.9 C503.1,334.9 502.8,334.6 502.5,334.1 C502.4,333.7 502.5,333.3 503.3,332.9 C505.3,332.5 507.3,332.6 509.5,332.2 C518.5,323.4 526.9,318.4 539,316.5 C553.1,314.4 565,317.4 571.3,319.6 C572.2,319.9 573.1,320.2 573.8,320.6 C571.6,324.9 564.9,329.3 560.8,331.4 C553,335.9 544.9,339.1 535.2,340.4" id="Shape"></path>
                <path d="M506.8,321.8 C506.7,322.6 506.5,325.7 506.5,327.8 C506.5,328.4 506.4,329.2 507.3,329.2 C507.7,329.2 508.2,328.8 508.3,328.4 C508.4,326.5 508.4,324.5 508.7,322.5 C513.4,321.2 519.7,315.2 522.5,306.9 C525.8,293.6 522.2,279.8 520.5,265.7 C520.4,265.1 520.4,264.4 520.4,263.8 C520.1,264.1 519.7,264.3 519.4,264.6 C513.6,269.9 507.9,278.1 505.1,286.2 C503.2,291.5 502.2,298 502.2,304.3 C502.4,310.6 504,316.1 506.8,321.8" id="Shape"></path>
                <path d="M462.2,348.9 C461.8,349.5 461.2,352 460.6,354 C460.4,354.4 460.1,355.2 460.9,355.4 C461.3,355.5 461.9,355.3 462,355 C462.8,353.3 462.8,351.6 463.7,349.9 C468.3,350.8 476.2,345.9 481.5,339.5 C488.7,328.4 489.5,315.5 492.3,302.3 C492.4,301.7 492.6,301.1 492.7,300.5 C492.3,300.6 492,300.8 491.6,300.8 C484.7,303.7 476.8,308.9 471.7,315.4 C468.3,319.6 465,325.2 463.1,331 C461.4,337.1 461.3,342.9 462.2,348.9" id="Shape"></path>
                <path d="M487.3,373.5 C479.2,372.6 468.6,369.4 464,360.6 C462.4,360.2 459.5,359.9 457.7,359.5 C457.2,359.4 457,359 456.9,358.4 C456.9,358.1 457.2,357.6 458,357.5 C460.1,357.8 462,358.3 464.3,358.5 C476.1,352.6 485.7,349.9 498,351.5 C512.3,353.2 522.6,359.3 528.2,363.1 C529,363.7 529.8,364.2 530.5,364.8 C527,368.4 519.3,370.8 514.8,371.8 C506,373.9 497.1,374.7 487.3,373.5" id="Shape"></path>
                <path d="M189.4,367 C121.3,359 71.6,313.8 48.9,252 C39.6,226.4 38.2,198.1 41.5,168.4 C47.5,115.4 76.3,69.4 118.4,35.9 C118.5,35.8 118.7,35.7 118.7,35.8 C118.8,35.9 119.2,36.1 119.4,36.2 C119.6,36.3 119.7,36.2 119.5,36.5 C74.9,71 46.3,125.8 43.1,181.2 C38.3,260.2 83.8,330.4 152,354.5 C163.5,358.6 175.4,361.7 187.9,363.3 C188.8,364.2 189.4,365.6 189.4,367" id="Shape"></path>
                <path d="M19.4,234.9 C25,240.5 33.8,246 43.4,243.9 C43.9,244.5 46.4,247.6 46.8,248.1 C47.2,248.7 48,249.2 48.6,248.8 C49,248.6 49.3,248.1 48.9,247.4 C47.5,245.9 46.1,244.5 44.5,242.9 C41.7,230.3 37.6,222 29,213.5 C19.1,203.8 8.9,199.5 2.7,197.6 C1.8,197.4 0.9,197.2 -7.25808302e-15,196.9 C-0.6,201.8 2,208.8 4.1,212.9 C8.2,221 12.6,228.2 19.4,234.9" id="Shape"></path>
                <path d="M101.5,58 C100.7,58.3 96.1,59.3 95.5,58.5 C95.3,58.3 95.6,57.5 96,57.5 C97.7,57.4 99.6,57.2 101.2,56.9 C104.2,48.9 112.5,45.5 120.2,44.1 C129.4,42.6 139.5,44.9 150.3,46.2 C150.8,46.3 151.4,46.3 152,46.3 C151.9,46.6 151.6,46.8 151.3,47.1 C146.7,52.3 139.7,57.1 132.8,59.5 C128.2,61.2 122.6,62.1 117.1,61.9 C111.4,61.9 106.5,60.8 101.5,58" id="Shape"></path>
                <path d="M119.4,36.2 C119.8,36.3 119.8,36.2 120.4,35.9 C121.7,34.9 122.8,34.3 124.1,33.2 C131.5,33.2 138.4,31.4 145,27.7 C147.9,26 150.9,24 153.3,21.6 C159.2,16.3 163.9,8.5 166.1,1.4 C166.2,1 166.3,0.7 166.3,0.3 C165.7,0.5 165.3,0.7 164.7,0.9 C152.8,4.9 141.3,6.8 131.8,14.6 C125.3,19.8 122,26.1 123.3,32.2 C121.8,33.2 120.3,34.1 118.9,35.3 C118.3,35.8 119,36.2 119.4,36.2" id="Shape"></path>
                <path d="M76.2,91.4 C75.4,91.8 70.9,93.7 70.3,93.1 C70,92.8 70.2,92 70.6,91.9 C72.3,91.3 74.3,91 75.8,90.4 C76.4,84.8 80.1,79.5 87.6,75.9 C98.9,70.8 111.8,71.7 123.9,70.8 C124.5,70.8 125,70.7 125.6,70.7 C125.4,71 125.2,71.3 125.1,71.6 C121,77.5 114.5,83.8 107.8,87.5 C103.3,90 97.8,92 92.3,92.9 C86.5,93.5 81.5,93 76.2,91.4" id="Shape"></path>
                <path d="M16.9,178.2 C20.6,185.2 27.2,192.8 36.8,193.4 C37.1,194.1 38.9,197.5 39.1,198 C39.3,198.7 39.9,199.5 40.7,199.2 C41.1,199.1 41.4,198.7 41.4,197.9 C40.4,196 39.3,194.6 38.2,192.7 C39.1,179.9 38.2,170.5 32.4,160 C25.8,147.8 16.7,140.9 11.1,137.4 C10.4,136.9 9.6,136.5 8.8,136 C7.6,140.9 8,148.6 8.8,153.1 C10.3,162.2 12.6,170 16.9,178.2" id="Shape"></path>
                <path d="M27.7,126.8 C29.3,134.2 33.3,141.8 42.1,145 C42.2,145.8 43.2,149.4 43.3,149.9 C43.3,150.7 43.6,151.5 44.5,151.4 C44.8,151.3 45.4,151.1 45.4,150.4 C45,148.4 44.4,146.2 43.9,144.1 C46.8,135.1 48.4,126.8 47.9,117.9 C47.1,105.5 41.6,94.7 32.9,85.9 C32.2,85.3 31.7,84.6 31.1,84 C28.7,88.3 27.1,95.6 26.6,100 C25.8,109 25.9,118 27.7,126.8" id="Shape"></path>
                <path d="M50,79.9 C49.8,87.6 51.9,96.1 59.6,101.1 C59.5,101.9 59.4,105.6 59.3,106.1 C59.2,106.8 59.2,107.7 60.1,107.9 C60.4,107.9 60.9,107.9 61.2,107.1 C61.4,105.1 61.5,102.2 61.6,100.1 C68.1,90.8 71.6,80.7 71.7,69.1 C72,55.7 68,47.2 64.9,41.8 C64.5,41.1 64.1,40.4 63.6,39.7 C60.2,43.2 56.9,49.9 55.5,54.1 C52.4,62.2 50.2,71 50,79.9" id="Shape"></path>
                <path d="M83.6,37 C81.6,44.2 82.2,54.7 88.5,59.1 C88.3,60 87.7,63.2 87.7,63.9 C87.5,64.7 87.3,65.4 88,65.7 C88.3,65.8 88.5,65.8 88.9,65.1 C89.3,63.1 89.5,61.4 89.9,59.3 C99,51.2 104.1,43.1 106.9,32.1 C109.8,20.6 109.4,11.4 108.1,5 C108,4.2 107.7,3.5 107.5,2.6 C99.5,8 93.9,15.1 89.1,23.1 C86.6,27.5 84.6,32 83.6,37" id="Shape"></path>
                <path d="M55.9,135.4 C55.2,136 51.1,139.2 50.1,138.8 C49.8,138.6 49.7,137.5 50.1,137.3 C51.6,136.3 53.6,135.5 55.1,134.5 C54.6,128.3 56.3,122 63,116.1 C73.3,107.7 86.9,104.9 99.3,100.5 C99.9,100.3 100.4,100 101,99.8 C100.9,100.2 100.8,100.6 100.7,100.9 C98.3,108.1 93.4,116.6 87.4,122.3 C83.5,126.1 78.3,129.8 72.9,132.2 C67.3,134.8 61.8,135.5 55.9,135.4" id="Shape"></path>
                <path d="M47.3,185.8 C46.7,186.6 43.5,191.1 42.5,190.9 C42.1,190.9 41.7,189.8 42,189.4 C43.4,187.9 45,186.7 46.2,185.1 C44.1,179.4 45.1,171.2 50.1,163.3 C58.1,151.8 69.7,146.3 81,138.2 L82.5,137 C82.5,137.4 82.6,137.8 82.5,138.3 C82.2,146.2 79.8,156 75.5,163.4 C72.7,168.4 68.5,173.4 63.7,177.6 C58.7,181.9 53.5,184.2 47.3,185.8" id="Shape"></path>
                <path d="M53,235.2 C52.6,236.2 50.4,241.5 49.3,241.7 C48.9,241.7 48.2,240.9 48.5,240.3 C49.4,238.6 50.5,236.5 51.3,234.7 C47.5,231.7 46.2,223.2 49.3,214.3 C54.4,201.3 65.7,191.5 74.8,180.7 C75.2,180.2 75.6,179.7 76.1,179.2 L76.4,180.4 C77.9,188 77.9,198.1 75.4,206.3 C73.7,211.8 70.9,217.8 67.1,223 C63.2,228.5 58.6,232.2 53,235.2" id="Shape"></path>
                <path d="M39.3,293.2 C46.2,297 58.6,299.9 67.1,295.2 C67.8,295.6 71.3,297.4 71.7,297.7 C72.3,298.2 73.2,298.6 73.7,297.8 C74,297.5 74.2,297 73.6,296.4 C71.8,295.4 69.8,294.7 68,293.7 C61.5,282.3 54.5,274.6 43.8,269 C31.6,262.4 21.3,262.3 14.8,262.3 C13.9,262.3 13,262.3 12.1,262.4 C13.7,273.5 30.1,288.5 39.3,293.2" id="Shape"></path>
                <path d="M73.2,284.5 C73.1,285.2 72.7,288.4 72.1,290.4 C71.9,291 71.8,291.8 71,291.5 C70.6,291.4 70.3,290.8 70.3,290.5 C70.7,288.6 71.1,286.4 71.3,284.5 C67.1,282.2 63.7,274.8 63.1,265.7 C63.8,251.7 71.1,239.2 77,226.2 C77.2,225.6 77.4,225 77.7,224.4 C77.9,224.7 78.1,225 78.3,225.3 C82.2,232.1 85.2,241.7 85.5,250.3 C85.7,255.9 84.8,262.5 82.8,268.6 C80.7,274.9 77.6,279.8 73.2,284.5" id="Shape"></path>
                <path d="M76.8,340.4 C84.7,341.7 95.5,341.4 102.2,334.2 C103.9,334.4 106.7,334.8 108.4,334.9 C108.9,334.9 109.2,334.6 109.5,334.1 C109.6,333.7 109.5,333.3 108.7,332.9 C106.7,332.5 104.7,332.6 102.5,332.2 C93.5,323.4 85.1,318.4 73,316.5 C58.9,314.4 47,317.4 40.7,319.6 C39.8,319.9 38.9,320.2 38.1,320.6 C40.4,324.9 47,329.3 51.1,331.4 C59,335.9 67.1,339.1 76.8,340.4" id="Shape"></path>
                <path d="M105.2,321.8 C105.3,322.6 105.5,325.7 105.5,327.8 C105.5,328.4 105.6,329.2 104.7,329.2 C104.3,329.2 103.8,328.8 103.7,328.4 C103.6,326.5 103.6,324.5 103.3,322.5 C98.6,321.2 92.3,315.2 89.5,306.9 C86.2,293.6 89.8,279.8 91.5,265.7 C91.6,265.1 91.6,264.4 91.6,263.8 C91.9,264.1 92.3,264.3 92.6,264.6 C98.4,269.9 104.1,278.1 106.9,286.2 C108.8,291.5 109.8,298 109.7,304.3 C109.6,310.6 108,316.1 105.2,321.8" id="Shape"></path>
                <path d="M149.8,348.9 C150.2,349.5 150.8,352 151.4,354 C151.6,354.4 151.9,355.2 151.1,355.4 C150.7,355.5 150.1,355.3 150,355 C149.2,353.3 149.2,351.6 148.2,349.9 C143.6,350.8 135.7,345.9 130.4,339.5 C123.2,328.4 122.4,315.5 119.6,302.3 C119.5,301.7 119.3,301.1 119.2,300.5 C119.6,300.6 119.9,300.8 120.3,300.8 C127.2,303.7 135.1,308.9 140.2,315.4 C143.7,319.6 146.9,325.2 148.8,331 C150.6,337.1 150.7,342.9 149.8,348.9" id="Shape"></path>
                <path d="M124.7,373.5 C132.8,372.6 143.4,369.4 148,360.6 C149.6,360.2 152.5,359.9 154.3,359.5 C154.8,359.4 155,359 155.1,358.4 C155.1,358.1 154.8,357.6 154,357.5 C152,357.8 150,358.3 147.7,358.5 C135.9,352.6 126.3,349.9 113.9,351.5 C99.6,353.2 89.3,359.3 83.7,363.1 C82.9,363.7 82.1,364.2 81.4,364.8 C84.9,368.4 92.6,370.8 97.1,371.8 C106.1,373.9 114.9,374.7 124.7,373.5" id="Shape"></path>
                <path d="M110.9,211.4 L113.8,211.4 L113.8,217.1 C115.9,213.5 119.3,210.6 124.9,210.6 C132.7,210.6 137.2,215.9 137.2,223.3 L137.2,242.1 L134.3,242.1 L134.3,223.8 C134.3,217.5 130.7,213.3 124.5,213.3 C118.5,213.3 113.8,217.9 113.8,224.3 L113.8,242.1 L110.9,242.1 L110.9,211.4" id="Shape"></path>
                <path d="M142.2,226.8 L142.2,226.8 C142.2,217.8 148.5,210.7 156.8,210.7 C165.4,210.7 170.9,217.7 170.9,226.8 C170.9,227.4 170.9,227.5 170.8,228 L145.3,228 C145.9,235.7 151.3,240.1 157.4,240.1 C162.2,240.1 165.4,238 167.9,235.3 L170,237.1 C166.9,240.5 163.2,242.9 157.3,242.9 C149.2,242.9 142.2,236.4 142.2,226.8 L142.2,226.8 Z M167.7,225.2 C167.3,219 163.7,213.3 156.7,213.3 C150.6,213.3 145.9,218.4 145.3,225.2 L167.7,225.2 L167.7,225.2 Z" id="Shape"></path>
                <path d="M171.8,211.4 L175.2,211.4 L184.4,238.4 L193.7,211.2 L196.1,211.2 L205.4,238.4 L214.7,211.4 L217.9,211.4 L206.6,242.4 L204.1,242.4 L194.9,216 L185.7,242.4 L183.1,242.4 L171.8,211.4" id="Shape"></path>
                <path d="M222.2,211.4 L225.1,211.4 L225.1,218.3 C227.8,214.2 231.7,210.7 237.8,210.7 C245.2,210.7 252.8,216.7 252.8,226.7 L252.8,226.8 C252.8,236.8 245.2,242.9 237.8,242.9 C231.6,242.9 227.7,239.4 225.1,235.5 L225.1,251.8 L222.2,251.8 L222.2,211.4 L222.2,211.4 Z M249.6,226.9 L249.6,226.8 C249.6,218.7 244,213.5 237.5,213.5 C231.1,213.5 225,218.9 225,226.7 L225,226.8 C225,234.7 231.2,240 237.5,240 C244.2,240 249.6,235.2 249.6,226.9 L249.6,226.9 Z" id="Shape"></path>
                <path d="M256.3,226.9 L256.3,226.8 C256.3,218.2 263,210.7 272.2,210.7 C281.3,210.7 287.9,218.1 287.9,226.7 L287.9,226.8 C287.9,235.4 281.2,242.9 272,242.9 C262.9,242.9 256.3,235.5 256.3,226.9 L256.3,226.9 Z M284.7,226.9 L284.7,226.8 C284.7,219.4 279.2,213.5 272,213.5 C264.7,213.5 259.5,219.5 259.5,226.7 L259.5,226.8 C259.5,234.2 265,240.1 272.2,240.1 C279.5,240 284.7,234 284.7,226.9 L284.7,226.9 Z" id="Shape"></path>
                <path d="M292.7,211.4 L295.6,211.4 L295.6,220.2 C298,214.7 303.2,210.7 309.2,211 L309.2,214.2 L309,214.2 C301.9,214.2 295.7,219.6 295.7,229.6 L295.7,242.2 L292.8,242.2 L292.8,211.4" id="Shape"></path>
                <path d="M318.5,234.2 L318.5,214.1 L314,214.1 L314,211.4 L318.5,211.4 L318.5,201.6 L321.4,201.6 L321.4,211.4 L332.2,211.4 L332.2,214.1 L321.4,214.1 L321.4,234 C321.4,238.4 324,240 327.6,240 C329.1,240 330.4,239.7 332.1,238.9 L332.1,241.7 C330.6,242.4 329,242.8 327.1,242.8 C322.4,242.7 318.5,240 318.5,234.2" id="Shape"></path>
                <path d="M359.8,199.9 L389.5,199.9 L389.5,202.8 L362.9,202.8 L362.9,220.2 L386.8,220.2 L386.8,223 L362.9,223 L362.9,242.2 L359.8,242.2 L359.8,199.9" id="Shape"></path>
                <rect id="Rectangle" x="398" y="200" width="3.1" height="42.2"></rect>
                <path d="M412.3,199.9 L415.5,199.9 L415.5,239.2 L440.2,239.2 L440.2,242.2 L412.3,242.2 L412.3,199.9" id="Shape"></path>
                <path d="M446.8,199.9 L449.8,199.9 L466.7,224.9 L483.7,199.9 L486.6,199.9 L486.6,242.2 L483.5,242.2 L483.5,205.5 L466.8,229.8 L466.5,229.8 L449.8,205.5 L449.8,242.2 L446.8,242.2 L446.8,199.9" id="Shape"></path>
                <path d="M501.1,255.4 L343.9,255.4 L343.9,185.3 L501.1,185.3 L501.1,255.4 L501.1,255.4 Z M346.9,252.4 L498.1,252.4 L498.1,188.3 L346.9,188.3 L346.9,252.4 L346.9,252.4 Z" id="Shape"></path>
            </g>
        </g>
    </g>
</svg>