<?xml version="1.0" encoding="utf-8"?>
<!-- Generator: Adobe Illustrator 18.1.1, SVG Export Plug-In . SVG Version: 6.00 Build 0)  -->
<!DOCTYPE svg PUBLIC "-//W3C//DTD SVG 1.1//EN" "http://www.w3.org/Graphics/SVG/1.1/DTD/svg11.dtd">
<svg version="1.1" id="Layer_1" xmlns="http://www.w3.org/2000/svg" xmlns:xlink="http://www.w3.org/1999/xlink" x="0px" y="0px"
	 viewBox="-0.1 418.4 612.1 373.7" enable-background="new -0.1 418.4 612.1 373.7" xml:space="preserve">
<g>
	<path fill="#888888" d="M107.7,567.5L107.7,567.5c0-5.7,4.2-10.8,10.4-10.8c6.3,0,10.4,5,10.4,10.6v0.1c0,5.6-4.2,10.7-10.4,10.7
		C111.8,578,107.7,573,107.7,567.5z M126.9,567.5L126.9,567.5c0-5.2-3.7-9.4-8.8-9.4c-5.1,0-8.8,4.1-8.8,9.2v0.1
		c0,5.1,3.7,9.3,8.8,9.3C123.2,576.7,126.9,572.5,126.9,567.5z"/>
	<polygon fill="#888888" points="133.7,557 148.2,557 148.2,558.5 135.2,558.5 135.2,567 146.9,567 146.9,568.4 135.2,568.4 
		135.2,577.8 133.7,577.8 	"/>
	<polygon fill="#888888" points="153,557 167.6,557 167.6,558.5 154.6,558.5 154.6,567 166.3,567 166.3,568.4 154.6,568.4 
		154.6,577.8 153,577.8 	"/>
	<rect x="172.6" y="557" fill="#888888" width="1.5" height="20.6"/>
	<path fill="#888888" d="M179.5,567.5L179.5,567.5c0-5.9,4.4-10.8,10.3-10.8c3.7,0,5.9,1.4,8,3.3l-1.1,1.1c-1.8-1.7-3.9-3-7-3
		c-4.9,0-8.7,4.1-8.7,9.2v0.1c0,5.2,3.8,9.3,8.7,9.3c3,0,5-1.1,7.1-3.2l1,1c-2.2,2.1-4.5,3.6-8.2,3.6
		C183.9,578,179.5,573.4,179.5,567.5z"/>
	<rect x="202.4" y="557" fill="#888888" width="1.5" height="20.6"/>
	<path fill="#888888" d="M218.2,557h1.5l9.6,20.8h-1.7L225,572h-12.2l-2.6,5.8h-1.6L218.2,557z M224.3,570.5l-5.4-11.9l-5.5,11.9
		H224.3z"/>
	<polygon fill="#888888" points="233.6,557 235.1,557 235.1,576.2 247.3,576.2 247.3,577.8 233.6,577.8 	"/>
	<path fill="#888888" d="M259.4,574.7l1-1.1c2.3,2.1,4.4,3.1,7.4,3.1c3.1,0,5.2-1.7,5.2-4.1v-0.1c0-2.2-1.1-3.5-5.8-4.4
		c-4.9-1-7-2.7-7-5.8v-0.1c0-3.1,2.8-5.4,6.6-5.4c3,0,5,0.8,7.1,2.5l-1,1.2c-2-1.7-3.9-2.3-6.2-2.3c-3,0-5.1,1.7-5.1,3.9v0.1
		c0,2.2,1.1,3.5,6,4.5c4.8,1,6.8,2.7,6.8,5.7v0.1c0,3.3-2.9,5.6-6.9,5.6C264.4,578,261.9,577,259.4,574.7z"/>
	<polygon fill="#888888" points="279.6,557 294.3,557 294.3,558.5 281.2,558.5 281.2,566.5 293,566.5 293,568 281.2,568 
		281.2,576.2 294.4,576.2 294.4,577.8 279.6,577.8 	"/>
	<polygon fill="#888888" points="299.4,557 300.9,557 300.9,576.2 313,576.2 313,577.8 299.4,577.8 	"/>
	<polygon fill="#888888" points="317.6,557 332.3,557 332.3,558.5 319.2,558.5 319.2,566.5 331,566.5 331,568 319.2,568 
		319.2,576.2 332.5,576.2 332.5,577.8 317.6,577.8 	"/>
	<path fill="#888888" d="M336.5,567.5L336.5,567.5c0-5.9,4.4-10.8,10.3-10.8c3.7,0,5.9,1.4,8,3.3l-1.1,1.1c-1.8-1.7-3.9-3-7-3
		c-4.9,0-8.7,4.1-8.7,9.2v0.1c0,5.2,3.8,9.3,8.7,9.3c3,0,5-1.1,7.1-3.2l1,1c-2.2,2.1-4.5,3.6-8.2,3.6
		C340.9,578,336.5,573.4,336.5,567.5z"/>
	<polygon fill="#888888" points="364.9,558.5 357.7,558.5 357.7,557 373.6,557 373.6,558.5 366.4,558.5 366.4,577.8 364.9,577.8 	
		"/>
	<rect x="378.5" y="557" fill="#888888" width="1.5" height="20.6"/>
	<path fill="#888888" d="M385.4,567.5L385.4,567.5c0-5.7,4.2-10.8,10.4-10.8c6.3,0,10.4,5,10.4,10.6v0.1c0,5.6-4.2,10.7-10.4,10.7
		S385.4,573,385.4,567.5z M404.6,567.5L404.6,567.5c0-5.2-3.7-9.4-8.8-9.4c-5.1,0-8.8,4.1-8.8,9.2v0.1c0,5.1,3.7,9.3,8.8,9.3
		C401,576.7,404.6,572.5,404.6,567.5z"/>
	<polygon fill="#888888" points="411.4,557 412.9,557 427.1,575 427.1,557 428.6,557 428.6,577.8 427.5,577.8 412.9,559.4 
		412.9,577.8 411.4,577.8 	"/>
	<path fill="#888888" d="M441.9,576.5l7.7-7c3.4-3.1,4.6-4.9,4.6-7c0-2.7-2.2-4.4-4.6-4.4c-2.6,0-4.4,1.4-6,3.8l-1.1-0.8
		c1.8-2.7,3.7-4.4,7.3-4.4c3.5,0,6.1,2.4,6.1,5.7v0.1c0,2.8-1.5,4.7-5.2,8l-6.3,5.7h11.7v1.5H442L441.9,576.5L441.9,576.5z"/>
	<path fill="#888888" d="M459.9,567.5L459.9,567.5c0-5.8,3.3-10.8,8.6-10.8s8.5,4.9,8.5,10.6v0.1c0,5.7-3.3,10.7-8.6,10.7
		C463.1,578,459.9,573.2,459.9,567.5z M475.4,567.5L475.4,567.5c0-4.9-2.7-9.4-7-9.4s-6.9,4.4-6.9,9.2v0.1c0,4.8,2.7,9.3,7,9.3
		C472.7,576.7,475.4,572.2,475.4,567.5z"/>
	<polygon fill="#888888" points="484,558.5 480,559.9 479.6,558.7 484.3,557 485.5,557 485.5,577.8 484,577.8 	"/>
	<path fill="#888888" d="M490.3,574.8l1.1-1.1c1.8,1.8,4,3,6.2,3c3.3,0,5.5-2.3,5.5-5.2v-0.1c0-2.9-2.3-4.9-5.7-4.9
		c-1.9,0-3.4,0.6-4.6,1.3l-1.2-0.8l0.6-10h11.6v1.5h-10.3l-0.5,7.7c1.3-0.7,2.7-1.1,4.6-1.1c4,0,7.1,2.5,7.1,6.2v0.1
		c0,3.9-3,6.6-7.2,6.6C494.7,578,492.1,576.5,490.3,574.8z"/>
	<path fill="#888888" d="M422.6,785c68.2-8,117.8-53.2,140.5-115c9.3-25.6,10.7-53.9,7.4-83.6c-6-53-34.8-99-76.9-132.5
		c-0.1-0.1-0.3-0.2-0.3-0.1c-0.1,0.1-0.5,0.3-0.7,0.4c-0.2,0.1-0.3,0-0.1,0.3c44.6,34.5,73.3,89.3,76.4,144.7
		c4.8,79.1-40.7,149.2-108.9,173.3c-11.5,4.1-23.4,7.2-35.9,8.8C423.2,782.2,422.6,783.6,422.6,785"/>
	<path fill="#888888" d="M592.6,652.9c-5.6,5.6-14.4,11.1-24,9c-0.5,0.6-3,3.7-3.4,4.2c-0.4,0.6-1.3,1.1-1.9,0.7
		c-0.4-0.2-0.7-0.7-0.3-1.4c1.4-1.5,2.8-2.9,4.4-4.5c2.8-12.6,6.9-20.9,15.5-29.4c9.9-9.7,20.1-14,26.3-15.9
		c0.9-0.2,1.8-0.4,2.7-0.7c0.6,4.9-2,11.9-4.1,16C603.8,639,599.4,646.2,592.6,652.9"/>
	<path fill="#888888" d="M510.5,476c0.8,0.3,5.4,1.3,6,0.5c0.2-0.2-0.1-1-0.5-1c-1.7-0.1-3.6-0.3-5.2-0.6c-2.9-8-11.3-11.4-19-12.8
		c-9.2-1.5-19.3,0.8-30.1,2.1c-0.6,0.1-1.1,0.1-1.7,0.1c0.1,0.3,0.4,0.5,0.7,0.8c4.6,5.2,11.6,10,18.5,12.4
		c4.6,1.7,10.2,2.6,15.7,2.4C500.7,479.9,505.5,478.8,510.5,476"/>
	<path fill="#888888" d="M492.6,454.2c-0.4,0.1-0.4,0-1-0.3c-1.3-1-2.4-1.6-3.7-2.7c-7.4,0-14.3-1.8-20.9-5.5
		c-2.9-1.7-5.9-3.7-8.3-6.1c-5.9-5.3-10.6-13.1-12.8-20.2c-0.1-0.4-0.2-0.7-0.2-1.1c0.6,0.2,1,0.4,1.6,0.6
		c11.9,4,23.4,5.9,32.9,13.7c6.5,5.2,9.8,11.5,8.5,17.6c1.4,1,3,1.9,4.4,3.1C493.7,453.8,493,454.2,492.6,454.2"/>
	<path fill="#888888" d="M535.8,509.4c0.8,0.4,5.3,2.3,5.9,1.7c0.3-0.3,0.1-1.1-0.3-1.2c-1.7-0.6-3.7-0.9-5.2-1.5
		c-0.6-5.6-4.3-10.9-11.8-14.5c-11.3-5.1-24.2-4.2-36.3-5.1c-0.6,0-1.1-0.1-1.7-0.1c0.2,0.3,0.4,0.6,0.5,0.9
		c4.1,5.9,10.6,12.2,17.3,15.9c4.5,2.5,10,4.5,15.5,5.4C525.5,511.5,530.5,511,535.8,509.4"/>
	<path fill="#888888" d="M595.1,596.2c-3.7,7-10.3,14.6-19.9,15.2c-0.3,0.7-2.1,4.1-2.3,4.6c-0.2,0.7-0.8,1.5-1.6,1.2
		c-0.3-0.1-0.7-0.5-0.7-1.3c1-1.9,2.1-3.3,3.2-5.2c-0.9-12.8,0-22.2,5.8-32.7c6.6-12.2,15.7-19.1,21.3-22.6c0.7-0.5,1.5-0.9,2.3-1.4
		c1.3,4.9,0.9,12.6,0.1,17.1C601.7,580.2,599.4,588,595.1,596.2"/>
	<path fill="#888888" d="M584.3,544.8c-1.6,7.4-5.6,15-14.4,18.2c-0.1,0.8-1.1,4.4-1.2,4.9c0,0.8-0.3,1.6-1.2,1.5
		c-0.3-0.1-0.9-0.3-0.9-1c0.4-2,1-4.2,1.5-6.3c-2.9-9-4.5-17.3-4-26.2c0.8-12.4,6.3-23.2,15-32c0.7-0.6,1.2-1.3,1.8-1.9
		c2.4,4.3,4,11.6,4.5,16C586.2,527,586.1,536,584.3,544.8"/>
	<path fill="#888888" d="M562.1,497.9c0.2,7.7-2,16.2-9.6,21.2c0.1,0.8,0.2,4.5,0.3,5c0.1,0.7,0.1,1.6-0.8,1.8c-0.3,0-0.8,0-1.1-0.8
		c-0.2-2-0.2-4.9-0.4-7c-6.5-9.3-10-19.4-10.1-31c-0.3-13.4,3.7-21.9,6.8-27.3c0.4-0.7,0.8-1.4,1.3-2.1c3.4,3.5,6.7,10.2,8.1,14.4
		C559.6,480.2,561.8,489,562.1,497.9"/>
	<path fill="#888888" d="M528.4,455c2,7.2,1.4,17.7-4.9,22.1c0.2,0.9,0.8,4.1,0.8,4.8c0.2,0.8,0.4,1.5-0.3,1.8
		c-0.3,0.1-0.5,0.1-0.9-0.6c-0.4-2-0.6-3.7-1-5.8c-9.1-8.1-14.2-16.2-17-27.2c-2.9-11.5-2.5-20.7-1.2-27.1c0.1-0.8,0.4-1.5,0.6-2.4
		c8,5.4,13.6,12.5,18.4,20.5C525.4,445.5,527.4,450,528.4,455"/>
	<path fill="#888888" d="M556.1,553.4c0.7,0.6,4.8,3.8,5.8,3.4c0.3-0.2,0.4-1.3,0-1.5c-1.5-1-3.5-1.8-5-2.8
		c0.5-6.2-1.2-12.5-7.9-18.4c-10.3-8.4-23.9-11.2-36.3-15.6c-0.6-0.2-1.1-0.5-1.7-0.7c0.1,0.4,0.2,0.8,0.3,1.1
		c2.4,7.2,7.3,15.7,13.3,21.4c3.9,3.8,9.1,7.5,14.5,9.9C544.7,552.8,550.2,553.5,556.1,553.4"/>
	<path fill="#888888" d="M564.7,603.8c0.6,0.8,3.8,5.3,4.8,5.1c0.4,0,0.8-1.1,0.5-1.5c-1.4-1.5-3-2.7-4.2-4.3
		c2.1-5.7,1.1-13.9-3.9-21.8c-8-11.5-19.6-17-30.9-25.1c-0.5-0.4-1-0.8-1.5-1.2c0,0.4-0.1,0.8,0,1.3c0.3,7.9,2.7,17.7,7,25.1
		c2.8,5,7,10,11.8,14.2C553.3,599.9,558.5,602.2,564.7,603.8"/>
	<path fill="#888888" d="M559,653.2c0.4,1,2.6,6.3,3.7,6.5c0.4,0,1.1-0.8,0.8-1.4c-0.9-1.7-2-3.8-2.8-5.6c3.8-3,5.1-11.5,2-20.4
		c-5.1-13-16.4-22.8-25.6-33.6c-0.4-0.5-0.8-1-1.3-1.5c-0.1,0.4-0.2,0.8-0.3,1.2c-1.5,7.6-1.5,17.7,1,25.9
		c1.7,5.5,4.5,11.5,8.3,16.7C548.8,646.5,553.4,650.2,559,653.2"/>
	<path fill="#888888" d="M572.7,711.2c-6.9,3.8-19.3,6.7-27.8,2c-0.7,0.4-4.2,2.2-4.6,2.5c-0.6,0.5-1.5,0.9-2,0.1
		c-0.3-0.3-0.5-0.8,0.1-1.4c1.7-1,3.7-1.7,5.6-2.7c6.5-11.4,13.5-19.1,24.2-24.7c12.2-6.6,22.5-6.7,29-6.7c0.9,0,1.8,0,2.8,0.1
		C598.3,691.5,581.9,706.5,572.7,711.2"/>
	<path fill="#888888" d="M538.8,702.5c0.1,0.7,0.5,3.9,1.1,5.9c0.2,0.6,0.3,1.4,1.2,1.1c0.4-0.1,0.7-0.7,0.7-1c-0.4-1.9-0.8-4.1-1-6
		c4.2-2.3,7.6-9.7,8.2-18.8c-0.7-13.8-8.1-26.3-13.9-39.3c-0.2-0.6-0.4-1.2-0.7-1.8c-0.2,0.3-0.4,0.6-0.6,0.9
		c-3.9,6.8-6.9,16.4-7.2,25c-0.2,5.6,0.7,12.2,2.7,18.3C531.3,692.9,534.4,697.8,538.8,702.5"/>
	<path fill="#888888" d="M535.2,758.4c-7.9,1.3-18.7,1-25.4-6.2c-1.7,0.2-4.4,0.6-6.2,0.7c-0.5,0-0.8-0.3-1.1-0.8
		c-0.1-0.4,0-0.8,0.8-1.2c2-0.4,4-0.3,6.2-0.7c9-8.8,17.4-13.8,29.5-15.7c14.1-2.1,26,0.9,32.3,3.1c0.9,0.3,1.8,0.6,2.5,1
		c-2.2,4.3-8.9,8.7-13,10.8C553,753.9,544.9,757.1,535.2,758.4"/>
	<path fill="#888888" d="M506.8,739.8c-0.1,0.8-0.3,3.9-0.3,6c0,0.6-0.1,1.4,0.8,1.4c0.4,0,0.9-0.4,1-0.8c0.1-1.9,0.1-3.9,0.4-5.9
		c4.7-1.3,11-7.3,13.8-15.6c3.3-13.3-0.3-27.1-2-41.2c-0.1-0.6-0.1-1.3-0.1-1.9c-0.3,0.3-0.7,0.5-1,0.8
		c-5.8,5.3-11.5,13.5-14.3,21.6c-1.9,5.3-2.9,11.8-2.9,18.1C502.4,728.6,504,734.1,506.8,739.8"/>
	<path fill="#888888" d="M462.2,766.9c-0.4,0.6-1,3.1-1.6,5.1c-0.2,0.4-0.5,1.2,0.3,1.4c0.4,0.1,1-0.1,1.1-0.4
		c0.8-1.7,0.8-3.4,1.7-5.1c4.6,0.9,12.5-4,17.8-10.4c7.2-11.1,8-24,10.8-37.2c0.1-0.6,0.3-1.2,0.4-1.8c-0.4,0.1-0.7,0.3-1.1,0.3
		c-6.9,2.9-14.8,8.1-19.9,14.6c-3.4,4.2-6.7,9.8-8.6,15.6C461.4,755.1,461.3,760.9,462.2,766.9"/>
	<path fill="#888888" d="M487.3,791.5c-8.1-0.9-18.7-4.1-23.3-12.9c-1.6-0.4-4.5-0.7-6.3-1.1c-0.5-0.1-0.7-0.5-0.8-1.1
		c0-0.3,0.3-0.8,1.1-0.9c2.1,0.3,4,0.8,6.3,1c11.8-5.9,21.4-8.6,33.7-7c14.3,1.7,24.6,7.8,30.2,11.6c0.8,0.6,1.6,1.1,2.3,1.7
		c-3.5,3.6-11.2,6-15.7,7C506,791.9,497.1,792.7,487.3,791.5"/>
	<path fill="#888888" d="M189.4,785c-68.1-8-117.8-53.2-140.5-115c-9.3-25.6-10.7-53.9-7.4-83.6c6-53,34.8-99,76.9-132.5
		c0.1-0.1,0.3-0.2,0.3-0.1c0.1,0.1,0.5,0.3,0.7,0.4c0.2,0.1,0.3,0,0.1,0.3C74.9,489,46.3,543.8,43.1,599.2
		C38.3,678.2,83.8,748.4,152,772.5c11.5,4.1,23.4,7.2,35.9,8.8C188.8,782.2,189.4,783.6,189.4,785"/>
	<path fill="#888888" d="M19.4,652.9c5.6,5.6,14.4,11.1,24,9c0.5,0.6,3,3.7,3.4,4.2c0.4,0.6,1.2,1.1,1.8,0.7
		c0.4-0.2,0.7-0.7,0.3-1.4c-1.4-1.5-2.8-2.9-4.4-4.5c-2.8-12.6-6.9-20.9-15.5-29.4c-9.9-9.7-20.1-14-26.3-15.9
		c-0.9-0.2-1.8-0.4-2.7-0.7c-0.6,4.9,2,11.9,4.1,16C8.2,639,12.6,646.2,19.4,652.9"/>
	<path fill="#888888" d="M101.5,476c-0.8,0.3-5.4,1.3-6,0.5c-0.2-0.2,0.1-1,0.5-1c1.7-0.1,3.6-0.3,5.2-0.6c3-8,11.3-11.4,19-12.8
		c9.2-1.5,19.3,0.8,30.1,2.1c0.5,0.1,1.1,0.1,1.7,0.1c-0.1,0.3-0.4,0.5-0.7,0.8c-4.6,5.2-11.6,10-18.5,12.4
		c-4.6,1.7-10.2,2.6-15.7,2.4C111.4,479.9,106.5,478.8,101.5,476"/>
	<path fill="#888888" d="M119.4,454.2c0.4,0.1,0.4,0,1-0.3c1.3-1,2.4-1.6,3.7-2.7c7.4,0,14.3-1.8,20.9-5.5c2.9-1.7,5.9-3.7,8.3-6.1
		c5.9-5.3,10.6-13.1,12.8-20.2c0.1-0.4,0.2-0.7,0.2-1.1c-0.6,0.2-1,0.4-1.6,0.6c-11.9,4-23.4,5.9-32.9,13.7
		c-6.5,5.2-9.8,11.5-8.5,17.6c-1.5,1-3,1.9-4.4,3.1C118.3,453.8,119,454.2,119.4,454.2"/>
	<path fill="#888888" d="M76.2,509.4c-0.8,0.4-5.3,2.3-5.9,1.7c-0.3-0.3-0.1-1.1,0.3-1.2c1.7-0.6,3.7-0.9,5.2-1.5
		c0.6-5.6,4.3-10.9,11.8-14.5c11.3-5.1,24.2-4.2,36.3-5.1c0.6,0,1.1-0.1,1.7-0.1c-0.2,0.3-0.4,0.6-0.5,0.9
		c-4.1,5.9-10.6,12.2-17.3,15.9c-4.5,2.5-10,4.5-15.5,5.4C86.5,511.5,81.5,511,76.2,509.4"/>
	<path fill="#888888" d="M16.9,596.2c3.7,7,10.3,14.6,19.9,15.2c0.3,0.7,2.1,4.1,2.3,4.6c0.2,0.7,0.8,1.5,1.6,1.2
		c0.4-0.1,0.7-0.5,0.7-1.3c-1-1.9-2.1-3.3-3.2-5.2c0.9-12.8,0-22.2-5.8-32.7c-6.6-12.2-15.7-19.1-21.3-22.6
		c-0.7-0.5-1.5-0.9-2.3-1.4c-1.2,4.9-0.8,12.6,0,17.1C10.3,580.2,12.6,588,16.9,596.2"/>
	<path fill="#888888" d="M27.7,544.8c1.6,7.4,5.6,15,14.4,18.2c0.1,0.8,1.1,4.4,1.2,4.9c0,0.8,0.3,1.6,1.2,1.5
		c0.3-0.1,0.9-0.3,0.9-1c-0.4-2-1-4.2-1.5-6.3c2.9-9,4.5-17.3,4-26.2c-0.8-12.4-6.3-23.2-15-32c-0.7-0.6-1.2-1.3-1.8-1.9
		c-2.4,4.3-4,11.6-4.5,16C25.8,527,25.9,536,27.7,544.8"/>
	<path fill="#888888" d="M50,497.9c-0.2,7.7,1.9,16.2,9.6,21.2c-0.1,0.8-0.2,4.5-0.3,5c-0.1,0.7-0.1,1.6,0.8,1.8
		c0.3,0,0.8,0,1.1-0.8c0.2-2,0.3-4.9,0.4-7c6.5-9.3,10-19.4,10.1-31c0.3-13.4-3.7-21.9-6.8-27.3c-0.4-0.7-0.8-1.4-1.3-2.1
		c-3.4,3.5-6.7,10.2-8.1,14.4C52.4,480.2,50.2,489,50,497.9"/>
	<path fill="#888888" d="M83.6,455c-2,7.2-1.4,17.7,4.9,22.1c-0.2,0.9-0.8,4.1-0.8,4.8c-0.2,0.8-0.4,1.5,0.3,1.8
		c0.3,0.1,0.5,0.1,0.9-0.6c0.4-2,0.6-3.7,1-5.8c9.1-8.1,14.2-16.2,17-27.2c2.9-11.5,2.5-20.7,1.2-27.1c-0.1-0.8-0.4-1.5-0.6-2.4
		c-8,5.4-13.6,12.5-18.4,20.5C86.6,445.5,84.6,450,83.6,455"/>
	<path fill="#888888" d="M55.9,553.4c-0.7,0.6-4.8,3.8-5.8,3.4c-0.3-0.2-0.4-1.3,0-1.5c1.5-1,3.5-1.8,5-2.8
		c-0.5-6.2,1.2-12.5,7.9-18.4c10.3-8.4,23.9-11.2,36.3-15.6c0.6-0.2,1.1-0.5,1.7-0.7c-0.1,0.4-0.2,0.8-0.3,1.1
		c-2.4,7.2-7.3,15.7-13.3,21.4c-3.9,3.8-9.1,7.5-14.5,9.9C67.3,552.8,61.8,553.5,55.9,553.4"/>
	<path fill="#888888" d="M47.3,603.8c-0.6,0.8-3.8,5.3-4.8,5.1c-0.4,0-0.8-1.1-0.5-1.5c1.4-1.5,3-2.7,4.2-4.3
		c-2.1-5.7-1.1-13.9,3.9-21.8c8-11.5,19.6-17,30.9-25.1c0.5-0.4,1-0.8,1.5-1.2c0,0.4,0.1,0.8,0,1.3c-0.3,7.9-2.7,17.7-7,25.1
		c-2.8,5-7,10-11.8,14.2C58.7,599.9,53.5,602.2,47.3,603.8"/>
	<path fill="#888888" d="M53,653.2c-0.4,1-2.6,6.3-3.7,6.5c-0.4,0-1.1-0.8-0.8-1.4c0.9-1.7,2-3.8,2.8-5.6c-3.8-3-5.1-11.5-2-20.4
		c5.1-13,16.4-22.8,25.5-33.6c0.4-0.5,0.8-1,1.3-1.5c0.1,0.4,0.2,0.8,0.3,1.2c1.5,7.6,1.5,17.7-1,25.9c-1.7,5.5-4.5,11.5-8.3,16.7
		C63.2,646.5,58.6,650.2,53,653.2"/>
	<path fill="#888888" d="M39.3,711.2c6.9,3.8,19.3,6.7,27.8,2c0.7,0.4,4.2,2.2,4.6,2.5c0.6,0.5,1.5,0.9,2,0.1
		c0.3-0.3,0.5-0.8-0.1-1.4c-1.8-1-3.8-1.7-5.6-2.7c-6.5-11.4-13.5-19.1-24.2-24.7c-12.2-6.6-22.5-6.7-29-6.7c-0.9,0-1.8,0-2.7,0.1
		C13.7,691.5,30.1,706.5,39.3,711.2"/>
	<path fill="#888888" d="M73.2,702.5c-0.1,0.7-0.5,3.9-1.1,5.9c-0.2,0.6-0.3,1.4-1.1,1.1c-0.4-0.1-0.7-0.7-0.7-1
		c0.4-1.9,0.8-4.1,1-6c-4.2-2.3-7.6-9.7-8.2-18.8c0.7-14,8-26.5,13.9-39.5c0.2-0.6,0.4-1.2,0.7-1.8c0.2,0.3,0.4,0.6,0.6,0.9
		c3.9,6.8,6.9,16.4,7.2,25c0.2,5.6-0.7,12.2-2.7,18.3C80.7,692.9,77.6,697.8,73.2,702.5"/>
	<path fill="#888888" d="M76.8,758.4c7.9,1.3,18.7,1,25.4-6.2c1.7,0.2,4.5,0.6,6.2,0.7c0.5,0,0.8-0.3,1.1-0.8c0.1-0.4,0-0.8-0.8-1.2
		c-2-0.4-4-0.3-6.2-0.7c-9-8.8-17.4-13.8-29.5-15.7c-14.1-2.1-26,0.9-32.3,3.1c-0.9,0.3-1.8,0.6-2.6,1c2.3,4.3,8.9,8.7,13,10.8
		C59,753.9,67.1,757.1,76.8,758.4"/>
	<path fill="#888888" d="M105.2,739.8c0.1,0.8,0.3,3.9,0.3,6c0,0.6,0.1,1.4-0.8,1.4c-0.4,0-0.9-0.4-1-0.8c-0.1-1.9-0.1-3.9-0.4-5.9
		c-4.7-1.3-11-7.3-13.8-15.6c-3.3-13.3,0.3-27.1,2-41.2c0.1-0.6,0.1-1.3,0.1-1.9c0.3,0.3,0.7,0.5,1,0.8c5.8,5.3,11.5,13.5,14.3,21.6
		c1.9,5.3,2.9,11.8,2.8,18.1C109.6,728.6,108,734.1,105.2,739.8"/>
	<path fill="#888888" d="M149.8,766.9c0.4,0.6,1,3.1,1.6,5.1c0.2,0.4,0.5,1.2-0.3,1.4c-0.4,0.1-1-0.1-1.1-0.4
		c-0.8-1.7-0.8-3.4-1.8-5.1c-4.6,0.9-12.5-4-17.8-10.4c-7.2-11.1-8-24-10.8-37.2c-0.1-0.6-0.3-1.2-0.4-1.8c0.4,0.1,0.7,0.3,1.1,0.3
		c6.9,2.9,14.8,8.1,19.9,14.6c3.5,4.2,6.7,9.8,8.6,15.6C150.6,755.1,150.7,760.9,149.8,766.9"/>
	<path fill="#888888" d="M124.7,791.5c8.1-0.9,18.7-4.1,23.3-12.9c1.6-0.4,4.5-0.7,6.3-1.1c0.5-0.1,0.7-0.5,0.8-1.1
		c0-0.3-0.3-0.8-1.1-0.9c-2,0.3-4,0.8-6.3,1c-11.8-5.9-21.4-8.6-33.8-7c-14.3,1.7-24.6,7.8-30.2,11.6c-0.8,0.6-1.6,1.1-2.3,1.7
		c3.5,3.6,11.2,6,15.7,7C106.1,791.9,114.9,792.7,124.7,791.5"/>
	<path fill="#888888" d="M110.9,629.4h2.9v5.7c2.1-3.6,5.5-6.5,11.1-6.5c7.8,0,12.3,5.3,12.3,12.7v18.8h-2.9v-18.3
		c0-6.3-3.6-10.5-9.8-10.5c-6,0-10.7,4.6-10.7,11v17.8h-2.9V629.4"/>
	<path fill="#888888" d="M142.2,644.8L142.2,644.8c0-9,6.3-16.1,14.6-16.1c8.6,0,14.1,7,14.1,16.1c0,0.6,0,0.7-0.1,1.2h-25.5
		c0.6,7.7,6,12.1,12.1,12.1c4.8,0,8-2.1,10.5-4.8l2.1,1.8c-3.1,3.4-6.8,5.8-12.7,5.8C149.2,660.9,142.2,654.4,142.2,644.8
		 M167.7,643.2c-0.4-6.2-4-11.9-11-11.9c-6.1,0-10.8,5.1-11.4,11.9H167.7z"/>
	<polyline fill="#888888" points="171.8,629.4 175.2,629.4 184.4,656.4 193.7,629.2 196.1,629.2 205.4,656.4 214.7,629.4 
		217.9,629.4 206.6,660.4 204.1,660.4 194.9,634 185.7,660.4 183.1,660.4 171.8,629.4 	"/>
	<path fill="#888888" d="M222.2,629.4h2.9v6.9c2.7-4.1,6.6-7.6,12.7-7.6c7.4,0,15,6,15,16v0.1c0,10-7.6,16.1-15,16.1
		c-6.2,0-10.1-3.5-12.7-7.4v16.3h-2.9V629.4 M249.6,644.9v-0.1c0-8.1-5.6-13.3-12.1-13.3c-6.4,0-12.5,5.4-12.5,13.2v0.1
		c0,7.9,6.2,13.2,12.5,13.2C244.2,658,249.6,653.2,249.6,644.9z"/>
	<path fill="#888888" d="M256.3,644.9v-0.1c0-8.6,6.7-16.1,15.9-16.1c9.1,0,15.7,7.4,15.7,16v0.1c0,8.6-6.7,16.1-15.9,16.1
		C262.9,660.9,256.3,653.5,256.3,644.9 M284.7,644.9v-0.1c0-7.4-5.5-13.3-12.7-13.3c-7.3,0-12.5,6-12.5,13.2v0.1
		c0,7.4,5.5,13.3,12.7,13.3C279.5,658,284.7,652,284.7,644.9z"/>
	<path fill="#888888" d="M292.7,629.4h2.9v8.8c2.4-5.5,7.6-9.5,13.6-9.2v3.2H309c-7.1,0-13.3,5.4-13.3,15.4v12.6h-2.9v-30.8"/>
	<path fill="#888888" d="M318.5,652.2v-20.1H314v-2.7h4.5v-9.8h2.9v9.8h10.8v2.7h-10.8V652c0,4.4,2.6,6,6.2,6c1.5,0,2.8-0.3,4.5-1.1
		v2.8c-1.5,0.7-3.1,1.1-5,1.1C322.4,660.7,318.5,658,318.5,652.2"/>
	<polyline fill="#888888" points="359.8,617.9 389.5,617.9 389.5,620.8 362.9,620.8 362.9,638.2 386.8,638.2 386.8,641 362.9,641 
		362.9,660.2 359.8,660.2 359.8,617.9 	"/>
	<rect x="398.4" y="617.9" fill="#888888" width="3.1" height="42.2"/>
	<polyline fill="#888888" points="412.3,617.9 415.5,617.9 415.5,657.2 440.2,657.2 440.2,660.2 412.3,660.2 412.3,617.9 	"/>
	<polyline fill="#888888" points="446.8,617.9 449.8,617.9 466.7,642.9 483.7,617.9 486.6,617.9 486.6,660.2 483.5,660.2 
		483.5,623.5 466.8,647.8 466.5,647.8 449.8,623.5 449.8,660.2 446.8,660.2 446.8,617.9 	"/>
	<path fill="#888888" d="M501.1,673.4H343.9v-70.1h157.2L501.1,673.4L501.1,673.4z M346.9,670.4h151.2v-64.1H346.9V670.4
		L346.9,670.4z"/>
</g>
</svg>
