<?xml version="1.0" encoding="utf-8"?>
<!-- Generator: Adobe Illustrator 18.1.1, SVG Export Plug-In . SVG Version: 6.00 Build 0)  -->
<!DOCTYPE svg PUBLIC "-//W3C//DTD SVG 1.1//EN" "http://www.w3.org/Graphics/SVG/1.1/DTD/svg11.dtd">
<svg version="1.1" id="Layer_2" xmlns="http://www.w3.org/2000/svg" xmlns:xlink="http://www.w3.org/1999/xlink" x="0px" y="0px"
	 viewBox="0 257.3 612 256.2" enable-background="new 0 257.3 612 256.2" xml:space="preserve">
<path fill="#FFFFFF" d="M103.6,288.8c0,0-0.9,0.5-2.7,1.4c-1.7,0.9-4.2,2.4-7.2,4.4c-6.1,4-14.5,10.3-23.1,19.2
	c-4.4,4.4-8.7,9.5-12.9,15.2S49.6,341,46.3,348c-0.9,1.7-1.5,3.5-2.4,5.3c-0.7,1.8-1.5,3.7-2.1,5.6s-1.3,3.8-1.8,5.7
	c-0.3,0.9-0.5,2-0.8,2.9c-0.3,0.9-0.4,2-0.6,2.9c-1.6,7.9-2.3,16.1-1.8,24.2c0.2,2.1,0.3,4.1,0.5,6.1c0.3,2.1,0.5,4,0.9,6.1l0.6,3
	l0.3,1.5l0.2,0.7l0.2,0.8c0.6,2,1.1,4,1.7,5.9c0.7,1.9,1.3,3.8,2,5.6c0.8,1.8,1.5,3.7,2.3,5.5c0.2,0.4,0.4,0.9,0.6,1.4l0.7,1.3
	c0.4,0.9,0.9,1.7,1.4,2.6c0.3,0.4,0.4,0.9,0.7,1.3l0.8,1.2c0.5,0.9,1,1.6,1.5,2.5c4.1,6.4,9,12.1,14,16.8c5.2,4.6,10.7,8.6,16,11.6
	c0.3,0.2,0.7,0.4,1,0.6c0.3,0.2,0.7,0.3,1,0.5c0.7,0.3,1.4,0.7,2,1c1.3,0.7,2.6,1.4,3.8,2c1.3,0.5,2.6,1,3.8,1.5
	c0.6,0.3,1.2,0.5,1.8,0.8c0.6,0.3,1.2,0.5,1.8,0.7c2.4,0.8,4.6,1.5,6.7,2.2c2.1,0.5,4,1,5.8,1.5c0.9,0.3,1.7,0.4,2.5,0.7
	c0.8,0.2,1.5,0.3,2.2,0.4c1.4,0.3,2.6,0.5,3.5,0.7c1.9,0.3,2.9,0.6,2.9,0.6s-1-0.1-3-0.3c-0.9-0.1-2.1-0.3-3.6-0.3
	c-0.7-0.1-1.5-0.2-2.3-0.3c-0.8-0.2-1.6-0.3-2.6-0.4c-1.8-0.3-3.8-0.7-6-1.1c-2.1-0.6-4.4-1.2-6.9-1.8c-0.6-0.2-1.2-0.3-1.9-0.6
	c-0.6-0.3-1.3-0.4-1.9-0.7c-1.3-0.4-2.6-0.9-3.9-1.5c-1.4-0.5-2.7-1.2-4-1.8c-0.7-0.3-1.4-0.6-2.1-0.9c-0.3-0.2-0.7-0.3-1-0.5
	s-0.7-0.3-1-0.6c-2.7-1.5-5.7-3.1-8.5-5c-0.7-0.5-1.5-0.9-2.1-1.5c-0.3-0.3-0.8-0.5-1.1-0.8l-1-0.9c-1.4-1.1-2.7-2.2-4.2-3.4
	c-5.5-4.9-10.6-10.6-15-17.4c-4.4-6.7-8-14.1-10.4-22.2c-0.6-2-1.1-3.9-1.6-6l-0.2-0.8v-0.1v-0.2v-0.2l-0.1-0.4l-0.3-1.5l-0.6-3.1
	c-0.4-2.1-0.6-4.2-0.9-6.2c-0.3-2.1-0.3-4.2-0.5-6.3c-0.4-8.5,0.3-17,2.2-25.1c1.8-8.1,4.6-15.9,8.2-23c3.6-7.1,7.7-13.5,12.1-19.2
	s9.1-10.8,13.6-15c9.1-8.6,17.8-14.6,24-18.4c3.2-1.9,5.7-3.2,7.4-4C102.6,289.2,103.6,288.8,103.6,288.8z"/>
<path fill="#FFFFFF" d="M117.1,278.4c-2.4,7.8-5.9,10-7.4,10.9c-1.5,0.9-5.2,0.6-8.7,0.8C104.4,278.9,111.8,282.7,117.1,278.4z"/>
<path fill="#FFFFFF" d="M62.6,257.4"/>
<path fill="#FFFFFF" d="M69.1,289.5c-2.6,2.2-7.7,6.8-8.4,8.9c-1.2,3.4,0.9,8.3,2.2,12.5c1.8-2.6,5.7-7,6.8-9.7
	C70.4,297.8,69.2,292.3,69.1,289.5z"/>
<path fill="#FFFFFF" d="M86.5,280.5c0.6,3.2-0.2,10.3-2.2,12.8c-2.1,2.6-5.4,4.5-7.7,5.3c-0.9-5.3,0.3-7.5,1.5-9.8
	C79.2,286.5,83.8,282.8,86.5,280.5z"/>
<path fill="#FFFFFF" d="M96.1,309c-1.5-1.4-6.8-3.7-8.9-3.3c-2.1,0.3-4.4,1.7-5.7,2.8c2.6,2.3,4.2,3,5.8,3.1S93.8,309.8,96.1,309z"
	/>
<path fill="#FFFFFF" d="M47.4,299.5c3,4.1,7.6,13.8,6.5,18.6s-4.4,9.9-7.2,12.5c-4.9-6.8-5.9-10.6-6-14.5
	C40.5,312.2,45.7,306.9,47.4,299.5z"/>
<path fill="#FFFFFF" d="M25.1,320.2c7.1,4.4,11.5,13.3,12.7,18.1c1.1,4.9-2.3,14.6-3.6,18.1c-7.4-3.9-9-10.1-9.7-14.7
	C23.9,337.9,26.9,327.7,25.1,320.2z"/>
<path fill="#FFFFFF" d="M13.1,351.1c-2.4,5.9-1.5,19.2,1.6,26.9c2.3,5.8,8.4,10.8,12.5,13.2c3.9-9.7,2.1-16.6,1-21.5
	C27.1,364.8,17.3,356.8,13.1,351.1z"/>
<path fill="#FFFFFF" d="M0,391.9c9.5-0.6,19.5,4.5,23.7,8.3c4.2,3.8,7.6,15,8.8,19.2c-9.4,1.2-14.9-3.4-18.6-7.2
	C10.6,409,6.6,397.7,0,391.9z"/>
<path fill="#FFFFFF" d="M3.2,438.4c7.5-5.8,20.1-6.6,25.7-5.9c5.6,0.8,13.3,10.4,16.5,13.2c-8.9,4.9-16.5,4.2-21.1,1.7
	C19.8,444.8,12,439.5,3.2,438.4z"/>
<path fill="#FFFFFF" d="M19.8,465.2c5.3,4,18.9,9.2,25.3,8c6.5-1.4,13.3-5.6,16.8-9.1c-8.8-6.7-14-6.3-19.2-6.6
	S26.6,462.4,19.8,465.2z"/>
<path fill="#FFFFFF" d="M66.6,395.9c2.4,6.2,3.6,20.7,0.5,26.5s-9.1,11.1-13.4,13.5c-3.9-10.3-2.1-15.2-0.9-20.3
	C54,410.7,62,401.7,66.6,395.9z"/>
<path fill="#FFFFFF" d="M77.2,422.4c-9.1,10.1-10.2,21-9.1,26.5c1.5,8.2,13,10.6,15.3,14.2c3-12-2.1-15.3-4.2-20.2
	C75.9,435.5,77.2,431.1,77.2,422.4z"/>
<path fill="#FFFFFF" d="M70.9,340.9c-3.8,0.1-9.9-0.4-12.6,0.7c-4.8,2-6.2,5.2-8.3,9.1C65.6,352.9,62,346.9,70.9,340.9z"/>
<path fill="#FFFFFF" d="M58.3,373.7c-3.9,2.3-12.5,6.8-15.5,13.1c-4.5,9.4,0.3,15,0.5,20.4C54.6,397.6,51.1,384,58.3,373.7z"/>
<path fill="#FFFFFF" d="M65.6,358.4c-3.1-0.6-9.5-2.2-13.9,0c-6.7,3.3-6.8,9.1-9.1,12.4C52.7,370.7,57.2,360.9,65.6,358.4z"/>
<path fill="#FFFFFF" d="M110.7,475.1c0.1-20.9-14.5-22.7-17.4-38.6c-2.4,8.3-3.2,23.9,0.3,29.3C97.8,472.1,103.7,475.1,110.7,475.1z
	"/>
<path fill="#FFFFFF" d="M42.7,490.4c19.8,2.6,36.3,0.9,39.6-12.7C57.4,465.9,58.7,484.5,42.7,490.4z"/>
<path fill="#FFFFFF" d="M113.4,486.9c-13.7,20.7-29.2,12.8-42.6,26.7c3.2-9.7,12.6-25.7,19.7-28.7
	C98.7,481.3,106.5,482.2,113.4,486.9z"/>
<path fill="#FFFFFF" d="M87.7,318.1c-2.4-1.6-8.5-3.7-11.3-3s-5.7,2.7-7.2,4.4c4,2.7,6.3,2.5,8.6,2.5
	C80.1,321.9,84.8,319.3,87.7,318.1z"/>
<path fill="#FFFFFF" d="M81.6,329.4c-3-1.8-10.3-3.8-13.7-2.7c-3.3,1-6.6,3.6-8.2,5.6c5,3,7.7,2.6,10.4,2.4
	C72.8,334.6,78.1,331.3,81.6,329.4z"/>
<path fill="#FFFFFF" d="M94.7,299c5.3,6.1,8.1-0.9,14.5-1C100.6,294.3,97.3,295.3,94.7,299z"/>
<path fill="#FFFFFF" d="M90.8,291.5c-2.6-7.7,4.9-6.6,8.2-11.9C97.8,288.9,95.3,291.1,90.8,291.5z"/>
<g>
	<path fill="#FFFFFF" d="M84.1,382.5c-0.2,0-0.3-0.2-0.3-0.3s0.3-0.4,0.5-0.7c3.8-3.3,9.2-7.6,9.2-13.4c0-4.4-2.4-5.2-3.8-5.2
		c-1.2,0-2.1,0.3-2.9,1c-0.7,0.6-1.1,1.9-1.1,2.7c0,0.3-0.1,0.5-0.3,0.5c-0.2,0-0.3-0.2-0.3-0.5c0-0.3-0.2-2.5-0.2-3.3
		c0-0.3,0-0.3,0.3-0.5c1-0.5,2.6-1,5-1c4.8,0,6.8,2.7,6.8,5.8c0,5.3-5.9,9.9-9.4,12.7c-0.2,0.1-0.1,0.2,0.1,0.2h1.9
		c0.4,0,3.7,0,4.7-0.2c1.9-0.3,2.8-1.1,3.1-2.4c0.1-0.3,0.2-0.4,0.3-0.4c0.2,0,0.3,0.3,0.3,0.5c0,0.4-0.5,3-0.8,3.9
		c-0.3,0.8-0.7,0.9-2.4,0.9H84.1V382.5z"/>
	<path fill="#FFFFFF" d="M107.1,383c-5.4,0-6.8-6.2-6.8-10.1c0-6.4,2.2-11.3,7.3-11.3c5.4,0,6.8,5.7,6.8,10.1
		C114.4,378.4,111.8,383,107.1,383z M107,362.8c-2.1,0-3.5,2.8-3.5,9.1c0,4.7,1.2,9.9,4.2,9.9c2.2,0,3.6-3.8,3.6-9.1
		C111.2,368,109.9,362.8,107,362.8z"/>
	<path fill="#FFFFFF" d="M122.5,370c0-1.5,0-2.7,0-3.6c0-0.7,0-1-0.4-1c-0.5,0-2.6,1-3.2,1.3c-0.2,0.1-0.3,0.1-0.3,0.1
		s-0.3-0.2-0.3-0.3s0.2-0.3,0.3-0.3c0.1-0.1,5.4-3.5,6.3-4.2c0.3-0.2,0.5-0.3,0.7-0.3c0.3,0,0.3,0.3,0.3,0.6s-0.2,2.9-0.2,7.1v5
		c0,2.7,0,5,0.1,6.2c0.1,0.9,0.3,1.3,1.1,1.5c0.4,0.1,1.6,0.2,1.8,0.2c0.1,0,0.3,0.1,0.3,0.3s-0.2,0.3-0.4,0.3
		c-2.1,0-3.8-0.1-4.5-0.1c-0.6,0-2.9,0.1-4.7,0.1c-0.3,0-0.4-0.1-0.4-0.3s0.1-0.3,0.3-0.3c0.3,0,1.7-0.1,2.2-0.2
		c0.9-0.2,1-0.6,1.1-1.5c0.1-1.2,0.2-3.5,0.2-6.2L122.5,370z"/>
	<path fill="#FFFFFF" d="M134.6,382.5c-0.4-0.3-0.5-0.5-0.5-1c0-0.9,0-2.6,0.1-3.4c0.1-0.3,0.2-0.5,0.3-0.5s0.3,0.2,0.3,0.4
		c0,2.9,1.8,3.7,3.8,3.7c2.2,0,4.5-1.5,4.5-5c0-4.4-4.8-6.2-6.9-6.5c-0.3-0.1-0.5-0.2-0.5-0.5l0.6-7.2c0-0.3,0.3-0.3,0.5-0.3h6.7
		c0.8,0,1.2,0,1.5-0.1c0.3,0,0.4-0.1,0.5-0.1c0.3,0,0.3,0.1,0.3,0.5c0,0.6-0.1,1.8-0.3,3.5c0,0.2-0.1,0.3-0.3,0.3
		c-0.2,0-0.3-0.2-0.3-0.3c0-0.8-0.2-1.5-2.4-1.5h-5l-0.3,3.3c4.1,0.7,9.1,2.9,9.1,7.7c0,3.7-2.7,7.7-9,7.7
		C136.3,383,135.3,382.8,134.6,382.5z"/>
	<path fill="#FFFFFF" d="M156.7,382.3c-0.4-0.2-0.5-0.3-0.5-0.9c0-1.5,0.1-3.2,0.2-3.6c0-0.4,0.1-0.7,0.3-0.7s0.3,0.3,0.3,0.4
		c0,0.3,0.1,0.9,0.3,1.4c0.6,2.1,2.2,2.7,3.9,2.7c2.5,0,3.7-1.7,3.7-3.1s-0.4-2.6-2.7-4.4l-1.3-1c-3-2.4-4-4.3-4-6.5
		c0-3,2.5-5.1,6.3-5.1c1.8,0,2.9,0.3,3.7,0.4c0.3,0.1,0.3,0.2,0.3,0.3c0,0.3-0.1,1.1-0.1,3.2c0,0.6-0.1,0.9-0.3,0.9
		c-0.2,0-0.3-0.2-0.3-0.5c0-0.3-0.2-1.1-0.7-1.8c-0.4-0.5-1.2-1.4-3-1.4c-2.1,0-3.2,1.2-3.2,2.8c0,1.3,0.6,2.2,2.9,3.9l0.8,0.6
		c3.3,2.5,4.4,4.4,4.4,7c0,1.6-0.6,3.5-2.6,4.8c-1.4,0.9-2.9,1.1-4.4,1.1C159.1,383,157.9,382.8,156.7,382.3z"/>
	<path fill="#FFFFFF" d="M175.2,375.6c-0.2,0-0.2,0.1-0.3,0.3l-1.5,3.8c-0.3,0.7-0.4,1.4-0.4,1.7c0,0.5,0.3,0.9,1.1,0.9h0.4
		c0.3,0,0.4,0.1,0.4,0.3c0,0.3-0.2,0.3-0.4,0.3c-0.9,0-2.1-0.1-2.9-0.1c-0.3,0-1.8,0.1-3.2,0.1c-0.3,0-0.5-0.1-0.5-0.3
		s0.1-0.3,0.3-0.3c0.3,0,0.6,0,0.9-0.1c1.3-0.2,1.8-1.1,2.3-2.5l6.8-16.9c0.3-0.8,0.5-1.1,0.8-1.1s0.4,0.3,0.7,0.9
		c0.7,1.5,5,12.5,6.8,16.6c1,2.5,1.8,2.8,2.4,3c0.4,0.1,0.9,0.1,1.1,0.1c0.3,0,0.3,0,0.3,0.3s-0.3,0.3-1.3,0.3s-3,0-5.1-0.1
		c-0.5,0-0.9,0-0.9-0.3c0-0.2,0.1-0.3,0.3-0.3c0.2-0.1,0.3-0.3,0.3-0.6l-2.2-5.6c-0.1-0.2-0.2-0.2-0.3-0.2
		C181.2,375.6,175.2,375.6,175.2,375.6z M180.9,374.2c0.2,0,0.2-0.1,0.2-0.2l-2.5-6.8c0-0.1-0.1-0.3-0.2-0.3c-0.1,0-0.2,0.2-0.2,0.3
		l-2.5,6.7c0,0.1,0,0.2,0.1,0.2L180.9,374.2L180.9,374.2z"/>
	<path fill="#FFFFFF" d="M193.3,369.9c0-4.2,0-5-0.1-5.8c-0.1-0.9-0.3-1.4-1.2-1.5c-0.3-0.1-0.7-0.1-1-0.1s-0.4-0.1-0.4-0.3
		s0.2-0.3,0.6-0.3c1.5,0,3.2,0.1,3.8,0.1c0.9,0,3-0.1,3.8-0.1c1.7,0,3.6,0.2,5,1.2c0.8,0.5,1.9,1.9,1.9,3.8c0,2.1-0.9,3.8-3.6,6.2
		c2.4,3.1,4.4,5.5,5.9,7.2c1.5,1.6,2.7,1.8,3.1,1.9c0.3,0.1,0.5,0.1,0.8,0.1s0.3,0.1,0.3,0.3c0,0.3-0.2,0.3-0.5,0.3h-2.6
		c-1.5,0-2.2-0.2-2.9-0.5c-1.2-0.6-2.2-1.9-3.8-4c-1.1-1.5-2.4-3.3-2.7-3.8c-0.2-0.2-0.3-0.2-0.5-0.2l-2.4-0.1
		c-0.2,0-0.3,0.1-0.3,0.3v0.3c0,2.6,0,4.7,0.2,5.8c0.1,0.8,0.3,1.4,1,1.5c0.4,0.1,1,0.1,1.4,0.1c0.3,0,0.3,0.1,0.3,0.3
		s-0.2,0.3-0.5,0.3c-1.6,0-3.6-0.1-4-0.1c-0.5,0-2.2,0.1-3.3,0.1c-0.3,0-0.5-0.1-0.5-0.3s0.1-0.3,0.4-0.3c0.4,0,0.8-0.1,1-0.1
		c0.5-0.1,0.7-0.7,0.8-1.5c0.2-1.1,0.2-3.3,0.2-5.8v-4.9H193.3z M196.5,372c0,0.3,0.1,0.4,0.3,0.5c0.6,0.2,1.4,0.3,2.1,0.3
		c1.1,0,1.5-0.1,2-0.4c0.9-0.6,1.6-1.9,1.6-4.1c0-3.8-2.6-5-4.2-5c-0.7,0-1.2,0-1.5,0.1c-0.2,0.1-0.3,0.2-0.3,0.3V372z"/>
	<path fill="#FFFFFF" d="M215.1,375.6c-0.2,0-0.2,0.1-0.3,0.3l-1.5,3.8c-0.3,0.7-0.4,1.4-0.4,1.7c0,0.5,0.3,0.9,1.1,0.9h0.4
		c0.3,0,0.4,0.1,0.4,0.3c0,0.3-0.2,0.3-0.4,0.3c-0.9,0-2.1-0.1-2.9-0.1c-0.3,0-1.8,0.1-3.2,0.1c-0.3,0-0.5-0.1-0.5-0.3
		s0.1-0.3,0.3-0.3c0.3,0,0.6,0,0.9-0.1c1.3-0.2,1.8-1.1,2.3-2.5l6.8-16.9c0.3-0.8,0.5-1.1,0.8-1.1c0.3,0,0.4,0.3,0.7,0.9
		c0.7,1.5,5,12.5,6.8,16.6c1,2.5,1.8,2.8,2.4,3c0.4,0.1,0.9,0.1,1.1,0.1c0.3,0,0.3,0,0.3,0.3s-0.3,0.3-1.3,0.3s-3,0-5.1-0.1
		c-0.5,0-0.9,0-0.9-0.3c0-0.2,0.1-0.3,0.3-0.3c0.2-0.1,0.3-0.3,0.3-0.6l-2.2-5.6c-0.1-0.2-0.2-0.2-0.3-0.2
		C221,375.6,215.1,375.6,215.1,375.6z M220.6,374.2c0.2,0,0.2-0.1,0.2-0.2l-2.5-6.8c0-0.1-0.1-0.3-0.2-0.3c-0.1,0-0.2,0.2-0.2,0.3
		l-2.5,6.7c0,0.1,0,0.2,0.1,0.2L220.6,374.2L220.6,374.2z"/>
	<path fill="#FFFFFF" d="M231.3,382.3c-0.4-0.2-0.5-0.3-0.5-0.9c0-1.5,0.1-3.2,0.2-3.6c0-0.4,0.1-0.7,0.3-0.7c0.3,0,0.3,0.3,0.3,0.4
		c0,0.3,0.1,0.9,0.3,1.4c0.6,2.1,2.2,2.7,3.9,2.7c2.5,0,3.7-1.7,3.7-3.1s-0.4-2.6-2.7-4.4l-1.3-1c-3-2.4-4-4.3-4-6.5
		c0-3,2.5-5.1,6.3-5.1c1.8,0,2.9,0.3,3.7,0.4c0.3,0.1,0.3,0.2,0.3,0.3c0,0.3-0.1,1.1-0.1,3.2c0,0.6-0.1,0.9-0.3,0.9
		c-0.2,0-0.3-0.2-0.3-0.5c0-0.3-0.2-1.1-0.7-1.8c-0.4-0.5-1.2-1.4-3-1.4c-2.1,0-3.2,1.2-3.2,2.8c0,1.3,0.6,2.2,2.9,3.9l0.8,0.6
		c3.3,2.5,4.4,4.4,4.4,7c0,1.6-0.6,3.5-2.6,4.8c-1.4,0.9-2.9,1.1-4.4,1.1C233.7,383,232.5,382.8,231.3,382.3z"/>
	<path fill="#FFFFFF" d="M245.8,372.3c0-4.7,3.1-10.7,11.3-10.7c6.8,0,11,3.9,11,10.3c0,6.2-4.4,11.2-11.3,11.2
		C248.9,383,245.8,377.1,245.8,372.3z M264.3,372.8c0-6.2-3.5-9.9-8-9.9c-3.2,0-6.8,1.7-6.8,8.6c0,5.7,3.2,10.2,8.4,10.2
		C259.9,381.6,264.3,380.7,264.3,372.8z"/>
	<path fill="#FFFFFF" d="M277.3,363.5l-4.1,0.1c-1.6,0.1-2.2,0.2-2.7,0.8c-0.3,0.4-0.4,0.8-0.4,0.9s-0.2,0.3-0.3,0.3
		c-0.2,0-0.3-0.2-0.3-0.4c0-0.4,0.5-2.9,0.6-3.2c0.1-0.3,0.2-0.5,0.3-0.5c0.3,0,0.5,0.3,1.2,0.3c0.8,0.1,1.8,0.2,2.7,0.2h10.9
		c0.9,0,1.5-0.1,1.9-0.2s0.6-0.2,0.8-0.2c0.2,0,0.3,0.2,0.3,0.6c0,0.6-0.1,2.5-0.1,3.2c0,0.3-0.1,0.4-0.3,0.4
		c-0.3,0-0.3-0.2-0.3-0.5V365c-0.1-0.7-0.8-1.5-3.2-1.5l-3.4-0.1v11.2c0,2.5,0,4.7,0.2,5.8c0.1,0.8,0.3,1.4,1,1.5
		c0.3,0.1,1,0.1,1.4,0.1s0.4,0.1,0.4,0.3s-0.3,0.3-0.5,0.3c-1.8,0-3.5-0.1-4.3-0.1c-0.6,0-2.4,0.1-3.4,0.1c-0.3,0-0.5-0.1-0.5-0.3
		s0.1-0.3,0.4-0.3c0.4,0,0.8-0.1,1-0.1c0.5-0.1,0.7-0.7,0.8-1.5c0.2-1.1,0.2-3.3,0.2-5.8v-11H277.3z"/>
	<path fill="#FFFFFF" d="M292.5,375.6c-0.2,0-0.2,0.1-0.3,0.3l-1.5,3.8c-0.3,0.7-0.4,1.4-0.4,1.7c0,0.5,0.3,0.9,1.1,0.9h0.4
		c0.3,0,0.4,0.1,0.4,0.3c0,0.3-0.2,0.3-0.4,0.3c-0.9,0-2.1-0.1-2.9-0.1c-0.3,0-1.8,0.1-3.2,0.1c-0.3,0-0.5-0.1-0.5-0.3
		s0.1-0.3,0.3-0.3c0.3,0,0.6,0,0.9-0.1c1.3-0.2,1.8-1.1,2.3-2.5l6.8-16.9c0.3-0.8,0.5-1.1,0.8-1.1c0.3,0,0.4,0.3,0.7,0.9
		c0.7,1.5,5,12.5,6.8,16.6c1,2.5,1.8,2.8,2.4,3c0.4,0.1,0.9,0.1,1.1,0.1c0.3,0,0.3,0,0.3,0.3s-0.3,0.3-1.3,0.3c-1,0-3,0-5.1-0.1
		c-0.5,0-0.9,0-0.9-0.3c0-0.2,0.1-0.3,0.3-0.3c0.2-0.1,0.3-0.3,0.3-0.6l-2.2-5.6c-0.1-0.2-0.2-0.2-0.3-0.2
		C298.5,375.6,292.5,375.6,292.5,375.6z M298.1,374.2c0.2,0,0.2-0.1,0.2-0.2l-2.5-6.8c0-0.1-0.1-0.3-0.2-0.3c-0.1,0-0.2,0.2-0.2,0.3
		L293,374c0,0.1,0,0.2,0.1,0.2L298.1,374.2L298.1,374.2z"/>
	<path fill="#FFFFFF" d="M319.4,374.7c0,2.7,0,4.7,0.2,5.8c0.1,0.8,0.3,1.4,1,1.5c0.3,0.1,1,0.1,1.4,0.1c0.3,0,0.4,0.1,0.4,0.3
		s-0.2,0.3-0.6,0.3c-1.7,0-3.4-0.1-4.2-0.1c-0.7,0-2.4,0.1-3.5,0.1c-0.3,0-0.6-0.1-0.6-0.3s0.1-0.3,0.4-0.3c0.4,0,0.8-0.1,1-0.1
		c0.5-0.1,0.7-0.7,0.8-1.5c0.2-1.1,0.2-3.2,0.2-5.8v-4.8c0-4.2,0-5-0.1-5.8c-0.1-0.9-0.3-1.4-1.2-1.5c-0.3-0.1-0.7-0.1-1-0.1
		c-0.3,0-0.4-0.1-0.4-0.3c0-0.3,0.3-0.3,0.6-0.3c0.7,0,1.5,0,2.2,0c0.7,0,1.4,0.1,1.7,0.1c1,0,6.6,0,7.2,0c0.5,0,0.9,0,1.1-0.1
		c0.2-0.1,0.3-0.2,0.4-0.2s0.2,0.1,0.2,0.3s-0.2,0.5-0.3,1.2c0,0.3-0.1,1.9-0.2,2.2c0,0.3-0.1,0.3-0.3,0.3c-0.2,0-0.3-0.2-0.3-0.4
		s0-0.7-0.2-1c-0.2-0.3-0.8-0.8-1.8-0.9l-4.2-0.1c-0.2,0-0.3,0.1-0.3,0.3v6.8c0,0.2,0,0.3,0.2,0.3h3.5c0.4,0,0.9,0,1.2,0
		c0.5,0,0.9-0.2,1.2-0.5c0.2-0.2,0.2-0.3,0.3-0.3c0.1,0,0.2,0.1,0.2,0.3s-0.2,0.9-0.3,1.7c-0.1,0.5-0.1,1.8-0.1,2
		c0,0.3,0,0.5-0.3,0.5c-0.2,0-0.3-0.2-0.3-0.3s-0.1-0.5-0.2-0.9c-0.2-0.3-0.5-0.9-1.4-1c-0.7-0.1-3.6-0.1-4-0.1
		c-0.2,0-0.2,0.1-0.2,0.3v2.2H319.4z"/>
	<path fill="#FFFFFF" d="M333,369.9c0-4.2,0-5-0.1-5.8c-0.1-0.9-0.3-1.4-0.9-1.5c-0.3-0.1-0.7-0.1-1-0.1c-0.3,0-0.4-0.1-0.4-0.3
		s0.3-0.3,0.7-0.3c1,0,2.7,0.1,3.6,0.1c0.7,0,2.3-0.1,3.3-0.1c0.3,0,0.6,0.1,0.6,0.3c0,0.3-0.2,0.3-0.4,0.3c-0.3,0-0.5,0-0.9,0.1
		c-0.8,0.2-0.9,0.6-1,1.5c-0.1,0.9-0.1,1.6-0.1,5.8v4.8c0,2.7,0,4.8,0.1,6c0.1,0.8,0.3,1.2,1.1,1.4c0.3,0.1,1,0.1,1.4,0.1
		s0.4,0.1,0.4,0.3s-0.3,0.3-0.5,0.3c-1.8,0-3.5-0.1-4.3-0.1c-0.6,0-2.4,0.1-3.4,0.1c-0.3,0-0.5-0.1-0.5-0.3s0.1-0.3,0.4-0.3
		c0.4,0,0.8-0.1,1-0.1c0.5-0.1,0.7-0.6,0.8-1.4c0.2-1.1,0.2-3.3,0.2-6L333,369.9L333,369.9z"/>
	<path fill="#FFFFFF" d="M348.8,374.7c0,3.5,0,5.4,0.6,5.9c0.4,0.4,1.2,0.6,3.3,0.6c1.5,0,2.5,0,3.2-0.8c0.3-0.3,0.7-1.1,0.7-1.6
		c0-0.3,0.1-0.4,0.3-0.4c0.2,0,0.3,0.2,0.3,0.4c0,0.3-0.2,2.4-0.4,3.2c-0.2,0.6-0.3,0.8-1.7,0.8c-2,0-3.4-0.1-4.6-0.1
		c-1.2-0.1-2.2-0.1-3.3-0.1c-0.3,0-0.9,0-1.5,0c-0.6,0-1.4,0.1-1.9,0.1c-0.3,0-0.5-0.1-0.5-0.3s0.1-0.3,0.4-0.3c0.4,0,0.8-0.1,1-0.1
		c0.5-0.1,0.7-0.7,0.8-1.5c0.2-1.1,0.2-3.3,0.2-5.8v-4.8c0-4.2,0-5-0.1-5.8c-0.1-0.9-0.3-1.4-1.2-1.5c-0.3-0.1-0.5-0.1-0.9-0.1
		c-0.3,0-0.4-0.1-0.4-0.3s0.2-0.3,0.6-0.3c1.3,0,3,0.1,3.8,0.1c0.7,0,2.7-0.1,3.8-0.1c0.3,0,0.6,0.1,0.6,0.3s-0.2,0.3-0.5,0.3
		s-0.8,0-1,0.1c-0.8,0.2-0.9,0.6-1,1.5c-0.1,0.9-0.1,1.6-0.1,5.8v4.8H348.8z"/>
	<path fill="#FFFFFF" d="M362.9,362.3c0.1-0.4,0.3-0.7,0.4-0.7c0.2,0,0.3,0.2,0.8,0.9l7.4,15.2l7.4-15.4c0.3-0.4,0.3-0.7,0.6-0.7
		c0.3,0,0.4,0.3,0.5,0.9l2.5,16.8c0.3,1.7,0.5,2.5,1.4,2.7c0.8,0.3,1.4,0.3,1.7,0.3c0.3,0,0.4,0,0.4,0.2c0,0.3-0.3,0.3-0.7,0.3
		c-0.7,0-4.4-0.1-5.6-0.2c-0.6-0.1-0.8-0.2-0.8-0.3s0.1-0.3,0.3-0.3c0.2-0.1,0.3-0.4,0.2-1.2l-1.6-11.9h-0.1l-6,12.2
		c-0.6,1.3-0.8,1.5-1,1.5s-0.5-0.5-0.9-1.4c-0.7-1.3-2.8-5.5-3.2-6.2c-0.3-0.6-1.9-3.8-2.8-5.8h-0.1l-1.5,10.7
		c-0.1,0.5-0.1,0.9-0.1,1.3c0,0.5,0.3,0.8,0.9,0.9s0.9,0.2,1.1,0.2c0.3,0,0.4,0.1,0.4,0.2c0,0.3-0.3,0.3-0.7,0.3
		c-1.1,0-2.4-0.1-2.9-0.1c-0.5,0-1.8,0.1-2.7,0.1c-0.3,0-0.5-0.1-0.5-0.3c0-0.2,0.2-0.2,0.4-0.2c0.3,0,0.4,0,0.9-0.1
		c0.8-0.2,1-1.2,1.1-2.1L362.9,362.3z"/>
	<path fill="#FFFFFF" d="M399.8,374.7c0,2.7,0,4.7,0.2,5.8c0.1,0.8,0.3,1.4,1,1.5c0.3,0.1,1,0.1,1.4,0.1s0.4,0.1,0.4,0.3
		s-0.2,0.3-0.6,0.3c-1.7,0-3.4-0.1-4.2-0.1c-0.7,0-2.4,0.1-3.5,0.1c-0.3,0-0.6-0.1-0.6-0.3s0.1-0.3,0.4-0.3c0.4,0,0.8-0.1,1-0.1
		c0.5-0.1,0.7-0.7,0.8-1.5c0.2-1.1,0.2-3.2,0.2-5.8v-4.8c0-4.2,0-5-0.1-5.8c-0.1-0.9-0.3-1.4-1.2-1.5c-0.3-0.1-0.7-0.1-1-0.1
		c-0.3,0-0.4-0.1-0.4-0.3c0-0.3,0.3-0.3,0.6-0.3c0.7,0,1.5,0,2.2,0c0.7,0,1.4,0.1,1.7,0.1c1,0,6.6,0,7.2,0c0.5,0,0.9,0,1.1-0.1
		c0.2-0.1,0.3-0.2,0.4-0.2s0.2,0.1,0.2,0.3s-0.2,0.5-0.3,1.2c0,0.3-0.1,1.9-0.2,2.2c0,0.3-0.1,0.3-0.3,0.3c-0.2,0-0.3-0.2-0.3-0.4
		s0-0.7-0.2-1c-0.2-0.3-0.8-0.8-1.8-0.9l-4.2-0.1c-0.2,0-0.3,0.1-0.3,0.3v6.8c0,0.2,0,0.3,0.2,0.3h3.5c0.4,0,0.9,0,1.2,0
		c0.5,0,0.9-0.2,1.2-0.5c0.2-0.2,0.2-0.3,0.3-0.3c0.1,0,0.2,0.1,0.2,0.3s-0.2,0.9-0.3,1.7c-0.1,0.5-0.1,1.8-0.1,2
		c0,0.3,0,0.5-0.3,0.5c-0.2,0-0.3-0.2-0.3-0.3s-0.1-0.5-0.2-0.9c-0.2-0.3-0.5-0.9-1.4-1c-0.7-0.1-3.6-0.1-4-0.1
		c-0.2,0-0.2,0.1-0.2,0.3v2.2H399.8z"/>
	<path fill="#FFFFFF" d="M413.3,369.9c0-4.2,0-5-0.1-5.8c-0.1-0.9-0.3-1.4-1.2-1.5c-0.3-0.1-0.7-0.1-1-0.1c-0.3,0-0.4-0.1-0.4-0.3
		s0.2-0.3,0.6-0.3c0.8,0,1.5,0,2.2,0c0.7,0,1.4,0.1,1.7,0.1c0.9,0,6.3,0,6.8,0c0.5-0.1,0.9-0.1,1.2-0.2c0.2,0,0.3-0.1,0.4-0.1
		c0.2,0,0.2,0.1,0.2,0.3s-0.2,0.5-0.3,1.8c0,0.3-0.1,1.5-0.2,1.8c0,0.2-0.1,0.3-0.3,0.3c-0.2,0-0.3-0.2-0.3-0.3s0-0.7-0.2-1
		c-0.2-0.5-0.4-0.9-1.8-1c-0.4-0.1-3.3-0.1-3.8-0.1c-0.2,0-0.2,0.1-0.2,0.3v6.9c0,0.2,0,0.3,0.2,0.3c0.6,0,3.8,0,4.4-0.1
		c0.7-0.1,1-0.2,1.3-0.4c0.2-0.3,0.3-0.3,0.4-0.3s0.2,0.1,0.2,0.3s-0.1,0.6-0.3,2c0,0.5-0.1,1.6-0.1,1.8c0,0.3,0,0.5-0.3,0.5
		c-0.2,0-0.3-0.1-0.3-0.3c0-0.3,0-0.6-0.1-1c-0.2-0.5-0.5-0.9-1.5-1c-0.5-0.1-3.2-0.1-3.8-0.1c-0.2,0-0.2,0.1-0.2,0.3v2.1
		c0,0.9,0,3.4,0,4.3c0.1,1.9,0.5,2.3,3.2,2.3c0.7,0,1.9,0,2.6-0.3c0.7-0.3,1-0.9,1.2-2.1c0.1-0.3,0.1-0.4,0.3-0.4
		c0.3,0,0.3,0.3,0.3,0.5c0,0.6-0.3,2.5-0.3,3.1c-0.2,0.7-0.4,0.7-1.5,0.7c-2.1,0-3.6-0.1-4.7-0.1c-1.2-0.1-2.1-0.1-2.8-0.1
		c-0.3,0-0.9,0-1.5,0c-0.6,0-1.4,0.1-1.9,0.1c-0.3,0-0.5-0.1-0.5-0.3s0.1-0.3,0.4-0.3c0.4,0,0.8-0.1,1-0.1c0.5-0.1,0.7-0.7,0.8-1.5
		c0.2-1.1,0.2-3.3,0.2-5.8v-4.8H413.3z"/>
	<path fill="#FFFFFF" d="M429.1,382.3c-0.4-0.2-0.5-0.3-0.5-0.9c0-1.5,0.1-3.2,0.2-3.6c0-0.4,0.1-0.7,0.3-0.7c0.3,0,0.3,0.3,0.3,0.4
		c0,0.3,0.1,0.9,0.3,1.4c0.6,2.1,2.2,2.7,3.9,2.7c2.5,0,3.7-1.7,3.7-3.1s-0.4-2.6-2.7-4.4l-1.3-1c-3-2.4-4-4.3-4-6.5
		c0-3,2.5-5.1,6.3-5.1c1.8,0,2.9,0.3,3.7,0.4c0.3,0.1,0.3,0.2,0.3,0.3c0,0.3-0.1,1.1-0.1,3.2c0,0.6-0.1,0.9-0.3,0.9
		c-0.2,0-0.3-0.2-0.3-0.5c0-0.3-0.2-1.1-0.7-1.8c-0.4-0.5-1.2-1.4-3-1.4c-2.1,0-3.2,1.2-3.2,2.8c0,1.3,0.6,2.2,2.9,3.9l0.8,0.6
		c3.3,2.5,4.4,4.4,4.4,7c0,1.6-0.6,3.5-2.6,4.8c-1.4,0.9-2.9,1.1-4.4,1.1C431.5,383,430.3,382.8,429.1,382.3z"/>
	<path fill="#FFFFFF" d="M450.1,363.5l-4.1,0.1c-1.6,0.1-2.2,0.2-2.7,0.8c-0.3,0.4-0.4,0.8-0.4,0.9s-0.2,0.3-0.3,0.3
		c-0.2,0-0.3-0.2-0.3-0.4c0-0.4,0.5-2.9,0.6-3.2c0.1-0.3,0.2-0.5,0.3-0.5c0.3,0,0.5,0.3,1.2,0.3c0.8,0.1,1.8,0.2,2.7,0.2h10.9
		c0.9,0,1.5-0.1,1.9-0.2s0.6-0.2,0.8-0.2c0.2,0,0.3,0.2,0.3,0.6c0,0.6-0.1,2.5-0.1,3.2c0,0.3-0.1,0.4-0.3,0.4
		c-0.3,0-0.3-0.2-0.3-0.5V365c-0.1-0.7-0.8-1.5-3.2-1.5l-3.4-0.1v11.2c0,2.5,0,4.7,0.2,5.8c0.1,0.8,0.3,1.4,1,1.5
		c0.3,0.1,1,0.1,1.4,0.1c0.3,0,0.4,0.1,0.4,0.3s-0.3,0.3-0.5,0.3c-1.8,0-3.5-0.1-4.3-0.1c-0.6,0-2.4,0.1-3.4,0.1
		c-0.3,0-0.5-0.1-0.5-0.3s0.1-0.3,0.4-0.3c0.4,0,0.8-0.1,1-0.1c0.5-0.1,0.7-0.7,0.8-1.5c0.2-1.1,0.2-3.3,0.2-5.8v-11H450.1z"/>
	<path fill="#FFFFFF" d="M465.9,369.9c0-4.2,0-5-0.1-5.8c-0.1-0.9-0.3-1.4-0.9-1.5c-0.3-0.1-0.7-0.1-1-0.1c-0.3,0-0.4-0.1-0.4-0.3
		s0.3-0.3,0.7-0.3c1,0,2.7,0.1,3.6,0.1c0.7,0,2.3-0.1,3.3-0.1c0.3,0,0.6,0.1,0.6,0.3c0,0.3-0.2,0.3-0.4,0.3c-0.3,0-0.5,0-0.9,0.1
		c-0.8,0.2-0.9,0.6-1,1.5c-0.1,0.9-0.1,1.6-0.1,5.8v4.8c0,2.7,0,4.8,0.1,6c0.1,0.8,0.3,1.2,1.1,1.4c0.3,0.1,1,0.1,1.4,0.1
		c0.3,0,0.4,0.1,0.4,0.3s-0.3,0.3-0.5,0.3c-1.8,0-3.5-0.1-4.3-0.1c-0.6,0-2.4,0.1-3.4,0.1c-0.3,0-0.5-0.1-0.5-0.3s0.1-0.3,0.4-0.3
		c0.4,0,0.8-0.1,1-0.1c0.5-0.1,0.7-0.6,0.8-1.4c0.2-1.1,0.2-3.3,0.2-6L465.9,369.9L465.9,369.9z"/>
	<path fill="#FFFFFF" d="M475.8,364.6c-0.6-1.5-1.1-1.8-2.1-2.1c-0.4-0.1-0.9-0.1-1-0.1c-0.3,0-0.3-0.1-0.3-0.3
		c0-0.3,0.3-0.3,0.7-0.3c1.5,0,3,0.1,3.9,0.1c0.7,0,2-0.1,3.3-0.1c0.3,0,0.6,0.1,0.6,0.3s-0.2,0.3-0.4,0.3c-0.4,0-0.9,0-1,0.2
		c-0.2,0.2-0.3,0.3-0.3,0.6c0,0.3,0.3,1.1,0.6,2.1l4.7,12.4h0.1c1.2-3,4.7-11.8,5.4-13.6c0.2-0.3,0.3-0.8,0.3-1s-0.1-0.4-0.3-0.5
		c-0.3-0.1-0.8-0.2-1.1-0.2c-0.3,0-0.4,0-0.4-0.3s0.3-0.3,0.8-0.3c1.4,0,2.5,0.1,2.9,0.1s1.7-0.1,2.6-0.1c0.3,0,0.6,0.1,0.6,0.3
		s-0.2,0.3-0.4,0.3s-0.9,0-1.4,0.3c-0.3,0.3-0.8,0.7-1.5,2.5c-1,2.6-1.8,4-3.2,7.4c-1.7,4-3.1,7-3.7,8.4c-0.7,1.6-0.9,2.1-1.3,2.1
		c-0.3,0-0.5-0.3-1-1.7L475.8,364.6z"/>
	<path fill="#FFFFFF" d="M497.7,375.6c-0.2,0-0.2,0.1-0.3,0.3l-1.5,3.8c-0.3,0.7-0.4,1.4-0.4,1.7c0,0.5,0.3,0.9,1.1,0.9h0.4
		c0.3,0,0.4,0.1,0.4,0.3c0,0.3-0.2,0.3-0.4,0.3c-0.9,0-2.1-0.1-2.9-0.1c-0.3,0-1.8,0.1-3.2,0.1c-0.3,0-0.5-0.1-0.5-0.3
		s0.1-0.3,0.3-0.3c0.3,0,0.6,0,0.9-0.1c1.3-0.2,1.8-1.1,2.3-2.5l6.8-16.9c0.3-0.8,0.5-1.1,0.8-1.1c0.3,0,0.4,0.3,0.7,0.9
		c0.7,1.5,5,12.5,6.8,16.6c1,2.5,1.8,2.8,2.4,3c0.4,0.1,0.9,0.1,1.1,0.1c0.3,0,0.3,0,0.3,0.3s-0.3,0.3-1.3,0.3c-1,0-3,0-5.1-0.1
		c-0.5,0-0.9,0-0.9-0.3c0-0.2,0.1-0.3,0.3-0.3c0.2-0.1,0.3-0.3,0.3-0.6l-2.2-5.6c-0.1-0.2-0.2-0.2-0.3-0.2
		C503.7,375.6,497.7,375.6,497.7,375.6z M503.3,374.2c0.2,0,0.2-0.1,0.2-0.2l-2.5-6.8c0-0.1-0.1-0.3-0.2-0.3s-0.2,0.2-0.2,0.3
		l-2.5,6.7c0,0.1,0,0.2,0.1,0.2L503.3,374.2L503.3,374.2z"/>
	<path fill="#FFFFFF" d="M519.2,374.7c0,3.5,0,5.4,0.6,5.9c0.4,0.4,1.2,0.6,3.3,0.6c1.5,0,2.5,0,3.2-0.8c0.3-0.3,0.7-1.1,0.7-1.6
		c0-0.3,0.1-0.4,0.3-0.4c0.2,0,0.3,0.2,0.3,0.4c0,0.3-0.2,2.4-0.4,3.2c-0.2,0.6-0.3,0.8-1.7,0.8c-2,0-3.4-0.1-4.6-0.1
		c-1.2-0.1-2.2-0.1-3.3-0.1c-0.3,0-0.9,0-1.5,0c-0.6,0-1.4,0.1-1.9,0.1c-0.3,0-0.5-0.1-0.5-0.3s0.1-0.3,0.4-0.3c0.4,0,0.8-0.1,1-0.1
		c0.5-0.1,0.7-0.7,0.8-1.5c0.2-1.1,0.2-3.3,0.2-5.8v-4.8c0-4.2,0-5-0.1-5.8c-0.1-0.9-0.3-1.4-1.2-1.5c-0.3-0.1-0.5-0.1-0.9-0.1
		c-0.3,0-0.4-0.1-0.4-0.3s0.2-0.3,0.6-0.3c1.3,0,3,0.1,3.8,0.1c0.7,0,2.7-0.1,3.8-0.1c0.3,0,0.6,0.1,0.6,0.3s-0.2,0.3-0.5,0.3
		s-0.8,0-1,0.1c-0.8,0.2-0.9,0.6-1,1.5c-0.1,0.9-0.1,1.6-0.1,5.8v4.8H519.2z"/>
	<path fill="#FFFFFF" d="M127.1,412.5c0-4.1,2.7-9.4,9.9-9.4c6,0,9.7,3.5,9.7,9s-3.8,9.8-9.9,9.8C129.8,422,127.1,416.8,127.1,412.5
		z M143.2,413c0-5.4-3.1-8.7-7-8.7c-2.7,0-5.9,1.5-5.9,7.5c0,5,2.7,8.9,7.4,8.9C139.4,420.8,143.2,419.9,143.2,413z"/>
	<path fill="#FFFFFF" d="M159.4,414.7c0,2.3,0,4.1,0.1,5.1c0.1,0.7,0.3,1.2,0.9,1.3c0.3,0.1,0.9,0.1,1.2,0.1s0.4,0.1,0.4,0.2
		c0,0.2-0.2,0.3-0.5,0.3c-1.5,0-3-0.1-3.7-0.1c-0.7,0-2.1,0.1-3.1,0.1c-0.3,0-0.5-0.1-0.5-0.3c0-0.1,0.1-0.2,0.3-0.2
		c0.3,0,0.7-0.1,0.9-0.1c0.5-0.1,0.6-0.6,0.7-1.3c0.1-1,0.1-2.8,0.1-5.1v-4.2c0-3.7,0-4.3-0.1-5c-0.1-0.9-0.3-1.2-1-1.4
		c-0.2-0.1-0.6-0.1-0.9-0.1c-0.3,0-0.4-0.1-0.4-0.2c0-0.2,0.2-0.3,0.5-0.3c0.6,0,1.3,0,2,0c0.6,0,1.2,0.1,1.5,0.1c0.9,0,5.7,0,6.3,0
		c0.4,0,0.8,0,0.9-0.1c0.2-0.1,0.3-0.2,0.3-0.2s0.2,0.1,0.2,0.3s-0.1,0.4-0.2,1.1c0,0.3-0.1,1.6-0.1,2c0,0.2-0.1,0.3-0.3,0.3
		s-0.3-0.1-0.3-0.3c0-0.2,0-0.6-0.2-0.9s-0.7-0.7-1.5-0.7l-3.7-0.1c-0.2,0-0.3,0.1-0.3,0.3v6c0,0.2,0,0.3,0.2,0.3h3.1
		c0.4,0,0.8,0,1.1,0c0.4,0,0.8-0.1,1-0.4c0.1-0.2,0.2-0.3,0.3-0.3c0.1,0,0.2,0.1,0.2,0.3s-0.1,0.8-0.2,1.5c-0.1,0.5-0.1,1.5-0.1,1.7
		c0,0.3,0,0.4-0.3,0.4c-0.2,0-0.2-0.2-0.2-0.3s-0.1-0.4-0.2-0.8s-0.5-0.8-1.2-0.9c-0.6-0.1-3.2-0.1-3.5-0.1c-0.1,0-0.2,0.1-0.2,0.3
		L159.4,414.7L159.4,414.7z"/>
	<path fill="#FFFFFF" d="M179.1,414.7c0,2.3,0,4.1,0.1,5.1c0.1,0.7,0.3,1.2,0.9,1.3c0.3,0.1,0.9,0.1,1.2,0.1c0.3,0,0.4,0.1,0.4,0.2
		c0,0.2-0.2,0.3-0.5,0.3c-1.5,0-3-0.1-3.7-0.1c-0.7,0-2.1,0.1-3.1,0.1c-0.3,0-0.5-0.1-0.5-0.3c0-0.1,0.1-0.2,0.3-0.2
		c0.3,0,0.7-0.1,0.9-0.1c0.5-0.1,0.6-0.6,0.7-1.3c0.1-1,0.1-2.8,0.1-5.1v-4.2c0-3.7,0-4.3-0.1-5c-0.1-0.9-0.3-1.2-1-1.4
		c-0.2-0.1-0.6-0.1-0.9-0.1c-0.3,0-0.4-0.1-0.4-0.2c0-0.2,0.2-0.3,0.5-0.3c0.6,0,1.3,0,2,0c0.6,0,1.2,0.1,1.5,0.1c0.9,0,5.7,0,6.3,0
		c0.4,0,0.8,0,0.9-0.1c0.2-0.1,0.3-0.2,0.3-0.2s0.2,0.1,0.2,0.3s-0.1,0.4-0.2,1.1c0,0.3-0.1,1.6-0.1,2c0,0.2-0.1,0.3-0.3,0.3
		s-0.3-0.1-0.3-0.3c0-0.2,0-0.6-0.2-0.9s-0.7-0.7-1.5-0.7l-3.7-0.1c-0.2,0-0.3,0.1-0.3,0.3v6c0,0.2,0,0.3,0.2,0.3h3.1
		c0.4,0,0.8,0,1.1,0c0.4,0,0.8-0.1,1-0.4c0.1-0.2,0.2-0.3,0.3-0.3c0.1,0,0.2,0.1,0.2,0.3s-0.1,0.8-0.2,1.5c-0.1,0.5-0.1,1.5-0.1,1.7
		c0,0.3,0,0.4-0.3,0.4c-0.2,0-0.2-0.2-0.2-0.3s-0.1-0.4-0.2-0.8c-0.1-0.3-0.5-0.8-1.2-0.9c-0.6-0.1-3.2-0.1-3.5-0.1
		c-0.1,0-0.2,0.1-0.2,0.3L179.1,414.7L179.1,414.7z"/>
	<path fill="#FFFFFF" d="M195.7,410.4c0-3.7,0-4.3-0.1-5c-0.1-0.9-0.3-1.2-0.9-1.4c-0.3-0.1-0.6-0.1-0.9-0.1s-0.3-0.1-0.3-0.3
		s0.2-0.2,0.6-0.2c0.9,0,2.4,0.1,3.1,0.1c0.6,0,2.1-0.1,2.9-0.1c0.3,0,0.5,0.1,0.5,0.2c0,0.2-0.2,0.3-0.3,0.3c-0.3,0-0.4,0-0.7,0.1
		c-0.7,0.1-0.9,0.5-0.9,1.4c-0.1,0.8-0.1,1.5-0.1,5v4.2c0,2.3,0,4.2,0.1,5.2c0.1,0.7,0.3,1.1,0.9,1.2c0.3,0.1,0.9,0.1,1.2,0.1
		c0.3,0,0.3,0.1,0.3,0.2c0,0.2-0.2,0.3-0.4,0.3c-1.5,0-3.1-0.1-3.8-0.1c-0.5,0-2.1,0.1-3,0.1c-0.3,0-0.5-0.1-0.5-0.3
		c0-0.1,0.1-0.2,0.3-0.2c0.3,0,0.7-0.1,0.9-0.1c0.5-0.1,0.6-0.5,0.7-1.2c0.1-1,0.1-2.9,0.1-5.2v-4.2H195.7z"/>
	<path fill="#FFFFFF" d="M211.5,419.3c-2.3-2.1-3-4.7-3-7.1c0-1.6,0.5-4.4,2.8-6.6c1.7-1.5,4-2.6,7.5-2.6c1.5,0,2.4,0.1,3.5,0.3
		c0.9,0.1,1.7,0.3,2.4,0.4c0.3,0,0.3,0.2,0.3,0.3c0,0.2-0.1,0.5-0.1,1.3c-0.1,0.8,0,2.1-0.1,2.6c0,0.3-0.1,0.5-0.3,0.5
		c-0.2,0-0.3-0.2-0.3-0.5c0-0.8-0.3-1.5-0.9-2.2c-0.8-0.9-2.7-1.5-4.9-1.5c-2.1,0-3.4,0.5-4.5,1.5c-1.7,1.6-2.2,3.8-2.2,6.2
		c0,5.7,4.4,8.6,7.5,8.6c2.1,0,3.4-0.3,4.4-1.4c0.4-0.4,0.7-1.1,0.9-1.5c0.1-0.3,0.1-0.5,0.3-0.5c0.2,0,0.3,0.2,0.3,0.3
		c0,0.3-0.3,2.4-0.5,3.2c-0.1,0.4-0.3,0.5-0.6,0.7c-0.9,0.3-2.7,0.5-4.3,0.5C216.4,422,213.7,421.2,211.5,419.3z"/>
	<path fill="#FFFFFF" d="M235.1,410.4c0-3.7,0-4.3-0.1-5c-0.1-0.9-0.3-1.2-0.9-1.4c-0.3-0.1-0.6-0.1-0.9-0.1c-0.3,0-0.3-0.1-0.3-0.3
		s0.2-0.2,0.6-0.2c0.9,0,2.4,0.1,3.1,0.1c0.6,0,2.1-0.1,2.9-0.1c0.3,0,0.5,0.1,0.5,0.2c0,0.2-0.2,0.3-0.3,0.3c-0.3,0-0.4,0-0.7,0.1
		c-0.7,0.1-0.9,0.5-0.9,1.4c-0.1,0.8-0.1,1.5-0.1,5v4.2c0,2.3,0,4.2,0.1,5.2c0.1,0.7,0.3,1.1,0.9,1.2c0.3,0.1,0.9,0.1,1.2,0.1
		c0.3,0,0.3,0.1,0.3,0.2c0,0.2-0.2,0.3-0.4,0.3c-1.5,0-3.1-0.1-3.8-0.1c-0.5,0-2.1,0.1-3,0.1c-0.3,0-0.5-0.1-0.5-0.3
		c0-0.1,0.1-0.2,0.3-0.2c0.3,0,0.7-0.1,0.9-0.1c0.5-0.1,0.6-0.5,0.7-1.2c0.1-1,0.1-2.9,0.1-5.2v-4.2H235.1z"/>
	<path fill="#FFFFFF" d="M251.7,415.5c-0.1,0-0.2,0.1-0.3,0.2l-1.3,3.2c-0.3,0.6-0.3,1.2-0.3,1.5c0,0.4,0.3,0.8,0.9,0.8h0.3
		c0.3,0,0.3,0.1,0.3,0.2c0,0.2-0.2,0.3-0.4,0.3c-0.8,0-1.8-0.1-2.6-0.1c-0.3,0-1.5,0.1-2.8,0.1c-0.3,0-0.4-0.1-0.4-0.3
		s0.1-0.2,0.3-0.2c0.3,0,0.5,0,0.8-0.1c1.1-0.2,1.5-0.9,2.1-2.1l6-14.9c0.3-0.7,0.4-0.9,0.7-0.9c0.3,0,0.3,0.3,0.6,0.8
		c0.6,1.3,4.4,10.9,5.9,14.5c0.9,2.1,1.6,2.5,2.1,2.7c0.3,0.1,0.7,0.1,1,0.1c0.2,0,0.3,0,0.3,0.2s-0.3,0.3-1.1,0.3s-2.7,0-4.5-0.1
		c-0.4,0-0.7,0-0.7-0.2s0.1-0.2,0.3-0.3c0.2-0.1,0.3-0.3,0.3-0.5l-1.9-5c-0.1-0.1-0.1-0.2-0.3-0.2L251.7,415.5L251.7,415.5z
		 M256.5,414.3c0.1,0,0.2-0.1,0.1-0.2l-2.1-5.9c0-0.1-0.1-0.3-0.1-0.3s-0.1,0.1-0.2,0.3l-2.2,5.9c0,0.1,0,0.2,0.1,0.2H256.5z"/>
	<path fill="#FFFFFF" d="M275.3,414.7c0,3.1,0,4.7,0.5,5.1c0.4,0.3,1,0.5,2.9,0.5c1.3,0,2.2,0,2.8-0.7c0.3-0.3,0.6-0.9,0.6-1.5
		c0-0.3,0.1-0.3,0.3-0.3s0.2,0.1,0.2,0.4c0,0.3-0.2,2.1-0.3,2.7c-0.2,0.5-0.3,0.7-1.5,0.7c-1.7,0-3-0.1-4-0.1
		c-1.1-0.1-2-0.1-2.9-0.1c-0.3,0-0.8,0-1.4,0c-0.5,0-1.2,0.1-1.6,0.1c-0.3,0-0.5-0.1-0.5-0.3c0-0.1,0.1-0.2,0.3-0.2
		c0.3,0,0.7-0.1,0.9-0.1c0.5-0.1,0.6-0.6,0.7-1.3c0.1-1,0.1-2.9,0.1-5.1v-4.2c0-3.7,0-4.3-0.1-5c-0.1-0.9-0.3-1.2-1-1.4
		c-0.2-0.1-0.5-0.1-0.8-0.1c-0.3,0-0.4-0.1-0.4-0.3s0.2-0.3,0.5-0.3c1.1,0,2.7,0.1,3.2,0.1s2.3-0.1,3.2-0.1c0.3,0,0.5,0.1,0.5,0.3
		s-0.2,0.3-0.4,0.3s-0.7,0-0.9,0.1c-0.7,0.1-0.9,0.5-0.9,1.4c-0.1,0.8-0.1,1.5-0.1,5v4.2H275.3z"/>
	<path fill="#FFFFFF" d="M299.2,421.3c-0.3-0.2-0.4-0.3-0.4-0.9c0-1.3,0.1-2.7,0.1-3.2c0-0.3,0.1-0.6,0.3-0.6c0.3,0,0.3,0.3,0.3,0.4
		c0,0.3,0.1,0.9,0.3,1.2c0.5,1.8,2,2.4,3.4,2.4c2.1,0,3.2-1.5,3.2-2.7c0-1.2-0.3-2.3-2.3-3.8l-1.1-0.9c-2.7-2.1-3.5-3.8-3.5-5.6
		c0-2.7,2.2-4.5,5.6-4.5c1.5,0,2.6,0.3,3.2,0.4c0.3,0.1,0.3,0.1,0.3,0.3c0,0.3-0.1,1-0.1,2.9c0,0.5-0.1,0.7-0.3,0.7
		s-0.3-0.2-0.3-0.4s-0.1-0.9-0.6-1.5c-0.3-0.4-1-1.2-2.7-1.2c-1.8,0-2.8,1-2.8,2.5c0,1.1,0.5,2,2.6,3.4l0.7,0.5
		c2.9,2.1,3.9,3.8,3.9,6.1c0,1.4-0.5,3.1-2.2,4.2c-1.2,0.8-2.6,0.9-3.8,0.9C301.3,422,300.2,421.8,299.2,421.3z"/>
	<path fill="#FFFFFF" d="M319.2,410.4c0-3.7,0-4.3-0.1-5c-0.1-0.9-0.3-1.2-1-1.4c-0.2-0.1-0.6-0.1-0.9-0.1c-0.3,0-0.4-0.1-0.4-0.3
		s0.2-0.3,0.5-0.3c0.7,0,1.4,0,2,0s1.2,0.1,1.5,0.1c0.8,0,5.6,0,6,0c0.4-0.1,0.9-0.1,1-0.2c0.1,0,0.3-0.1,0.3-0.1
		c0.1,0,0.2,0.1,0.2,0.3s-0.1,0.4-0.2,1.5c0,0.3-0.1,1.3-0.1,1.5c0,0.1-0.1,0.3-0.3,0.3c-0.2,0-0.3-0.1-0.3-0.3c0-0.2,0-0.6-0.2-0.9
		c-0.2-0.4-0.4-0.7-1.6-0.9c-0.4-0.1-2.9-0.1-3.4-0.1c-0.1,0-0.2,0.1-0.2,0.3v6.1c0,0.2,0,0.3,0.2,0.3c0.5,0,3.2,0,3.8-0.1
		c0.6-0.1,0.9-0.1,1.1-0.3c0.2-0.2,0.3-0.3,0.3-0.3s0.2,0.1,0.2,0.2s-0.1,0.5-0.2,1.7c0,0.5-0.1,1.5-0.1,1.6s0,0.4-0.3,0.4
		c-0.2,0-0.3-0.1-0.3-0.3c0-0.3,0-0.5-0.1-0.9c-0.1-0.5-0.4-0.9-1.4-0.9c-0.4-0.1-2.8-0.1-3.4-0.1c-0.1,0-0.2,0.1-0.2,0.3v1.9
		c0,0.9,0,3,0,3.7c0.1,1.6,0.4,2.1,2.9,2.1c0.6,0,1.6,0,2.2-0.3c0.6-0.3,0.9-0.8,1.1-1.8c0.1-0.3,0.1-0.3,0.3-0.3
		c0.2,0,0.2,0.2,0.2,0.4c0,0.5-0.2,2.1-0.3,2.7c-0.2,0.6-0.3,0.6-1.3,0.6c-1.8,0-3.1-0.1-4.1-0.1c-1-0.1-1.8-0.1-2.5-0.1
		c-0.3,0-0.8,0-1.4,0c-0.5,0-1.2,0.1-1.6,0.1c-0.3,0-0.5-0.1-0.5-0.3c0-0.1,0.1-0.2,0.3-0.2c0.3,0,0.7-0.1,0.9-0.1
		c0.5-0.1,0.6-0.6,0.7-1.3c0.1-1,0.1-2.9,0.1-5.1v-4H319.2z"/>
	<path fill="#FFFFFF" d="M342.1,414.7c0,3.1,0,4.7,0.5,5.1c0.4,0.3,1,0.5,2.9,0.5c1.3,0,2.2,0,2.8-0.7c0.3-0.3,0.6-0.9,0.6-1.5
		c0-0.3,0.1-0.3,0.3-0.3c0.2,0,0.2,0.1,0.2,0.4c0,0.3-0.2,2.1-0.3,2.7c-0.2,0.5-0.3,0.7-1.5,0.7c-1.7,0-3-0.1-4-0.1
		c-1.1-0.1-2-0.1-2.9-0.1c-0.3,0-0.8,0-1.4,0c-0.5,0-1.2,0.1-1.6,0.1c-0.3,0-0.5-0.1-0.5-0.3c0-0.1,0.1-0.2,0.3-0.2
		c0.3,0,0.7-0.1,0.9-0.1c0.5-0.1,0.6-0.6,0.7-1.3c0.1-1,0.1-2.9,0.1-5.1v-4.2c0-3.7,0-4.3-0.1-5c-0.1-0.9-0.3-1.2-1-1.4
		c-0.2-0.1-0.5-0.1-0.8-0.1s-0.4-0.1-0.4-0.3s0.2-0.3,0.5-0.3c1.1,0,2.7,0.1,3.2,0.1c0.6,0,2.3-0.1,3.2-0.1c0.3,0,0.5,0.1,0.5,0.3
		s-0.2,0.3-0.4,0.3c-0.3,0-0.7,0-0.9,0.1c-0.7,0.1-0.9,0.5-0.9,1.4c-0.1,0.8-0.1,1.5-0.1,5v4.2H342.1z"/>
	<path fill="#FFFFFF" d="M358.4,410.4c0-3.7,0-4.3-0.1-5c-0.1-0.9-0.3-1.2-1-1.4c-0.2-0.1-0.6-0.1-0.9-0.1c-0.3,0-0.4-0.1-0.4-0.3
		s0.2-0.3,0.5-0.3c0.7,0,1.4,0,2,0c0.6,0,1.2,0.1,1.5,0.1c0.8,0,5.6,0,6,0c0.4-0.1,0.9-0.1,1-0.2c0.1,0,0.3-0.1,0.3-0.1
		c0.1,0,0.2,0.1,0.2,0.3s-0.1,0.4-0.2,1.5c0,0.3-0.1,1.3-0.1,1.5c0,0.1-0.1,0.3-0.3,0.3s-0.3-0.1-0.3-0.3c0-0.2,0-0.6-0.2-0.9
		c-0.2-0.4-0.4-0.7-1.6-0.9c-0.4-0.1-2.9-0.1-3.4-0.1c-0.1,0-0.2,0.1-0.2,0.3v6.1c0,0.2,0,0.3,0.2,0.3c0.5,0,3.2,0,3.8-0.1
		c0.6-0.1,0.9-0.1,1.1-0.3c0.2-0.2,0.3-0.3,0.3-0.3s0.2,0.1,0.2,0.2s-0.1,0.5-0.2,1.7c0,0.5-0.1,1.5-0.1,1.6s0,0.4-0.3,0.4
		c-0.2,0-0.3-0.1-0.3-0.3c0-0.3,0-0.5-0.1-0.9c-0.1-0.5-0.4-0.9-1.4-0.9c-0.4-0.1-2.8-0.1-3.4-0.1c-0.1,0-0.2,0.1-0.2,0.3v1.9
		c0,0.9,0,3,0,3.7c0.1,1.6,0.4,2.1,2.9,2.1c0.6,0,1.6,0,2.2-0.3c0.6-0.3,0.9-0.8,1.1-1.8c0.1-0.3,0.1-0.3,0.3-0.3
		c0.2,0,0.2,0.2,0.2,0.4c0,0.5-0.2,2.1-0.3,2.7c-0.2,0.6-0.3,0.6-1.3,0.6c-1.8,0-3.1-0.1-4.1-0.1c-1-0.1-1.8-0.1-2.5-0.1
		c-0.3,0-0.8,0-1.4,0c-0.5,0-1.2,0.1-1.6,0.1c-0.3,0-0.5-0.1-0.5-0.3c0-0.1,0.1-0.2,0.3-0.2c0.3,0,0.7-0.1,0.9-0.1
		c0.5-0.1,0.6-0.6,0.7-1.3c0.1-1,0.1-2.9,0.1-5.1v-4H358.4z"/>
	<path fill="#FFFFFF" d="M378.6,419.3c-2.3-2.1-3-4.7-3-7.1c0-1.6,0.5-4.4,2.8-6.6c1.7-1.5,4-2.6,7.5-2.6c1.5,0,2.4,0.1,3.5,0.3
		c0.9,0.1,1.7,0.3,2.4,0.4c0.3,0,0.3,0.2,0.3,0.3c0,0.2-0.1,0.5-0.1,1.3c-0.1,0.8,0,2.1-0.1,2.6c0,0.3-0.1,0.5-0.3,0.5
		c-0.2,0-0.3-0.2-0.3-0.5c0-0.8-0.3-1.5-0.9-2.2c-0.8-0.9-2.7-1.5-4.9-1.5c-2.1,0-3.4,0.5-4.5,1.5c-1.7,1.6-2.2,3.8-2.2,6.2
		c0,5.7,4.4,8.6,7.5,8.6c2.1,0,3.4-0.3,4.4-1.4c0.4-0.4,0.7-1.1,0.9-1.5c0.1-0.3,0.1-0.5,0.3-0.5c0.2,0,0.3,0.2,0.3,0.3
		c0,0.3-0.3,2.4-0.5,3.2c-0.1,0.4-0.3,0.5-0.6,0.7c-0.9,0.3-2.7,0.5-4.3,0.5C383.6,422,380.9,421.2,378.6,419.3z"/>
	<path fill="#FFFFFF" d="M405.3,404.9l-3.6,0.1c-1.4,0.1-2,0.2-2.3,0.7c-0.3,0.3-0.3,0.7-0.4,0.9s-0.1,0.3-0.3,0.3s-0.3-0.1-0.3-0.3
		c0-0.3,0.4-2.6,0.5-2.7c0.1-0.3,0.2-0.4,0.3-0.4c0.2,0,0.4,0.3,1,0.3c0.7,0.1,1.6,0.1,2.4,0.1h9.5c0.8,0,1.3-0.1,1.6-0.1
		c0.3-0.1,0.5-0.1,0.7-0.1s0.2,0.2,0.2,0.5c0,0.5-0.1,2.1-0.1,2.7c0,0.3-0.1,0.3-0.3,0.3s-0.3-0.1-0.3-0.5v-0.3
		c-0.1-0.6-0.7-1.3-2.8-1.4l-3-0.1v9.8c0,2.2,0,4.1,0.1,5.1c0.1,0.7,0.3,1.2,0.9,1.3c0.3,0.1,0.9,0.1,1.2,0.1c0.3,0,0.3,0.1,0.3,0.2
		c0,0.2-0.2,0.3-0.4,0.3c-1.5,0-3.1-0.1-3.8-0.1c-0.5,0-2.1,0.1-3,0.1c-0.3,0-0.5-0.1-0.5-0.3c0-0.1,0.1-0.2,0.3-0.2
		c0.3,0,0.7-0.1,0.9-0.1c0.5-0.1,0.6-0.6,0.7-1.3c0.1-1,0.1-2.9,0.1-5.1v-9.7H405.3z"/>
	<path fill="#FFFFFF" d="M424,410.4c0-3.7,0-4.3-0.1-5c-0.1-0.9-0.3-1.2-0.9-1.4c-0.3-0.1-0.6-0.1-0.9-0.1s-0.3-0.1-0.3-0.3
		s0.2-0.2,0.6-0.2c0.9,0,2.4,0.1,3.1,0.1c0.6,0,2.1-0.1,2.9-0.1c0.3,0,0.5,0.1,0.5,0.2c0,0.2-0.2,0.3-0.3,0.3c-0.3,0-0.4,0-0.7,0.1
		c-0.7,0.1-0.9,0.5-0.9,1.4c-0.1,0.8-0.1,1.5-0.1,5v4.2c0,2.3,0,4.2,0.1,5.2c0.1,0.7,0.3,1.1,0.9,1.2c0.3,0.1,0.9,0.1,1.2,0.1
		c0.3,0,0.3,0.1,0.3,0.2c0,0.2-0.2,0.3-0.4,0.3c-1.5,0-3.1-0.1-3.8-0.1c-0.5,0-2.1,0.1-3,0.1c-0.3,0-0.5-0.1-0.5-0.3
		c0-0.1,0.1-0.2,0.3-0.2c0.3,0,0.7-0.1,0.9-0.1c0.5-0.1,0.6-0.5,0.7-1.2c0.1-1,0.1-2.9,0.1-5.2v-4.2H424z"/>
	<path fill="#FFFFFF" d="M436.7,412.5c0-4.1,2.7-9.4,9.9-9.4c6,0,9.7,3.5,9.7,9s-3.8,9.8-9.9,9.8C439.4,422,436.7,416.8,436.7,412.5
		z M452.9,413c0-5.4-3.1-8.7-7-8.7c-2.7,0-5.9,1.5-5.9,7.5c0,5,2.7,8.9,7.4,8.9C449,420.8,452.9,419.9,452.9,413z"/>
	<path fill="#FFFFFF" d="M467.4,418.4c0.1,1.9,0.3,2.5,0.9,2.7c0.4,0.2,0.9,0.2,1.3,0.2c0.3,0,0.4,0.1,0.4,0.2
		c0,0.2-0.3,0.3-0.5,0.3c-1.5,0-2.5-0.1-3-0.1c-0.3,0-1.4,0.1-2.6,0.1c-0.3,0-0.5,0-0.5-0.3c0-0.2,0.2-0.2,0.3-0.2
		c0.3,0,0.8,0,1.1-0.1c0.6-0.2,0.7-0.9,0.8-3l0.3-14.1c0-0.5,0.1-0.9,0.3-0.9c0.3,0,0.5,0.3,0.9,0.8c0.3,0.3,3.9,4.1,7.4,7.6
		c1.6,1.6,4.9,5,5.3,5.5h0.1l-0.3-10.8c0-1.5-0.3-1.9-0.9-2.1c-0.3-0.2-0.9-0.2-1.3-0.2c-0.3,0-0.3-0.1-0.3-0.3s0.3-0.3,0.6-0.3
		c1.3,0,2.4,0.1,2.9,0.1c0.3,0,1.2-0.1,2.3-0.1c0.3,0,0.5,0,0.5,0.3c0,0.2-0.2,0.3-0.4,0.3s-0.4,0-0.7,0.1c-0.7,0.2-0.9,0.7-0.9,2.1
		l-0.3,15.1c0,0.5-0.1,0.8-0.3,0.8c-0.3,0-0.5-0.3-0.9-0.5c-1.5-1.5-4.5-4.5-7.1-7c-2.7-2.6-5.3-5.5-5.7-6h-0.1L467.4,418.4z"/>
</g>
<path fill="#FFFFFF" d="M508.4,288.8c0,0,0.9,0.4,2.7,1.3c1.7,0.9,4.4,2.1,7.4,4c6.2,3.8,14.9,9.7,24,18.4c4.5,4.4,9.1,9.4,13.6,15
	c4.4,5.7,8.6,12.1,12.1,19.2c3.6,7,6.4,14.8,8.2,23c1.8,8.1,2.7,16.7,2.2,25.1c-0.2,2.1-0.3,4.3-0.5,6.3c-0.3,2.1-0.5,4.2-0.9,6.2
	l-0.6,3.1l-0.3,1.5l-0.1,0.4v0.2v0.2v0.1l-0.2,0.8c-0.5,2-1,3.9-1.6,6c-2.5,8.1-6.1,15.5-10.4,22.2c-4.4,6.7-9.5,12.5-15,17.4
	c-1.5,1.1-2.8,2.3-4.2,3.4l-1,0.9c-0.3,0.3-0.7,0.5-1.1,0.8c-0.7,0.5-1.5,0.9-2.1,1.5c-2.8,2-5.7,3.5-8.5,5c-0.3,0.2-0.7,0.4-1,0.6
	c-0.3,0.2-0.7,0.3-1,0.5c-0.7,0.3-1.4,0.6-2.1,0.9c-1.4,0.6-2.7,1.3-4,1.8c-1.4,0.5-2.7,0.9-3.9,1.5c-0.6,0.3-1.3,0.4-1.9,0.7
	c-0.6,0.3-1.2,0.4-1.9,0.6c-2.5,0.7-4.8,1.3-6.9,1.8c-2.1,0.4-4.2,0.8-6,1.1c-0.9,0.2-1.7,0.3-2.6,0.4c-0.8,0.1-1.5,0.2-2.3,0.3
	c-1.5,0.2-2.7,0.3-3.6,0.3c-2,0.2-3,0.3-3,0.3s1-0.2,2.9-0.6c0.9-0.2,2.1-0.4,3.5-0.7c0.7-0.2,1.5-0.3,2.2-0.4
	c0.8-0.2,1.6-0.4,2.5-0.7c1.8-0.4,3.7-0.9,5.8-1.5c2.1-0.7,4.3-1.5,6.7-2.2c0.6-0.2,1.2-0.4,1.8-0.7s1.2-0.5,1.8-0.8
	c1.2-0.5,2.5-1,3.8-1.5c1.3-0.6,2.6-1.3,3.8-2c0.7-0.3,1.3-0.7,2-1c0.3-0.2,0.7-0.3,1-0.5c0.3-0.2,0.7-0.4,1-0.6
	c5.4-3.1,10.8-6.9,16-11.6c5.1-4.8,9.9-10.4,14-16.8c0.5-0.8,1-1.6,1.5-2.5l0.8-1.2c0.3-0.4,0.4-0.9,0.7-1.3
	c0.4-0.9,0.9-1.7,1.4-2.6l0.7-1.3c0.3-0.4,0.4-0.9,0.6-1.4c0.8-1.8,1.5-3.6,2.3-5.5c0.7-1.9,1.3-3.8,2-5.6c0.6-2,1.1-3.9,1.7-5.9
	l0.2-0.8l0.2-0.7l0.3-1.5l0.6-3c0.4-2,0.6-4,0.9-6.1c0.3-2.1,0.3-4.1,0.5-6.1c0.4-8.1-0.2-16.3-1.8-24.2c-0.3-0.9-0.4-2-0.6-2.9
	c-0.3-0.9-0.5-2-0.8-2.9c-0.4-2-1.2-3.8-1.8-5.7c-0.6-1.9-1.4-3.7-2.1-5.6c-0.8-1.8-1.5-3.6-2.4-5.3c-3.3-6.9-7.3-13.3-11.4-19.1
	c-4.2-5.7-8.6-10.8-12.9-15.2c-8.6-8.9-17-15.2-23.1-19.2c-3-2.1-5.5-3.4-7.2-4.4C509.4,289.2,508.4,288.8,508.4,288.8z"/>
<path fill="#FFFFFF" d="M494.9,278.4c2.4,7.8,5.9,10,7.4,10.9c1.5,0.9,5.2,0.6,8.7,0.8C507.6,278.9,500.3,282.7,494.9,278.4z"/>
<path fill="#FFFFFF" d="M549.4,257.3"/>
<path fill="#FFFFFF" d="M542.9,289.5c2.6,2.2,7.7,6.8,8.4,8.9c1.2,3.4-0.9,8.3-2.2,12.5c-1.8-2.6-5.7-7-6.8-9.7
	C541.6,297.8,542.8,292.3,542.9,289.5z"/>
<path fill="#FFFFFF" d="M525.5,280.4c-0.6,3.2,0.2,10.3,2.2,12.8c2.1,2.6,5.4,4.5,7.7,5.3c0.9-5.3-0.3-7.5-1.5-9.8
	C532.9,286.3,528.2,282.8,525.5,280.4z"/>
<path fill="#FFFFFF" d="M516,309c1.5-1.4,6.8-3.7,8.9-3.3c2.1,0.3,4.4,1.7,5.7,2.8c-2.6,2.3-4.2,3-5.8,3.1
	C523.2,311.6,518.3,309.8,516,309z"/>
<path fill="#FFFFFF" d="M564.6,299.4c-3,4.1-7.6,13.8-6.5,18.6c1.1,4.9,4.4,9.9,7.2,12.6c4.9-6.8,5.9-10.6,6-14.5
	C571.4,312.2,566.3,306.9,564.6,299.4z"/>
<path fill="#FFFFFF" d="M586.9,320.2c-7.1,4.4-11.5,13.3-12.7,18.1c-1.1,4.9,2.3,14.6,3.6,18.1c7.4-4,8.9-10.2,9.6-14.7
	C588.1,337.8,585.1,327.6,586.9,320.2z"/>
<path fill="#FFFFFF" d="M599,351.1c2.4,5.9,1.5,19.2-1.6,26.9c-2.3,5.8-8.4,10.8-12.5,13.2c-3.9-9.7-2.1-16.6-1-21.5
	C584.9,364.8,594.7,356.8,599,351.1z"/>
<path fill="#FFFFFF" d="M612,391.9c-9.5-0.6-19.5,4.5-23.7,8.3c-4.3,3.8-7.6,15-8.8,19.2c9.4,1.2,14.9-3.4,18.6-7.2
	C601.4,409,605.4,397.6,612,391.9z"/>
<path fill="#FFFFFF" d="M608.8,438.4c-7.5-5.8-20.1-6.6-25.7-5.9c-5.6,0.8-13.3,10.4-16.5,13.2c8.9,4.9,16.5,4.2,21.1,1.7
	C592.2,444.8,600.1,439.5,608.8,438.4z"/>
<path fill="#FFFFFF" d="M592.2,465.1c-5.3,4-18.9,9.2-25.3,8c-6.5-1.4-13.3-5.6-16.8-9.1c8.8-6.7,14-6.3,19.2-6.6
	C574.6,457.1,585.4,462.4,592.2,465.1z"/>
<path fill="#FFFFFF" d="M545.5,395.9c-2.4,6.2-3.6,20.7-0.5,26.5s9.1,11.1,13.4,13.5c3.9-10.3,2.1-15.2,0.9-20.3
	C558,410.6,550,401.7,545.5,395.9z"/>
<path fill="#FFFFFF" d="M534.8,422.3c9.1,10.1,10.2,21,9.1,26.5c-1.5,8.2-13,10.6-15.3,14.2c-3-12,2.1-15.3,4.2-20.2
	C536.1,435.4,534.8,431,534.8,422.3z"/>
<path fill="#FFFFFF" d="M541.2,340.9c3.8,0.1,9.9-0.4,12.6,0.7c4.8,2,6.2,5.2,8.3,9.1C546.4,352.9,550,346.9,541.2,340.9z"/>
<path fill="#FFFFFF" d="M553.8,373.7c3.9,2.3,12.5,6.8,15.5,13.1c4.5,9.4-0.3,15-0.5,20.4C557.4,397.6,560.9,384,553.8,373.7z"/>
<path fill="#FFFFFF" d="M546.4,358.3c3.1-0.6,9.5-2.2,13.9,0c6.7,3.3,6.8,9.1,9.1,12.4C559.3,370.7,554.8,360.9,546.4,358.3z"/>
<path fill="#FFFFFF" d="M501.3,475c-0.1-20.9,14.5-22.7,17.4-38.6c2.4,8.3,3.2,23.9-0.3,29.3C514.2,472,508.3,475,501.3,475z"/>
<path fill="#FFFFFF" d="M569.3,490.4c-19.8,2.6-36.3,0.9-39.6-12.7C554.7,465.9,553.3,484.5,569.3,490.4z"/>
<path fill="#FFFFFF" d="M498.6,486.8c13.7,20.7,29.2,12.8,42.6,26.7c-3.2-9.7-12.6-25.7-19.7-28.7
	C513.4,481.2,505.6,482.2,498.6,486.8z"/>
<path fill="#FFFFFF" d="M524.3,318c2.4-1.6,8.5-3.7,11.3-3c2.8,0.7,5.7,2.7,7.2,4.4c-4,2.7-6.3,2.5-8.6,2.5
	C531.9,321.8,527.3,319.3,524.3,318z"/>
<path fill="#FFFFFF" d="M530.5,329.4c3-1.8,10.3-3.8,13.7-2.7c3.3,1,6.6,3.6,8.2,5.6c-5,3-7.7,2.6-10.4,2.4S533.9,331.2,530.5,329.4
	z"/>
<path fill="#FFFFFF" d="M517.4,298.9c-5.3,6.1-8.1-0.9-14.5-1C511.4,294.3,514.7,295.3,517.4,298.9z"/>
<path fill="#FFFFFF" d="M521.3,291.5c2.6-7.7-4.9-6.6-8.2-11.9C514.2,288.8,516.7,291,521.3,291.5z"/>
</svg>
