<?xml version="1.0" encoding="utf-8"?>
<!-- Generator: Adobe Illustrator 19.0.1, SVG Export Plug-In . SVG Version: 6.00 Build 0)  -->
<!DOCTYPE svg PUBLIC "-//W3C//DTD SVG 1.1//EN" "http://www.w3.org/Graphics/SVG/1.1/DTD/svg11.dtd">
<svg version="1.1" id="Layer_2" xmlns="http://www.w3.org/2000/svg" xmlns:xlink="http://www.w3.org/1999/xlink" x="0px" y="0px"
	 viewBox="149.6 284.2 520.5 208.2" style="enable-background:new 149.6 284.2 520.5 208.2;" xml:space="preserve">
<style type="text/css">
	.st0{fill:#898989;}
</style>
<path class="st0" d="M237.7,301.3c0,0-0.8,0.4-2.3,1.2c-1.5,0.8-3.6,2-6.1,3.7c-5.2,3.4-12.3,8.7-19.6,16.3
	c-3.7,3.8-7.4,8.1-11,12.9c-3.6,4.9-6.9,10.3-9.7,16.2c-0.7,1.5-1.3,3-2,4.5c-0.6,1.5-1.2,3.1-1.7,4.7s-1.1,3.2-1.5,4.9
	c-0.2,0.8-0.4,1.7-0.7,2.5s-0.4,1.7-0.5,2.5c-1.4,6.7-2,13.7-1.5,20.6c0.1,1.7,0.3,3.5,0.4,5.2c0.3,1.7,0.4,3.4,0.8,5.2l0.5,2.5
	l0.3,1.2l0.1,0.6l0.1,0.7c0.5,1.7,0.9,3.4,1.5,5c0.6,1.6,1.1,3.2,1.7,4.7c0.7,1.5,1.3,3.1,2,4.7c0.1,0.4,0.4,0.8,0.5,1.2l0.6,1.1
	c0.4,0.7,0.7,1.5,1.2,2.2c0.2,0.4,0.4,0.7,0.6,1.1l0.7,1c0.4,0.7,0.9,1.4,1.3,2.1c3.5,5.5,7.6,10.3,11.9,14.3
	c4.4,3.9,9.1,7.3,13.6,9.9c0.3,0.1,0.6,0.4,0.9,0.5c0.3,0.1,0.6,0.3,0.9,0.4c0.6,0.3,1.2,0.6,1.7,0.9c1.1,0.6,2.2,1.2,3.3,1.7
	c1.1,0.4,2.2,0.9,3.2,1.3c0.5,0.2,1,0.4,1.5,0.7c0.5,0.2,1,0.4,1.5,0.6c2,0.7,3.9,1.3,5.7,1.9c1.8,0.4,3.4,0.9,4.9,1.3
	c0.7,0.2,1.5,0.4,2.1,0.6c0.7,0.1,1.3,0.2,1.9,0.4c1.2,0.2,2.2,0.4,3,0.6c1.6,0.3,2.5,0.5,2.5,0.5s-0.9-0.1-2.5-0.3
	c-0.8-0.1-1.8-0.2-3.1-0.3c-0.6-0.1-1.2-0.1-2-0.2c-0.7-0.1-1.4-0.2-2.2-0.4c-1.5-0.3-3.2-0.6-5.1-0.9c-1.8-0.5-3.8-1-5.9-1.5
	c-0.5-0.1-1-0.3-1.6-0.5c-0.5-0.2-1.1-0.4-1.6-0.6c-1.1-0.4-2.2-0.8-3.3-1.2c-1.2-0.4-2.3-1-3.4-1.5c-0.6-0.3-1.2-0.5-1.8-0.8
	c-0.3-0.1-0.6-0.3-0.9-0.4c-0.3-0.1-0.6-0.3-0.9-0.5c-2.3-1.3-4.9-2.6-7.2-4.3c-0.6-0.4-1.2-0.8-1.8-1.2c-0.3-0.2-0.7-0.4-0.9-0.7
	l-0.9-0.7c-1.2-0.9-2.3-1.9-3.6-2.9c-4.7-4.1-9-9-12.7-14.8c-3.7-5.7-6.8-12-8.9-18.9c-0.5-1.7-0.9-3.3-1.4-5.1l-0.1-0.7v-0.1v-0.1
	v-0.1l-0.1-0.4l-0.3-1.3l-0.5-2.6c-0.4-1.7-0.5-3.6-0.8-5.3c-0.2-1.8-0.3-3.6-0.4-5.4c-0.4-7.2,0.3-14.5,1.9-21.4
	c1.5-6.9,3.9-13.5,7-19.6s6.5-11.5,10.3-16.4c3.8-4.9,7.7-9.2,11.6-12.8c7.8-7.3,15.1-12.4,20.4-15.6c2.7-1.6,4.9-2.7,6.3-3.4
	C236.9,301.6,237.7,301.3,237.7,301.3z"/>
<path class="st0" d="M249.2,292.4c-2,6.6-5,8.5-6.3,9.3c-1.2,0.8-4.4,0.5-7.4,0.7C238.4,292.8,244.6,296.1,249.2,292.4z"/>
<path class="st0" d="M219.8,284.3"/>
<path class="st0" d="M208.4,301.9c-2.2,1.9-6.5,5.8-7.1,7.6c-1,2.9,0.8,7.1,1.9,10.6c1.5-2.2,4.9-6,5.7-8.2
	C209.4,308.9,208.4,304.3,208.4,301.9z"/>
<path class="st0" d="M223.2,294.2c0.5,2.8-0.1,8.7-1.9,10.9c-1.7,2.2-4.6,3.9-6.5,4.5c-0.8-4.5,0.3-6.4,1.2-8.4
	C216.9,299.3,220.9,296.2,223.2,294.2z"/>
<path class="st0" d="M231.3,318.4c-1.3-1.2-5.7-3.1-7.6-2.8c-1.8,0.3-3.8,1.5-4.9,2.4c2.2,2,3.6,2.5,4.9,2.6
	S229.4,319.2,231.3,318.4z"/>
<path class="st0" d="M189.9,310.4c2.5,3.5,6.5,11.7,5.5,15.9c-0.9,4.1-3.8,8.4-6.1,10.6c-4.1-5.7-5-9-5.1-12.4
	C184.1,321.1,188.4,316.7,189.9,310.4z"/>
<path class="st0" d="M171,328c6,3.8,9.8,11.3,10.8,15.4c0.9,4.1-2,12.4-3.1,15.4c-6.3-3.3-7.6-8.6-8.2-12.5
	C169.9,343,172.4,334.4,171,328z"/>
<path class="st0" d="M160.7,354.3c-2,5-1.2,16.3,1.4,22.8c2,4.9,7.1,9.2,10.6,11.2c3.3-8.3,1.7-14.1,0.9-18.3
	C172.6,365.9,164.3,359.1,160.7,354.3z"/>
<path class="st0" d="M149.6,389c8.1-0.5,16.6,3.9,20.1,7.1c3.6,3.2,6.5,12.7,7.5,16.3c-8,1-12.7-2.9-15.9-6.1
	C158.6,403.5,155.2,393.9,149.6,389z"/>
<path class="st0" d="M152.4,428.5c6.4-4.9,17.1-5.6,21.9-5c4.8,0.7,11.3,8.9,14,11.2c-7.6,4.1-14,3.6-18,1.5
	C166.4,433.9,159.8,429.4,152.4,428.5z"/>
<path class="st0" d="M166.4,451.3c4.5,3.4,16.1,7.9,21.5,6.8c5.5-1.2,11.3-4.7,14.3-7.7c-7.5-5.7-11.9-5.4-16.4-5.6
	S172.2,448.9,166.4,451.3z"/>
<path class="st0" d="M206.2,392.3c2,5.3,3.1,17.6,0.4,22.5s-7.7,9.5-11.4,11.5c-3.3-8.8-1.8-12.9-0.8-17.2
	C195.5,404.9,202.3,397.3,206.2,392.3z"/>
<path class="st0" d="M215.3,414.9c-7.8,8.6-8.7,17.8-7.8,22.5c1.3,7,11.1,9,13,12.1c2.5-10.2-1.7-13-3.6-17.2
	C214.2,426,215.3,422.3,215.3,414.9z"/>
<path class="st0" d="M209.9,345.6c-3.2,0.1-8.4-0.4-10.7,0.6c-4.1,1.7-5.2,4.4-7.1,7.7C205.4,355.8,202.3,350.7,209.9,345.6z"/>
<path class="st0" d="M199.2,373.5c-3.3,2-10.6,5.7-13.2,11.1c-3.9,8,0.2,12.7,0.4,17.3C196,393.8,193.1,382.2,199.2,373.5z"/>
<path class="st0" d="M205.4,360.5c-2.6-0.5-8.1-1.9-11.9,0c-5.7,2.8-5.8,7.7-7.8,10.5C194.4,371,198.2,362.6,205.4,360.5z"/>
<path class="st0" d="M243.8,459.7c0.1-17.7-12.3-19.3-14.8-32.8c-2,7.1-2.7,20.3,0.3,24.9C232.8,457.1,237.8,459.7,243.8,459.7z"/>
<path class="st0" d="M185.9,472.7c16.9,2.2,30.9,0.7,33.7-10.8C198.4,451.9,199.6,467.8,185.9,472.7z"/>
<path class="st0" d="M246,469.7c-11.6,17.6-24.9,10.9-36.2,22.7c2.7-8.3,10.7-21.8,16.7-24.4C233.5,465,240.1,465.8,246,469.7z"/>
<path class="st0" d="M224.2,326.2c-2-1.4-7.2-3.1-9.6-2.5c-2.4,0.6-4.9,2.3-6.1,3.7c3.4,2.3,5.4,2.1,7.3,2.1
	C217.7,329.4,221.7,327.2,224.2,326.2z"/>
<path class="st0" d="M219,335.8c-2.5-1.5-8.8-3.2-11.6-2.3c-2.8,0.9-5.6,3.1-7,4.8c4.2,2.5,6.5,2.2,8.9,2
	C211.5,340.3,216,337.4,219,335.8z"/>
<path class="st0" d="M230.1,309.9c4.5,5.2,6.9-0.7,12.3-0.9C235.1,305.9,232.4,306.8,230.1,309.9z"/>
<path class="st0" d="M226.8,303.6c-2.2-6.5,4.1-5.6,7-10.1C232.8,301.4,230.6,303.2,226.8,303.6z"/>
<g>
	<path class="st0" d="M221.2,381c-0.1,0-0.3-0.1-0.3-0.3c0-0.1,0.2-0.4,0.4-0.6c3.3-2.8,7.9-6.5,7.9-11.4c0-3.7-2-4.4-3.2-4.4
		c-1,0-1.7,0.2-2.5,0.9c-0.6,0.5-0.9,1.6-0.9,2.3c0,0.2-0.1,0.4-0.3,0.4c-0.1,0-0.2-0.1-0.2-0.4c0-0.2-0.1-2.1-0.1-2.8
		c0-0.2,0-0.3,0.3-0.4c0.9-0.4,2.2-0.9,4.2-0.9c4.1,0,5.8,2.3,5.8,4.9c0,4.5-5,8.4-8,10.8c-0.1,0.1-0.1,0.1,0.1,0.1h1.6
		c0.4,0,3.1,0,4-0.1c1.6-0.2,2.4-0.9,2.6-2c0.1-0.3,0.1-0.4,0.3-0.4c0.1,0,0.2,0.2,0.2,0.4c0,0.4-0.4,2.5-0.7,3.3
		c-0.2,0.7-0.6,0.7-2,0.7h-9.2V381z"/>
	<path class="st0" d="M240.6,381.4c-4.6,0-5.8-5.3-5.8-8.6c0-5.5,1.9-9.6,6.2-9.6c4.6,0,5.8,4.9,5.8,8.6
		C246.9,377.5,244.6,381.4,240.6,381.4z M240.6,364.2c-1.7,0-3,2.4-3,7.7c0,4,1,8.4,3.6,8.4c1.9,0,3.1-3.2,3.1-7.7
		C244.1,368.6,243,364.2,240.6,364.2z"/>
	<path class="st0" d="M253.8,370.3c0-1.2,0-2.3,0-3.1c0-0.6,0-0.9-0.4-0.9c-0.4,0-2.2,0.9-2.7,1.1c-0.1,0.1-0.2,0.1-0.3,0.1
		c-0.1,0-0.2-0.1-0.2-0.3c0-0.1,0.1-0.3,0.2-0.3c0.1-0.1,4.6-3,5.4-3.6c0.2-0.1,0.4-0.3,0.6-0.3c0.2,0,0.3,0.3,0.3,0.5
		s-0.1,2.5-0.1,6v4.3c0,2.3,0,4.2,0.1,5.2c0.1,0.7,0.2,1.1,0.9,1.2c0.4,0.1,1.4,0.1,1.5,0.1c0.1,0,0.2,0.1,0.2,0.2s-0.1,0.2-0.4,0.2
		c-1.7,0-3.3-0.1-3.9-0.1c-0.5,0-2.5,0.1-4,0.1c-0.3,0-0.4-0.1-0.4-0.2s0.1-0.2,0.2-0.2c0.3,0,1.5-0.1,1.9-0.1
		c0.7-0.1,0.9-0.5,0.9-1.2c0.1-1,0.1-3,0.1-5.2L253.8,370.3z"/>
	<path class="st0" d="M264.1,381c-0.4-0.2-0.4-0.4-0.4-0.9c0-0.8,0-2.2,0.1-2.9c0.1-0.2,0.1-0.4,0.3-0.4c0.1,0,0.2,0.1,0.2,0.4
		c0,2.5,1.5,3.1,3.2,3.1c1.9,0,3.9-1.2,3.9-4.3c0-3.7-4.1-5.2-5.9-5.5c-0.3-0.1-0.4-0.1-0.4-0.4l0.5-6.1c0-0.2,0.2-0.3,0.4-0.3h5.7
		c0.7,0,1,0,1.3-0.1c0.3,0,0.4-0.1,0.4-0.1c0.2,0,0.2,0.1,0.2,0.4c0,0.5-0.1,1.5-0.3,3c0,0.1-0.1,0.3-0.3,0.3
		c-0.1,0-0.2-0.1-0.2-0.3c0-0.7-0.1-1.2-2-1.2h-4.2l-0.3,2.8c3.5,0.6,7.7,2.5,7.7,6.5c0,3.1-2.3,6.5-7.6,6.5
		C265.5,381.4,264.6,381.2,264.1,381z"/>
	<path class="st0" d="M282.9,380.8c-0.4-0.1-0.4-0.3-0.4-0.8c0-1.3,0.1-2.7,0.1-3.1c0-0.4,0.1-0.6,0.3-0.6s0.2,0.2,0.2,0.4
		c0,0.3,0.1,0.8,0.2,1.2c0.5,1.7,1.9,2.3,3.3,2.3c2.1,0,3.1-1.5,3.1-2.6s-0.4-2.2-2.3-3.7l-1.1-0.9c-2.5-2-3.4-3.6-3.4-5.5
		c0-2.5,2.1-4.4,5.4-4.4c1.5,0,2.5,0.2,3.1,0.4c0.2,0.1,0.3,0.1,0.3,0.3c0,0.3-0.1,0.9-0.1,2.8c0,0.5-0.1,0.7-0.3,0.7
		c-0.1,0-0.2-0.1-0.2-0.4c0-0.2-0.1-0.9-0.6-1.5c-0.4-0.4-1-1.2-2.5-1.2c-1.7,0-2.8,1-2.8,2.4c0,1.1,0.5,1.9,2.5,3.3l0.7,0.5
		c2.8,2.1,3.8,3.7,3.8,6c0,1.4-0.5,3-2.2,4.1c-1.2,0.7-2.5,0.9-3.7,0.9C284.9,381.4,283.9,381.2,282.9,380.8z"/>
	<path class="st0" d="M298.6,375.1c-0.1,0-0.1,0.1-0.2,0.2l-1.2,3.2c-0.2,0.6-0.4,1.2-0.4,1.5c0,0.4,0.2,0.7,0.9,0.7h0.4
		c0.3,0,0.4,0.1,0.4,0.2c0,0.2-0.1,0.2-0.4,0.2c-0.7,0-1.7-0.1-2.5-0.1c-0.3,0-1.5,0.1-2.8,0.1c-0.3,0-0.4-0.1-0.4-0.2
		c0-0.1,0.1-0.2,0.3-0.2s0.5,0,0.7-0.1c1.1-0.1,1.5-0.9,2-2.1l5.8-14.4c0.3-0.7,0.4-0.9,0.7-0.9s0.4,0.2,0.6,0.7
		c0.6,1.3,4.3,10.6,5.7,14.1c0.9,2.1,1.5,2.4,2,2.5c0.4,0.1,0.7,0.1,0.9,0.1s0.3,0,0.3,0.2c0,0.2-0.2,0.2-1.1,0.2
		c-0.9,0-2.5,0-4.4-0.1c-0.4,0-0.7,0-0.7-0.2c0-0.1,0.1-0.2,0.3-0.2c0.1-0.1,0.3-0.3,0.2-0.5l-1.9-4.8c-0.1-0.1-0.1-0.1-0.2-0.1
		C303.7,375.1,298.6,375.1,298.6,375.1z M303.4,373.9c0.1,0,0.1-0.1,0.1-0.1l-2.1-5.7c0-0.1-0.1-0.2-0.1-0.2s-0.1,0.1-0.1,0.2
		l-2.1,5.7c0,0.1,0,0.1,0.1,0.1L303.4,373.9L303.4,373.9z"/>
	<path class="st0" d="M314,370.2c0-3.6,0-4.2-0.1-4.9c-0.1-0.8-0.2-1.2-1-1.3c-0.2-0.1-0.6-0.1-0.9-0.1s-0.4-0.1-0.4-0.2
		s0.1-0.2,0.5-0.2c1.2,0,2.7,0.1,3.2,0.1c0.8,0,2.5-0.1,3.3-0.1c1.5,0,3.1,0.1,4.3,1c0.7,0.4,1.6,1.6,1.6,3.2c0,1.7-0.7,3.3-3.1,5.2
		c2,2.6,3.7,4.7,5,6.1c1.3,1.4,2.3,1.5,2.6,1.6c0.3,0.1,0.4,0.1,0.7,0.1c0.2,0,0.3,0.1,0.3,0.2c0,0.2-0.1,0.2-0.4,0.2h-2.2
		c-1.3,0-1.9-0.1-2.5-0.4c-1-0.5-1.9-1.6-3.2-3.4c-0.9-1.3-2-2.8-2.3-3.2c-0.1-0.1-0.3-0.1-0.4-0.1l-2-0.1c-0.1,0-0.2,0.1-0.2,0.2
		v0.3c0,2.2,0,4,0.1,4.9c0.1,0.7,0.2,1.2,0.9,1.3c0.4,0.1,0.9,0.1,1.2,0.1c0.2,0,0.3,0.1,0.3,0.2c0,0.1-0.1,0.2-0.4,0.2
		c-1.4,0-3.1-0.1-3.4-0.1c-0.4,0-1.9,0.1-2.8,0.1c-0.3,0-0.4-0.1-0.4-0.2c0-0.1,0.1-0.2,0.4-0.2c0.4,0,0.7-0.1,0.9-0.1
		c0.4-0.1,0.6-0.6,0.7-1.3c0.1-0.9,0.1-2.8,0.1-4.9v-4.1H314z M316.7,372c0,0.3,0.1,0.4,0.2,0.4c0.5,0.1,1.2,0.2,1.7,0.2
		c0.9,0,1.2-0.1,1.7-0.4c0.7-0.5,1.4-1.6,1.4-3.5c0-3.3-2.2-4.3-3.6-4.3c-0.6,0-1,0-1.2,0.1c-0.1,0.1-0.2,0.1-0.2,0.3V372z"/>
	<path class="st0" d="M332.5,375.1c-0.1,0-0.1,0.1-0.2,0.2l-1.2,3.2c-0.2,0.6-0.4,1.2-0.4,1.5c0,0.4,0.2,0.7,0.9,0.7h0.4
		c0.3,0,0.4,0.1,0.4,0.2c0,0.2-0.1,0.2-0.4,0.2c-0.7,0-1.7-0.1-2.5-0.1c-0.3,0-1.5,0.1-2.8,0.1c-0.3,0-0.4-0.1-0.4-0.2
		c0-0.1,0.1-0.2,0.3-0.2c0.2,0,0.5,0,0.7-0.1c1.1-0.1,1.5-0.9,2-2.1l5.8-14.4c0.3-0.7,0.4-0.9,0.7-0.9c0.2,0,0.4,0.2,0.6,0.7
		c0.6,1.3,4.3,10.6,5.7,14.1c0.9,2.1,1.5,2.4,2,2.5c0.4,0.1,0.7,0.1,0.9,0.1s0.3,0,0.3,0.2c0,0.2-0.2,0.2-1.1,0.2s-2.5,0-4.4-0.1
		c-0.4,0-0.7,0-0.7-0.2c0-0.1,0.1-0.2,0.3-0.2c0.1-0.1,0.3-0.3,0.2-0.5l-1.9-4.8c-0.1-0.1-0.1-0.1-0.2-0.1
		C337.6,375.1,332.5,375.1,332.5,375.1z M337.2,373.9c0.1,0,0.1-0.1,0.1-0.1l-2.1-5.7c0-0.1-0.1-0.2-0.1-0.2S335,368,335,368
		l-2.1,5.7c0,0.1,0,0.1,0.1,0.1L337.2,373.9L337.2,373.9z"/>
	<path class="st0" d="M346.3,380.8c-0.4-0.1-0.4-0.3-0.4-0.8c0-1.3,0.1-2.7,0.1-3.1c0-0.4,0.1-0.6,0.3-0.6s0.2,0.2,0.2,0.4
		c0,0.3,0.1,0.8,0.2,1.2c0.5,1.7,1.9,2.3,3.3,2.3c2.1,0,3.1-1.5,3.1-2.6s-0.4-2.2-2.3-3.7l-1.1-0.9c-2.5-2-3.4-3.6-3.4-5.5
		c0-2.5,2.1-4.4,5.4-4.4c1.5,0,2.5,0.2,3.1,0.4c0.2,0.1,0.3,0.1,0.3,0.3c0,0.3-0.1,0.9-0.1,2.8c0,0.5-0.1,0.7-0.3,0.7
		c-0.1,0-0.2-0.1-0.2-0.4c0-0.2-0.1-0.9-0.6-1.5c-0.4-0.4-1-1.2-2.5-1.2c-1.7,0-2.8,1-2.8,2.4c0,1.1,0.5,1.9,2.5,3.3l0.7,0.5
		c2.8,2.1,3.8,3.7,3.8,6c0,1.4-0.5,3-2.2,4.1c-1.2,0.7-2.5,0.9-3.7,0.9C348.4,381.4,347.3,381.2,346.3,380.8z"/>
	<path class="st0" d="M358.6,372.3c0-4,2.6-9.1,9.6-9.1c5.8,0,9.4,3.3,9.4,8.7c0,5.3-3.7,9.5-9.6,9.5
		C361.3,381.4,358.6,376.4,358.6,372.3z M374.4,372.7c0-5.2-3-8.4-6.8-8.4c-2.7,0-5.7,1.5-5.7,7.3c0,4.9,2.7,8.7,7.1,8.7
		C370.6,380.2,374.4,379.5,374.4,372.7z"/>
	<path class="st0" d="M385.4,364.8l-3.5,0.1c-1.4,0.1-1.9,0.1-2.3,0.7c-0.2,0.4-0.4,0.7-0.4,0.8s-0.1,0.3-0.3,0.3s-0.2-0.1-0.2-0.4
		c0-0.4,0.4-2.5,0.5-2.7c0.1-0.3,0.1-0.4,0.3-0.4c0.2,0,0.4,0.2,1,0.3c0.7,0.1,1.5,0.1,2.3,0.1h9.2c0.7,0,1.2-0.1,1.6-0.1
		c0.4-0.1,0.5-0.1,0.7-0.1c0.1,0,0.2,0.1,0.2,0.5c0,0.5-0.1,2.1-0.1,2.7c0,0.2-0.1,0.4-0.2,0.4c-0.2,0-0.2-0.1-0.3-0.4v-0.3
		c-0.1-0.6-0.7-1.2-2.8-1.3l-2.9-0.1v9.5c0,2.1,0,4,0.1,4.9c0.1,0.7,0.2,1.2,0.9,1.2c0.3,0.1,0.9,0.1,1.2,0.1c0.3,0,0.4,0.1,0.4,0.2
		s-0.2,0.2-0.4,0.2c-1.5,0-3-0.1-3.6-0.1c-0.5,0-2,0.1-2.9,0.1c-0.3,0-0.4-0.1-0.4-0.2s0.1-0.2,0.4-0.2c0.4,0,0.7-0.1,0.9-0.1
		c0.4-0.1,0.6-0.6,0.7-1.3c0.1-0.9,0.1-2.8,0.1-4.9v-9.4H385.4z"/>
	<path class="st0" d="M398.4,375.1c-0.1,0-0.1,0.1-0.2,0.2l-1.2,3.2c-0.2,0.6-0.4,1.2-0.4,1.5c0,0.4,0.2,0.7,0.9,0.7h0.4
		c0.3,0,0.4,0.1,0.4,0.2c0,0.2-0.1,0.2-0.4,0.2c-0.7,0-1.7-0.1-2.5-0.1c-0.3,0-1.5,0.1-2.8,0.1c-0.3,0-0.4-0.1-0.4-0.2
		c0-0.1,0.1-0.2,0.3-0.2s0.5,0,0.7-0.1c1.1-0.1,1.5-0.9,2-2.1l5.8-14.4c0.3-0.7,0.4-0.9,0.7-0.9s0.4,0.2,0.6,0.7
		c0.6,1.3,4.3,10.6,5.7,14.1c0.9,2.1,1.5,2.4,2,2.5c0.4,0.1,0.7,0.1,0.9,0.1s0.3,0,0.3,0.2c0,0.2-0.2,0.2-1.1,0.2s-2.5,0-4.4-0.1
		c-0.4,0-0.7,0-0.7-0.2c0-0.1,0.1-0.2,0.3-0.2c0.1-0.1,0.3-0.3,0.2-0.5l-1.9-4.8c-0.1-0.1-0.1-0.1-0.2-0.1
		C403.5,375.1,398.4,375.1,398.4,375.1z M403.1,373.9c0.1,0,0.1-0.1,0.1-0.1l-2.1-5.7c0-0.1-0.1-0.2-0.1-0.2s-0.1,0.1-0.1,0.2
		l-2.1,5.7c0,0.1,0,0.1,0.1,0.1L403.1,373.9L403.1,373.9z"/>
	<path class="st0" d="M421.2,374.3c0,2.3,0,4,0.1,4.9c0.1,0.7,0.2,1.2,0.9,1.3c0.3,0.1,0.9,0.1,1.2,0.1c0.3,0,0.4,0.1,0.4,0.2
		c0,0.1-0.1,0.2-0.5,0.2c-1.5,0-2.9-0.1-3.6-0.1c-0.6,0-2,0.1-3,0.1c-0.3,0-0.5-0.1-0.5-0.2c0-0.1,0.1-0.2,0.4-0.2
		c0.4,0,0.7-0.1,0.9-0.1c0.4-0.1,0.6-0.6,0.7-1.3c0.1-0.9,0.1-2.7,0.1-4.9v-4.1c0-3.6,0-4.2-0.1-4.9c-0.1-0.8-0.2-1.2-1-1.3
		c-0.2-0.1-0.6-0.1-0.9-0.1c-0.2,0-0.4-0.1-0.4-0.2c0-0.2,0.2-0.2,0.5-0.2c0.6,0,1.3,0,1.9,0c0.6,0,1.2,0.1,1.5,0.1
		c0.9,0,5.6,0,6.1,0c0.4,0,0.7,0,0.9-0.1c0.1-0.1,0.3-0.1,0.4-0.1s0.1,0.1,0.1,0.2c0,0.1-0.1,0.4-0.2,1c0,0.2-0.1,1.6-0.1,1.9
		c0,0.2-0.1,0.3-0.2,0.3c-0.1,0-0.2-0.1-0.2-0.4c0-0.2,0-0.6-0.1-0.9c-0.1-0.3-0.7-0.7-1.5-0.7l-3.6-0.1c-0.1,0-0.2,0.1-0.2,0.3v5.8
		c0,0.1,0,0.2,0.1,0.2h3c0.4,0,0.7,0,1,0c0.4,0,0.8-0.1,1-0.4c0.1-0.1,0.1-0.2,0.3-0.2c0.1,0,0.1,0.1,0.1,0.2c0,0.1-0.1,0.7-0.2,1.5
		c-0.1,0.4-0.1,1.5-0.1,1.7c0,0.2,0,0.4-0.2,0.4c-0.1,0-0.2-0.1-0.2-0.3c0-0.1-0.1-0.4-0.1-0.7c-0.1-0.3-0.4-0.7-1.2-0.9
		c-0.6-0.1-3.1-0.1-3.4-0.1c-0.1,0-0.1,0.1-0.1,0.2v1.9H421.2z"/>
	<path class="st0" d="M432.8,370.2c0-3.6,0-4.2-0.1-4.9c-0.1-0.8-0.3-1.2-0.8-1.3c-0.3-0.1-0.6-0.1-0.9-0.1c-0.2,0-0.4-0.1-0.4-0.2
		s0.2-0.2,0.6-0.2c0.9,0,2.3,0.1,3.1,0.1c0.6,0,2-0.1,2.8-0.1c0.3,0,0.5,0.1,0.5,0.2c0,0.2-0.1,0.2-0.4,0.2s-0.4,0-0.7,0.1
		c-0.7,0.1-0.8,0.5-0.9,1.3c-0.1,0.7-0.1,1.4-0.1,4.9v4.1c0,2.3,0,4.1,0.1,5.1c0.1,0.7,0.2,1,0.9,1.2c0.3,0.1,0.9,0.1,1.2,0.1
		s0.4,0.1,0.4,0.2s-0.2,0.2-0.4,0.2c-1.5,0-3-0.1-3.6-0.1c-0.5,0-2,0.1-2.9,0.1c-0.3,0-0.4-0.1-0.4-0.2c0-0.1,0.1-0.2,0.4-0.2
		c0.4,0,0.7-0.1,0.9-0.1c0.4-0.1,0.6-0.5,0.7-1.2c0.1-0.9,0.1-2.8,0.1-5.1L432.8,370.2L432.8,370.2z"/>
	<path class="st0" d="M446.2,374.3c0,3,0,4.6,0.5,5c0.4,0.4,1,0.5,2.8,0.5c1.2,0,2.1,0,2.7-0.7c0.3-0.3,0.6-0.9,0.6-1.4
		c0-0.2,0.1-0.4,0.3-0.4c0.1,0,0.2,0.1,0.2,0.4c0,0.3-0.1,2-0.4,2.7c-0.1,0.5-0.3,0.7-1.5,0.7c-1.7,0-2.9-0.1-3.9-0.1
		c-1-0.1-1.9-0.1-2.8-0.1c-0.3,0-0.8,0-1.3,0s-1.2,0.1-1.6,0.1c-0.3,0-0.4-0.1-0.4-0.2s0.1-0.2,0.4-0.2c0.4,0,0.7-0.1,0.9-0.1
		c0.4-0.1,0.6-0.6,0.7-1.3c0.1-0.9,0.1-2.8,0.1-4.9v-4.1c0-3.6,0-4.2-0.1-4.9c-0.1-0.8-0.2-1.2-1-1.3c-0.2-0.1-0.4-0.1-0.8-0.1
		c-0.3,0-0.4-0.1-0.4-0.2c0-0.1,0.1-0.2,0.5-0.2c1.1,0,2.5,0.1,3.2,0.1c0.6,0,2.3-0.1,3.2-0.1c0.3,0,0.5,0.1,0.5,0.2
		c0,0.1-0.1,0.2-0.4,0.2c-0.3,0-0.7,0-0.9,0.1c-0.7,0.1-0.8,0.5-0.9,1.3c-0.1,0.7-0.1,1.4-0.1,4.9v4.1H446.2z"/>
	<path class="st0" d="M458.2,363.8c0.1-0.4,0.2-0.6,0.4-0.6c0.1,0,0.3,0.1,0.7,0.7l6.3,12.9l6.3-13.1c0.2-0.4,0.3-0.6,0.5-0.6
		c0.2,0,0.4,0.2,0.4,0.7l2.1,14.3c0.2,1.5,0.4,2.1,1.2,2.3c0.7,0.2,1.2,0.2,1.5,0.2c0.2,0,0.4,0,0.4,0.1c0,0.2-0.3,0.3-0.6,0.3
		c-0.6,0-3.8-0.1-4.7-0.1c-0.5-0.1-0.7-0.1-0.7-0.3s0.1-0.2,0.3-0.3c0.1-0.1,0.2-0.4,0.1-1l-1.4-10.1H471l-5.1,10.4
		c-0.5,1.1-0.7,1.3-0.9,1.3s-0.4-0.4-0.8-1.2c-0.6-1.1-2.4-4.7-2.7-5.3c-0.2-0.5-1.6-3.2-2.4-4.9h-0.1l-1.2,9.1
		c-0.1,0.4-0.1,0.7-0.1,1.1c0,0.4,0.3,0.7,0.7,0.7c0.4,0.1,0.7,0.1,0.9,0.1s0.4,0.1,0.4,0.1c0,0.2-0.2,0.3-0.6,0.3
		c-0.9,0-2-0.1-2.5-0.1s-1.5,0.1-2.3,0.1c-0.2,0-0.4-0.1-0.4-0.3c0-0.1,0.1-0.1,0.4-0.1s0.4,0,0.7-0.1c0.7-0.1,0.9-1,0.9-1.8
		L458.2,363.8z"/>
	<path class="st0" d="M489.6,374.3c0,2.3,0,4,0.1,4.9c0.1,0.7,0.2,1.2,0.9,1.3c0.3,0.1,0.9,0.1,1.2,0.1c0.3,0,0.4,0.1,0.4,0.2
		c0,0.1-0.1,0.2-0.5,0.2c-1.5,0-2.9-0.1-3.6-0.1c-0.6,0-2,0.1-3,0.1c-0.3,0-0.5-0.1-0.5-0.2c0-0.1,0.1-0.2,0.4-0.2
		c0.4,0,0.7-0.1,0.9-0.1c0.4-0.1,0.6-0.6,0.7-1.3c0.1-0.9,0.1-2.7,0.1-4.9v-4.1c0-3.6,0-4.2-0.1-4.9c-0.1-0.8-0.2-1.2-1-1.3
		c-0.2-0.1-0.6-0.1-0.9-0.1c-0.2,0-0.4-0.1-0.4-0.2c0-0.2,0.2-0.2,0.5-0.2c0.6,0,1.3,0,1.9,0s1.2,0.1,1.5,0.1c0.9,0,5.6,0,6.1,0
		c0.4,0,0.7,0,0.9-0.1c0.1-0.1,0.3-0.1,0.4-0.1c0.1,0,0.1,0.1,0.1,0.2c0,0.1-0.1,0.4-0.2,1c0,0.2-0.1,1.6-0.1,1.9
		c0,0.2-0.1,0.3-0.2,0.3s-0.2-0.1-0.2-0.4c0-0.2,0-0.6-0.1-0.9c-0.1-0.3-0.7-0.7-1.5-0.7l-3.6-0.1c-0.1,0-0.2,0.1-0.2,0.3v5.8
		c0,0.1,0,0.2,0.1,0.2h3c0.4,0,0.7,0,1,0c0.4,0,0.8-0.1,1-0.4c0.1-0.1,0.1-0.2,0.3-0.2c0.1,0,0.1,0.1,0.1,0.2c0,0.1-0.1,0.7-0.2,1.5
		c-0.1,0.4-0.1,1.5-0.1,1.7c0,0.2,0,0.4-0.2,0.4c-0.1,0-0.2-0.1-0.2-0.3c0-0.1-0.1-0.4-0.1-0.7c-0.1-0.3-0.4-0.7-1.2-0.9
		c-0.6-0.1-3.1-0.1-3.4-0.1c-0.1,0-0.1,0.1-0.1,0.2v1.9H489.6z"/>
	<path class="st0" d="M501.1,370.2c0-3.6,0-4.2-0.1-4.9c-0.1-0.8-0.2-1.2-1-1.3c-0.2-0.1-0.6-0.1-0.9-0.1s-0.4-0.1-0.4-0.2
		s0.1-0.2,0.5-0.2c0.7,0,1.3,0,1.9,0c0.6,0,1.2,0.1,1.5,0.1c0.7,0,5.4,0,5.8,0c0.4-0.1,0.8-0.1,1-0.1c0.1,0,0.3-0.1,0.4-0.1
		c0.1,0,0.1,0.1,0.1,0.2c0,0.1-0.1,0.4-0.2,1.5c0,0.2-0.1,1.2-0.1,1.5c0,0.1-0.1,0.3-0.2,0.3c-0.1,0-0.2-0.1-0.2-0.3s0-0.6-0.1-0.9
		c-0.1-0.4-0.4-0.7-1.5-0.9c-0.4-0.1-2.8-0.1-3.3-0.1c-0.1,0-0.1,0.1-0.1,0.2v5.9c0,0.1,0,0.3,0.1,0.3c0.5,0,3.2,0,3.7-0.1
		c0.6-0.1,0.9-0.1,1.1-0.4c0.1-0.2,0.3-0.3,0.4-0.3c0.1,0,0.1,0.1,0.1,0.2c0,0.1-0.1,0.5-0.2,1.7c0,0.4-0.1,1.4-0.1,1.5
		c0,0.2,0,0.4-0.2,0.4c-0.1,0-0.2-0.1-0.2-0.2c0-0.2,0-0.5-0.1-0.9c-0.1-0.4-0.4-0.8-1.3-0.9c-0.4-0.1-2.8-0.1-3.3-0.1
		c-0.1,0-0.1,0.1-0.1,0.2v1.8c0,0.8,0,2.9,0,3.6c0.1,1.6,0.4,2,2.8,2c0.6,0,1.6,0,2.2-0.3c0.6-0.3,0.9-0.8,1-1.7
		c0.1-0.3,0.1-0.4,0.3-0.4c0.2,0,0.2,0.2,0.2,0.4c0,0.5-0.2,2.1-0.3,2.6c-0.1,0.6-0.4,0.6-1.2,0.6c-1.7,0-3.1-0.1-4-0.1
		c-1-0.1-1.7-0.1-2.4-0.1c-0.3,0-0.8,0-1.3,0c-0.5,0-1.2,0.1-1.6,0.1c-0.3,0-0.4-0.1-0.4-0.2c0-0.1,0.1-0.2,0.4-0.2
		c0.4,0,0.7-0.1,0.9-0.1c0.4-0.1,0.6-0.6,0.7-1.3c0.1-0.9,0.1-2.8,0.1-4.9v-4.1H501.1z"/>
	<path class="st0" d="M514.5,380.8c-0.4-0.1-0.4-0.3-0.4-0.8c0-1.3,0.1-2.7,0.1-3.1c0-0.4,0.1-0.6,0.3-0.6c0.2,0,0.2,0.2,0.2,0.4
		c0,0.3,0.1,0.8,0.2,1.2c0.5,1.7,1.9,2.3,3.3,2.3c2.1,0,3.1-1.5,3.1-2.6s-0.4-2.2-2.3-3.7l-1.1-0.9c-2.5-2-3.4-3.6-3.4-5.5
		c0-2.5,2.1-4.4,5.4-4.4c1.5,0,2.5,0.2,3.1,0.4c0.2,0.1,0.3,0.1,0.3,0.3c0,0.3-0.1,0.9-0.1,2.8c0,0.5-0.1,0.7-0.3,0.7
		c-0.1,0-0.2-0.1-0.2-0.4c0-0.2-0.1-0.9-0.6-1.5c-0.4-0.4-1-1.2-2.5-1.2c-1.7,0-2.8,1-2.8,2.4c0,1.1,0.5,1.9,2.5,3.3l0.7,0.5
		c2.8,2.1,3.8,3.7,3.8,6c0,1.4-0.5,3-2.2,4.1c-1.2,0.7-2.5,0.9-3.7,0.9C516.6,381.4,515.6,381.2,514.5,380.8z"/>
	<path class="st0" d="M532.4,364.8l-3.5,0.1c-1.4,0.1-1.9,0.1-2.3,0.7c-0.2,0.4-0.4,0.7-0.4,0.8s-0.1,0.3-0.3,0.3
		c-0.1,0-0.2-0.1-0.2-0.4c0-0.4,0.4-2.5,0.5-2.7c0.1-0.3,0.1-0.4,0.3-0.4c0.2,0,0.4,0.2,1,0.3c0.7,0.1,1.5,0.1,2.3,0.1h9.2
		c0.7,0,1.2-0.1,1.6-0.1c0.4-0.1,0.5-0.1,0.7-0.1s0.2,0.1,0.2,0.5c0,0.5-0.1,2.1-0.1,2.7c0,0.2-0.1,0.4-0.2,0.4
		c-0.2,0-0.2-0.1-0.3-0.4v-0.3c-0.1-0.6-0.7-1.2-2.8-1.3l-2.9-0.1v9.5c0,2.1,0,4,0.1,4.9c0.1,0.7,0.2,1.2,0.9,1.2
		c0.3,0.1,0.9,0.1,1.2,0.1c0.3,0,0.4,0.1,0.4,0.2s-0.2,0.2-0.4,0.2c-1.5,0-3-0.1-3.6-0.1c-0.5,0-2,0.1-2.9,0.1
		c-0.3,0-0.4-0.1-0.4-0.2s0.1-0.2,0.4-0.2c0.4,0,0.7-0.1,0.9-0.1c0.4-0.1,0.6-0.6,0.7-1.3c0.1-0.9,0.1-2.8,0.1-4.9v-9.4H532.4z"/>
	<path class="st0" d="M545.9,370.2c0-3.6,0-4.2-0.1-4.9c-0.1-0.8-0.3-1.2-0.8-1.3c-0.3-0.1-0.6-0.1-0.9-0.1c-0.2,0-0.4-0.1-0.4-0.2
		s0.2-0.2,0.6-0.2c0.9,0,2.3,0.1,3.1,0.1c0.6,0,2-0.1,2.8-0.1c0.3,0,0.5,0.1,0.5,0.2c0,0.2-0.1,0.2-0.4,0.2c-0.2,0-0.4,0-0.7,0.1
		c-0.7,0.1-0.8,0.5-0.9,1.3c-0.1,0.7-0.1,1.4-0.1,4.9v4.1c0,2.3,0,4.1,0.1,5.1c0.1,0.7,0.2,1,0.9,1.2c0.3,0.1,0.9,0.1,1.2,0.1
		s0.4,0.1,0.4,0.2s-0.2,0.2-0.4,0.2c-1.5,0-3-0.1-3.6-0.1c-0.5,0-2,0.1-2.9,0.1c-0.3,0-0.4-0.1-0.4-0.2c0-0.1,0.1-0.2,0.4-0.2
		c0.4,0,0.7-0.1,0.9-0.1c0.4-0.1,0.6-0.5,0.7-1.2c0.1-0.9,0.1-2.8,0.1-5.1L545.9,370.2L545.9,370.2z"/>
	<path class="st0" d="M554.2,365.7c-0.5-1.3-0.9-1.5-1.7-1.7c-0.4-0.1-0.7-0.1-0.9-0.1c-0.2,0-0.3-0.1-0.3-0.2
		c0-0.2,0.3-0.2,0.6-0.2c1.2,0,2.5,0.1,3.3,0.1c0.6,0,1.7-0.1,2.8-0.1c0.3,0,0.5,0.1,0.5,0.2s-0.1,0.2-0.4,0.2c-0.4,0-0.7,0-0.9,0.1
		c-0.1,0.1-0.2,0.3-0.2,0.5c0,0.3,0.2,0.9,0.5,1.8l4,10.5h0.1c1-2.5,4-10,4.6-11.6c0.1-0.3,0.2-0.7,0.2-0.9c0-0.2-0.1-0.4-0.3-0.4
		c-0.3-0.1-0.7-0.1-0.9-0.1c-0.2,0-0.4,0-0.4-0.2s0.2-0.2,0.7-0.2c1.2,0,2.1,0.1,2.5,0.1c0.4,0,1.5-0.1,2.2-0.1
		c0.3,0,0.5,0.1,0.5,0.2s-0.1,0.2-0.4,0.2c-0.2,0-0.7,0-1.2,0.3c-0.3,0.2-0.7,0.6-1.3,2.1c-0.9,2.2-1.5,3.4-2.8,6.3
		c-1.5,3.4-2.6,6-3.1,7.1c-0.6,1.4-0.7,1.7-1.1,1.7c-0.3,0-0.4-0.3-0.9-1.5L554.2,365.7z"/>
	<path class="st0" d="M572.9,375.1c-0.1,0-0.1,0.1-0.2,0.2l-1.2,3.2c-0.2,0.6-0.4,1.2-0.4,1.5c0,0.4,0.2,0.7,0.9,0.7h0.4
		c0.3,0,0.4,0.1,0.4,0.2c0,0.2-0.1,0.2-0.4,0.2c-0.7,0-1.7-0.1-2.5-0.1c-0.3,0-1.5,0.1-2.8,0.1c-0.3,0-0.4-0.1-0.4-0.2
		c0-0.1,0.1-0.2,0.3-0.2c0.2,0,0.5,0,0.7-0.1c1.1-0.1,1.5-0.9,2-2.1l5.8-14.4c0.3-0.7,0.4-0.9,0.7-0.9s0.4,0.2,0.6,0.7
		c0.6,1.3,4.3,10.6,5.7,14.1c0.9,2.1,1.5,2.4,2,2.5c0.4,0.1,0.7,0.1,0.9,0.1c0.2,0,0.3,0,0.3,0.2c0,0.2-0.2,0.2-1.1,0.2
		c-0.9,0-2.5,0-4.4-0.1c-0.4,0-0.7,0-0.7-0.2c0-0.1,0.1-0.2,0.3-0.2c0.1-0.1,0.3-0.3,0.2-0.5l-1.9-4.8c-0.1-0.1-0.1-0.1-0.2-0.1
		C578,375.1,572.9,375.1,572.9,375.1z M577.7,373.9c0.1,0,0.1-0.1,0.1-0.1l-2.1-5.7c0-0.1-0.1-0.2-0.1-0.2s-0.1,0.1-0.1,0.2
		l-2.1,5.7c0,0.1,0,0.1,0.1,0.1L577.7,373.9L577.7,373.9z"/>
	<path class="st0" d="M591.2,374.3c0,3,0,4.6,0.5,5c0.4,0.4,1,0.5,2.8,0.5c1.2,0,2.1,0,2.7-0.7c0.3-0.3,0.6-0.9,0.6-1.4
		c0-0.2,0.1-0.4,0.3-0.4c0.1,0,0.2,0.1,0.2,0.4c0,0.3-0.1,2-0.4,2.7c-0.1,0.5-0.3,0.7-1.5,0.7c-1.7,0-2.9-0.1-3.9-0.1
		c-1-0.1-1.9-0.1-2.8-0.1c-0.3,0-0.8,0-1.3,0s-1.2,0.1-1.6,0.1c-0.3,0-0.4-0.1-0.4-0.2s0.1-0.2,0.4-0.2c0.4,0,0.7-0.1,0.9-0.1
		c0.4-0.1,0.6-0.6,0.7-1.3c0.1-0.9,0.1-2.8,0.1-4.9v-4.1c0-3.6,0-4.2-0.1-4.9c-0.1-0.8-0.2-1.2-1-1.3c-0.2-0.1-0.4-0.1-0.8-0.1
		c-0.3,0-0.4-0.1-0.4-0.2c0-0.1,0.1-0.2,0.5-0.2c1.1,0,2.5,0.1,3.2,0.1c0.6,0,2.3-0.1,3.2-0.1c0.3,0,0.5,0.1,0.5,0.2
		c0,0.1-0.1,0.2-0.4,0.2c-0.3,0-0.7,0-0.9,0.1c-0.7,0.1-0.8,0.5-0.9,1.3c-0.1,0.7-0.1,1.4-0.1,4.9v4.1H591.2z"/>
	<path class="st0" d="M257.7,406.5c0-3.5,2.3-8,8.4-8c5.1,0,8.2,3,8.2,7.6s-3.3,8.4-8.4,8.4C260,414.5,257.7,410.2,257.7,406.5z
		 M271.4,406.9c0-4.6-2.6-7.4-6-7.4c-2.3,0-5,1.3-5,6.4c0,4.2,2.3,7.6,6.3,7.6C268.1,413.5,271.4,412.8,271.4,406.9z"/>
	<path class="st0" d="M285.2,408.3c0,2,0,3.5,0.1,4.4c0.1,0.6,0.2,1,0.8,1.1c0.3,0.1,0.7,0.1,1,0.1c0.3,0,0.4,0.1,0.4,0.1
		c0,0.1-0.1,0.2-0.4,0.2c-1.3,0-2.5-0.1-3.1-0.1s-1.8,0.1-2.6,0.1c-0.3,0-0.4-0.1-0.4-0.2c0-0.1,0.1-0.1,0.3-0.1
		c0.3,0,0.6-0.1,0.7-0.1c0.4-0.1,0.5-0.5,0.6-1.1c0.1-0.9,0.1-2.4,0.1-4.4v-3.6c0-3.1,0-3.6-0.1-4.3c-0.1-0.7-0.2-1-0.9-1.2
		c-0.1-0.1-0.5-0.1-0.8-0.1c-0.2,0-0.4-0.1-0.4-0.1c0-0.1,0.1-0.2,0.4-0.2c0.5,0,1.1,0,1.7,0c0.5,0,1,0.1,1.3,0.1c0.8,0,4.9,0,5.4,0
		c0.4,0,0.7,0,0.8-0.1c0.1-0.1,0.2-0.1,0.3-0.1c0.1,0,0.1,0.1,0.1,0.2s-0.1,0.4-0.1,0.9c0,0.2-0.1,1.4-0.1,1.7
		c0,0.1-0.1,0.3-0.2,0.3c-0.1,0-0.2-0.1-0.2-0.3c0-0.1,0-0.5-0.1-0.8c-0.1-0.3-0.6-0.6-1.3-0.6l-3.1-0.1c-0.1,0-0.2,0.1-0.2,0.3v5.1
		c0,0.1,0,0.2,0.1,0.2h2.6c0.4,0,0.7,0,0.9,0c0.4,0,0.7-0.1,0.9-0.4c0.1-0.1,0.1-0.2,0.3-0.2c0.1,0,0.1,0.1,0.1,0.2
		s-0.1,0.7-0.1,1.2c-0.1,0.4-0.1,1.3-0.1,1.5c0,0.2,0,0.4-0.2,0.4c-0.1,0-0.1-0.1-0.1-0.3s-0.1-0.4-0.1-0.7s-0.4-0.7-1-0.7
		c-0.5-0.1-2.7-0.1-3-0.1c-0.1,0-0.1,0.1-0.1,0.2L285.2,408.3L285.2,408.3z"/>
	<path class="st0" d="M301.9,408.3c0,2,0,3.5,0.1,4.4c0.1,0.6,0.2,1,0.8,1.1c0.3,0.1,0.7,0.1,1,0.1c0.3,0,0.4,0.1,0.4,0.1
		c0,0.1-0.1,0.2-0.4,0.2c-1.3,0-2.5-0.1-3.1-0.1s-1.8,0.1-2.6,0.1c-0.3,0-0.4-0.1-0.4-0.2c0-0.1,0.1-0.1,0.3-0.1
		c0.3,0,0.6-0.1,0.7-0.1c0.4-0.1,0.5-0.5,0.6-1.1c0.1-0.9,0.1-2.4,0.1-4.4v-3.6c0-3.1,0-3.6-0.1-4.3c-0.1-0.7-0.2-1-0.9-1.2
		c-0.1-0.1-0.5-0.1-0.8-0.1c-0.2,0-0.4-0.1-0.4-0.1c0-0.1,0.1-0.2,0.4-0.2c0.5,0,1.1,0,1.7,0c0.5,0,1,0.1,1.3,0.1c0.8,0,4.9,0,5.4,0
		c0.4,0,0.7,0,0.8-0.1s0.2-0.1,0.3-0.1s0.1,0.1,0.1,0.2s-0.1,0.4-0.1,0.9c0,0.2-0.1,1.4-0.1,1.7c0,0.1-0.1,0.3-0.2,0.3
		s-0.2-0.1-0.2-0.3c0-0.1,0-0.5-0.1-0.8c-0.1-0.3-0.6-0.6-1.3-0.6l-3.1-0.1c-0.1,0-0.2,0.1-0.2,0.3v5.1c0,0.1,0,0.2,0.1,0.2h2.6
		c0.4,0,0.7,0,0.9,0c0.4,0,0.7-0.1,0.9-0.4c0.1-0.1,0.1-0.2,0.3-0.2c0.1,0,0.1,0.1,0.1,0.2s-0.1,0.7-0.1,1.2
		c-0.1,0.4-0.1,1.3-0.1,1.5c0,0.2,0,0.4-0.2,0.4c-0.1,0-0.1-0.1-0.1-0.3s-0.1-0.4-0.1-0.7s-0.4-0.7-1-0.7c-0.5-0.1-2.7-0.1-3-0.1
		c-0.1,0-0.1,0.1-0.1,0.2L301.9,408.3L301.9,408.3z"/>
	<path class="st0" d="M316.1,404.7c0-3.1,0-3.6-0.1-4.3c-0.1-0.7-0.2-1-0.7-1.2c-0.2-0.1-0.5-0.1-0.7-0.1s-0.3-0.1-0.3-0.2
		s0.1-0.1,0.5-0.1c0.8,0,2,0.1,2.6,0.1c0.5,0,1.7-0.1,2.5-0.1c0.3,0,0.4,0.1,0.4,0.1c0,0.1-0.1,0.2-0.3,0.2c-0.2,0-0.4,0-0.6,0.1
		c-0.6,0.1-0.7,0.4-0.7,1.2c-0.1,0.7-0.1,1.2-0.1,4.3v3.6c0,2,0,3.6,0.1,4.4c0.1,0.6,0.2,0.9,0.8,1c0.3,0.1,0.7,0.1,1,0.1
		c0.2,0,0.3,0.1,0.3,0.1c0,0.1-0.1,0.2-0.4,0.2c-1.3,0-2.6-0.1-3.2-0.1c-0.4,0-1.7,0.1-2.5,0.1c-0.3,0-0.4-0.1-0.4-0.2
		c0-0.1,0.1-0.1,0.3-0.1c0.3,0,0.6-0.1,0.7-0.1c0.4-0.1,0.5-0.4,0.6-1c0.1-0.9,0.1-2.5,0.1-4.4v-3.6H316.1z"/>
	<path class="st0" d="M329.4,412.3c-2-1.7-2.5-4-2.5-6c0-1.4,0.4-3.8,2.4-5.6c1.5-1.3,3.4-2.2,6.4-2.2c1.2,0,2,0.1,3,0.2
		c0.8,0.1,1.5,0.3,2,0.4c0.2,0,0.3,0.1,0.3,0.2c0,0.1-0.1,0.4-0.1,1.1c-0.1,0.7,0,1.8-0.1,2.2c0,0.3-0.1,0.4-0.2,0.4
		c-0.1,0-0.2-0.1-0.2-0.4c0-0.7-0.3-1.3-0.8-1.9c-0.7-0.7-2.3-1.2-4.1-1.2c-1.7,0-2.9,0.4-3.9,1.2c-1.5,1.4-1.9,3.3-1.9,5.3
		c0,4.9,3.7,7.3,6.4,7.3c1.8,0,2.9-0.2,3.7-1.2c0.4-0.4,0.6-0.9,0.7-1.3c0.1-0.3,0.1-0.4,0.3-0.4c0.1,0,0.2,0.1,0.2,0.3
		c0,0.2-0.2,2-0.4,2.7c-0.1,0.4-0.2,0.4-0.5,0.6c-0.8,0.3-2.3,0.4-3.6,0.4C333.7,414.5,331.3,413.9,329.4,412.3z"/>
	<path class="st0" d="M349.5,404.7c0-3.1,0-3.6-0.1-4.3c-0.1-0.7-0.2-1-0.7-1.2c-0.2-0.1-0.5-0.1-0.7-0.1c-0.2,0-0.3-0.1-0.3-0.2
		s0.1-0.1,0.5-0.1c0.8,0,2,0.1,2.6,0.1c0.5,0,1.7-0.1,2.5-0.1c0.3,0,0.4,0.1,0.4,0.1c0,0.1-0.1,0.2-0.3,0.2c-0.2,0-0.4,0-0.6,0.1
		c-0.6,0.1-0.7,0.4-0.7,1.2c-0.1,0.7-0.1,1.2-0.1,4.3v3.6c0,2,0,3.6,0.1,4.4c0.1,0.6,0.2,0.9,0.8,1c0.3,0.1,0.7,0.1,1,0.1
		c0.2,0,0.3,0.1,0.3,0.1c0,0.1-0.1,0.2-0.4,0.2c-1.3,0-2.6-0.1-3.2-0.1c-0.4,0-1.7,0.1-2.5,0.1c-0.3,0-0.4-0.1-0.4-0.2
		c0-0.1,0.1-0.1,0.3-0.1c0.3,0,0.6-0.1,0.7-0.1c0.4-0.1,0.5-0.4,0.6-1c0.1-0.9,0.1-2.5,0.1-4.4v-3.6H349.5z"/>
	<path class="st0" d="M363.6,409c-0.1,0-0.1,0.1-0.2,0.1l-1.1,2.8c-0.2,0.5-0.3,1-0.3,1.2c0,0.4,0.2,0.7,0.8,0.7h0.3
		c0.2,0,0.3,0.1,0.3,0.1c0,0.1-0.1,0.2-0.4,0.2c-0.7,0-1.5-0.1-2.2-0.1c-0.2,0-1.3,0.1-2.4,0.1c-0.3,0-0.4-0.1-0.4-0.2
		s0.1-0.1,0.2-0.1c0.2,0,0.4,0,0.7-0.1c0.9-0.1,1.3-0.8,1.7-1.8l5.1-12.7c0.2-0.6,0.4-0.8,0.6-0.8c0.2,0,0.3,0.2,0.5,0.7
		c0.5,1.1,3.8,9.2,5,12.4c0.8,1.8,1.4,2.1,1.8,2.3c0.3,0.1,0.6,0.1,0.9,0.1c0.1,0,0.3,0,0.3,0.1s-0.2,0.2-0.9,0.2
		c-0.7,0-2.3,0-3.9-0.1c-0.4,0-0.6,0-0.6-0.1s0.1-0.1,0.3-0.2c0.1-0.1,0.3-0.2,0.2-0.4l-1.6-4.2c-0.1-0.1-0.1-0.1-0.2-0.1L363.6,409
		L363.6,409z M367.8,408c0.1,0,0.1-0.1,0.1-0.1l-1.8-5c0-0.1-0.1-0.2-0.1-0.2s-0.1,0.1-0.1,0.2l-1.9,5c0,0.1,0,0.1,0.1,0.1H367.8z"
		/>
	<path class="st0" d="M383.7,408.3c0,2.6,0,4,0.4,4.4c0.4,0.3,0.9,0.4,2.5,0.4c1.1,0,1.9,0,2.4-0.6c0.2-0.3,0.5-0.8,0.5-1.2
		c0-0.2,0.1-0.3,0.2-0.3c0.1,0,0.1,0.1,0.1,0.4c0,0.2-0.1,1.7-0.3,2.3c-0.1,0.4-0.2,0.6-1.3,0.6c-1.5,0-2.5-0.1-3.4-0.1
		c-0.9-0.1-1.7-0.1-2.5-0.1c-0.2,0-0.7,0-1.2,0c-0.4,0-1,0.1-1.4,0.1c-0.3,0-0.4-0.1-0.4-0.2c0-0.1,0.1-0.1,0.3-0.1
		c0.3,0,0.6-0.1,0.7-0.1c0.4-0.1,0.5-0.5,0.6-1.1c0.1-0.9,0.1-2.5,0.1-4.4v-3.6c0-3.1,0-3.6-0.1-4.3c-0.1-0.7-0.2-1-0.9-1.2
		c-0.1-0.1-0.4-0.1-0.7-0.1s-0.4-0.1-0.4-0.2s0.1-0.2,0.4-0.2c0.9,0,2.3,0.1,2.8,0.1c0.5,0,2-0.1,2.8-0.1c0.3,0,0.4,0.1,0.4,0.2
		s-0.1,0.2-0.4,0.2s-0.6,0-0.8,0.1c-0.6,0.1-0.7,0.4-0.7,1.2c-0.1,0.7-0.1,1.2-0.1,4.3v3.6H383.7z"/>
	<path class="st0" d="M404.1,413.9c-0.3-0.1-0.4-0.2-0.4-0.7c0-1.1,0.1-2.3,0.1-2.7c0-0.3,0.1-0.5,0.2-0.5c0.2,0,0.2,0.2,0.2,0.4
		c0,0.3,0.1,0.7,0.2,1c0.4,1.5,1.7,2,2.9,2c1.8,0,2.8-1.2,2.8-2.3c0-1-0.3-2-2-3.3l-0.9-0.7c-2.3-1.7-3-3.2-3-4.8
		c0-2.3,1.9-3.9,4.7-3.9c1.3,0,2.2,0.2,2.7,0.4c0.2,0.1,0.3,0.1,0.3,0.2c0,0.3-0.1,0.9-0.1,2.5c0,0.4-0.1,0.6-0.2,0.6
		s-0.2-0.1-0.2-0.4c0-0.2-0.1-0.8-0.5-1.3c-0.3-0.4-0.9-1-2.3-1c-1.5,0-2.4,0.9-2.4,2.1c0,0.9,0.4,1.7,2.2,2.9l0.6,0.4
		c2.5,1.8,3.3,3.3,3.3,5.2c0,1.2-0.4,2.6-1.9,3.6c-1,0.7-2.2,0.8-3.3,0.8C405.8,414.5,404.9,414.4,404.1,413.9z"/>
	<path class="st0" d="M421.1,404.7c0-3.1,0-3.6-0.1-4.3c-0.1-0.7-0.2-1-0.9-1.2c-0.1-0.1-0.5-0.1-0.8-0.1c-0.2,0-0.4-0.1-0.4-0.2
		s0.1-0.2,0.4-0.2c0.6,0,1.2,0,1.7,0s1,0.1,1.3,0.1c0.7,0,4.7,0,5.1,0c0.4-0.1,0.7-0.1,0.9-0.1c0.1,0,0.2-0.1,0.3-0.1
		s0.1,0.1,0.1,0.2c0,0.1-0.1,0.4-0.1,1.3c0,0.2-0.1,1.1-0.1,1.3c0,0.1-0.1,0.2-0.2,0.2c-0.1,0-0.2-0.1-0.2-0.3c0-0.1,0-0.5-0.1-0.7
		c-0.1-0.4-0.4-0.6-1.4-0.7c-0.4-0.1-2.5-0.1-2.9-0.1c-0.1,0-0.1,0.1-0.1,0.2v5.2c0,0.1,0,0.2,0.1,0.2c0.4,0,2.8,0,3.3-0.1
		c0.5-0.1,0.8-0.1,0.9-0.3c0.1-0.1,0.2-0.3,0.3-0.3s0.1,0.1,0.1,0.1s-0.1,0.4-0.1,1.5c0,0.4-0.1,1.2-0.1,1.4c0,0.1,0,0.4-0.2,0.4
		c-0.1,0-0.2-0.1-0.2-0.2c0-0.2,0-0.4-0.1-0.7c-0.1-0.4-0.4-0.7-1.2-0.8c-0.4-0.1-2.4-0.1-2.9-0.1c-0.1,0-0.1,0.1-0.1,0.2v1.6
		c0,0.7,0,2.5,0,3.1c0.1,1.4,0.4,1.7,2.5,1.7c0.5,0,1.4,0,1.9-0.2c0.5-0.2,0.8-0.7,0.9-1.5c0.1-0.2,0.1-0.3,0.2-0.3s0.1,0.1,0.1,0.4
		c0,0.4-0.1,1.8-0.3,2.3c-0.1,0.5-0.3,0.5-1.1,0.5c-1.5,0-2.6-0.1-3.5-0.1c-0.9-0.1-1.5-0.1-2.1-0.1c-0.2,0-0.7,0-1.2,0
		c-0.4,0-1,0.1-1.4,0.1c-0.3,0-0.4-0.1-0.4-0.2c0-0.1,0.1-0.1,0.3-0.1c0.3,0,0.6-0.1,0.7-0.1c0.4-0.1,0.5-0.5,0.6-1.1
		c0.1-0.9,0.1-2.5,0.1-4.4v-3.4H421.1z"/>
	<path class="st0" d="M440.6,408.3c0,2.6,0,4,0.4,4.4c0.4,0.3,0.9,0.4,2.5,0.4c1.1,0,1.9,0,2.4-0.6c0.2-0.3,0.5-0.8,0.5-1.2
		c0-0.2,0.1-0.3,0.2-0.3c0.1,0,0.1,0.1,0.1,0.4c0,0.2-0.1,1.7-0.3,2.3c-0.1,0.4-0.2,0.6-1.3,0.6c-1.5,0-2.5-0.1-3.4-0.1
		c-0.9-0.1-1.7-0.1-2.5-0.1c-0.2,0-0.7,0-1.2,0c-0.4,0-1,0.1-1.4,0.1c-0.3,0-0.4-0.1-0.4-0.2c0-0.1,0.1-0.1,0.3-0.1
		c0.3,0,0.6-0.1,0.7-0.1c0.4-0.1,0.5-0.5,0.6-1.1c0.1-0.9,0.1-2.5,0.1-4.4v-3.6c0-3.1,0-3.6-0.1-4.3c-0.1-0.7-0.2-1-0.9-1.2
		c-0.1-0.1-0.4-0.1-0.7-0.1s-0.4-0.1-0.4-0.2s0.1-0.2,0.4-0.2c0.9,0,2.3,0.1,2.8,0.1c0.5,0,2-0.1,2.8-0.1c0.3,0,0.4,0.1,0.4,0.2
		s-0.1,0.2-0.4,0.2s-0.6,0-0.8,0.1c-0.6,0.1-0.7,0.4-0.7,1.2c-0.1,0.7-0.1,1.2-0.1,4.3v3.6H440.6z"/>
	<path class="st0" d="M454.4,404.7c0-3.1,0-3.6-0.1-4.3c-0.1-0.7-0.2-1-0.9-1.2c-0.1-0.1-0.5-0.1-0.8-0.1c-0.2,0-0.4-0.1-0.4-0.2
		s0.1-0.2,0.4-0.2c0.6,0,1.2,0,1.7,0s1,0.1,1.3,0.1c0.7,0,4.7,0,5.1,0c0.4-0.1,0.7-0.1,0.9-0.1c0.1,0,0.2-0.1,0.3-0.1
		c0.1,0,0.1,0.1,0.1,0.2c0,0.1-0.1,0.4-0.1,1.3c0,0.2-0.1,1.1-0.1,1.3c0,0.1-0.1,0.2-0.2,0.2s-0.2-0.1-0.2-0.3c0-0.1,0-0.5-0.1-0.7
		c-0.1-0.4-0.4-0.6-1.4-0.7c-0.4-0.1-2.5-0.1-2.9-0.1c-0.1,0-0.1,0.1-0.1,0.2v5.2c0,0.1,0,0.2,0.1,0.2c0.4,0,2.8,0,3.3-0.1
		c0.5-0.1,0.8-0.1,0.9-0.3c0.1-0.1,0.2-0.3,0.3-0.3c0.1,0,0.1,0.1,0.1,0.1s-0.1,0.4-0.1,1.5c0,0.4-0.1,1.2-0.1,1.4
		c0,0.1,0,0.4-0.2,0.4c-0.1,0-0.2-0.1-0.2-0.2c0-0.2,0-0.4-0.1-0.7c-0.1-0.4-0.4-0.7-1.2-0.8c-0.4-0.1-2.4-0.1-2.9-0.1
		c-0.1,0-0.1,0.1-0.1,0.2v1.6c0,0.7,0,2.5,0,3.1c0.1,1.4,0.4,1.7,2.5,1.7c0.5,0,1.4,0,1.9-0.2c0.5-0.2,0.8-0.7,0.9-1.5
		c0.1-0.2,0.1-0.3,0.2-0.3c0.1,0,0.1,0.1,0.1,0.4c0,0.4-0.1,1.8-0.3,2.3c-0.1,0.5-0.3,0.5-1.1,0.5c-1.5,0-2.6-0.1-3.5-0.1
		c-0.9-0.1-1.5-0.1-2.1-0.1c-0.2,0-0.7,0-1.2,0c-0.4,0-1,0.1-1.4,0.1c-0.3,0-0.4-0.1-0.4-0.2c0-0.1,0.1-0.1,0.3-0.1
		c0.3,0,0.6-0.1,0.7-0.1c0.4-0.1,0.5-0.5,0.6-1.1c0.1-0.9,0.1-2.5,0.1-4.4v-3.4H454.4z"/>
	<path class="st0" d="M471.6,412.3c-2-1.7-2.5-4-2.5-6c0-1.4,0.4-3.8,2.4-5.6c1.5-1.3,3.4-2.2,6.4-2.2c1.2,0,2,0.1,3,0.2
		c0.8,0.1,1.5,0.3,2,0.4c0.2,0,0.3,0.1,0.3,0.2c0,0.1-0.1,0.4-0.1,1.1c-0.1,0.7,0,1.8-0.1,2.2c0,0.3-0.1,0.4-0.2,0.4
		c-0.1,0-0.2-0.1-0.2-0.4c0-0.7-0.3-1.3-0.8-1.9c-0.7-0.7-2.3-1.2-4.1-1.2c-1.7,0-2.9,0.4-3.9,1.2c-1.5,1.4-1.9,3.3-1.9,5.3
		c0,4.9,3.7,7.3,6.4,7.3c1.8,0,2.9-0.2,3.7-1.2c0.4-0.4,0.6-0.9,0.7-1.3c0.1-0.3,0.1-0.4,0.3-0.4c0.1,0,0.2,0.1,0.2,0.3
		c0,0.2-0.2,2-0.4,2.7c-0.1,0.4-0.2,0.4-0.5,0.6c-0.8,0.3-2.3,0.4-3.6,0.4C475.9,414.5,473.5,413.9,471.6,412.3z"/>
	<path class="st0" d="M494.3,400l-3.1,0.1c-1.2,0.1-1.7,0.1-2,0.6c-0.2,0.3-0.3,0.6-0.4,0.7c-0.1,0.1-0.1,0.2-0.2,0.2
		c-0.1,0-0.2-0.1-0.2-0.3c0-0.3,0.4-2.2,0.4-2.3c0.1-0.3,0.1-0.4,0.2-0.4c0.1,0,0.4,0.2,0.9,0.2c0.6,0.1,1.4,0.1,2,0.1h8.1
		c0.7,0,1.1-0.1,1.4-0.1c0.3-0.1,0.4-0.1,0.6-0.1c0.1,0,0.1,0.1,0.1,0.4c0,0.4-0.1,1.8-0.1,2.3c0,0.2-0.1,0.3-0.2,0.3
		s-0.2-0.1-0.2-0.4v-0.2c-0.1-0.5-0.6-1.1-2.4-1.2l-2.5-0.1v8.4c0,1.9,0,3.5,0.1,4.4c0.1,0.6,0.2,1,0.8,1.1c0.3,0.1,0.7,0.1,1,0.1
		c0.2,0,0.3,0.1,0.3,0.1c0,0.1-0.1,0.2-0.4,0.2c-1.3,0-2.6-0.1-3.2-0.1c-0.4,0-1.7,0.1-2.5,0.1c-0.3,0-0.4-0.1-0.4-0.2
		c0-0.1,0.1-0.1,0.3-0.1c0.3,0,0.6-0.1,0.7-0.1c0.4-0.1,0.5-0.5,0.6-1.1c0.1-0.9,0.1-2.5,0.1-4.4V400H494.3z"/>
	<path class="st0" d="M510.2,404.7c0-3.1,0-3.6-0.1-4.3c-0.1-0.7-0.2-1-0.7-1.2c-0.2-0.1-0.5-0.1-0.7-0.1s-0.3-0.1-0.3-0.2
		s0.1-0.1,0.5-0.1c0.8,0,2,0.1,2.6,0.1c0.5,0,1.7-0.1,2.5-0.1c0.3,0,0.4,0.1,0.4,0.1c0,0.1-0.1,0.2-0.3,0.2c-0.2,0-0.4,0-0.6,0.1
		c-0.6,0.1-0.7,0.4-0.7,1.2c-0.1,0.7-0.1,1.2-0.1,4.3v3.6c0,2,0,3.6,0.1,4.4c0.1,0.6,0.2,0.9,0.8,1c0.3,0.1,0.7,0.1,1,0.1
		c0.2,0,0.3,0.1,0.3,0.1c0,0.1-0.1,0.2-0.4,0.2c-1.3,0-2.6-0.1-3.2-0.1c-0.4,0-1.7,0.1-2.5,0.1c-0.3,0-0.4-0.1-0.4-0.2
		c0-0.1,0.1-0.1,0.3-0.1c0.3,0,0.6-0.1,0.7-0.1c0.4-0.1,0.5-0.4,0.6-1c0.1-0.9,0.1-2.5,0.1-4.4v-3.6H510.2z"/>
	<path class="st0" d="M521,406.5c0-3.5,2.3-8,8.4-8c5.1,0,8.2,3,8.2,7.6s-3.3,8.4-8.4,8.4C523.3,414.5,521,410.2,521,406.5z
		 M534.8,406.9c0-4.6-2.6-7.4-6-7.4c-2.3,0-5,1.3-5,6.4c0,4.2,2.3,7.6,6.3,7.6C531.5,413.5,534.8,412.8,534.8,406.9z"/>
	<path class="st0" d="M547.1,411.5c0.1,1.6,0.3,2.1,0.7,2.3c0.4,0.1,0.7,0.1,1.1,0.1c0.2,0,0.4,0.1,0.4,0.1c0,0.1-0.2,0.2-0.4,0.2
		c-1.3,0-2.1-0.1-2.5-0.1c-0.2,0-1.2,0.1-2.2,0.1c-0.3,0-0.4,0-0.4-0.2c0-0.1,0.1-0.1,0.3-0.1c0.3,0,0.7,0,0.9-0.1
		c0.5-0.1,0.6-0.7,0.7-2.5l0.2-12c0-0.4,0.1-0.7,0.3-0.7c0.2,0,0.4,0.3,0.7,0.7c0.2,0.3,3.3,3.5,6.3,6.5c1.4,1.4,4.1,4.3,4.5,4.7
		h0.1l-0.2-9.2c0-1.2-0.2-1.6-0.7-1.8c-0.3-0.1-0.8-0.1-1.1-0.1c-0.2,0-0.3-0.1-0.3-0.2c0-0.1,0.2-0.2,0.5-0.2c1.1,0,2,0.1,2.5,0.1
		c0.2,0,1-0.1,2-0.1c0.3,0,0.4,0,0.4,0.2c0,0.1-0.1,0.2-0.4,0.2c-0.2,0-0.4,0-0.6,0.1c-0.6,0.1-0.7,0.6-0.7,1.7l-0.2,12.9
		c0,0.4-0.1,0.7-0.3,0.7s-0.4-0.2-0.7-0.4c-1.3-1.2-3.9-3.9-6-6c-2.3-2.2-4.5-4.7-4.9-5.1h-0.1L547.1,411.5z"/>
</g>
<path class="st0" d="M582,301.3c0,0,0.8,0.4,2.3,1.1c1.5,0.7,3.7,1.8,6.3,3.4c5.3,3.2,12.7,8.2,20.4,15.6c3.9,3.7,7.8,8,11.6,12.8
	c3.8,4.9,7.3,10.3,10.3,16.4c3.1,6,5.5,12.6,7,19.6c1.5,6.9,2.3,14.2,1.9,21.4c-0.1,1.8-0.3,3.6-0.4,5.4c-0.3,1.7-0.4,3.6-0.8,5.3
	l-0.5,2.6l-0.3,1.3l-0.1,0.4v0.1v0.1v0.1l-0.1,0.7c-0.4,1.7-0.9,3.3-1.4,5.1c-2.1,6.9-5.2,13.2-8.9,18.9
	c-3.7,5.7-8.1,10.6-12.7,14.8c-1.2,0.9-2.4,2-3.6,2.9l-0.9,0.7c-0.3,0.2-0.6,0.4-0.9,0.7c-0.6,0.4-1.2,0.8-1.8,1.2
	c-2.4,1.7-4.9,3-7.2,4.3c-0.3,0.1-0.6,0.4-0.9,0.5c-0.3,0.1-0.6,0.3-0.9,0.4c-0.6,0.3-1.2,0.5-1.8,0.8c-1.2,0.5-2.3,1.1-3.4,1.5
	c-1.2,0.4-2.3,0.8-3.3,1.2c-0.5,0.2-1.1,0.4-1.6,0.6c-0.5,0.2-1,0.4-1.6,0.5c-2.1,0.6-4.1,1.1-5.9,1.5c-1.8,0.4-3.6,0.7-5.1,0.9
	c-0.8,0.1-1.5,0.3-2.2,0.4c-0.7,0.1-1.3,0.1-2,0.2c-1.2,0.1-2.3,0.2-3.1,0.3c-1.7,0.1-2.5,0.3-2.5,0.3s0.9-0.1,2.5-0.5
	c0.8-0.1,1.8-0.4,3-0.6c0.6-0.1,1.2-0.2,1.9-0.4c0.7-0.1,1.4-0.4,2.1-0.6c1.5-0.4,3.1-0.8,4.9-1.3c1.7-0.6,3.6-1.2,5.7-1.9
	c0.5-0.1,1-0.4,1.5-0.6c0.5-0.2,1-0.4,1.5-0.7c1-0.4,2.1-0.9,3.2-1.3c1.1-0.5,2.2-1.1,3.3-1.7c0.6-0.3,1.1-0.6,1.7-0.9
	c0.3-0.1,0.6-0.3,0.9-0.4c0.3-0.1,0.6-0.4,0.9-0.5c4.6-2.6,9.2-5.9,13.6-9.9c4.4-4.1,8.4-8.9,11.9-14.3c0.4-0.7,0.9-1.4,1.3-2.1
	l0.7-1c0.2-0.4,0.4-0.7,0.6-1.1c0.4-0.7,0.7-1.5,1.2-2.2l0.6-1.1c0.2-0.4,0.4-0.7,0.5-1.2c0.7-1.5,1.3-3.1,2-4.7
	c0.6-1.6,1.1-3.2,1.7-4.7c0.5-1.7,0.9-3.3,1.5-5l0.1-0.7l0.1-0.6l0.3-1.2l0.5-2.5c0.4-1.7,0.5-3.4,0.8-5.2c0.2-1.7,0.3-3.5,0.4-5.2
	c0.4-6.9-0.1-13.9-1.5-20.6c-0.2-0.8-0.4-1.7-0.5-2.5c-0.2-0.8-0.4-1.7-0.7-2.5c-0.4-1.7-1-3.3-1.5-4.9c-0.5-1.6-1.2-3.1-1.7-4.7
	c-0.7-1.5-1.3-3.1-2-4.5c-2.8-5.9-6.2-11.3-9.7-16.2c-3.6-4.9-7.3-9.2-11-12.9c-7.3-7.6-14.5-12.9-19.6-16.3
	c-2.5-1.7-4.7-2.9-6.1-3.7C582.8,301.6,582,301.3,582,301.3z"/>
<path class="st0" d="M570.5,292.4c2,6.6,5,8.5,6.3,9.3c1.2,0.8,4.4,0.5,7.4,0.7C581.3,292.8,575.1,296.1,570.5,292.4z"/>
<path class="st0" d="M599.9,284.2"/>
<path class="st0" d="M611.3,301.9c2.2,1.9,6.5,5.8,7.1,7.6c1,2.9-0.8,7.1-1.9,10.6c-1.5-2.2-4.9-6-5.7-8.2
	C610.2,308.9,611.3,304.3,611.3,301.9z"/>
<path class="st0" d="M596.5,294.2c-0.5,2.8,0.1,8.7,1.9,10.9c1.7,2.2,4.6,3.9,6.5,4.5c0.8-4.5-0.3-6.4-1.2-8.4
	C602.8,299.2,598.8,296.2,596.5,294.2z"/>
<path class="st0" d="M588.4,318.4c1.3-1.2,5.7-3.1,7.6-2.8c1.8,0.3,3.8,1.5,4.9,2.4c-2.2,2-3.6,2.5-4.9,2.6S590.4,319.2,588.4,318.4
	z"/>
<path class="st0" d="M629.8,310.3c-2.5,3.5-6.5,11.7-5.5,15.9c0.9,4.1,3.8,8.4,6.1,10.7c4.1-5.7,5-9,5.1-12.4
	C635.6,321.1,631.3,316.7,629.8,310.3z"/>
<path class="st0" d="M648.7,328c-6,3.8-9.8,11.3-10.8,15.4c-0.9,4.1,2,12.4,3.1,15.4c6.3-3.4,7.6-8.7,8.1-12.5
	C649.8,343,647.3,334.3,648.7,328z"/>
<path class="st0" d="M659,354.3c2,5,1.2,16.3-1.4,22.8c-2,4.9-7.1,9.2-10.6,11.2c-3.3-8.3-1.7-14.1-0.9-18.3
	C647,365.9,655.4,359.1,659,354.3z"/>
<path class="st0" d="M670.1,388.9c-8.1-0.5-16.6,3.9-20.1,7.1c-3.6,3.2-6.5,12.7-7.5,16.3c8,1,12.7-2.9,15.9-6.1
	C661.1,403.5,664.5,393.8,670.1,388.9z"/>
<path class="st0" d="M667.3,428.5c-6.4-4.9-17.1-5.6-21.9-5c-4.8,0.7-11.3,8.9-14,11.2c7.6,4.1,14,3.6,18,1.5
	C653.3,433.9,660,429.4,667.3,428.5z"/>
<path class="st0" d="M653.3,451.2c-4.5,3.4-16.1,7.9-21.5,6.8c-5.5-1.2-11.3-4.7-14.3-7.7c7.5-5.7,11.9-5.4,16.4-5.6
	C638.3,444.4,647.5,448.9,653.3,451.2z"/>
<path class="st0" d="M613.5,392.3c-2,5.3-3.1,17.6-0.4,22.5c2.6,4.9,7.7,9.5,11.4,11.5c3.3-8.8,1.8-12.9,0.8-17.2
	C624.2,404.8,617.4,397.3,613.5,392.3z"/>
<path class="st0" d="M604.4,414.8c7.8,8.6,8.7,17.8,7.8,22.5c-1.3,7-11.1,9-13,12.1c-2.5-10.2,1.7-13,3.6-17.2
	C605.5,425.9,604.4,422.2,604.4,414.8z"/>
<path class="st0" d="M609.9,345.6c3.2,0.1,8.4-0.4,10.7,0.6c4.1,1.7,5.2,4.4,7.1,7.7C614.3,355.8,617.4,350.7,609.9,345.6z"/>
<path class="st0" d="M620.6,373.5c3.3,2,10.6,5.7,13.2,11.1c3.9,8-0.2,12.7-0.4,17.3C623.7,393.8,626.6,382.2,620.6,373.5z"/>
<path class="st0" d="M614.3,360.4c2.6-0.5,8.1-1.9,11.9,0c5.7,2.8,5.8,7.7,7.8,10.5C625.3,371,621.5,362.6,614.3,360.4z"/>
<path class="st0" d="M575.9,459.6c-0.1-17.7,12.3-19.3,14.8-32.8c2,7.1,2.7,20.3-0.3,24.9C586.9,457.1,581.9,459.6,575.9,459.6z"/>
<path class="st0" d="M633.8,472.7c-16.9,2.2-30.9,0.7-33.7-10.8C621.4,451.9,620.1,467.8,633.8,472.7z"/>
<path class="st0" d="M573.7,469.6c11.6,17.6,24.9,10.9,36.2,22.7c-2.7-8.3-10.7-21.8-16.7-24.4C586.2,464.9,579.6,465.7,573.7,469.6
	z"/>
<path class="st0" d="M595.5,326.1c2-1.4,7.2-3.1,9.6-2.5c2.4,0.6,4.9,2.3,6.1,3.7c-3.4,2.3-5.4,2.1-7.3,2.1
	C602,329.4,598,327.2,595.5,326.1z"/>
<path class="st0" d="M600.8,335.8c2.5-1.5,8.8-3.2,11.6-2.3c2.8,0.9,5.6,3.1,7,4.8c-4.2,2.5-6.5,2.2-8.9,2
	C608.2,340.2,603.7,337.4,600.8,335.8z"/>
<path class="st0" d="M589.7,309.9c-4.5,5.2-6.9-0.7-12.3-0.9C584.6,305.9,587.3,306.8,589.7,309.9z"/>
<path class="st0" d="M592.9,303.6c2.2-6.5-4.1-5.6-7-10.1C586.9,301.3,589.1,303.2,592.9,303.6z"/>
</svg>
