<?xml version="1.0" encoding="UTF-8" standalone="no"?>
<svg width="139px" height="76px" viewBox="0 0 139 76" version="1.1" xmlns="http://www.w3.org/2000/svg" xmlns:xlink="http://www.w3.org/1999/xlink" xmlns:sketch="http://www.bohemiancoding.com/sketch/ns">
    <title>Slice 1</title>
    <description>Created with Sketch (http://www.bohemiancoding.com/sketch)</description>
    <defs></defs>
    <g id="Page-1" stroke="none" stroke-width="1" fill="none" fill-rule="evenodd" sketch:type="MSPage">
        <g id="siffLaurel-white" sketch:type="MSLayerGroup" fill="#FFFFFF">
            <g id="Group" transform="translate(36.000000, 14.000000)" sketch:type="MSShapeGroup">
                <path d="M5.1,4.1 C5.1,6.1 4.7,8.2 2.6,8.2 C0.4,8.2 0.1,6.1 0.1,4.1 C0.1,2.1 0.5,1.77635684e-15 2.6,1.77635684e-15 C4.7,0 5.1,2.1 5.1,4.1 L5.1,4.1 Z M1.1,4.1 C1.1,5.9 1.3,7.4 2.6,7.4 C3.9,7.4 4.1,5.9 4.1,4.1 C4.1,2.3 3.9,0.8 2.6,0.8 C1.2,0.8 1.1,2.3 1.1,4.1 L1.1,4.1 Z" id="Shape"></path>
                <path d="M6.5,2.9 L5.6,2.9 L5.6,2.2 L6.5,2.2 L6.5,1.5 C6.5,0.6 6.9,0.1 7.8,0.1 L8.5,0.1 L8.5,0.9 L8,0.9 C7.6,0.9 7.4,1.1 7.4,1.5 L7.4,2.2 L8.4,2.2 L8.4,2.9 L7.4,2.9 L7.4,8 L6.5,8 L6.5,2.9 L6.5,2.9 Z" id="Shape"></path>
                <path d="M9.4,2.9 L8.5,2.9 L8.5,2.2 L9.4,2.2 L9.4,1.5 C9.4,0.6 9.8,0.1 10.7,0.1 L11.4,0.1 L11.4,0.9 L11,0.9 C10.6,0.9 10.4,1.1 10.4,1.5 L10.4,2.2 L11.4,2.2 L11.4,2.9 L10.4,2.9 L10.4,8 L9.5,8 L9.5,2.9 L9.4,2.9 Z M12,0.2 L12.9,0.2 L12.9,1.3 L12,1.3 L12,0.2 L12,0.2 Z M12,2.2 L12.9,2.2 L12.9,8 L12,8 L12,2.2 L12,2.2 Z" id="Shape"></path>
                <path d="M17,3.9 C17,3.3 16.8,2.7 16.1,2.7 C15.5,2.7 14.9,3 14.9,5.1 C14.9,5.9 14.9,7.4 16,7.4 C16.8,7.4 17,6.6 17,5.9 L17.9,5.9 C17.9,6.8 17.4,8.1 16,8.1 C14.5,8.1 14,7.1 14,5.1 C14,3.6 14.3,1.9 16.1,1.9 C17.7,1.9 18,3.2 18,3.8 L17,3.8 L17,3.9 Z" id="Shape"></path>
                <path d="M18.9,0.2 L19.8,0.2 L19.8,1.3 L18.9,1.3 L18.9,0.2 L18.9,0.2 Z M18.9,2.2 L19.8,2.2 L19.8,8 L18.9,8 L18.9,2.2 L18.9,2.2 Z" id="Shape"></path>
                <path d="M21,3.9 C21,2.6 21.6,2 23,2 C24.8,2 24.8,3.1 24.8,3.7 L24.8,7 C24.8,7.3 24.8,7.5 25.1,7.5 C25.2,7.5 25.3,7.5 25.3,7.4 L25.3,8.1 C25.2,8.1 25,8.2 24.8,8.2 C24.5,8.2 24,8.2 24,7.4 L24,7.4 C23.7,7.9 23.1,8.2 22.6,8.2 C21.5,8.2 21,7.5 21,6.5 C21,5.7 21.4,5.1 22.1,4.9 L23.3,4.5 C24,4.3 24,4.1 24,3.6 C24,3 23.7,2.7 23.1,2.7 C22.1,2.7 22.1,3.6 22.1,3.9 L22.1,4 L21,4 L21,3.9 Z M23.8,4.8 C23.4,5.2 22.6,5.2 22.2,5.5 C21.9,5.7 21.7,5.9 21.7,6.4 C21.7,7 21.9,7.4 22.5,7.4 C23.1,7.4 23.7,6.9 23.7,6.3 L23.7,4.8 L23.8,4.8 Z" id="Shape"></path>
                <path d="M26.1,0.2 L27,0.2 L27,8 L26.1,8 L26.1,0.2 L26.1,0.2 Z" id="Shape"></path>
                <path d="M34.2,2.2 C34.2,1.4 33.9,0.8 33,0.8 C32.2,0.8 31.7,1.2 31.7,2.1 C31.7,4.3 35.4,3 35.4,5.9 C35.4,7.7 34.1,8.2 33,8.2 C31.2,8.2 30.6,7.3 30.6,5.6 L31.6,5.6 C31.6,6.5 31.7,7.4 33.1,7.4 C33.9,7.4 34.5,6.8 34.5,6 C34.5,3.8 30.8,5.1 30.8,2.2 C30.8,1.5 31.1,1.77635684e-15 33.1,1.77635684e-15 C34.6,1.77635684e-15 35.3,0.7 35.3,2.2 L34.2,2.2 L34.2,2.2 Z" id="Shape"></path>
                <path d="M37.2,5.2 C37.2,6.1 37.2,7.5 38.3,7.5 C39.2,7.5 39.3,6.6 39.3,6.1 L40.2,6.1 C40.2,6.7 39.8,8.2 38.2,8.2 C36.7,8.2 36.2,7.2 36.2,5.2 C36.2,3.7 36.5,2 38.3,2 C40.1,2 40.3,3.6 40.3,4.8 L40.3,5.2 L37.2,5.2 L37.2,5.2 Z M39.3,4.5 L39.3,4.2 C39.3,3.5 39.1,2.8 38.3,2.8 C37.3,2.8 37.2,4 37.2,4.3 L37.2,4.5 L39.3,4.5 L39.3,4.5 Z" id="Shape"></path>
                <path d="M41.3,0.2 L42.2,0.2 L42.2,8 L41.3,8 L41.3,0.2 L41.3,0.2 Z" id="Shape"></path>
                <path d="M44.3,5.2 C44.3,6.1 44.3,7.5 45.4,7.5 C46.3,7.5 46.4,6.6 46.4,6.1 L47.3,6.1 C47.3,6.7 46.9,8.2 45.3,8.2 C43.8,8.2 43.3,7.2 43.3,5.2 C43.3,3.7 43.6,2 45.4,2 C47.2,2 47.4,3.6 47.4,4.8 L47.4,5.2 L44.3,5.2 L44.3,5.2 Z M46.4,4.5 L46.4,4.2 C46.4,3.5 46.2,2.8 45.4,2.8 C44.4,2.8 44.3,4 44.3,4.3 L44.3,4.5 L46.4,4.5 L46.4,4.5 Z" id="Shape"></path>
                <path d="M51.2,3.9 C51.2,3.3 51,2.7 50.3,2.7 C49.7,2.7 49.1,3 49.1,5.1 C49.1,5.9 49.1,7.4 50.2,7.4 C51,7.4 51.2,6.6 51.2,5.9 L52.1,5.9 C52.1,6.8 51.6,8.1 50.2,8.1 C48.7,8.1 48.2,7.1 48.2,5.1 C48.2,3.6 48.5,1.9 50.3,1.9 C51.9,1.9 52.2,3.2 52.2,3.8 L51.2,3.8 L51.2,3.9 Z" id="Shape"></path>
                <path d="M53.4,0.4 L54.3,0.4 L54.3,2.1 L55.3,2.1 L55.3,2.8 L54.3,2.8 L54.3,6.6 C54.3,7.1 54.4,7.3 54.9,7.3 L55.3,7.3 L55.3,8 C55.2,8 54.9,8.1 54.6,8.1 C53.6,8.1 53.4,7.7 53.4,6.9 L53.4,2.8 L52.5,2.8 L52.5,2.1 L53.4,2.1 L53.4,0.4 L53.4,0.4 Z" id="Shape"></path>
                <path d="M56,0.2 L56.9,0.2 L56.9,1.3 L56,1.3 L56,0.2 L56,0.2 Z M56,2.2 L56.9,2.2 L56.9,8 L56,8 L56,2.2 L56,2.2 Z" id="Shape"></path>
                <path d="M60,2 C61.7,2 62.1,3.4 62.1,5.1 C62.1,6.8 61.7,8.2 60,8.2 C58.3,8.2 57.9,6.8 57.9,5.1 C57.9,3.4 58.3,2 60,2 L60,2 Z M61.2,5.1 C61.2,3.8 61,2.7 60,2.7 C59.1,2.7 58.9,3.8 58.9,5.1 C58.9,6.4 59.1,7.5 60,7.5 C61,7.5 61.2,6.4 61.2,5.1 L61.2,5.1 Z" id="Shape"></path>
                <path d="M63.1,2.2 L64,2.2 L64,2.9 C64.3,2.4 64.9,2.1 65.4,2.1 C67,2.1 67,3.3 67,4 L67,8 L66,8 L66,4 C66,3.5 66,2.8 65.1,2.8 C64.6,2.8 63.9,3.1 63.9,4 L63.9,8 L63,8 L63,2.2 L63.1,2.2 Z" id="Shape"></path>
            </g>
            <g id="Group" transform="translate(15.000000, 27.000000)" sketch:type="MSShapeGroup">
                <path d="M1.7,6.5 L1.7,6.8 C1.7,7.6 2,8.2 3,8.2 C3.6,8.2 4.2,7.9 4.2,7.1 C4.2,6.3 3.8,6 2.4,5.6 C0.6,5.1 -0.2,4.4 -0.2,2.9 C-0.2,1.2 1,0.3 2.8,0.3 C4.6,0.3 5.8,1 5.8,2.7 L5.8,2.9 L3.9,2.9 C3.9,2.1 3.6,1.6 2.8,1.6 C1.9,1.6 1.7,2.1 1.7,2.6 C1.7,3.1 1.9,3.5 2.7,3.8 L4.2,4.4 C5.7,5 6.1,5.7 6.1,6.8 C6.1,8.7 4.8,9.5 2.7,9.5 C0.5,9.5 -0.4,8.6 -0.4,6.9 L-0.4,6.5 L1.7,6.5 L1.7,6.5 Z" id="Shape"></path>
                <path d="M8.8,6.2 L8.8,6.7 C8.8,7.5 9,8.3 9.7,8.3 C10.3,8.3 10.6,7.9 10.7,7 L12.4,7 C12.3,8.6 11.5,9.4 9.7,9.4 C7,9.4 6.9,7.5 6.9,5.8 C6.9,4 7.3,2.3 9.8,2.3 C12,2.3 12.5,3.6 12.5,5.7 L12.5,6.1 L8.8,6.1 L8.8,6.2 Z M10.8,5.1 C10.8,4.1 10.6,3.5 9.8,3.5 C9,3.5 8.8,4.2 8.8,4.8 L8.8,5.1 L10.8,5.1 L10.8,5.1 Z" id="Shape"></path>
                <path d="M13.5,4.6 L13.5,4.4 C13.5,2.9 14.7,2.3 16.1,2.3 C18.3,2.3 18.8,3.1 18.8,4.4 L18.8,8 C18.8,8.6 18.9,8.9 19,9.3 L17.2,9.3 C17.1,9 17,8.8 17,8.5 L17,8.5 C16.6,9.2 16,9.4 15.1,9.4 C13.8,9.4 13.3,8.4 13.3,7.5 C13.3,6.2 13.9,5.7 15.2,5.4 L16.3,5.1 C16.9,5 17.1,4.8 17.1,4.3 C17.1,3.8 16.9,3.5 16.2,3.5 C15.6,3.5 15.3,3.8 15.3,4.4 L15.3,4.6 L13.5,4.6 L13.5,4.6 Z M17,5.9 C16.7,6.1 16.4,6.2 16.2,6.2 C15.4,6.3 15.1,6.7 15.1,7.3 C15.1,7.8 15.3,8.2 15.8,8.2 C16.3,8.2 17,7.9 17,7.2 L17,5.9 L17,5.9 Z" id="Shape"></path>
                <path d="M20.5,0.6 L22.4,0.6 L22.4,2.5 L23.5,2.5 L23.5,3.7 L22.4,3.7 L22.4,7.3 C22.4,7.8 22.5,8 23.1,8 L23.5,8 L23.5,9.2 C23.1,9.2 22.7,9.3 22.3,9.3 C20.8,9.3 20.5,8.9 20.5,7.5 L20.5,3.7 L19.5,3.7 L19.5,2.5 L20.5,2.5 L20.5,0.6 L20.5,0.6 Z" id="Shape"></path>
                <path d="M24.6,0.6 L26.5,0.6 L26.5,2.5 L27.6,2.5 L27.6,3.7 L26.5,3.7 L26.5,7.3 C26.5,7.8 26.6,8 27.2,8 L27.6,8 L27.6,9.2 C27.2,9.2 26.8,9.3 26.4,9.3 C24.9,9.3 24.6,8.9 24.6,7.5 L24.6,3.7 L23.6,3.7 L23.6,2.5 L24.6,2.5 L24.6,0.6 L24.6,0.6 Z" id="Shape"></path>
                <path d="M28.3,0.4 L30.2,0.4 L30.2,9.3 L28.3,9.3 L28.3,0.4 L28.3,0.4 Z" id="Shape"></path>
                <path d="M33.1,6.2 L33.1,6.7 C33.1,7.5 33.3,8.3 34,8.3 C34.6,8.3 34.9,7.9 35,7 L36.7,7 C36.6,8.6 35.8,9.4 34,9.4 C31.3,9.4 31.2,7.5 31.2,5.8 C31.2,4 31.6,2.3 34.1,2.3 C36.3,2.3 36.8,3.6 36.8,5.7 L36.8,6.1 L33.1,6.1 L33.1,6.2 Z M35.1,5.1 C35.1,4.1 34.9,3.5 34.1,3.5 C33.3,3.5 33.1,4.2 33.1,4.8 L33.1,5.1 L35.1,5.1 L35.1,5.1 Z" id="Shape"></path>
                <path d="M41.3,9.2 L41.3,0.3 L43.3,0.3 L43.3,9.2 L41.3,9.2 L41.3,9.2 Z" id="Shape"></path>
                <path d="M44.7,2.6 L46.5,2.6 L46.5,3.4 C46.9,2.7 47.6,2.4 48.4,2.4 C49.6,2.4 50.3,3 50.3,4.3 L50.3,9.3 L48.4,9.3 L48.4,4.7 C48.4,4 48.2,3.8 47.6,3.8 C46.9,3.8 46.6,4.2 46.6,4.9 L46.6,9.3 L44.7,9.3 L44.7,2.6 L44.7,2.6 Z" id="Shape"></path>
                <path d="M51.9,0.6 L53.8,0.6 L53.8,2.5 L54.9,2.5 L54.9,3.7 L53.8,3.7 L53.8,7.3 C53.8,7.8 53.9,8 54.5,8 L54.9,8 L54.9,9.2 C54.5,9.2 54.1,9.3 53.7,9.3 C52.2,9.3 51.9,8.9 51.9,7.5 L51.9,3.7 L50.9,3.7 L50.9,2.5 L51.9,2.5 L51.9,0.6 L51.9,0.6 Z" id="Shape"></path>
                <path d="M57.2,6.2 L57.2,6.7 C57.2,7.5 57.4,8.3 58.1,8.3 C58.7,8.3 59,7.9 59.1,7 L60.8,7 C60.7,8.6 59.9,9.4 58.1,9.4 C55.4,9.4 55.3,7.5 55.3,5.8 C55.3,4 55.7,2.3 58.2,2.3 C60.4,2.3 60.9,3.6 60.9,5.7 L60.9,6.1 L57.2,6.1 L57.2,6.2 Z M59.1,5.1 C59.1,4.1 58.9,3.5 58.1,3.5 C57.3,3.5 57.1,4.2 57.1,4.8 L57.1,5.1 L59.1,5.1 L59.1,5.1 Z" id="Shape"></path>
                <path d="M61.9,2.6 L63.7,2.6 L63.7,3.5 C64.1,2.9 64.6,2.4 65.4,2.4 L65.7,2.4 L65.7,4 L65.1,4 C64.4,4 63.7,4.3 63.7,5.2 L63.7,9.2 L61.8,9.2 L61.8,2.6 L61.9,2.6 Z" id="Shape"></path>
                <path d="M66.5,2.6 L68.3,2.6 L68.3,3.4 C68.7,2.7 69.4,2.4 70.2,2.4 C71.4,2.4 72.1,3 72.1,4.3 L72.1,9.3 L70.2,9.3 L70.2,4.7 C70.2,4 70,3.8 69.4,3.8 C68.7,3.8 68.4,4.2 68.4,4.9 L68.4,9.3 L66.5,9.3 L66.5,2.6 L66.5,2.6 Z" id="Shape"></path>
                <path d="M73.3,4.6 L73.3,4.4 C73.3,2.9 74.5,2.3 75.9,2.3 C78.1,2.3 78.6,3.1 78.6,4.4 L78.6,8 C78.6,8.6 78.7,8.9 78.8,9.3 L77,9.3 C76.9,9.1 76.8,8.8 76.8,8.6 L76.8,8.6 C76.4,9.3 75.8,9.5 74.9,9.5 C73.6,9.5 73.1,8.5 73.1,7.6 C73.1,6.3 73.7,5.8 75,5.5 L76.1,5.2 C76.7,5.1 76.9,4.9 76.9,4.4 C76.9,3.9 76.7,3.6 76,3.6 C75.4,3.6 75.1,3.9 75.1,4.5 L75.1,4.7 L73.3,4.7 L73.3,4.6 Z M76.8,5.9 C76.5,6.1 76.2,6.2 76,6.2 C75.2,6.3 74.9,6.7 74.9,7.3 C74.9,7.8 75.1,8.2 75.6,8.2 C76.1,8.2 76.8,7.9 76.8,7.2 L76.8,5.9 L76.8,5.9 Z" id="Shape"></path>
                <path d="M80.3,0.6 L82.2,0.6 L82.2,2.5 L83.3,2.5 L83.3,3.7 L82.2,3.7 L82.2,7.3 C82.2,7.8 82.3,8 82.9,8 L83.3,8 L83.3,9.2 C82.9,9.2 82.5,9.3 82.1,9.3 C80.6,9.3 80.3,8.9 80.3,7.5 L80.3,3.7 L79.3,3.7 L79.3,2.5 L80.3,2.5 L80.3,0.6 L80.3,0.6 Z" id="Shape"></path>
                <path d="M84,0.3 L85.9,0.3 L85.9,1.8 L84,1.8 L84,0.3 L84,0.3 Z M84,2.6 L85.9,2.6 L85.9,9.3 L84,9.3 L84,2.6 L84,2.6 Z" id="Shape"></path>
                <path d="M89.9,2.4 C92.2,2.4 92.8,3.6 92.8,5.9 C92.8,8.2 92,9.4 89.9,9.4 C87.6,9.4 87,8.2 87,5.9 C87,3.6 87.8,2.4 89.9,2.4 L89.9,2.4 Z M89.9,8.3 C90.7,8.3 90.9,7.6 90.9,5.9 C90.9,4.2 90.7,3.5 89.9,3.5 C89,3.5 88.9,4.5 88.9,5.9 C88.9,7.3 89,8.3 89.9,8.3 L89.9,8.3 Z" id="Shape"></path>
                <path d="M93.8,2.6 L95.6,2.6 L95.6,3.4 C96,2.7 96.7,2.4 97.5,2.4 C98.7,2.4 99.4,3 99.4,4.3 L99.4,9.3 L97.5,9.3 L97.5,4.7 C97.5,4 97.3,3.8 96.7,3.8 C96,3.8 95.7,4.2 95.7,4.9 L95.7,9.3 L93.8,9.3 L93.8,2.6 L93.8,2.6 Z" id="Shape"></path>
                <path d="M100.7,4.6 L100.7,4.4 C100.7,2.9 101.9,2.3 103.3,2.3 C105.5,2.3 106,3.1 106,4.4 L106,8 C106,8.6 106.1,8.9 106.2,9.3 L104.4,9.3 C104.3,9.1 104.2,8.8 104.2,8.6 L104.2,8.6 C103.8,9.3 103.2,9.5 102.3,9.5 C101,9.5 100.5,8.5 100.5,7.6 C100.5,6.3 101.1,5.8 102.4,5.5 L103.5,5.2 C104.1,5.1 104.3,4.9 104.3,4.4 C104.3,3.9 104.1,3.6 103.4,3.6 C102.8,3.6 102.5,3.9 102.5,4.5 L102.5,4.7 L100.7,4.7 L100.7,4.6 Z M104.1,5.9 C103.8,6.1 103.5,6.2 103.3,6.2 C102.5,6.3 102.2,6.7 102.2,7.3 C102.2,7.8 102.4,8.2 102.9,8.2 C103.4,8.2 104.1,7.9 104.1,7.2 L104.1,5.9 L104.1,5.9 Z" id="Shape"></path>
                <path d="M107.3,0.4 L109.2,0.4 L109.2,9.3 L107.3,9.3 L107.3,0.4 L107.3,0.4 Z" id="Shape"></path>
                <path d="M21.3,12.8 L26.8,12.8 L26.8,14.3 L23.3,14.3 L23.3,16.4 L26.6,16.4 L26.6,17.9 L23.3,17.9 L23.3,21.8 L21.3,21.8 L21.3,12.8 L21.3,12.8 Z" id="Shape"></path>
                <path d="M27.7,12.7 L29.6,12.7 L29.6,14.2 L27.7,14.2 L27.7,12.7 L27.7,12.7 Z M27.7,15 L29.6,15 L29.6,21.7 L27.7,21.7 L27.7,15 L27.7,15 Z" id="Shape"></path>
                <path d="M31,12.8 L32.9,12.8 L32.9,21.7 L31,21.7 L31,12.8 L31,12.8 Z" id="Shape"></path>
                <path d="M34.2,15 L36,15 L36,15.7 C36.5,15.1 37.1,14.8 37.9,14.8 C38.8,14.8 39.4,15.2 39.6,15.9 L39.6,15.9 C39.9,15.2 40.6,14.8 41.5,14.8 C42.8,14.8 43.3,15.5 43.3,16.8 L43.3,21.7 L41.4,21.7 L41.4,17 C41.4,16.4 41.2,16.1 40.7,16.1 C40.1,16.1 39.7,16.5 39.7,17.2 L39.7,21.6 L37.8,21.6 L37.8,17 C37.8,16.4 37.6,16.1 37.1,16.1 C36.5,16.1 36.1,16.5 36.1,17.2 L36.1,21.6 L34.2,21.6 L34.2,15 L34.2,15 Z" id="Shape"></path>
                <path d="M47.9,12.8 L53.4,12.8 L53.4,14.3 L49.9,14.3 L49.9,16.4 L53.2,16.4 L53.2,17.9 L49.9,17.9 L49.9,21.8 L47.9,21.8 L47.9,12.8 L47.9,12.8 Z" id="Shape"></path>
                <path d="M55.5,18.6 L55.5,19.1 C55.5,19.9 55.7,20.7 56.4,20.7 C57,20.7 57.3,20.3 57.4,19.4 L59.1,19.4 C59,21 58.2,21.8 56.4,21.8 C53.7,21.8 53.6,19.9 53.6,18.2 C53.6,16.4 54,14.7 56.5,14.7 C58.7,14.7 59.2,16 59.2,18.1 L59.2,18.5 L55.5,18.5 L55.5,18.6 Z M57.4,17.6 C57.4,16.6 57.2,16 56.4,16 C55.6,16 55.4,16.7 55.4,17.3 L55.4,17.6 L57.4,17.6 L57.4,17.6 Z" id="Shape"></path>
                <path d="M61.6,19.5 L61.6,19.7 C61.6,20.3 61.9,20.7 62.6,20.7 C63.2,20.7 63.6,20.4 63.6,19.9 C63.6,19.5 63.3,19.3 62.9,19.1 L61.6,18.7 C60.6,18.4 60,17.8 60,16.8 C60,15.7 60.8,14.8 62.7,14.8 C64.4,14.8 65.2,15.5 65.2,16.7 L65.2,17 L63.5,17 C63.5,16.3 63.3,16 62.7,16 C62.2,16 61.8,16.2 61.8,16.7 C61.8,17 62,17.3 62.6,17.5 L63.7,17.8 C64.9,18.2 65.3,18.7 65.3,19.7 C65.3,21.1 64.1,21.8 62.6,21.8 C60.5,21.8 59.9,21 59.9,19.7 L59.9,19.5 L61.6,19.5 L61.6,19.5 Z" id="Shape"></path>
                <path d="M66.7,13.1 L68.6,13.1 L68.6,15 L69.7,15 L69.7,16.2 L68.6,16.2 L68.6,19.8 C68.6,20.3 68.7,20.5 69.3,20.5 L69.7,20.5 L69.7,21.7 C69.3,21.7 68.9,21.8 68.5,21.8 C67,21.8 66.7,21.4 66.7,20 L66.7,16.2 L65.7,16.2 L65.7,15 L66.7,15 L66.7,13.1 L66.7,13.1 Z" id="Shape"></path>
                <path d="M70.4,12.7 L72.3,12.7 L72.3,14.2 L70.4,14.2 L70.4,12.7 L70.4,12.7 Z M70.4,15 L72.3,15 L72.3,21.7 L70.4,21.7 L70.4,15 L70.4,15 Z" id="Shape"></path>
                <path d="M77.2,15 L79,15 L77.2,21.7 L75,21.7 L73.1,15 L75.1,15 L76.2,19.8 L77.2,15 L77.2,15 Z" id="Shape"></path>
                <path d="M79.5,17.1 L79.5,16.9 C79.5,15.4 80.7,14.8 82.1,14.8 C84.3,14.8 84.8,15.6 84.8,16.9 L84.8,20.4 C84.8,21 84.9,21.3 85,21.7 L83.2,21.7 C83.1,21.5 83,21.2 83,21 L83,21 C82.6,21.7 82,21.9 81.1,21.9 C79.8,21.9 79.3,20.9 79.3,20 C79.3,18.7 79.9,18.2 81.2,17.9 L82.3,17.6 C82.9,17.5 83.1,17.3 83.1,16.8 C83.1,16.3 82.9,16 82.2,16 C81.6,16 81.3,16.3 81.3,16.9 L81.3,17.1 L79.5,17.1 L79.5,17.1 Z M83,18.3 C82.7,18.5 82.4,18.6 82.2,18.6 C81.4,18.8 81.1,19.1 81.1,19.7 C81.1,20.2 81.3,20.6 81.8,20.6 C82.3,20.6 83,20.3 83,19.6 L83,18.3 L83,18.3 Z" id="Shape"></path>
                <path d="M86.2,12.8 L88.1,12.8 L88.1,21.7 L86.2,21.7 L86.2,12.8 L86.2,12.8 Z" id="Shape"></path>
            </g>
            <g id="Group" sketch:type="MSShapeGroup">
                <path d="M23,0.1 C23.4,0.6 22.8,1 22.6,1.5 C21.4,3.8 19.8,7.6 16.4,7.2 C16.2,7.6 15.7,7.3 15.3,7.5 C13.4,8.4 12.7,10.5 11.5,12 C8.2,17.8 6.6,24.4 6.3,31.3 C5.9,31.9 6.4,32.3 6.2,32.9 C6.3,38 6.9,43 8.7,47.7 C10,51.8 12.7,55.5 15.2,59.1 C17.9,61.8 20.6,64.7 23.9,66.6 C25,67.2 26.1,67.8 27.3,68.2 C27.8,68.6 28.5,68.6 29,69 C29.5,69.1 30,69.1 30.5,69.4 L30.6,69.3 C29.1,66.8 29.4,63.8 27.8,61.3 L27.5,60.6 L28,60.6 C30.5,62.2 32.6,64.5 33.7,67.2 C33.5,68.1 33.2,69.3 32.1,69.5 C32,69.5 31.9,69.4 31.8,69.6 C31.8,70 32.5,69.9 32.2,70.3 C31.4,70.3 30.5,70 29.7,69.8 C29.1,70 29,69.2 28.4,69.5 C28.3,69.1 27.9,69.4 27.6,69.3 C25.2,68.3 23,67 20.8,65.5 C17.9,63.2 15.3,60.4 13.2,57.5 C13.3,56.9 12.5,56.6 12.3,56.2 C11.1,54.3 10.1,52.3 9.2,50.3 C7.5,46.5 6.3,42.5 5.9,38.2 C3.7,38 1.8,35.9 0.9,33.9 C-0.2,31.9 -0.1,28.5 0.8,26.4 L0.9,26.4 C2.8,29.2 4.4,32.1 5.3,35.3 C5.9,34.7 5.1,34.2 5.4,33.5 C5.5,31.3 5.8,28.9 5.8,26.8 C5.4,27.2 5.2,27.8 4.7,28.1 C3.8,27.7 2.9,27.2 2.4,26.3 C2,25.2 1.9,24 2,22.7 C2.1,19.9 3,17.5 4,15.1 L4.1,15.1 C4.4,16.8 4.4,18.6 4.9,20.1 C5.4,21.7 5.6,23.4 6.1,25 C6.3,25 6.1,24.3 6.2,24 C6.3,22.7 7,21.7 7.2,20.4 L7,20.2 C6.6,20.4 6.7,21.1 6.2,21.2 C4.6,18.2 4.1,13.3 6.1,10.3 C6.5,9.8 6.8,9.1 7.4,8.8 C7.9,9.5 7.3,10.5 7.8,11.3 C8.1,13.7 8,16.4 7.6,18.6 C7.9,18.1 8.1,17.5 8.3,16.9 C10,13.3 11.8,9.7 14.3,6.4 C14.9,4.2 16.3,2.2 18.4,1 C19.2,0.7 19.9,0.4 20.7,0.1 L23,0.1 L23,0.1 Z" id="Shape"></path>
                <path d="M119.5,0.5 C121.5,1.2 123.3,2.7 124.2,4.6 C125,5.5 124.5,6.9 125.8,7.5 C126.2,8.3 127,8.9 127.1,9.8 C129.1,12.5 130.1,15.5 131.4,18.5 L131.5,18.4 C131.1,16.5 131,14.5 131.1,12.4 C131.2,11.2 131.4,10 131.5,8.8 C132.3,9.2 132.7,10.1 133.2,10.9 C134.3,12.9 134.1,15.5 133.9,17.9 C133.7,19.1 133.2,20.1 132.7,21.2 C132.1,21.1 132.3,20 131.8,20.3 C132.2,21.9 132.8,23.3 132.9,25 C133,25.1 133,25.2 133.1,25.1 C133.8,21.8 135,18.7 135.1,15.2 C136.8,18 137.4,21.6 137.1,25.1 C137.1,26.2 136.4,27.2 135.5,27.8 L134.4,28.2 C133.9,27.9 133.7,27.3 133.3,27 C132.9,27.9 133.4,28.5 133.4,29.4 C133.6,31.4 133.6,33.5 133.6,35.4 C133.7,35.4 133.7,35.5 133.7,35.5 C134.6,32.3 136.2,29.4 138.1,26.6 C138.5,26.7 138.5,27.3 138.7,27.7 C139.6,31.5 138.5,35.3 135.5,37.6 C134.8,38 134.1,38.5 133.4,38.4 C132.9,39 133.2,40.1 132.9,40.9 C132.3,43.7 131.6,46.5 130.6,49.1 C129.3,52 128,55 126,57.5 C125.9,58.3 125.1,58.6 124.7,59.3 C121.4,64 116.5,67.3 111.5,69.5 C110.9,69.6 110.3,69.6 109.9,70 C108.9,70.1 107.8,70.7 106.9,70.4 C106.8,70 107.3,70.2 107.4,70 C106.5,69.6 105.6,68.8 105.5,67.8 C105.7,65.7 107.3,64.4 108.7,62.8 C109.6,62 110.5,61.2 111.6,60.8 C111,62.3 110.4,64 109.8,65.7 C109.7,67.1 109.3,68.5 108.6,69.5 C109.8,69.2 111.1,68.7 112.4,68.1 C115.7,67 118.3,64.6 121,62.4 C123.3,60 125.4,57.5 127.1,54.8 C128.8,52 130.1,49.1 131.1,46 C132.2,41.8 133.1,37.5 133,32.8 C132.6,32.1 133.2,31.6 132.8,30.9 C132.4,22.6 130.1,15 125.1,8.5 C124.5,7.9 123.8,7.4 122.9,7.4 C122.4,7 121.4,7.5 121,7 C120,6.9 119.7,6 119,5.6 C117.7,4.1 117.1,2.2 116,0.6 C116,0.4 115.9,0.1 116.1,1.5890067e-15 C117.2,0.2 118.6,-0.4 119.5,0.5 L119.5,0.5 Z" id="Shape"></path>
                <path d="M13.5,2.2 C13.6,3.9 13.3,5.5 12.9,7 C11.9,9.2 10.3,11.2 9.3,13.3 C9.1,12 8.7,10.6 9,9.3 C8.9,6.2 10.4,3.1 13.2,1.9 C13.4,1.9 13.5,2.1 13.5,2.2 L13.5,2.2 Z" id="Shape"></path>
                <path d="M130,8.5 C130.3,10 130.1,11 129.9,12.5 L129.8,13.3 C128.7,11.1 127.1,9 126,6.8 C125.7,5.3 125.4,3.9 125.4,2.3 C125.8,1.7 126.4,2.5 126.9,2.6 C129,3.9 129.8,6.2 130,8.5 L130,8.5 Z" id="Shape"></path>
                <path d="M18.1,8.8 C17.8,10.4 17.1,11.8 16.2,13.1 C14.9,14.9 12.9,16.6 10.7,16.4 C10,15.9 11.1,15.7 11.1,15.2 C12.3,13.2 12.6,10.2 15.3,9.5 C16,9 16.7,8.8 17.4,8.5 C17.6,8.6 18,8.4 18.1,8.8 L18.1,8.8 Z" id="Shape"></path>
                <path d="M126.9,12.8 C127.3,14 127.9,15.2 128.6,16.3 C128.2,16.7 127.4,16.3 126.8,16.4 C125.9,16 125,15.5 124.2,14.8 C123.7,14 122.6,13.6 122.5,12.5 C121.8,11.3 120.8,10.3 120.9,8.8 C121.1,8.6 121.5,8.7 121.7,8.7 C123.7,9.5 126.3,10.4 126.9,12.8 L126.9,12.8 Z" id="Shape"></path>
                <path d="M13.9,17.3 C13.4,21.3 11.2,25.2 7.7,27.5 L7.4,27.5 C7.5,24.6 8.3,22.1 9.4,19.6 C10,18.2 11.5,18.1 12.4,17.3 C13,17.5 13.5,16.7 13.9,17.3 L13.9,17.3 Z" id="Shape"></path>
                <path d="M126.8,17.4 C130.9,19.1 131,23.7 131.6,27.5 C131.4,27.7 131.2,27.5 130.9,27.4 C128.7,25.5 126.7,23.1 125.7,20.4 C125.6,19.4 125.1,18.5 125.1,17.4 C125.2,17 125.7,17.2 125.9,17.3 C126.1,17.4 126.5,17.2 126.8,17.4 L126.8,17.4 Z" id="Shape"></path>
                <path d="M11.7,25.9 C10.6,29.5 10.7,33.6 8.1,36.6 C8,37 7.6,37.5 7.1,37.5 C6.6,34.9 6.2,32.1 7.4,29.7 C8.7,28.4 9.9,26.9 11.5,25.9 L11.7,25.9 L11.7,25.9 Z" id="Shape"></path>
                <path d="M127.5,25.9 C129,27 130.6,28.6 131.7,30 C132.1,31.5 132.7,33 132.3,34.6 C132,35.5 132.3,36.8 131.8,37.6 C130.8,37.3 130.7,36.1 130,35.4 C128.3,32.6 128.2,29 127.3,26 L127.5,26 L127.5,25.9 Z" id="Shape"></path>
                <path d="M10.1,34.8 C11,37.8 12.3,42.2 9.8,44.9 L8.8,45.8 C7.2,43.6 7.3,40.2 8.2,37.8 C9.1,36.9 9.4,35.7 10.1,34.8 L10.1,34.8 Z" id="Shape"></path>
                <path d="M131,44.2 C130.7,44.7 130.7,45.4 130.1,45.8 C127.6,44.1 127.5,40.7 128,37.9 L128.9,34.8 C130.9,37.3 132.2,40.8 131,44.2 L131,44.2 Z" id="Shape"></path>
                <path d="M6.8,45.8 C6.7,46.5 7.3,47.2 6.8,47.7 C5,47.6 3.9,46 2.8,44.7 C1.1,42.3 0.8,39.1 1,36.2 C4.5,38.5 6,42.1 6.8,45.8 L6.8,45.8 Z" id="Shape"></path>
                <path d="M138,36.2 C138.5,40 137.5,43.5 135,46.1 C134.1,46.7 133.4,47.6 132.2,47.7 C131.8,47 132.5,46.3 132.3,45.6 C133.1,42 134.6,38.4 138,36.2 L138,36.2 Z" id="Shape"></path>
                <path d="M13,44.9 C14.3,47.6 15.1,51.1 13.9,54.1 C13.8,54.6 13.7,55.2 13.3,55.5 C11.4,52.8 8.8,49.2 10.9,45.9 C11,44.9 11.1,43.9 11.6,43 C12.3,43.5 12.6,44.2 13,44.9 L13,44.9 Z" id="Shape"></path>
                <path d="M127.7,44 C127.5,44.7 128.1,45.2 127.9,45.8 C128.6,47.1 129.1,48.8 128.5,50.3 C127.6,52.1 126.8,53.9 125.5,55.6 C124.6,54 124.4,51.9 124.4,50 C124.6,47.4 125.5,45 127.2,43.1 L127.7,44 L127.7,44 Z" id="Shape"></path>
                <path d="M5,47.9 C7.5,49.3 9.7,51.4 10.4,54.1 C10.6,54.8 11.7,55.8 10.6,56.2 C9.7,56.3 9.1,55.8 8.2,55.8 C6.7,55.1 5.2,54.1 4.4,52.6 C3.4,50.5 3,48.1 2.1,46.1 C3.1,46.6 3.9,47.7 5,47.9 L5,47.9 Z" id="Shape"></path>
                <path d="M136.9,46.2 C136.8,47.4 135.8,48.5 135.6,49.8 C135.1,52 134,54.2 131.9,55.3 C131.2,55.8 130.4,56.1 129.5,56.1 C129.1,56.2 128.7,56.4 128.2,56.2 L127.8,55.8 C129,53.4 129.6,50.5 132.3,49 C133.9,48 135.4,47.2 136.9,46.2 L136.9,46.2 Z" id="Shape"></path>
                <path d="M17.2,51.6 C18.1,53.3 19,55.2 18.9,57.2 C19,57.6 19,58.3 18.9,58.6 C18.8,59.5 18.6,60.5 18.2,61.2 C16.7,60.3 15.7,58.6 15.1,57 C15.1,54.5 14.5,52.2 15,49.8 L15.1,48.7 C16,49.6 16.6,50.6 17.2,51.6 L17.2,51.6 Z" id="Shape"></path>
                <path d="M123.8,48.8 C124.1,51.3 124.2,53.6 124,56.1 C123.6,58.1 122.5,60 120.8,61.2 C119.9,59.7 119.8,57.6 120.1,55.8 C120.6,53.2 122.1,50.9 123.8,48.8 L123.8,48.8 Z" id="Shape"></path>
                <path d="M20.8,54.6 C21.6,56.1 22.7,57.6 23.3,59.2 C23.9,59.7 23.7,60.6 24.1,61.2 C24.2,62.4 24.5,63.2 24.6,64.3 C24.6,64.8 24.6,65.3 24.3,65.6 C22.1,65.7 21,63.4 20.1,61.8 C19.1,59.5 19.3,56.1 20.1,53.8 L20.8,54.6 L20.8,54.6 Z" id="Shape"></path>
                <path d="M118.8,54 C120.1,57.7 119.7,62.6 116.5,65.2 C115.9,65.4 115.5,66 114.7,65.8 C114,64.8 114.7,63.6 114.7,62.5 C114.7,59.4 116.9,57.3 118.2,54.6 L118.8,54 L118.8,54 Z" id="Shape"></path>
                <path d="M7.3,56.1 C7.5,56.5 8,56.2 8.3,56.6 C9,56.3 9.3,57.1 9.9,57 C12.9,57.7 14.5,60.5 16.5,62.6 C16.4,63.1 15.8,63.3 15.3,63.5 C14.5,63.4 13.6,63.7 12.9,63.3 L12.4,63.3 C10,62.3 7.5,60.6 6.4,58.1 C5.8,57.5 5.9,56.5 5.7,55.8 C6.5,55.6 6.7,56.3 7.3,56.1 L7.3,56.1 Z" id="Shape"></path>
                <path d="M133.2,55.9 C133.1,57.9 131.7,59.9 130.2,61.1 C129.2,62.3 127.7,62.5 126.6,63.3 C125.4,63.4 123.5,64 122.5,62.8 L122.5,62.5 C124.8,59.9 127.1,56.8 130.8,56.5 C131.1,56.1 131.6,56.3 131.9,56 C132.3,56.3 132.5,55.7 133.2,55.9 L133.2,55.9 Z" id="Shape"></path>
                <path d="M28.2,64.1 C28.1,65.4 29,67 28,68 C26.6,67.9 26.1,66.5 25.5,65.5 C24.9,63 24,60.3 24.3,57.6 C24.8,57.7 25.2,58.3 25.6,58.8 C26.7,60.4 27.5,62.2 28.2,64.1 L28.2,64.1 Z" id="Shape"></path>
                <path d="M114.8,59.9 C113.6,62.6 114.6,66.3 111.5,68 C111.2,68 110.8,68 110.7,67.6 C110,63.7 112.2,60.3 114.6,57.5 C115,58.1 114.8,59.1 114.8,59.9 L114.8,59.9 Z" id="Shape"></path>
                <path d="M16.4,64.4 C17.9,64.5 19.2,65.3 20.5,66.1 C20.9,66.4 21.5,66.8 20.9,67.3 C19.7,68.7 18,68.5 16.3,68.5 C15.6,68.1 14.8,68 14.2,67.6 C13,66.7 11.9,65.7 11.4,64.3 C12,64.1 12.8,64.4 13.2,64 C14.2,64.1 15.4,64 16.4,64.4 L16.4,64.4 Z" id="Shape"></path>
                <path d="M127.6,64.1 C127.8,65 126.7,65.5 126.4,66.2 C124.8,68 122.7,68.9 120.1,68.5 C119.9,68.2 119.6,68.2 119.2,68.1 C118.8,67.6 117.9,67.3 117.9,66.6 C119.2,65.6 120.5,64.7 122,64.4 C122.4,64.5 122.7,64.3 123,64.1 C123.7,64.1 124.6,64.2 125.1,63.9 C126,64 126.7,64.2 127.6,64.1 L127.6,64.1 Z" id="Shape"></path>
                <path d="M26.4,69.7 C26.9,70.2 26.1,70.7 25.9,71.1 C25.1,71.5 24.3,72.1 23.4,72.4 L20,72.4 C19,71.9 17.8,71.5 17,70.7 C16.8,70.4 16.4,70.2 16.3,69.9 C16.8,69.4 17.8,69.8 18.3,69.2 C20.3,68.4 23,67.6 24.8,69 C25.3,69.3 25.9,69.4 26.4,69.7 L26.4,69.7 Z" id="Shape"></path>
                <path d="M118.4,68.5 C119.6,68.8 120.8,69.4 122.1,69.6 L122.8,69.9 C122.1,71.1 120.7,71.9 119.4,72.1 L119.1,72.3 L115.6,72.3 C114.7,71.9 113.9,71.4 113.1,70.9 C112.8,70.5 112.5,70.2 112.4,69.8 C112.8,69.4 113.2,69.1 113.8,69.1 C113.9,68.7 114.3,69 114.5,68.8 C114.9,68.4 115.6,68.5 116,68.1 C116.6,68.4 117.7,68.1 118.4,68.5 L118.4,68.5 Z" id="Shape"></path>
                <path d="M30.1,71 C31.1,71 31.8,72 32.4,72.7 C32.5,73.2 32.5,73.7 32.1,74.1 C31,73.9 30.3,74.7 29.3,74.7 C29,75.2 28.3,74.7 28,75.1 L24.6,75.1 C24,74.9 23.4,74.7 22.8,74.4 C22.7,74.4 22.4,74.5 22.3,74.3 L22.3,74.1 C24.1,73 25.9,71.9 27.8,70.9 C28.6,70.8 29.5,70.5 30.1,71 L30.1,71 Z" id="Shape"></path>
                <path d="M112.1,71.2 C112.7,71.2 113,71.8 113.6,71.9 C114.7,72.6 115.7,73.4 116.8,73.9 L116.8,74.1 C116.1,74.2 115.6,75 114.8,74.7 L114.5,74.9 L111,74.9 C110.7,74.5 109.9,75 109.6,74.5 C108.6,74.5 108,73.7 106.9,74 C106.4,73.7 106.5,73 106.5,72.5 C107.5,71 109.2,70.3 111.1,70.6 L112.1,71.2 L112.1,71.2 Z" id="Shape"></path>
            </g>
            <g id="Group" transform="translate(55.000000, 54.000000)" sketch:type="MSShapeGroup">
                <path d="M0.4,1.9 C0.5,1.5 0.7,1.1 1,0.8 C1.3,0.5 1.6,0.2 2,0.1 C2.4,-0.1 2.9,-0.2 3.4,-0.2 C3.8,-0.2 4.2,-0.1 4.6,0 C5,0.1 5.3,0.3 5.6,0.5 C5.9,0.7 6.1,1 6.3,1.4 C6.5,1.8 6.5,2.2 6.5,2.6 C6.5,3 6.4,3.4 6.3,3.8 C6.2,4.2 6,4.4 5.8,4.7 C5.6,5 5.3,5.2 5,5.4 L4.1,6 L3.2,6.6 C2.9,6.8 2.6,7 2.4,7.2 C2.1,7.4 1.9,7.6 1.7,7.9 C1.5,8.2 1.4,8.4 1.3,8.7 L6.4,8.7 L6.4,9.7 L-0.1,9.7 C-0.1,9.1 0.1,8.6 0.2,8.2 C0.3,7.8 0.6,7.4 0.8,7.1 C1.1,6.8 1.3,6.5 1.7,6.3 C2,6.1 2.3,5.8 2.7,5.6 C3.1,5.3 3.5,5.1 3.8,4.9 C4.1,4.7 4.4,4.5 4.6,4.2 C4.8,4 5,3.7 5.1,3.5 C5.2,3.2 5.3,2.9 5.3,2.6 C5.3,2.3 5.2,2.1 5.1,1.9 C5,1.7 4.9,1.5 4.7,1.3 C4.5,1.1 4.3,1 4.1,0.9 C3.9,0.8 3.6,0.8 3.4,0.8 C3.1,0.8 2.8,0.9 2.5,1 C2.3,1.1 2,1.3 1.9,1.6 C1.7,1.8 1.6,2.1 1.6,2.4 C1.6,2.7 1.5,3 1.5,3.3 L0.3,3.3 C0.2,2.8 0.2,2.4 0.4,1.9 L0.4,1.9 Z" id="Shape"></path>
                <path d="M7.7,3.7 C7.7,3.3 7.8,2.9 7.8,2.6 C7.9,2.2 8,1.9 8.1,1.5 C8.2,1.2 8.4,0.9 8.7,0.6 C9,0.3 9.2,0.1 9.6,0 C10,-0.1 10.4,-0.2 10.9,-0.2 C11.4,-0.2 11.9,-0.1 12.2,0 C12.5,0.1 12.9,0.4 13.1,0.6 C13.3,0.8 13.5,1.1 13.7,1.5 C13.9,1.9 13.9,2.2 14,2.6 C14.1,3 14.1,3.4 14.1,3.7 L14.1,4.8 L14.1,5.9 C14.1,6.3 14,6.7 14,7 C14,7.3 13.8,7.7 13.7,8.1 C13.6,8.4 13.4,8.7 13.1,9 C12.8,9.3 12.6,9.5 12.2,9.6 C11.8,9.7 11.4,9.8 10.9,9.8 C10.4,9.8 9.9,9.7 9.6,9.6 C9.2,9.5 8.9,9.3 8.7,9 C8.5,8.7 8.3,8.5 8.1,8.1 C8,7.8 7.9,7.4 7.8,7 C7.7,6.6 7.7,6.2 7.7,5.9 L7.7,4.8 L7.7,3.7 L7.7,3.7 Z M9,6.1 C9,6.6 9.1,7 9.2,7.4 C9.3,7.8 9.5,8.1 9.8,8.4 C10.1,8.7 10.5,8.8 11,8.8 C11.5,8.8 11.9,8.7 12.2,8.4 C12.5,8.1 12.7,7.8 12.8,7.4 C12.9,7 13,6.6 13,6.1 L13,4.8 L13,4 C13,3.7 13,3.4 12.9,3.1 C12.8,2.8 12.8,2.5 12.7,2.2 C12.6,1.9 12.5,1.7 12.4,1.5 C12.2,1.3 12.1,1.1 11.8,1 C11.6,0.9 11.3,0.8 10.9,0.8 C10.5,0.8 10.3,0.9 10,1 C9.8,1.1 9.6,1.3 9.4,1.5 C9.2,1.7 9.1,2 9,2.2 C8.9,2.5 8.9,2.8 8.8,3.1 C8.7,3.4 9,3.8 9,4 L9,4.8 L9,6.1 L9,6.1 Z" id="Shape"></path>
                <path d="M17.6,9.7 L17.6,2.6 L15,2.6 L15,1.6 C15.3,1.6 15.7,1.6 16,1.5 C16.3,1.4 16.6,1.4 16.9,1.2 C17.2,1.1 17.4,0.9 17.6,0.6 C17.8,0.4 17.9,0 18,-0.3 L18.9,-0.3 L18.9,9.6 L17.6,9.6 L17.6,9.7 Z" id="Shape"></path>
                <path d="M23.3,1 L22.8,3.9 C23,3.7 23.3,3.5 23.6,3.4 C23.9,3.3 24.3,3.2 24.6,3.2 C25,3.2 25.5,3.3 25.8,3.4 C26.1,3.5 26.5,3.8 26.8,4 C27.1,4.3 27.3,4.6 27.5,5.1 C27.7,5.6 27.8,6 27.8,6.6 C27.8,7 27.7,7.4 27.6,7.8 C27.5,8.2 27.2,8.5 26.9,8.9 C26.6,9.2 26.2,9.5 25.8,9.6 C25.4,9.8 24.9,9.9 24.3,9.9 C23.9,9.9 23.5,9.8 23.1,9.7 C22.7,9.6 22.4,9.4 22.1,9.2 C21.8,9 21.6,8.7 21.4,8.3 C21.2,7.9 21.1,7.5 21.1,7.1 L22.3,7.1 C22.3,7.4 22.4,7.6 22.5,7.8 C22.6,8 22.8,8.2 22.9,8.4 C23.1,8.6 23.3,8.7 23.5,8.8 C23.7,8.9 24,8.9 24.3,8.9 C24.6,8.9 24.8,8.9 25.1,8.8 C25.4,8.7 25.6,8.6 25.8,8.4 C26,8.2 26.1,8 26.3,7.7 C26.4,7.4 26.5,7.1 26.5,6.7 C26.5,6.4 26.4,6.1 26.3,5.8 C26.2,5.5 26,5.3 25.8,5.1 C25.6,4.9 25.4,4.7 25.1,4.6 C24.8,4.5 24.5,4.4 24.2,4.4 C23.8,4.4 23.5,4.5 23.2,4.7 C22.9,4.9 22.6,5.1 22.4,5.4 L21.4,5.3 L22.3,0.1 L27.2,0.1 L27.2,1.1 L23.3,1.1 L23.3,1 Z" id="Shape"></path>
            </g>
        </g>
    </g>
</svg>