<?xml version="1.0" encoding="utf-8"?>
<!-- Generator: Adobe Illustrator 18.1.1, SVG Export Plug-In . SVG Version: 6.00 Build 0)  -->
<!DOCTYPE svg PUBLIC "-//W3C//DTD SVG 1.1//EN" "http://www.w3.org/Graphics/SVG/1.1/DTD/svg11.dtd">
<svg version="1.1" id="Layer_1" xmlns="http://www.w3.org/2000/svg" xmlns:xlink="http://www.w3.org/1999/xlink" x="0px" y="0px"
	 viewBox="0 0 139 75" enable-background="new 0 0 139 75" xml:space="preserve">
<g>
	<path fill="#888888" d="M41.1,18.1c0,2-0.4,4.1-2.5,4.1c-2.2,0-2.5-2.1-2.5-4.1c0-2,0.4-4.1,2.5-4.1C40.7,14,41.1,16.1,41.1,18.1z
		 M37.1,18.1c0,1.8,0.2,3.3,1.5,3.3c1.3,0,1.5-1.5,1.5-3.3c0-1.8-0.2-3.3-1.5-3.3C37.2,14.8,37.1,16.3,37.1,18.1z"/>
	<path fill="#888888" d="M42.5,16.9h-0.9v-0.7h0.9v-0.7c0-0.9,0.4-1.4,1.3-1.4h0.7v0.8H44c-0.4,0-0.6,0.2-0.6,0.6v0.7h1v0.7h-1V22
		h-0.9V16.9z"/>
	<path fill="#888888" d="M45.4,16.9h-0.9v-0.7h0.9v-0.7c0-0.9,0.4-1.4,1.3-1.4h0.7v0.8h-0.4c-0.4,0-0.6,0.2-0.6,0.6v0.7h1v0.7h-1V22
		h-0.9V16.9z M48,14.2h0.9v1.1H48V14.2z M48,16.2h0.9V22H48V16.2z"/>
	<path fill="#888888" d="M53,17.9c0-0.6-0.2-1.2-0.9-1.2c-0.6,0-1.2,0.3-1.2,2.4c0,0.8,0,2.3,1.1,2.3c0.8,0,1-0.8,1-1.5h0.9
		c0,0.9-0.5,2.2-1.9,2.2c-1.5,0-2-1-2-3c0-1.5,0.3-3.2,2.1-3.2c1.6,0,1.9,1.3,1.9,1.9H53z"/>
	<path fill="#888888" d="M54.9,14.2h0.9v1.1h-0.9V14.2z M54.9,16.2h0.9V22h-0.9V16.2z"/>
	<path fill="#888888" d="M57,17.9c0-1.3,0.6-1.9,2-1.9c1.8,0,1.8,1.1,1.8,1.7V21c0,0.3,0,0.5,0.3,0.5c0.1,0,0.2,0,0.2-0.1v0.7
		c-0.1,0-0.3,0.1-0.5,0.1c-0.3,0-0.8,0-0.8-0.8h0c-0.3,0.5-0.9,0.8-1.4,0.8c-1.1,0-1.6-0.7-1.6-1.7c0-0.8,0.4-1.4,1.1-1.6l1.2-0.4
		c0.7-0.2,0.7-0.4,0.7-0.9c0-0.6-0.3-0.9-0.9-0.9c-1,0-1,0.9-1,1.2v0.1H57z M59.8,18.8c-0.4,0.4-1.2,0.4-1.6,0.7
		c-0.3,0.2-0.5,0.4-0.5,0.9c0,0.6,0.2,1,0.8,1c0.6,0,1.2-0.5,1.2-1.1V18.8z"/>
	<path fill="#888888" d="M62.1,14.2H63V22h-0.9V14.2z"/>
	<path fill="#888888" d="M70.2,16.2c0-0.8-0.3-1.4-1.2-1.4c-0.8,0-1.3,0.4-1.3,1.3c0,2.2,3.7,0.9,3.7,3.8c0,1.8-1.3,2.3-2.4,2.3
		c-1.8,0-2.4-0.9-2.4-2.6h1c0,0.9,0.1,1.8,1.5,1.8c0.8,0,1.4-0.6,1.4-1.4c0-2.2-3.7-0.9-3.7-3.8c0-0.7,0.3-2.2,2.3-2.2
		c1.5,0,2.2,0.7,2.2,2.2H70.2z"/>
	<path fill="#888888" d="M73.2,19.2c0,0.9,0,2.3,1.1,2.3c0.9,0,1-0.9,1-1.4h0.9c0,0.6-0.4,2.1-2,2.1c-1.5,0-2-1-2-3
		c0-1.5,0.3-3.2,2.1-3.2c1.8,0,2,1.6,2,2.8v0.4H73.2z M75.3,18.5v-0.3c0-0.7-0.2-1.4-1-1.4c-1,0-1.1,1.2-1.1,1.5v0.2H75.3z"/>
	<path fill="#888888" d="M77.3,14.2h0.9V22h-0.9V14.2z"/>
	<path fill="#888888" d="M80.3,19.2c0,0.9,0,2.3,1.1,2.3c0.9,0,1-0.9,1-1.4h0.9c0,0.6-0.4,2.1-2,2.1c-1.5,0-2-1-2-3
		c0-1.5,0.3-3.2,2.1-3.2c1.8,0,2,1.6,2,2.8v0.4H80.3z M82.4,18.5v-0.3c0-0.7-0.2-1.4-1-1.4c-1,0-1.1,1.2-1.1,1.5v0.2H82.4z"/>
	<path fill="#888888" d="M87.2,17.9c0-0.6-0.2-1.2-0.9-1.2c-0.6,0-1.2,0.3-1.2,2.4c0,0.8,0,2.3,1.1,2.3c0.8,0,1-0.8,1-1.5h0.9
		c0,0.9-0.5,2.2-1.9,2.2c-1.5,0-2-1-2-3c0-1.5,0.3-3.2,2.1-3.2c1.6,0,1.9,1.3,1.9,1.9H87.2z"/>
	<path fill="#888888" d="M89.4,14.4h0.9v1.7h1v0.7h-1v3.8c0,0.5,0.1,0.7,0.6,0.7c0.2,0,0.3,0,0.4,0V22c-0.1,0-0.4,0.1-0.7,0.1
		c-1,0-1.2-0.4-1.2-1.2v-4.1h-0.9v-0.7h0.9V14.4z"/>
	<path fill="#888888" d="M92,14.2h0.9v1.1H92V14.2z M92,16.2h0.9V22H92V16.2z"/>
	<path fill="#888888" d="M96,16c1.7,0,2.1,1.4,2.1,3.1c0,1.7-0.4,3.1-2.1,3.1c-1.7,0-2.1-1.4-2.1-3.1C93.9,17.4,94.3,16,96,16z
		 M97.2,19.1c0-1.3-0.2-2.4-1.2-2.4c-0.9,0-1.1,1.1-1.1,2.4c0,1.3,0.2,2.4,1.1,2.4C97,21.5,97.2,20.4,97.2,19.1z"/>
	<path fill="#888888" d="M99.1,16.2h0.9v0.7h0c0.3-0.5,0.9-0.8,1.4-0.8c1.6,0,1.6,1.2,1.6,1.9V22H102V18c0-0.5,0-1.2-0.9-1.2
		c-0.5,0-1.2,0.3-1.2,1.2V22h-0.9V16.2z"/>
</g>
<g>
	<path fill="#888888" d="M16.7,33.5v0.3c0,0.8,0.3,1.4,1.3,1.4c0.6,0,1.2-0.3,1.2-1.1c0-0.8-0.4-1.1-1.8-1.5
		c-1.8-0.5-2.6-1.2-2.6-2.7c0-1.7,1.2-2.6,3-2.6c1.8,0,3,0.7,3,2.4v0.2h-1.9c0-0.8-0.3-1.3-1.1-1.3c-0.9,0-1.1,0.5-1.1,1
		c0,0.5,0.2,0.9,1,1.2l1.5,0.6c1.5,0.6,1.9,1.3,1.9,2.4c0,1.9-1.3,2.7-3.4,2.7c-2.2,0-3.1-0.9-3.1-2.6v-0.4H16.7z"/>
	<path fill="#888888" d="M23.8,33.2v0.5c0,0.8,0.2,1.6,0.9,1.6c0.6,0,0.9-0.4,1-1.3h1.7c-0.1,1.6-0.9,2.4-2.7,2.4
		c-2.7,0-2.8-1.9-2.8-3.6c0-1.8,0.4-3.5,2.9-3.5c2.2,0,2.7,1.3,2.7,3.4v0.4H23.8z M25.8,32.1c0-1-0.2-1.6-1-1.6c-0.8,0-1,0.7-1,1.3
		v0.3H25.8z"/>
	<path fill="#888888" d="M28.5,31.6v-0.2c0-1.5,1.2-2.1,2.6-2.1c2.2,0,2.7,0.8,2.7,2.1V35c0,0.6,0.1,0.9,0.2,1.3h-1.8
		C32.1,36,32,35.8,32,35.5h0c-0.4,0.7-1,0.9-1.9,0.9c-1.3,0-1.8-1-1.8-1.9c0-1.3,0.6-1.8,1.9-2.1l1.1-0.3c0.6-0.1,0.8-0.3,0.8-0.8
		c0-0.5-0.2-0.8-0.9-0.8c-0.6,0-0.9,0.3-0.9,0.9v0.2H28.5z M32,32.9c-0.3,0.2-0.6,0.3-0.8,0.3c-0.8,0.1-1.1,0.5-1.1,1.1
		c0,0.5,0.2,0.9,0.7,0.9c0.5,0,1.2-0.3,1.2-1V32.9z"/>
	<path fill="#888888" d="M35.5,27.6h1.9v1.9h1.1v1.2h-1.1v3.6c0,0.5,0.1,0.7,0.7,0.7c0.2,0,0.3,0,0.4,0v1.2c-0.4,0-0.8,0.1-1.2,0.1
		c-1.5,0-1.8-0.4-1.8-1.8v-3.8h-1v-1.2h1V27.6z"/>
	<path fill="#888888" d="M39.6,27.6h1.9v1.9h1.1v1.2h-1.1v3.6c0,0.5,0.1,0.7,0.7,0.7c0.2,0,0.3,0,0.4,0v1.2c-0.4,0-0.8,0.1-1.2,0.1
		c-1.5,0-1.8-0.4-1.8-1.8v-3.8h-1v-1.2h1V27.6z"/>
	<path fill="#888888" d="M43.3,27.4h1.9v8.9h-1.9V27.4z"/>
	<path fill="#888888" d="M48.1,33.2v0.5c0,0.8,0.2,1.6,0.9,1.6c0.6,0,0.9-0.4,1-1.3h1.7c-0.1,1.6-0.9,2.4-2.7,2.4
		c-2.7,0-2.8-1.9-2.8-3.6c0-1.8,0.4-3.5,2.9-3.5c2.2,0,2.7,1.3,2.7,3.4v0.4H48.1z M50.1,32.1c0-1-0.2-1.6-1-1.6c-0.8,0-1,0.7-1,1.3
		v0.3H50.1z"/>
	<path fill="#888888" d="M56.3,36.2v-8.9h2v8.9H56.3z"/>
	<path fill="#888888" d="M59.7,29.6h1.8v0.8h0c0.4-0.7,1.1-1,1.9-1c1.2,0,1.9,0.6,1.9,1.9v5h-1.9v-4.6c0-0.7-0.2-0.9-0.8-0.9
		c-0.7,0-1,0.4-1,1.1v4.4h-1.9V29.6z"/>
	<path fill="#888888" d="M66.9,27.6h1.9v1.9h1.1v1.2h-1.1v3.6c0,0.5,0.1,0.7,0.7,0.7c0.2,0,0.3,0,0.4,0v1.2c-0.4,0-0.8,0.1-1.2,0.1
		c-1.5,0-1.8-0.4-1.8-1.8v-3.8h-1v-1.2h1V27.6z"/>
	<path fill="#888888" d="M72.2,33.2v0.5c0,0.8,0.2,1.6,0.9,1.6c0.6,0,0.9-0.4,1-1.3h1.7c-0.1,1.6-0.9,2.4-2.7,2.4
		c-2.7,0-2.8-1.9-2.8-3.6c0-1.8,0.4-3.5,2.9-3.5c2.2,0,2.7,1.3,2.7,3.4v0.4H72.2z M74.1,32.1c0-1-0.2-1.6-1-1.6c-0.8,0-1,0.7-1,1.3
		v0.3H74.1z"/>
	<path fill="#888888" d="M76.9,29.6h1.8v0.9h0c0.4-0.6,0.9-1.1,1.7-1.1c0.1,0,0.2,0,0.3,0V31c-0.2,0-0.4,0-0.6,0
		c-0.7,0-1.4,0.3-1.4,1.2v4h-1.9V29.6z"/>
	<path fill="#888888" d="M81.5,29.6h1.8v0.8h0c0.4-0.7,1.1-1,1.9-1c1.2,0,1.9,0.6,1.9,1.9v5h-1.9v-4.6c0-0.7-0.2-0.9-0.8-0.9
		c-0.7,0-1,0.4-1,1.1v4.4h-1.9V29.6z"/>
	<path fill="#888888" d="M88.3,31.6v-0.2c0-1.5,1.2-2.1,2.6-2.1c2.2,0,2.7,0.8,2.7,2.1V35c0,0.6,0.1,0.9,0.2,1.3H92
		c-0.1-0.2-0.2-0.5-0.2-0.7h0c-0.4,0.7-1,0.9-1.9,0.9c-1.3,0-1.8-1-1.8-1.9c0-1.3,0.6-1.8,1.9-2.1l1.1-0.3c0.6-0.1,0.8-0.3,0.8-0.8
		c0-0.5-0.2-0.8-0.9-0.8c-0.6,0-0.9,0.3-0.9,0.9v0.2H88.3z M91.8,32.9c-0.3,0.2-0.6,0.3-0.8,0.3c-0.8,0.1-1.1,0.5-1.1,1.1
		c0,0.5,0.2,0.9,0.7,0.9c0.5,0,1.2-0.3,1.2-1V32.9z"/>
	<path fill="#888888" d="M95.3,27.6h1.9v1.9h1.1v1.2h-1.1v3.6c0,0.5,0.1,0.7,0.7,0.7c0.2,0,0.3,0,0.4,0v1.2c-0.4,0-0.8,0.1-1.2,0.1
		c-1.5,0-1.8-0.4-1.8-1.8v-3.8h-1v-1.2h1V27.6z"/>
	<path fill="#888888" d="M99,27.3h1.9v1.5H99V27.3z M99,29.6h1.9v6.7H99V29.6z"/>
	<path fill="#888888" d="M104.9,29.4c2.3,0,2.9,1.2,2.9,3.5c0,2.3-0.8,3.5-2.9,3.5c-2.3,0-2.9-1.2-2.9-3.5
		C102,30.6,102.8,29.4,104.9,29.4z M104.9,35.3c0.8,0,1-0.7,1-2.4c0-1.7-0.2-2.4-1-2.4c-0.9,0-1,1-1,2.4
		C103.9,34.3,104,35.3,104.9,35.3z"/>
	<path fill="#888888" d="M108.8,29.6h1.8v0.8h0c0.4-0.7,1.1-1,1.9-1c1.2,0,1.9,0.6,1.9,1.9v5h-1.9v-4.6c0-0.7-0.2-0.9-0.8-0.9
		c-0.7,0-1,0.4-1,1.1v4.4h-1.9V29.6z"/>
	<path fill="#888888" d="M115.7,31.6v-0.2c0-1.5,1.2-2.1,2.6-2.1c2.2,0,2.7,0.8,2.7,2.1V35c0,0.6,0.1,0.9,0.2,1.3h-1.8
		c-0.1-0.2-0.2-0.5-0.2-0.7h0c-0.4,0.7-1,0.9-1.9,0.9c-1.3,0-1.8-1-1.8-1.9c0-1.3,0.6-1.8,1.9-2.1l1.1-0.3c0.6-0.1,0.8-0.3,0.8-0.8
		c0-0.5-0.2-0.8-0.9-0.8c-0.6,0-0.9,0.3-0.9,0.9v0.2H115.7z M119.1,32.9c-0.3,0.2-0.6,0.3-0.8,0.3c-0.8,0.1-1.1,0.5-1.1,1.1
		c0,0.5,0.2,0.9,0.7,0.9c0.5,0,1.2-0.3,1.2-1V32.9z"/>
	<path fill="#888888" d="M122.3,27.4h1.9v8.9h-1.9V27.4z"/>
	<path fill="#888888" d="M36.3,39.8h5.5v1.5h-3.5v2.1h3.3v1.5h-3.3v3.9h-2V39.8z"/>
	<path fill="#888888" d="M42.7,39.7h1.9v1.5h-1.9V39.7z M42.7,42h1.9v6.7h-1.9V42z"/>
	<path fill="#888888" d="M46,39.8h1.9v8.9H46V39.8z"/>
	<path fill="#888888" d="M49.2,42H51v0.7h0c0.5-0.6,1.1-0.9,1.9-0.9c0.9,0,1.5,0.4,1.7,1.1h0c0.3-0.7,1-1.1,1.9-1.1
		c1.3,0,1.8,0.7,1.8,2v4.9h-1.9V44c0-0.6-0.2-0.9-0.7-0.9c-0.6,0-1,0.4-1,1.1v4.4h-1.9V44c0-0.6-0.2-0.9-0.7-0.9c-0.6,0-1,0.4-1,1.1
		v4.4h-1.9V42z"/>
	<path fill="#888888" d="M62.9,39.8h5.5v1.5h-3.5v2.1h3.3v1.5h-3.3v3.9h-2V39.8z"/>
	<path fill="#888888" d="M70.5,45.6v0.5c0,0.8,0.2,1.6,0.9,1.6c0.6,0,0.9-0.4,1-1.3h1.7c-0.1,1.6-0.9,2.4-2.7,2.4
		c-2.7,0-2.8-1.9-2.8-3.6c0-1.8,0.4-3.5,2.9-3.5c2.2,0,2.7,1.3,2.7,3.4v0.4H70.5z M72.4,44.6c0-1-0.2-1.6-1-1.6c-0.8,0-1,0.7-1,1.3
		v0.3H72.4z"/>
	<path fill="#888888" d="M76.6,46.5v0.2c0,0.6,0.3,1,1,1c0.6,0,1-0.3,1-0.8c0-0.4-0.3-0.6-0.7-0.8l-1.3-0.4c-1-0.3-1.6-0.9-1.6-1.9
		c0-1.1,0.8-2,2.7-2c1.7,0,2.5,0.7,2.5,1.9V44h-1.7c0-0.7-0.2-1-0.8-1c-0.5,0-0.9,0.2-0.9,0.7c0,0.3,0.2,0.6,0.8,0.8l1.1,0.3
		c1.2,0.4,1.6,0.9,1.6,1.9c0,1.4-1.2,2.1-2.7,2.1c-2.1,0-2.7-0.8-2.7-2.1v-0.2H76.6z"/>
	<path fill="#888888" d="M81.7,40.1h1.9V42h1.1v1.2h-1.1v3.6c0,0.5,0.1,0.7,0.7,0.7c0.2,0,0.3,0,0.4,0v1.2c-0.4,0-0.8,0.1-1.2,0.1
		c-1.5,0-1.8-0.4-1.8-1.8v-3.8h-1V42h1V40.1z"/>
	<path fill="#888888" d="M85.4,39.7h1.9v1.5h-1.9V39.7z M85.4,42h1.9v6.7h-1.9V42z"/>
	<path fill="#888888" d="M92.2,42H94l-1.8,6.7H90L88.1,42h2l1.1,4.8h0L92.2,42z"/>
	<path fill="#888888" d="M94.5,44.1v-0.2c0-1.5,1.2-2.1,2.6-2.1c2.2,0,2.7,0.8,2.7,2.1v3.5c0,0.6,0.1,0.9,0.2,1.3h-1.8
		C98.1,48.5,98,48.2,98,48h0c-0.4,0.7-1,0.9-1.9,0.9c-1.3,0-1.8-1-1.8-1.9c0-1.3,0.6-1.8,1.9-2.1l1.1-0.3c0.6-0.1,0.8-0.3,0.8-0.8
		c0-0.5-0.2-0.8-0.9-0.8c-0.6,0-0.9,0.3-0.9,0.9v0.2H94.5z M98,45.3c-0.3,0.2-0.6,0.3-0.8,0.3c-0.8,0.2-1.1,0.5-1.1,1.1
		c0,0.5,0.2,0.9,0.7,0.9c0.5,0,1.2-0.3,1.2-1V45.3z"/>
	<path fill="#888888" d="M101.2,39.8h1.9v8.9h-1.9V39.8z"/>
</g>
<g>
	<g>
		<path fill="#888888" d="M23,0.1c0.4,0.5-0.2,0.9-0.4,1.4c-1.2,2.3-2.8,6.1-6.2,5.7c-0.2,0.4-0.7,0.1-1.1,0.3
			c-1.9,0.9-2.6,3-3.8,4.5c-3.3,5.8-4.9,12.4-5.2,19.3c-0.4,0.6,0.1,1-0.1,1.6C6.3,38,6.9,43,8.7,47.7c1.3,4.1,4,7.8,6.5,11.4
			c2.7,2.7,5.4,5.6,8.7,7.5c1.1,0.6,2.2,1.2,3.4,1.6c0.5,0.4,1.2,0.4,1.7,0.8c0.5,0.1,1,0.1,1.5,0.4l0.1-0.1c-1.5-2.5-1.2-5.5-2.8-8
			l-0.3-0.7H28c2.5,1.6,4.6,3.9,5.7,6.6c-0.2,0.9-0.5,2.1-1.6,2.3c-0.1,0-0.2-0.1-0.3,0.1c0,0.4,0.7,0.3,0.4,0.7
			c-0.8,0-1.7-0.3-2.5-0.5c-0.6,0.2-0.7-0.6-1.3-0.3c-0.1-0.4-0.5-0.1-0.8-0.2c-2.4-1-4.6-2.3-6.8-3.8c-2.9-2.3-5.5-5.1-7.6-8
			c0.1-0.6-0.7-0.9-0.9-1.3c-1.2-1.9-2.2-3.9-3.1-5.9c-1.7-3.8-2.9-7.8-3.3-12.1c-2.2-0.2-4.1-2.3-5-4.3c-1.1-2-1-5.4-0.1-7.5h0.1
			c1.9,2.8,3.5,5.7,4.4,8.9c0.6-0.6-0.2-1.1,0.1-1.8c0.1-2.2,0.4-4.6,0.4-6.7c-0.4,0.4-0.6,1-1.1,1.3c-0.9-0.4-1.8-0.9-2.3-1.8
			c-0.4-1.1-0.5-2.3-0.4-3.6c0.1-2.8,1-5.2,2-7.6h0.1c0.3,1.7,0.3,3.5,0.8,5c0.5,1.6,0.7,3.3,1.2,4.9C6.3,25,6.1,24.3,6.2,24
			c0.1-1.3,0.8-2.3,1-3.6L7,20.2c-0.4,0.2-0.3,0.9-0.8,1c-1.6-3-2.1-7.9-0.1-10.9c0.4-0.5,0.7-1.2,1.3-1.5c0.5,0.7-0.1,1.7,0.4,2.5
			c0.3,2.4,0.2,5.1-0.2,7.3c0.3-0.5,0.5-1.1,0.7-1.7c1.7-3.6,3.5-7.2,6-10.5c0.6-2.2,2-4.2,4.1-5.4c0.8-0.3,1.5-0.6,2.3-0.9H23z"/>
		<path fill="#888888" d="M119.5,0.5c2,0.7,3.8,2.2,4.7,4.1c0.8,0.9,0.3,2.3,1.6,2.9c0.4,0.8,1.2,1.4,1.3,2.3c2,2.7,3,5.7,4.3,8.7
			l0.1-0.1c-0.4-1.9-0.5-3.9-0.4-6c0.1-1.2,0.3-2.4,0.4-3.6c0.8,0.4,1.2,1.3,1.7,2.1c1.1,2,0.9,4.6,0.7,7c-0.2,1.2-0.7,2.2-1.2,3.3
			c-0.6-0.1-0.4-1.2-0.9-0.9c0.4,1.6,1,3,1.1,4.7c0.1,0.1,0.1,0.2,0.2,0.1c0.7-3.3,1.9-6.4,2-9.9c1.7,2.8,2.3,6.4,2,9.9
			c0,1.1-0.7,2.1-1.6,2.7l-1.1,0.4c-0.5-0.3-0.7-0.9-1.1-1.2c-0.4,0.9,0.1,1.5,0.1,2.4c0.2,2,0.2,4.1,0.2,6c0.1,0,0.1,0.1,0.1,0.1
			c0.9-3.2,2.5-6.1,4.4-8.9c0.4,0.1,0.4,0.7,0.6,1.1c0.9,3.8-0.2,7.6-3.2,9.9c-0.7,0.4-1.4,0.9-2.1,0.8c-0.5,0.6-0.2,1.7-0.5,2.5
			c-0.6,2.8-1.3,5.6-2.3,8.2c-1.3,2.9-2.6,5.9-4.6,8.4c-0.1,0.8-0.9,1.1-1.3,1.8c-3.3,4.7-8.2,8-13.2,10.2c-0.6,0.1-1.2,0.1-1.6,0.5
			c-1,0.1-2.1,0.7-3,0.4c-0.1-0.4,0.4-0.2,0.5-0.4c-0.9-0.4-1.8-1.2-1.9-2.2c0.2-2.1,1.8-3.4,3.2-5c0.9-0.8,1.8-1.6,2.9-2
			c-0.6,1.5-1.2,3.2-1.8,4.9c-0.1,1.4-0.5,2.8-1.2,3.8c1.2-0.3,2.5-0.8,3.8-1.4c3.3-1.1,5.9-3.5,8.6-5.7c2.3-2.4,4.4-4.9,6.1-7.6
			c1.7-2.8,3-5.7,4-8.8c1.1-4.2,2-8.5,1.9-13.2c-0.4-0.7,0.2-1.2-0.2-1.9c-0.4-8.3-2.7-15.9-7.7-22.4c-0.6-0.6-1.3-1.1-2.2-1.1
			c-0.5-0.4-1.5,0.1-1.9-0.4C120,6.9,119.7,6,119,5.6c-1.3-1.5-1.9-3.4-3-5c0-0.2-0.1-0.5,0.1-0.6C117.2,0.2,118.6-0.4,119.5,0.5z"
			/>
		<path fill="#888888" d="M13.5,2.2c0.1,1.7-0.2,3.3-0.6,4.8c-1,2.2-2.6,4.2-3.6,6.3C9.1,12,8.7,10.6,9,9.3
			c-0.1-3.1,1.4-6.2,4.2-7.4C13.4,1.9,13.5,2.1,13.5,2.2z"/>
		<path fill="#888888" d="M130,8.5c0.3,1.5,0.1,2.5-0.1,4l-0.1,0.8c-1.1-2.2-2.7-4.3-3.8-6.5c-0.3-1.5-0.6-2.9-0.6-4.5
			c0.4-0.6,1,0.2,1.5,0.3C129,3.9,129.8,6.2,130,8.5z"/>
		<path fill="#888888" d="M18.1,8.8c-0.3,1.6-1,3-1.9,4.3c-1.3,1.8-3.3,3.5-5.5,3.3c-0.7-0.5,0.4-0.7,0.4-1.2c1.2-2,1.5-5,4.2-5.7
			c0.7-0.5,1.4-0.7,2.1-1C17.6,8.6,18,8.4,18.1,8.8z"/>
		<path fill="#888888" d="M126.9,12.8c0.4,1.2,1,2.4,1.7,3.5c-0.4,0.4-1.2,0-1.8,0.1c-0.9-0.4-1.8-0.9-2.6-1.6
			c-0.5-0.8-1.6-1.2-1.7-2.3c-0.7-1.2-1.7-2.2-1.6-3.7c0.2-0.2,0.6-0.1,0.8-0.1C123.7,9.5,126.3,10.4,126.9,12.8z"/>
		<path fill="#888888" d="M13.9,17.3c-0.5,4-2.7,7.9-6.2,10.2H7.4c0.1-2.9,0.9-5.4,2-7.9c0.6-1.4,2.1-1.5,3-2.3
			C13,17.5,13.5,16.7,13.9,17.3z"/>
		<path fill="#888888" d="M126.8,17.4c4.1,1.7,4.2,6.3,4.8,10.1c-0.2,0.2-0.4,0-0.7-0.1c-2.2-1.9-4.2-4.3-5.2-7
			c-0.1-1-0.6-1.9-0.6-3c0.1-0.4,0.6-0.2,0.8-0.1C126.1,17.4,126.5,17.2,126.8,17.4z"/>
		<path fill="#888888" d="M11.7,25.9c-1.1,3.6-1,7.7-3.6,10.7c-0.1,0.4-0.5,0.9-1,0.9c-0.5-2.6-0.9-5.4,0.3-7.8
			c1.3-1.3,2.5-2.8,4.1-3.8H11.7z"/>
		<path fill="#888888" d="M127.5,25.9c1.5,1.1,3.1,2.7,4.2,4.1c0.4,1.5,1,3,0.6,4.6c-0.3,0.9,0,2.2-0.5,3c-1-0.3-1.1-1.5-1.8-2.2
			c-1.7-2.8-1.8-6.4-2.7-9.4H127.5z"/>
		<path fill="#888888" d="M10.1,34.8c0.9,3,2.2,7.4-0.3,10.1l-1,0.9c-1.6-2.2-1.5-5.6-0.6-8C9.1,36.9,9.4,35.7,10.1,34.8z"/>
		<path fill="#888888" d="M131,44.2c-0.3,0.5-0.3,1.2-0.9,1.6c-2.5-1.7-2.6-5.1-2.1-7.9l0.9-3.1C130.9,37.3,132.2,40.8,131,44.2z"/>
		<path fill="#888888" d="M6.8,45.8c-0.1,0.7,0.5,1.4,0,1.9c-1.8-0.1-2.9-1.7-4-3c-1.7-2.4-2-5.6-1.8-8.5C4.5,38.5,6,42.1,6.8,45.8z
			"/>
		<path fill="#888888" d="M138,36.2c0.5,3.8-0.5,7.3-3,9.9c-0.9,0.6-1.6,1.5-2.8,1.6c-0.4-0.7,0.3-1.4,0.1-2.1
			C133.1,42,134.6,38.4,138,36.2z"/>
		<path fill="#888888" d="M13,44.9c1.3,2.7,2.1,6.2,0.9,9.2c-0.1,0.5-0.2,1.1-0.6,1.4c-1.9-2.7-4.5-6.3-2.4-9.6c0.1-1,0.2-2,0.7-2.9
			C12.3,43.5,12.6,44.2,13,44.9z"/>
		<path fill="#888888" d="M127.7,44c-0.2,0.7,0.4,1.2,0.2,1.8c0.7,1.3,1.2,3,0.6,4.5c-0.9,1.8-1.7,3.6-3,5.3
			c-0.9-1.6-1.1-3.7-1.1-5.6c0.2-2.6,1.1-5,2.8-6.9L127.7,44z"/>
		<path fill="#888888" d="M5,47.9c2.5,1.4,4.7,3.5,5.4,6.2c0.2,0.7,1.3,1.7,0.2,2.1c-0.9,0.1-1.5-0.4-2.4-0.4
			c-1.5-0.7-3-1.7-3.8-3.2c-1-2.1-1.4-4.5-2.3-6.5C3.1,46.6,3.9,47.7,5,47.9z"/>
		<path fill="#888888" d="M136.9,46.2c-0.1,1.2-1.1,2.3-1.3,3.6c-0.5,2.2-1.6,4.4-3.7,5.5c-0.7,0.5-1.5,0.8-2.4,0.8
			c-0.4,0.1-0.8,0.3-1.3,0.1l-0.4-0.4c1.2-2.4,1.8-5.3,4.5-6.8C133.9,48,135.4,47.2,136.9,46.2z"/>
		<path fill="#888888" d="M17.2,51.6c0.9,1.7,1.8,3.6,1.7,5.6c0.1,0.4,0.1,1.1,0,1.4c-0.1,0.9-0.3,1.9-0.7,2.6
			c-1.5-0.9-2.5-2.6-3.1-4.2c0-2.5-0.6-4.8-0.1-7.2l0.1-1.1C16,49.6,16.6,50.6,17.2,51.6z"/>
		<path fill="#888888" d="M123.8,48.8c0.3,2.5,0.4,4.8,0.2,7.3c-0.4,2-1.5,3.9-3.2,5.1c-0.9-1.5-1-3.6-0.7-5.4
			C120.6,53.2,122.1,50.9,123.8,48.8z"/>
		<path fill="#888888" d="M20.8,54.6c0.8,1.5,1.9,3,2.5,4.6c0.6,0.5,0.4,1.4,0.8,2c0.1,1.2,0.4,2,0.5,3.1c0,0.5,0,1-0.3,1.3
			c-2.2,0.1-3.3-2.2-4.2-3.8c-1-2.3-0.8-5.7,0-8L20.8,54.6z"/>
		<path fill="#888888" d="M118.8,54c1.3,3.7,0.9,8.6-2.3,11.2c-0.6,0.2-1,0.8-1.8,0.6c-0.7-1,0-2.2,0-3.3c0-3.1,2.2-5.2,3.5-7.9
			C118.4,54.4,118.6,54.2,118.8,54z"/>
		<path fill="#888888" d="M7.3,56.1c0.2,0.4,0.7,0.1,1,0.5c0.7-0.3,1,0.5,1.6,0.4c3,0.7,4.6,3.5,6.6,5.6c-0.1,0.5-0.7,0.7-1.2,0.9
			c-0.8-0.1-1.7,0.2-2.4-0.2h-0.5c-2.4-1-4.9-2.7-6-5.2c-0.6-0.6-0.5-1.6-0.7-2.3C6.5,55.6,6.7,56.3,7.3,56.1z"/>
		<path fill="#888888" d="M133.2,55.9c-0.1,2-1.5,4-3,5.2c-1,1.2-2.5,1.4-3.6,2.2c-1.2,0.1-3.1,0.7-4.1-0.5v-0.3
			c2.3-2.6,4.6-5.7,8.3-6c0.3-0.4,0.8-0.2,1.1-0.5C132.3,56.3,132.5,55.7,133.2,55.9z"/>
		<path fill="#888888" d="M28.2,64.1c-0.1,1.3,0.8,2.9-0.2,3.9c-1.4-0.1-1.9-1.5-2.5-2.5c-0.6-2.5-1.5-5.2-1.2-7.9
			c0.5,0.1,0.9,0.7,1.3,1.2C26.7,60.4,27.5,62.2,28.2,64.1z"/>
		<path fill="#888888" d="M114.8,59.9c-1.2,2.7-0.2,6.4-3.3,8.1c-0.3,0-0.7,0-0.8-0.4c-0.7-3.9,1.5-7.3,3.9-10.1
			C115,58.1,114.8,59.1,114.8,59.9z"/>
		<path fill="#888888" d="M16.4,64.4c1.5,0.1,2.8,0.9,4.1,1.7c0.4,0.3,1,0.7,0.4,1.2c-1.2,1.4-2.9,1.2-4.6,1.2
			c-0.7-0.4-1.5-0.5-2.1-0.9c-1.2-0.9-2.3-1.9-2.8-3.3c0.6-0.2,1.4,0.1,1.8-0.3C14.2,64.1,15.4,64,16.4,64.4z"/>
		<path fill="#888888" d="M127.6,64.1c0.2,0.9-0.9,1.4-1.2,2.1c-1.6,1.8-3.7,2.7-6.3,2.3c-0.2-0.3-0.5-0.3-0.9-0.4
			c-0.4-0.5-1.3-0.8-1.3-1.5c1.3-1,2.6-1.9,4.1-2.2c0.4,0.1,0.7-0.1,1-0.3c0.7,0,1.6,0.1,2.1-0.2C126,64,126.7,64.2,127.6,64.1z"/>
		<path fill="#888888" d="M26.4,69.7c0.5,0.5-0.3,1-0.5,1.4c-0.8,0.4-1.6,1-2.5,1.3H20c-1-0.5-2.2-0.9-3-1.7
			c-0.2-0.3-0.6-0.5-0.7-0.8c0.5-0.5,1.5-0.1,2-0.7c2-0.8,4.7-1.6,6.5-0.2C25.3,69.3,25.9,69.4,26.4,69.7z"/>
		<path fill="#888888" d="M118.4,68.5c1.2,0.3,2.4,0.9,3.7,1.1l0.7,0.3c-0.7,1.2-2.1,2-3.4,2.2l-0.3,0.2h-3.5
			c-0.9-0.4-1.7-0.9-2.5-1.4c-0.3-0.4-0.6-0.7-0.7-1.1c0.4-0.4,0.8-0.7,1.4-0.7c0.1-0.4,0.5-0.1,0.7-0.3c0.4-0.4,1.1-0.3,1.5-0.7
			C116.6,68.4,117.7,68.1,118.4,68.5z"/>
		<path fill="#888888" d="M30.1,71c1,0,1.7,1,2.3,1.7c0.1,0.5,0.1,1-0.3,1.4c-1.1-0.2-1.8,0.6-2.8,0.6c-0.3,0.5-1,0-1.3,0.4h-3.4
			c-0.6-0.2-1.2-0.4-1.8-0.7c-0.1,0-0.4,0.1-0.5-0.1v-0.2c1.8-1.1,3.6-2.2,5.5-3.2C28.6,70.8,29.5,70.5,30.1,71z"/>
		<path fill="#888888" d="M112.1,71.2c0.6,0,0.9,0.6,1.5,0.7c1.1,0.7,2.1,1.5,3.2,2v0.2c-0.7,0.1-1.2,0.9-2,0.6l-0.3,0.2H111
			c-0.3-0.4-1.1,0.1-1.4-0.4c-1,0-1.6-0.8-2.7-0.5c-0.5-0.3-0.4-1-0.4-1.5c1-1.5,2.7-2.2,4.6-1.9L112.1,71.2z"/>
	</g>
</g>
<g>
	<path fill="#888888" d="M55.4,55.9c0.1-0.4,0.3-0.8,0.6-1.1s0.6-0.6,1-0.7c0.4-0.2,0.9-0.3,1.4-0.3c0.4,0,0.8,0.1,1.2,0.2
		s0.7,0.3,1,0.5c0.3,0.2,0.5,0.5,0.7,0.9s0.2,0.8,0.2,1.2c0,0.4-0.1,0.8-0.2,1.2s-0.3,0.6-0.5,0.9c-0.2,0.3-0.5,0.5-0.8,0.7
		c-0.3,0.2-0.6,0.4-0.9,0.6c-0.3,0.2-0.6,0.4-0.9,0.6c-0.3,0.2-0.6,0.4-0.8,0.6c-0.3,0.2-0.5,0.4-0.7,0.7s-0.3,0.5-0.4,0.8h5.1v1
		h-6.5c0-0.6,0.2-1.1,0.3-1.5s0.4-0.8,0.6-1.1c0.3-0.3,0.5-0.6,0.9-0.8c0.3-0.2,0.6-0.5,1-0.7c0.4-0.3,0.8-0.5,1.1-0.7
		c0.3-0.2,0.6-0.4,0.8-0.7c0.2-0.2,0.4-0.5,0.5-0.7c0.1-0.3,0.2-0.6,0.2-0.9c0-0.3-0.1-0.5-0.2-0.7c-0.1-0.2-0.2-0.4-0.4-0.6
		c-0.2-0.2-0.4-0.3-0.6-0.4s-0.5-0.1-0.7-0.1c-0.3,0-0.6,0.1-0.9,0.2c-0.2,0.1-0.5,0.3-0.6,0.6c-0.2,0.2-0.3,0.5-0.3,0.8
		s-0.1,0.6-0.1,0.9h-1.2C55.2,56.8,55.2,56.4,55.4,55.9z"/>
	<path fill="#888888" d="M62.7,57.7c0-0.4,0.1-0.8,0.1-1.1c0.1-0.4,0.2-0.7,0.3-1.1c0.1-0.3,0.3-0.6,0.6-0.9s0.5-0.5,0.9-0.6
		s0.8-0.2,1.3-0.2c0.5,0,1,0.1,1.3,0.2s0.7,0.4,0.9,0.6s0.4,0.5,0.6,0.9s0.2,0.7,0.3,1.1c0.1,0.4,0.1,0.8,0.1,1.1c0,0.4,0,0.8,0,1.1
		s0,0.7,0,1.1c0,0.4-0.1,0.8-0.1,1.1s-0.2,0.7-0.3,1.1c-0.1,0.3-0.3,0.6-0.6,0.9s-0.5,0.5-0.9,0.6c-0.4,0.1-0.8,0.2-1.3,0.2
		c-0.5,0-1-0.1-1.3-0.2c-0.4-0.1-0.7-0.3-0.9-0.6s-0.4-0.5-0.6-0.9c-0.1-0.3-0.2-0.7-0.3-1.1s-0.1-0.8-0.1-1.1c0-0.4,0-0.8,0-1.1
		S62.7,58.1,62.7,57.7z M64,60.1c0,0.5,0.1,0.9,0.2,1.3s0.3,0.7,0.6,1c0.3,0.3,0.7,0.4,1.2,0.4s0.9-0.1,1.2-0.4
		c0.3-0.3,0.5-0.6,0.6-1c0.1-0.4,0.2-0.8,0.2-1.3s0-0.9,0-1.3c0-0.2,0-0.5,0-0.8c0-0.3,0-0.6-0.1-0.9s-0.1-0.6-0.2-0.9
		c-0.1-0.3-0.2-0.5-0.3-0.7c-0.2-0.2-0.3-0.4-0.6-0.5c-0.2-0.1-0.5-0.2-0.9-0.2s-0.6,0.1-0.9,0.2c-0.2,0.1-0.4,0.3-0.6,0.5
		s-0.3,0.5-0.4,0.7c-0.1,0.3-0.1,0.6-0.2,0.9S64,57.8,64,58c0,0.3,0,0.6,0,0.8C64,59.2,64,59.6,64,60.1z"/>
	<path fill="#888888" d="M72.6,63.7v-7.1H70v-1c0.3,0,0.7,0,1-0.1c0.3-0.1,0.6-0.1,0.9-0.3c0.3-0.1,0.5-0.3,0.7-0.6
		c0.2-0.2,0.3-0.6,0.4-0.9h0.9v9.9H72.6z"/>
	<path fill="#888888" d="M78.3,55l-0.5,2.9l0,0c0.2-0.2,0.5-0.4,0.8-0.5c0.3-0.1,0.7-0.2,1-0.2c0.4,0,0.9,0.1,1.2,0.2s0.7,0.4,1,0.6
		c0.3,0.3,0.5,0.6,0.7,1.1s0.3,0.9,0.3,1.5c0,0.4-0.1,0.8-0.2,1.2s-0.4,0.7-0.7,1.1c-0.3,0.3-0.7,0.6-1.1,0.7
		c-0.4,0.2-0.9,0.3-1.5,0.3c-0.4,0-0.8-0.1-1.2-0.2s-0.7-0.3-1-0.5c-0.3-0.2-0.5-0.5-0.7-0.9s-0.3-0.8-0.3-1.2h1.2
		c0,0.3,0.1,0.5,0.2,0.7c0.1,0.2,0.3,0.4,0.4,0.6c0.2,0.2,0.4,0.3,0.6,0.4c0.2,0.1,0.5,0.1,0.8,0.1c0.3,0,0.5,0,0.8-0.1
		c0.3-0.1,0.5-0.2,0.7-0.4c0.2-0.2,0.3-0.4,0.5-0.7c0.1-0.3,0.2-0.6,0.2-1c0-0.3-0.1-0.6-0.2-0.9s-0.3-0.5-0.5-0.7
		c-0.2-0.2-0.4-0.4-0.7-0.5c-0.3-0.1-0.6-0.2-0.9-0.2c-0.4,0-0.7,0.1-1,0.3c-0.3,0.2-0.6,0.4-0.8,0.7l-1-0.1l0.9-5.2h4.9v1H78.3z"/>
</g>
</svg>
