<?xml version="1.0" encoding="utf-8"?>
<!-- Generator: Adobe Illustrator 16.0.0, SVG Export Plug-In . SVG Version: 6.00 Build 0)  -->
<!DOCTYPE svg PUBLIC "-//W3C//DTD SVG 1.1//EN" "http://www.w3.org/Graphics/SVG/1.1/DTD/svg11.dtd">
<svg version="1.1" id="Layer_1" xmlns="http://www.w3.org/2000/svg" xmlns:xlink="http://www.w3.org/1999/xlink" x="0px" y="0px"
	 width="474.431px" height="200px" viewBox="68.741 296 474.431 200" enable-background="new 68.741 296 474.431 200"
	 xml:space="preserve">
<g>
	<g>
		<path fill="#898989" d="M351.024,419.222v-39.128h8.59v4.229c3.49-2.416,7.45-4.967,12.014-4.967
			c7.853,0,11.61,5.101,11.61,13.087v26.779h-9.328v-25.437c0-5.235-1.679-6.913-4.833-6.913c-4.094,0-7.113,2.349-8.725,4.161
			v28.188H351.024"/>
	</g>
	<g>
		<path fill="#898989" d="M414.515,392.779c-1.477-3.289-3.154-5.973-7.651-5.973c-5.168,0-7.651,4.026-7.651,12.818
			c0,8.726,2.483,12.819,7.986,12.819c4.027,0,6.376-2.752,8.256-6.242l7.047,3.96c-3.759,6.98-8.523,9.865-15.638,9.799
			c-10.604,0-16.979-7.92-16.979-20.336s6.375-20.335,16.979-20.335c7.382,0,13.222,3.893,15.436,10.47L414.515,392.779"/>
	</g>
	<g>
		<path fill="#898989" d="M451.83,394.859c-0.135-5.436-3.021-8.59-7.518-8.59c-4.496,0-7.382,3.154-7.517,8.59H451.83
			L451.83,394.859z M436.796,401.168c0.135,8.121,3.759,11.275,8.121,11.275s6.376-1.947,8.725-4.631l6.778,4.228
			c-3.624,5.57-8.859,7.986-16.376,7.986c-10.134,0-16.577-7.919-16.577-20.335s6.376-20.336,16.979-20.336
			c10.202-0.067,15.974,8.591,15.974,17.987v3.825H436.796"/>
	</g>
	<g>
		<path fill="#898989" d="M173.507,390.43c-1.879-2.014-4.363-4.161-7.315-4.161c-3.624,0-5.235,1.476-5.235,3.825
			c0,6.712,19.53,3.826,19.53,18.121c0,8.121-6.175,11.745-14.362,11.745c-6.242,0-11.343-2.752-14.833-7.92l6.242-4.631
			c2.215,3.021,5.101,5.638,9.127,5.638c3.289,0,5.57-1.812,5.57-4.43c0-6.711-19.597-4.295-19.597-17.919
			c0-7.316,6.174-11.343,12.953-11.343c5.168,0,10.403,1.947,13.759,5.973L173.507,390.43"/>
	</g>
	<g>
		<path fill="#898989" d="M219.749,380.094v39.128h-8.591v-4.229c-3.423,2.416-7.45,4.967-12.013,4.967
			c-7.853,0-11.611-5.101-11.611-13.087v-26.779h9.329v25.437c0,5.235,1.678,6.913,4.832,6.913c4.095,0,7.114-2.35,8.725-4.161
			v-28.188H219.749"/>
	</g>
	<g>
		<path fill="#898989" d="M228.607,419.222v-39.128h8.591v4.229c3.49-2.416,7.45-4.967,12.013-4.967
			c7.853,0,11.611,5.101,11.611,13.087v26.779h-9.329v-25.437c0-5.235-1.678-6.913-4.833-6.913c-4.094,0-7.181,2.349-8.725,4.161
			v28.188H228.607"/>
	</g>
	<g>
		<path fill="#898989" d="M332.366,400.497c-6.242,1.207-13.087,2.483-13.087,7.986c0,2.953,1.879,4.563,4.496,4.563
			c2.953,0,6.645-2.483,8.591-4.161V400.497L332.366,400.497z M333.373,419.222l-0.604-3.355c-3.759,2.55-7.316,4.16-12.216,4.16
			c-7.047,0-10.604-5.033-10.604-10.402c0-8.858,7.248-13.557,22.416-15.369v-3.356c0-3.02-2.416-4.631-5.705-4.631
			c-4.362,0-6.778,2.349-8.591,4.833l-6.039-4.564c2.416-4.161,8.858-7.315,14.63-7.182c10.537,0.202,15.034,4.094,15.034,15.772
			v18.457c0,1.946,0.134,3.893,0.738,5.638H333.373"/>
	</g>
	<g>
		<path fill="#898989" d="M292.836,390.161c-1.879-1.745-4.229-3.289-7.248-3.289c-5.571,0-8.725,4.497-8.725,12.819
			c0,8.255,3.154,12.819,8.725,12.819c3.959,0,5.234-1.947,7.248-3.424V390.161L292.836,390.161z M302.165,419.222h-7.919
			l-0.47-4.229c-3.289,3.222-6.376,4.967-10.604,4.967c-10.403,0-15.638-9.194-15.638-21.41c0-9.597,5.57-19.261,15.638-19.261
			c3.154,0,7.584,1.879,9.463,4.362h0.135v-13.02h9.329v48.591"/>
	</g>
	<g>
		<path fill="#898989" d="M164.917,441.503h-2.484v-10.47h2.484V441.503L164.917,441.503z M162.366,429.088v-2.35h2.483v2.35
			H162.366L162.366,429.088z M159.144,433.048v8.455h-2.483v-8.455h-1.477v-2.015h1.41v-1.274c0-0.537,0.067-1.007,0.201-1.409
			c0.134-0.403,0.269-0.672,0.537-0.939c0.268-0.202,0.537-0.403,0.939-0.471c0.402-0.134,0.805-0.134,1.342-0.134h1.678v2.013
			h-0.671c-0.537,0-0.873,0.067-1.074,0.27c-0.201,0.201-0.335,0.469-0.335,0.872v1.141h2.081v2.014h-2.148V433.048z"/>
	</g>
	<g>
		<polygon fill="#898989" points="167.333,441.503 167.333,426.939 169.815,426.939 169.815,441.503 		"/>
	</g>
	<g>
		<path fill="#898989" d="M172.231,441.503v-10.47h2.282v1.142c0.47-0.403,0.939-0.738,1.409-1.007
			c0.47-0.201,1.007-0.336,1.745-0.336c0.537,0,1.074,0.135,1.543,0.402c0.47,0.27,0.806,0.672,1.074,1.142
			c0.202-0.201,0.47-0.403,0.671-0.604c0.269-0.201,0.537-0.335,0.805-0.47c0.269-0.134,0.604-0.269,0.939-0.335
			c0.335-0.067,0.738-0.135,1.141-0.135c0.269,0,0.537,0.067,0.873,0.135c0.269,0.066,0.604,0.268,0.806,0.47
			c0.201,0.201,0.47,0.536,0.604,0.939c0.134,0.402,0.269,0.939,0.269,1.544v7.517h-2.483v-7.315c0-0.402-0.067-0.738-0.268-1.007
			c-0.202-0.201-0.537-0.336-0.94-0.403c-0.335,0-0.671,0.135-1.074,0.337c-0.402,0.268-0.738,0.469-1.007,0.737v7.517h-2.483
			v-7.314c0-0.403-0.067-0.738-0.269-1.007c-0.201-0.202-0.537-0.336-0.939-0.403c-0.336,0-0.671,0.134-1.074,0.336
			c-0.402,0.269-0.738,0.47-1.006,0.737v7.518h-2.618V441.503z"/>
	</g>
	<g>
		<path fill="#898989" d="M194.581,433.048v8.455h-2.483v-8.455h-1.477v-2.015h1.41v-1.274c0-0.537,0.067-1.007,0.201-1.409
			c0.134-0.403,0.269-0.672,0.537-0.939c0.269-0.202,0.537-0.403,0.939-0.471c0.403-0.134,0.805-0.134,1.343-0.134h1.678v2.013
			h-0.671c-0.537,0-0.873,0.067-1.074,0.27c-0.201,0.201-0.335,0.469-0.335,0.872v1.141h2.147v2.014h-2.215V433.048z"/>
	</g>
	<g>
		<path fill="#898989" d="M203.708,434.993c0-0.738-0.201-1.274-0.604-1.678c-0.335-0.402-0.805-0.604-1.409-0.604
			s-1.074,0.202-1.409,0.604c-0.336,0.403-0.538,0.939-0.604,1.678H203.708L203.708,434.993z M199.681,436.671
			c0,1.074,0.269,1.88,0.671,2.35s0.939,0.671,1.477,0.671c0.604,0,1.006-0.134,1.342-0.335c0.335-0.202,0.671-0.537,0.939-0.873
			l1.812,1.141c-0.47,0.738-1.074,1.275-1.812,1.611c-0.738,0.335-1.611,0.537-2.617,0.537c-0.671,0-1.275-0.135-1.812-0.403
			c-0.537-0.269-1.006-0.604-1.409-1.073c-0.403-0.471-0.671-1.007-0.873-1.678c-0.201-0.672-0.335-1.41-0.335-2.282
			c0-0.806,0.134-1.61,0.335-2.282c0.201-0.671,0.537-1.275,0.873-1.745c0.403-0.47,0.873-0.805,1.409-1.074
			c0.537-0.268,1.208-0.402,1.946-0.402c0.671,0,1.275,0.135,1.812,0.402c0.537,0.27,1.006,0.604,1.342,1.074
			c0.336,0.47,0.604,0.939,0.806,1.544c0.202,0.604,0.269,1.208,0.269,1.812v1.006H199.681L199.681,436.671z"/>
	</g>
	<g>
		<path fill="#898989" d="M212.702,433.785c-0.269-0.269-0.537-0.536-0.873-0.737c-0.336-0.27-0.671-0.337-1.074-0.337
			c-0.47,0-0.805,0.067-1.074,0.27c-0.201,0.201-0.335,0.402-0.335,0.738c0,0.268,0.134,0.536,0.403,0.737
			c0.268,0.202,0.604,0.336,0.939,0.471c0.403,0.134,0.805,0.268,1.275,0.47c0.47,0.134,0.873,0.335,1.275,0.604
			c0.402,0.269,0.738,0.604,0.94,1.007c0.268,0.402,0.402,0.939,0.402,1.544c0,0.536-0.067,1.007-0.269,1.409
			c-0.201,0.402-0.47,0.738-0.805,1.007c-0.336,0.269-0.738,0.47-1.208,0.604c-0.47,0.135-1.007,0.202-1.544,0.202
			c-0.872,0-1.61-0.202-2.282-0.537c-0.671-0.336-1.208-0.873-1.678-1.544l1.678-1.275c0.269,0.403,0.671,0.738,1.007,1.074
			c0.403,0.335,0.873,0.47,1.409,0.47c0.47,0,0.806-0.135,1.074-0.336c0.269-0.201,0.403-0.537,0.403-0.872
			c0-0.269-0.134-0.537-0.403-0.738c-0.268-0.201-0.604-0.336-0.939-0.537c-0.403-0.134-0.806-0.335-1.275-0.47
			c-0.47-0.134-0.873-0.402-1.275-0.604c-0.403-0.269-0.738-0.604-0.939-0.939c-0.269-0.403-0.403-0.873-0.403-1.477
			c0-0.471,0.067-0.939,0.269-1.276c0.201-0.402,0.47-0.671,0.738-0.939c0.335-0.268,0.671-0.47,1.141-0.604
			c0.403-0.135,0.873-0.201,1.343-0.201c0.671,0,1.342,0.134,2.013,0.402s1.208,0.671,1.678,1.208L212.702,433.785L212.702,433.785z
			"/>
	</g>
	<g>
		<path fill="#898989" d="M216.594,431.033v-3.489h2.483v3.489h2.081v2.015h-2.081v5.905c0,0.269,0.067,0.47,0.202,0.604
			c0.134,0.134,0.403,0.134,0.671,0.134c0.202,0,0.403,0,0.604-0.067c0.201-0.066,0.403-0.066,0.604-0.134v2.08
			c-0.335,0.067-0.671,0.067-1.006,0.135c-0.336,0.067-0.671,0.067-1.007,0.067c-0.939,0-1.61-0.202-2.013-0.672
			c-0.403-0.402-0.604-1.007-0.604-1.744v-6.242h-1.477v-2.014h1.544V431.033z"/>
	</g>
	<g>
		<path fill="#898989" d="M225.252,441.503h-2.483v-10.47h2.483V441.503L225.252,441.503z M222.769,429.088v-2.35h2.483v2.35
			H222.769L222.769,429.088z"/>
	</g>
	<g>
		<polygon fill="#898989" points="226.594,431.033 229.077,431.033 230.822,438.147 230.89,438.147 232.634,431.033 
			235.118,431.033 232.165,441.503 229.547,441.503 		"/>
	</g>
	<g>
		<path fill="#898989" d="M241.292,436.47c-0.402,0.067-0.805,0.135-1.275,0.269c-0.403,0.066-0.805,0.201-1.141,0.403
			c-0.335,0.134-0.604,0.335-0.805,0.604c-0.202,0.269-0.336,0.537-0.336,0.939s0.134,0.672,0.336,0.939
			c0.201,0.201,0.537,0.336,0.872,0.336c0.202,0,0.403-0.067,0.604-0.135c0.201-0.066,0.403-0.134,0.604-0.268
			c0.202-0.135,0.403-0.201,0.604-0.336c0.201-0.135,0.335-0.269,0.47-0.336v-2.416H241.292z M241.561,441.503l-0.134-0.939
			c-0.537,0.336-1.006,0.604-1.543,0.806s-1.074,0.269-1.745,0.269c-0.47,0-0.873-0.067-1.208-0.201
			c-0.335-0.135-0.671-0.336-0.873-0.604c-0.202-0.269-0.402-0.536-0.537-0.872c-0.135-0.336-0.202-0.671-0.202-1.007
			c0-1.208,0.47-2.148,1.477-2.751c1.007-0.672,2.483-1.075,4.563-1.343v-0.873c0-0.402-0.134-0.738-0.402-0.938
			c-0.269-0.202-0.671-0.337-1.074-0.337c-0.604,0-1.074,0.135-1.41,0.403c-0.335,0.269-0.671,0.536-0.872,0.873l-1.611-1.209
			c0.134-0.269,0.403-0.536,0.671-0.806c0.269-0.268,0.604-0.469,0.94-0.604c0.335-0.201,0.738-0.336,1.141-0.402
			c0.403-0.067,0.806-0.135,1.141-0.135c0.671,0,1.275,0.067,1.812,0.269c0.537,0.134,0.939,0.403,1.275,0.738
			c0.336,0.336,0.537,0.738,0.738,1.275c0.134,0.536,0.202,1.208,0.202,1.946v4.967c0,0.269,0,0.536,0.067,0.805
			c0,0.269,0.067,0.47,0.134,0.738h-2.55V441.503z"/>
	</g>
	<g>
		<polygon fill="#898989" points="246.191,441.503 246.191,426.939 248.675,426.939 248.675,441.503 		"/>
	</g>
	<g>
		<path fill="#898989" d="M488.272,321.638c0-3.222,2.617-5.772,5.771-5.772c3.222,0,5.772,2.618,5.772,5.772
			c0,3.221-2.617,5.771-5.772,5.771C490.823,327.477,488.272,324.859,488.272,321.638L488.272,321.638z"/>
	</g>
	<g>
		<path fill="#898989" d="M496.93,301.839c0-3.221,2.618-5.772,5.772-5.772c3.222,0,5.771,2.618,5.771,5.772
			c0,3.221-2.617,5.771-5.771,5.771S496.93,305.06,496.93,301.839L496.93,301.839z"/>
	</g>
	<g>
		<path fill="#898989" d="M510.286,317.476c0-3.221,2.618-5.771,5.772-5.771c3.221,0,5.771,2.617,5.771,5.771
			c0,3.222-2.617,5.772-5.771,5.772C512.903,323.249,510.286,320.631,510.286,317.476L510.286,317.476z"/>
	</g>
	<g>
		<path fill="#898989" d="M498.205,336.269c0-3.222,2.617-5.772,5.771-5.772c3.222,0,5.772,2.618,5.772,5.772
			c0,3.222-2.618,5.771-5.772,5.771C500.822,342.107,498.205,339.49,498.205,336.269L498.205,336.269z"/>
	</g>
	<g>
		<path fill="#898989" d="M520.018,335.597c0-3.221,2.617-5.772,5.772-5.772c3.221,0,5.771,2.618,5.771,5.772
			c0,3.222-2.617,5.772-5.771,5.772C522.635,341.437,520.018,338.819,520.018,335.597L520.018,335.597z"/>
	</g>
	<g>
		<path fill="#898989" d="M505.052,352.845c0-3.221,2.617-5.771,5.771-5.771c3.221,0,5.771,2.617,5.771,5.771
			c0,3.222-2.617,5.772-5.771,5.772S505.052,356,505.052,352.845L505.052,352.845z"/>
	</g>
	<g>
		<path fill="#898989" d="M526.527,355.127c0-3.222,2.618-5.772,5.772-5.772c3.221,0,5.771,2.618,5.771,5.772
			c0,3.222-2.617,5.772-5.771,5.772C529.078,360.899,526.527,358.349,526.527,355.127L526.527,355.127z"/>
	</g>
	<g>
		<path fill="#898989" d="M509.614,369.758c0-3.221,2.618-5.772,5.772-5.772c3.222,0,5.771,2.618,5.771,5.772
			c0,3.222-2.617,5.772-5.771,5.772C512.232,375.598,509.614,372.98,509.614,369.758L509.614,369.758z"/>
	</g>
	<g>
		<path fill="#898989" d="M530.354,375.396c0-3.222,2.617-5.772,5.771-5.772c3.222,0,5.771,2.618,5.771,5.772
			c0,3.221-2.617,5.772-5.771,5.772C532.971,381.235,530.354,378.617,530.354,375.396L530.354,375.396z"/>
	</g>
	<g>
		<path fill="#898989" d="M511.964,387.477c0-3.222,2.618-5.772,5.772-5.772c3.221,0,5.771,2.618,5.771,5.772
			c0,3.222-2.617,5.772-5.771,5.772C514.581,393.315,511.964,390.698,511.964,387.477L511.964,387.477z"/>
	</g>
	<g>
		<path fill="#898989" d="M531.628,396c0-3.221,2.618-5.772,5.772-5.772c3.221,0,5.771,2.618,5.771,5.772
			c0,3.222-2.617,5.771-5.771,5.771S531.628,399.222,531.628,396L531.628,396z"/>
	</g>
	<g>
		<path fill="#898989" d="M511.964,405.128c0-3.222,2.618-5.772,5.772-5.772c3.221,0,5.771,2.618,5.771,5.772
			c0,3.222-2.617,5.771-5.771,5.771C514.581,410.967,511.964,408.35,511.964,405.128L511.964,405.128z"/>
	</g>
	<g>
		<path fill="#898989" d="M530.151,416.604c0-3.222,2.618-5.771,5.772-5.771c3.222,0,5.771,2.617,5.771,5.771
			c0,3.221-2.617,5.771-5.771,5.771S530.151,419.825,530.151,416.604L530.151,416.604z"/>
	</g>
	<g>
		<path fill="#898989" d="M509.347,422.846c0-3.222,2.617-5.771,5.771-5.771c3.222,0,5.772,2.617,5.772,5.771
			s-2.618,5.771-5.772,5.771C511.896,428.617,509.347,426.067,509.347,422.846L509.347,422.846z"/>
	</g>
	<g>
		<path fill="#898989" d="M526.058,436.738c0-3.222,2.617-5.771,5.771-5.771c3.222,0,5.772,2.617,5.772,5.771
			c0,3.222-2.618,5.772-5.772,5.772S526.058,439.893,526.058,436.738L526.058,436.738z"/>
	</g>
	<g>
		<path fill="#898989" d="M504.179,439.691c0-3.222,2.617-5.771,5.771-5.771c3.222,0,5.771,2.617,5.771,5.771
			c0,3.222-2.617,5.771-5.771,5.771C506.796,445.53,504.179,442.913,504.179,439.691L504.179,439.691z"/>
	</g>
	<g>
		<path fill="#898989" d="M519.078,456.269c0-3.222,2.617-5.771,5.771-5.771c3.222,0,5.772,2.617,5.772,5.771
			c0,3.222-2.618,5.771-5.772,5.771S519.078,459.49,519.078,456.269L519.078,456.269z"/>
	</g>
	<g>
		<path fill="#898989" d="M496.93,455.799c0-3.222,2.618-5.771,5.772-5.771c3.222,0,5.771,2.617,5.771,5.771
			c0,3.221-2.617,5.772-5.771,5.772C499.548,461.638,496.93,459.02,496.93,455.799L496.93,455.799z"/>
	</g>
	<g>
		<path fill="#898989" d="M509.347,474.322c0-3.221,2.617-5.772,5.771-5.772c3.222,0,5.772,2.618,5.772,5.772
			c0,3.222-2.618,5.772-5.772,5.772C511.896,480.161,509.347,477.544,509.347,474.322L509.347,474.322z"/>
	</g>
	<g>
		<path fill="#898989" d="M487.534,470.967c0-3.222,2.617-5.772,5.772-5.772c3.221,0,5.771,2.618,5.771,5.772
			c0,3.221-2.617,5.771-5.771,5.771C490.151,476.738,487.534,474.121,487.534,470.967L487.534,470.967z"/>
	</g>
	<g>
		<path fill="#898989" d="M496.394,490.229c0-3.222,2.617-5.772,5.771-5.772c3.222,0,5.771,2.618,5.771,5.772
			c0,3.222-2.617,5.771-5.771,5.771C498.943,496,496.394,493.383,496.394,490.229L496.394,490.229z"/>
	</g>
	<g>
		<path fill="#898989" d="M487.534,492.98c0.873,0,1.477-0.604,2.147-1.141c0.604-0.538,1.208-1.008,1.88-1.544
			c1.207-1.007,2.349-2.081,3.423-3.154c2.281-2.215,4.43-4.497,6.51-6.913c4.229-5.033,7.986-10.402,11.208-16.107
			c6.913-12.147,11.678-25.503,14.362-39.195c2.886-14.563,3.558-29.53,2.014-44.295c-1.477-14.229-5.033-28.255-10.806-41.41
			c-5.302-12.081-12.482-23.355-21.745-32.751c-2.215-2.215-4.497-4.295-6.913-6.309c-0.536-0.47-1.073-1.007-1.812-1.141
			s-1.544,0.268-1.946,0.873c-0.402,0.604-0.402,1.342-0.135,2.013c0.336,0.671,1.142,1.141,1.679,1.611
			c4.832,3.96,9.194,8.523,13.087,13.49c8.39,10.604,14.496,22.953,18.591,35.772c4.496,13.96,6.712,28.591,6.712,43.222
			s-2.216,29.262-6.712,43.222c-4.161,12.819-10.269,25.168-18.591,35.771c-2.617,3.356-5.437,6.511-8.523,9.396
			c-1.544,1.477-3.088,2.818-4.698,4.161c-0.806,0.671-1.745,1.208-1.745,2.349C485.454,492.04,486.394,492.98,487.534,492.98"/>
	</g>
	<g>
		<path fill="#898989" d="M123.775,321.638c0-3.222-2.617-5.772-5.771-5.772c-3.222,0-5.772,2.618-5.772,5.772
			c0,3.221,2.618,5.771,5.772,5.771S123.775,324.859,123.775,321.638L123.775,321.638z"/>
	</g>
	<g>
		<path fill="#898989" d="M115.05,301.772c0-3.154-2.618-5.772-5.839-5.772c-3.221,0-5.771,2.618-5.771,5.772
			s2.617,5.771,5.771,5.771C112.433,307.61,115.05,304.993,115.05,301.772L115.05,301.772z"/>
	</g>
	<g>
		<path fill="#898989" d="M101.694,317.409c0-3.221-2.617-5.771-5.771-5.771c-3.222,0-5.772,2.617-5.772,5.771
			s2.618,5.772,5.772,5.772C99.077,323.249,101.694,320.631,101.694,317.409L101.694,317.409z"/>
	</g>
	<g>
		<path fill="#898989" d="M113.775,336.269c0-3.222-2.617-5.772-5.772-5.772c-3.221,0-5.771,2.618-5.771,5.772
			c0,3.222,2.617,5.771,5.771,5.771C111.158,342.04,113.775,339.49,113.775,336.269L113.775,336.269z"/>
	</g>
	<g>
		<path fill="#898989" d="M91.963,335.597c0-3.221-2.618-5.772-5.772-5.772c-3.221,0-5.771,2.618-5.771,5.772
			c0,3.222,2.617,5.772,5.771,5.772S91.963,338.751,91.963,335.597L91.963,335.597z"/>
	</g>
	<g>
		<path fill="#898989" d="M106.93,352.778c0-3.221-2.618-5.771-5.772-5.771c-3.222,0-5.772,2.617-5.772,5.771
			c0,3.222,2.617,5.772,5.772,5.772C104.379,358.618,106.93,356,106.93,352.778L106.93,352.778z"/>
	</g>
	<g>
		<path fill="#898989" d="M85.52,355.061c0-3.222-2.618-5.772-5.772-5.772c-3.221,0-5.771,2.617-5.771,5.772
			c0,3.221,2.617,5.771,5.771,5.771C82.902,360.899,85.52,358.282,85.52,355.061L85.52,355.061z"/>
	</g>
	<g>
		<path fill="#898989" d="M102.366,369.758c0-3.221-2.618-5.772-5.772-5.772s-5.772,2.618-5.772,5.772
			c0,3.222,2.618,5.772,5.772,5.772S102.366,372.913,102.366,369.758L102.366,369.758z"/>
	</g>
	<g>
		<path fill="#898989" d="M81.627,375.396c0-3.222-2.618-5.772-5.772-5.772c-3.222,0-5.771,2.618-5.771,5.772
			c0,3.221,2.617,5.772,5.771,5.772S81.627,378.55,81.627,375.396L81.627,375.396z"/>
	</g>
	<g>
		<path fill="#898989" d="M100.017,387.477c0-3.222-2.617-5.772-5.771-5.772s-5.772,2.618-5.772,5.772
			c0,3.222,2.618,5.772,5.772,5.772S100.017,390.631,100.017,387.477L100.017,387.477z"/>
	</g>
	<g>
		<path fill="#898989" d="M80.353,395.933c0-3.222-2.618-5.772-5.772-5.772c-3.154,0-5.839,2.618-5.839,5.772
			c0,3.221,2.618,5.771,5.772,5.771S80.353,399.154,80.353,395.933L80.353,395.933z"/>
	</g>
	<g>
		<path fill="#898989" d="M100.017,405.128c0-3.222-2.617-5.772-5.771-5.772s-5.772,2.618-5.772,5.772
			c0,3.222,2.618,5.771,5.772,5.771S100.017,408.282,100.017,405.128L100.017,405.128z"/>
	</g>
	<g>
		<path fill="#898989" d="M81.829,416.537c0-3.222-2.617-5.771-5.771-5.771c-3.222,0-5.772,2.617-5.772,5.771
			c0,3.222,2.618,5.771,5.772,5.771C79.211,422.376,81.829,419.759,81.829,416.537L81.829,416.537z"/>
	</g>
	<g>
		<path fill="#898989" d="M102.634,422.779c0-3.222-2.618-5.772-5.772-5.772c-3.222,0-5.771,2.617-5.771,5.772
			c0,3.221,2.617,5.771,5.771,5.771C100.083,428.617,102.634,426,102.634,422.779L102.634,422.779z"/>
	</g>
	<g>
		<path fill="#898989" d="M85.923,436.671c0-3.222-2.618-5.771-5.772-5.771c-3.222,0-5.771,2.617-5.771,5.771
			c0,3.222,2.617,5.772,5.771,5.772C83.305,442.511,85.923,439.893,85.923,436.671L85.923,436.671z"/>
	</g>
	<g>
		<path fill="#898989" d="M107.802,439.691c0-3.222-2.617-5.771-5.772-5.771c-3.221,0-5.771,2.617-5.771,5.771
			c0,3.222,2.617,5.771,5.771,5.771C105.185,445.463,107.802,442.913,107.802,439.691L107.802,439.691z"/>
	</g>
	<g>
		<path fill="#898989" d="M92.902,456.201c0-3.221-2.617-5.771-5.771-5.771c-3.222,0-5.772,2.617-5.772,5.771
			c0,3.222,2.618,5.772,5.772,5.772C90.285,462.04,92.902,459.423,92.902,456.201L92.902,456.201z"/>
	</g>
	<g>
		<path fill="#898989" d="M115.05,455.799c0-3.222-2.618-5.771-5.772-5.771c-3.222,0-5.771,2.617-5.771,5.771
			c0,3.221,2.617,5.772,5.771,5.772S115.05,459.02,115.05,455.799L115.05,455.799z"/>
	</g>
	<g>
		<path fill="#898989" d="M102.634,474.322c0-3.221-2.618-5.772-5.772-5.772c-3.222,0-5.771,2.618-5.771,5.772
			s2.617,5.772,5.771,5.772C100.083,480.094,102.634,477.477,102.634,474.322L102.634,474.322z"/>
	</g>
	<g>
		<path fill="#898989" d="M124.446,470.899c0-3.222-2.618-5.771-5.772-5.771c-3.221,0-5.771,2.617-5.771,5.771
			c0,3.222,2.617,5.772,5.771,5.772C121.829,476.738,124.446,474.121,124.446,470.899L124.446,470.899z"/>
	</g>
	<g>
		<path fill="#898989" d="M115.654,490.162c0-3.223-2.618-5.772-5.772-5.772c-3.221,0-5.771,2.617-5.771,5.772
			c0,3.154,2.617,5.771,5.771,5.771C113.037,496,115.654,493.383,115.654,490.162L115.654,490.162z"/>
	</g>
	<g>
		<path fill="#898989" d="M124.446,492.98c-0.873,0-1.477-0.604-2.148-1.141c-0.604-0.538-1.208-1.008-1.879-1.544
			c-1.208-1.007-2.349-2.081-3.423-3.154c-2.282-2.215-4.43-4.497-6.51-6.913c-4.229-5.033-7.987-10.402-11.208-16.107
			c-6.913-12.147-11.678-25.503-14.362-39.195c-2.886-14.563-3.557-29.53-2.014-44.295c1.477-14.229,5.034-28.255,10.805-41.41
			c5.303-12.081,12.484-23.355,21.746-32.751c2.215-2.215,4.496-4.295,6.913-6.309c0.537-0.47,1.074-1.007,1.812-1.141
			s1.544,0.268,1.946,0.873c0.403,0.604,0.403,1.342,0.134,2.013c-0.335,0.671-1.141,1.141-1.678,1.611
			c-4.833,4.027-9.195,8.591-13.087,13.49c-8.389,10.604-14.497,22.953-18.658,35.772c-4.497,13.96-6.711,28.591-6.711,43.222
			s2.215,29.262,6.711,43.222c4.161,12.819,10.269,25.168,18.591,35.771c2.617,3.356,5.436,6.511,8.523,9.396
			c1.544,1.477,3.087,2.818,4.698,4.161c0.805,0.671,1.745,1.208,1.745,2.349C126.527,491.974,125.587,492.98,124.446,492.98"/>
	</g>
	<g>
		<path fill="#898989" d="M278.943,355.933c0,2.417-0.537,4.229-1.544,5.503c-1.007,1.275-2.55,1.947-4.563,1.947
			s-3.49-0.671-4.564-1.947c-1.007-1.275-1.543-3.154-1.543-5.503c0-2.416,0.537-4.228,1.543-5.503
			c1.007-1.275,2.55-1.946,4.564-1.946s3.49,0.671,4.563,1.946C278.406,351.705,278.943,353.583,278.943,355.933z M276.125,355.933
			c0-1.745-0.269-3.02-0.805-3.825c-0.537-0.873-1.41-1.275-2.551-1.275c-1.141,0-2.013,0.403-2.55,1.275
			c-0.537,0.873-0.805,2.147-0.805,3.825c0,1.745,0.201,3.021,0.805,3.826c0.537,0.873,1.41,1.275,2.55,1.275
			c1.141,0,1.946-0.403,2.551-1.275C275.856,358.953,276.125,357.678,276.125,355.933z"/>
		<path fill="#898989" d="M283.708,354.792v8.456h-2.483v-8.456h-1.477v-2.014h1.41v-1.275c0-0.537,0.067-1.007,0.201-1.41
			c0.134-0.403,0.269-0.671,0.537-0.939c0.269-0.201,0.537-0.403,0.94-0.47s0.805-0.134,1.342-0.134h1.678v2.014h-0.671
			c-0.537,0-0.873,0.067-1.074,0.268c-0.202,0.202-0.335,0.47-0.335,0.873v1.141h2.081v2.014h-2.147V354.792z"/>
	</g>
	<g>
		<path fill="#898989" d="M290.554,354.792v8.456h-2.483v-8.456h-1.477v-2.014h1.41v-1.275c0-0.537,0.067-1.007,0.201-1.41
			c0.135-0.403,0.269-0.671,0.538-0.939c0.268-0.201,0.537-0.403,0.939-0.47c0.402-0.067,0.805-0.134,1.342-0.134h1.678v2.014
			h-0.671c-0.537,0-0.873,0.067-1.074,0.268c-0.201,0.202-0.335,0.47-0.335,0.873v1.141h2.081v2.014h-2.148V354.792z
			 M293.775,350.832v-2.349h2.483v2.349H293.775z M296.326,363.248h-2.484v-10.47h2.484V363.248z"/>
	</g>
	<g>
		<path fill="#898989" d="M304.447,356.134c-0.202-0.47-0.47-0.805-0.739-1.141c-0.268-0.335-0.738-0.47-1.342-0.47
			c-0.671,0-1.208,0.269-1.544,0.806c-0.335,0.537-0.537,1.409-0.537,2.617s0.201,2.013,0.537,2.618
			c0.336,0.537,0.873,0.805,1.611,0.805c0.537,0,1.007-0.134,1.342-0.47s0.604-0.738,0.873-1.208l1.879,1.074
			c-0.537,0.94-1.074,1.61-1.745,2.013s-1.477,0.604-2.416,0.604c-0.738,0-1.343-0.135-1.946-0.403
			c-0.537-0.269-1.074-0.604-1.41-1.074c-0.403-0.47-0.671-1.006-0.873-1.678c-0.201-0.671-0.335-1.41-0.335-2.282
			c0-0.873,0.134-1.611,0.335-2.282c0.202-0.671,0.537-1.208,0.873-1.678c0.403-0.47,0.873-0.805,1.41-1.074
			c0.537-0.268,1.208-0.403,1.946-0.403c1.006,0,1.879,0.269,2.617,0.738c0.738,0.47,1.275,1.208,1.544,2.081L304.447,356.134z"/>
		<path fill="#898989" d="M308.272,350.832v-2.349h2.482v2.349H308.272z M310.755,363.248h-2.482v-10.47h2.482V363.248z"/>
		<path fill="#898989" d="M318.271,363.248l-0.134-0.939c-0.536,0.335-1.007,0.604-1.544,0.805
			c-0.536,0.202-1.073,0.269-1.744,0.269c-0.47,0-0.873-0.067-1.208-0.202c-0.336-0.134-0.671-0.335-0.873-0.604
			c-0.269-0.269-0.402-0.537-0.536-0.872c-0.135-0.336-0.201-0.671-0.201-1.007c0-1.208,0.469-2.147,1.476-2.751
			c1.007-0.671,2.483-1.074,4.563-1.342v-0.873c0-0.402-0.134-0.738-0.402-0.939s-0.671-0.336-1.074-0.336
			c-0.604,0-1.073,0.135-1.408,0.403c-0.336,0.269-0.672,0.537-0.873,0.873l-1.611-1.208c0.135-0.269,0.403-0.537,0.671-0.805
			c0.27-0.202,0.604-0.47,0.94-0.604c0.336-0.202,0.738-0.336,1.141-0.403s0.806-0.134,1.141-0.134c0.672,0,1.275,0.067,1.812,0.268
			c0.537,0.135,0.94,0.403,1.275,0.738c0.336,0.336,0.537,0.739,0.738,1.275c0.134,0.537,0.201,1.208,0.201,1.946v4.967
			c0,0.268,0,0.537,0.067,0.805c0,0.269,0.067,0.47,0.135,0.738h-2.552V363.248z M318.004,358.215
			c-0.402,0.067-0.806,0.201-1.275,0.269c-0.402,0.067-0.806,0.201-1.141,0.402c-0.336,0.134-0.604,0.335-0.806,0.604
			s-0.335,0.537-0.335,0.939c0,0.403,0.134,0.671,0.335,0.94c0.201,0.201,0.537,0.336,0.872,0.336c0.201,0,0.403-0.067,0.604-0.135
			c0.201-0.067,0.402-0.134,0.604-0.268c0.201-0.135,0.402-0.202,0.604-0.336s0.336-0.269,0.47-0.335v-2.416H318.004z"/>
		<path fill="#898989" d="M322.567,363.248v-14.563h2.483v14.563H322.567z"/>
	</g>
	<g>
		<path fill="#898989" d="M339.95,352.577c-0.201-0.537-0.537-1.007-0.939-1.342c-0.403-0.335-1.007-0.537-1.61-0.537
			c-0.604,0-1.074,0.134-1.477,0.403c-0.403,0.269-0.604,0.671-0.604,1.208c0,0.403,0.201,0.738,0.537,1.007
			c0.335,0.268,0.806,0.537,1.409,0.738s1.141,0.47,1.812,0.738c0.671,0.269,1.274,0.537,1.812,0.872
			c0.537,0.336,1.007,0.806,1.41,1.343c0.335,0.537,0.536,1.208,0.536,1.946c0,1.476-0.47,2.617-1.342,3.355
			c-0.873,0.738-2.148,1.074-3.759,1.074c-0.604,0-1.141-0.067-1.745-0.269c-0.537-0.134-1.074-0.402-1.543-0.671
			c-0.471-0.269-0.939-0.671-1.276-1.074c-0.401-0.403-0.671-0.873-0.872-1.41l2.282-1.006c0.335,0.671,0.738,1.208,1.208,1.678
			c0.47,0.403,1.141,0.604,1.946,0.604c0.335,0,0.671,0,0.939-0.067c0.269-0.067,0.537-0.201,0.806-0.335
			c0.201-0.134,0.402-0.335,0.537-0.604c0.134-0.269,0.201-0.537,0.201-0.872c0-0.47-0.201-0.873-0.537-1.208
			c-0.336-0.336-0.806-0.604-1.409-0.873c-0.537-0.268-1.142-0.537-1.812-0.738c-0.671-0.202-1.274-0.537-1.812-0.873
			c-0.536-0.335-1.006-0.738-1.409-1.275c-0.402-0.47-0.536-1.141-0.536-1.879c0-0.671,0.134-1.208,0.402-1.745
			c0.269-0.537,0.604-0.939,1.007-1.275c0.402-0.335,0.939-0.604,1.476-0.805c0.538-0.202,1.142-0.269,1.813-0.269
			c1.141,0,2.214,0.269,3.086,0.872c0.94,0.538,1.611,1.41,2.014,2.417L339.95,352.577z"/>
		<path fill="#898989" d="M346.46,358.416c0,1.074,0.269,1.879,0.672,2.349c0.401,0.47,0.939,0.671,1.477,0.671
			c0.604,0,1.006-0.134,1.342-0.335c0.336-0.201,0.671-0.537,0.939-0.873l1.812,1.141c-0.471,0.738-1.074,1.275-1.812,1.611
			c-0.738,0.335-1.61,0.537-2.617,0.537c-0.672,0-1.275-0.134-1.812-0.403c-0.537-0.268-1.006-0.604-1.409-1.074
			c-0.402-0.47-0.672-1.006-0.873-1.678c-0.201-0.671-0.335-1.409-0.335-2.282s0.134-1.611,0.335-2.282
			c0.201-0.671,0.538-1.208,0.873-1.678c0.403-0.47,0.872-0.806,1.409-1.074s1.208-0.402,1.879-0.402s1.275,0.134,1.812,0.402
			s1.007,0.604,1.342,1.074c0.336,0.47,0.672,0.939,0.806,1.543c0.202,0.604,0.269,1.208,0.269,1.812v0.939H346.46z
			 M350.487,356.671c0-0.738-0.201-1.275-0.604-1.678c-0.335-0.402-0.806-0.604-1.409-0.604s-1.074,0.202-1.409,0.604
			c-0.336,0.403-0.537,0.939-0.604,1.678H350.487z"/>
	</g>
	<g>
		<path fill="#898989" d="M354.514,363.248v-14.563h2.483v14.563H354.514z"/>
		<path fill="#898989" d="M361.158,358.416c0,1.074,0.269,1.879,0.671,2.349c0.403,0.47,0.939,0.671,1.477,0.671
			c0.604,0,1.007-0.134,1.343-0.335c0.335-0.201,0.671-0.537,0.939-0.873l1.812,1.141c-0.469,0.738-1.073,1.275-1.812,1.611
			c-0.738,0.335-1.611,0.537-2.617,0.537c-0.672,0-1.275-0.134-1.812-0.403c-0.537-0.268-1.007-0.604-1.409-1.074
			c-0.403-0.47-0.671-1.006-0.872-1.678c-0.202-0.671-0.336-1.409-0.336-2.282s0.134-1.611,0.336-2.282
			c0.201-0.671,0.536-1.208,0.872-1.678c0.402-0.47,0.872-0.806,1.409-1.074s1.208-0.402,1.879-0.402
			c0.672,0,1.275,0.134,1.812,0.402s1.006,0.604,1.342,1.074c0.336,0.47,0.672,0.939,0.806,1.543
			c0.201,0.604,0.269,1.208,0.269,1.812v0.939H361.158z M365.186,356.671c0-0.738-0.202-1.275-0.604-1.678
			c-0.336-0.402-0.806-0.604-1.409-0.604c-0.604,0-1.074,0.202-1.41,0.604c-0.335,0.403-0.536,0.939-0.604,1.678H365.186z"/>
		<path fill="#898989" d="M374.983,356.134c-0.201-0.47-0.47-0.805-0.738-1.141c-0.268-0.335-0.738-0.47-1.342-0.47
			c-0.672,0-1.208,0.269-1.544,0.806c-0.335,0.537-0.536,1.409-0.536,2.617s0.201,2.013,0.536,2.618
			c0.336,0.537,0.872,0.805,1.61,0.805c0.537,0,1.008-0.134,1.343-0.47c0.336-0.335,0.604-0.738,0.872-1.208l1.88,1.074
			c-0.537,0.94-1.074,1.61-1.745,2.013s-1.477,0.604-2.417,0.604c-0.738,0-1.341-0.135-1.878-0.403
			c-0.538-0.269-1.074-0.604-1.41-1.074c-0.402-0.47-0.671-1.006-0.872-1.678s-0.335-1.41-0.335-2.282
			c0-0.873,0.134-1.611,0.335-2.282c0.201-0.671,0.537-1.208,0.872-1.678c0.403-0.47,0.872-0.805,1.41-1.074
			c0.537-0.268,1.207-0.403,1.878-0.403c1.008,0,1.88,0.269,2.618,0.738c0.738,0.47,1.275,1.208,1.544,2.081L374.983,356.134z"/>
		<path fill="#898989" d="M379.278,352.778v-3.49h2.483v3.49h2.081v2.014h-2.081v5.906c0,0.269,0.067,0.47,0.202,0.604
			c0.134,0.067,0.402,0.134,0.671,0.134c0.201,0,0.402,0,0.604-0.067c0.202-0.067,0.403-0.067,0.604-0.134v2.081
			c-0.335,0.067-0.671,0.067-1.007,0.134c-0.336,0-0.671,0.067-1.007,0.067c-0.939,0-1.61-0.201-2.014-0.671
			c-0.402-0.403-0.604-1.007-0.604-1.745v-6.242h-1.477v-2.014h1.543V352.778z"/>
		<path fill="#898989" d="M385.521,350.832v-2.349h2.483v2.349H385.521z M388.004,363.248h-2.483v-10.47h2.483V363.248z"/>
		<path fill="#898989" d="M389.682,358.013c0-0.805,0.135-1.611,0.336-2.282s0.537-1.208,0.872-1.678
			c0.402-0.47,0.872-0.806,1.41-1.074c0.536-0.269,1.207-0.403,1.879-0.403c0.738,0,1.342,0.134,1.879,0.403
			c0.537,0.268,1.007,0.604,1.409,1.074c0.403,0.47,0.671,1.074,0.872,1.678c0.202,0.671,0.336,1.409,0.336,2.282
			s-0.134,1.611-0.336,2.282c-0.201,0.671-0.536,1.275-0.872,1.678c-0.402,0.47-0.872,0.805-1.409,1.074s-1.208,0.403-1.879,0.403
			c-0.739,0-1.343-0.134-1.879-0.403c-0.537-0.269-1.075-0.604-1.41-1.074c-0.403-0.47-0.671-1.007-0.872-1.678
			C389.749,359.557,389.682,358.818,389.682,358.013z M396.259,358.013c0-1.208-0.134-2.013-0.537-2.617
			c-0.335-0.537-0.872-0.805-1.543-0.805c-0.672,0-1.208,0.268-1.544,0.805c-0.335,0.537-0.537,1.409-0.537,2.617
			s0.135,2.014,0.537,2.618c0.336,0.537,0.872,0.805,1.544,0.805c0.671,0,1.208-0.269,1.543-0.805
			C396.125,360.027,396.259,359.154,396.259,358.013z"/>
	</g>
	<g>
		<path fill="#898989" d="M400.286,363.248v-10.47h2.282v1.141c0.469-0.336,0.939-0.604,1.476-0.939
			c0.537-0.335,1.074-0.403,1.745-0.403c1.074,0,1.812,0.335,2.35,0.939c0.536,0.604,0.738,1.477,0.738,2.55v7.181h-2.484v-6.846
			c0-0.738-0.134-1.208-0.335-1.476c-0.201-0.269-0.537-0.403-0.939-0.403c-0.537,0-1.007,0.134-1.41,0.403
			c-0.402,0.268-0.671,0.47-0.938,0.738v7.517h-2.483V363.248z"/>
	</g>
	<g>
		<path fill="#898989" d="M415.99,363.248v-2.416c0.067-0.403,0.269-0.805,0.671-1.208c0.403-0.403,0.873-0.873,1.41-1.342
			s1.073-0.939,1.678-1.41c0.604-0.47,1.141-0.939,1.678-1.409s0.939-0.939,1.275-1.409c0.335-0.47,0.537-0.939,0.537-1.342
			c0-0.671-0.202-1.141-0.604-1.477c-0.403-0.335-0.939-0.537-1.61-0.537c-0.738,0-1.275,0.202-1.745,0.671
			c-0.403,0.403-0.738,1.007-0.872,1.678l-2.35-0.537c0.067-0.537,0.269-1.073,0.536-1.543c0.27-0.47,0.672-0.873,1.075-1.276
			c0.469-0.335,0.939-0.604,1.543-0.805c0.604-0.201,1.208-0.335,1.812-0.335s1.274,0.067,1.812,0.269s1.074,0.469,1.477,0.805
			c0.402,0.335,0.738,0.805,1.007,1.343c0.269,0.537,0.403,1.141,0.403,1.812c0,0.873-0.202,1.678-0.538,2.349
			c-0.401,0.671-0.872,1.275-1.543,1.946c-0.672,0.604-1.343,1.208-2.215,1.879c-0.806,0.671-1.678,1.342-2.617,2.214h6.979v2.282
			h-9.799V363.248z"/>
		<path fill="#898989" d="M427.266,355.933c0-1.074,0.067-2.013,0.269-2.953c0.201-0.94,0.47-1.678,0.939-2.349
			c0.403-0.671,0.939-1.208,1.61-1.611c0.672-0.402,1.477-0.604,2.483-0.604c0.94,0,1.812,0.202,2.483,0.604
			c0.671,0.403,1.208,0.939,1.611,1.611c0.402,0.671,0.738,1.477,0.939,2.349s0.269,1.879,0.269,2.953
			c0,1.074-0.067,2.014-0.269,2.953c-0.201,0.873-0.47,1.678-0.939,2.349c-0.403,0.671-0.94,1.208-1.611,1.611
			c-0.671,0.402-1.476,0.604-2.483,0.604c-0.939,0-1.812-0.202-2.483-0.604c-0.671-0.403-1.207-0.94-1.61-1.611
			c-0.402-0.671-0.738-1.477-0.939-2.349C427.333,357.946,427.266,357.007,427.266,355.933z M429.883,355.933
			c0,1.007,0.067,1.812,0.201,2.483c0.135,0.671,0.336,1.208,0.537,1.611c0.201,0.402,0.537,0.671,0.873,0.873
			c0.335,0.201,0.671,0.268,1.073,0.268c0.403,0,0.738-0.067,1.074-0.268c0.335-0.202,0.604-0.47,0.872-0.873
			c0.201-0.403,0.402-0.939,0.537-1.611c0.135-0.671,0.201-1.544,0.201-2.483c0-1.006-0.066-1.812-0.201-2.483
			s-0.336-1.208-0.537-1.611c-0.201-0.402-0.537-0.671-0.872-0.872c-0.336-0.202-0.671-0.269-1.074-0.269
			c-0.402,0-0.738,0.067-1.073,0.269c-0.336,0.201-0.604,0.47-0.873,0.872c-0.201,0.403-0.402,0.939-0.537,1.611
			C429.95,354.121,429.883,354.926,429.883,355.933z"/>
	</g>
	<g>
		<path fill="#898989" d="M440.018,363.248v-2.013h2.282v-10.067h-2.551v-1.678c0.671,0,1.275-0.134,1.812-0.269
			c0.536-0.134,1.006-0.402,1.342-0.738h2.014v12.752h2.215v2.013H440.018z"/>
		<path fill="#898989" d="M450.487,348.685h7.853v2.282h-5.906l-0.201,3.288c0.134-0.134,0.269-0.201,0.402-0.335
			c0.135-0.067,0.336-0.201,0.536-0.269c0.202-0.067,0.471-0.134,0.739-0.201s0.604-0.067,1.007-0.067
			c0.671,0,1.274,0.134,1.812,0.402s1.007,0.671,1.343,1.074c0.402,0.47,0.671,1.007,0.873,1.543c0.2,0.604,0.335,1.141,0.335,1.746
			c0,0.805-0.135,1.476-0.335,2.147c-0.202,0.671-0.538,1.208-1.008,1.61c-0.47,0.47-1.007,0.806-1.678,1.007
			c-0.671,0.268-1.477,0.335-2.349,0.335c-1.141,0-2.147-0.268-2.886-0.738c-0.806-0.47-1.409-1.141-1.812-1.946l2.147-1.141
			c0.201,0.537,0.604,0.939,1.074,1.208s1.007,0.47,1.477,0.47c0.939,0,1.61-0.269,2.014-0.805c0.402-0.537,0.671-1.275,0.671-2.215
			c0-0.403-0.067-0.738-0.202-1.074c-0.134-0.336-0.268-0.604-0.469-0.873c-0.201-0.269-0.471-0.403-0.806-0.537
			c-0.336-0.134-0.671-0.201-1.007-0.201c-0.537,0-0.94,0.134-1.342,0.335c-0.403,0.269-0.672,0.537-0.873,0.873l-1.946-0.202
			L450.487,348.685z"/>
	</g>
</g>
</svg>
