<?xml version="1.0" encoding="utf-8"?>
<!-- Generator: Adobe Illustrator 19.0.1, SVG Export Plug-In . SVG Version: 6.00 Build 0)  -->
<!DOCTYPE svg PUBLIC "-//W3C//DTD SVG 1.1//EN" "http://www.w3.org/Graphics/SVG/1.1/DTD/svg11.dtd">
<svg version="1.1" id="Logo_OUTLINES" xmlns="http://www.w3.org/2000/svg" xmlns:xlink="http://www.w3.org/1999/xlink" x="0px"
	 y="0px" viewBox="1448.2 295.6 364.5 200" style="enable-background:new 1448.2 295.6 364.5 200;" xml:space="preserve">
<style type="text/css">
	.st0{fill:#898989;}
</style>
<path class="st0" d="M1570.3,333.3h5.2v-18.9h7.2v-4.8h-19.6v4.8h7.2L1570.3,333.3L1570.3,333.3z M1606.8,317.5L1606.8,317.5
	c0-4.9-3.3-7.9-8.9-7.9h-10.3v23.7h5.2v-7.6h3.6l5.1,7.6h6.1l-5.8-8.4C1604.8,323.7,1606.8,321.3,1606.8,317.5z M1601.6,317.7
	c0,2-1.4,3.3-4,3.3h-4.7v-6.8h4.6C1600,314.3,1601.6,315.5,1601.6,317.7L1601.6,317.7L1601.6,317.7z M1648.7,326.8L1648.7,326.8
	c0-3.3-1.7-4.8-4.4-5.9c1.7-0.9,3.1-2.4,3.1-5.1v-0.1c0-3.7-3-6.1-7.8-6.1h-11v23.7h11.3C1645.1,333.3,1648.7,331.1,1648.7,326.8z
	 M1633.6,314.2h5.1c2.2,0,3.4,0.9,3.4,2.4v0.1c0,1.8-1.4,2.5-3.7,2.5h-4.8V314.2z M1633.6,323.5h6c2.7,0,3.9,1,3.9,2.6v0.1
	c0,1.8-1.4,2.6-3.7,2.6h-6.2V323.5z M1673,328.6h-12.8v-5h11.2V319h-11.2v-4.8h12.7v-4.6H1655v23.7h18V328.6z M1690,333.7
	c4.6,0,7.3-1.6,9.7-4.2l-3.3-3.3c-1.9,1.7-3.5,2.8-6.2,2.8c-4.1,0-6.9-3.4-6.9-7.4v-0.1c0-4.1,2.9-7.4,6.9-7.4c2.4,0,4.2,1,6,2.7
	l3.3-3.8c-2.2-2.2-4.9-3.7-9.3-3.7c-7.3,0-12.3,5.5-12.3,12.2v0.1C1677.9,328.3,1683.1,333.7,1690,333.7z M1723,333.3h5.4
	l-10.1-23.8h-4.8l-10.1,23.8h5.3l2.2-5.3h10L1723,333.3z M1712.7,323.4l3.1-7.7l3.1,7.7H1712.7z M1592.8,357.1h9.7v-4.7h-9.7v-5
	h13.4v-4.7h-18.6v23.7h5.2V357.1z M1628.5,342.6v23.7h17v-4.7h-11.8v-18.9H1628.5z M1658.7,350.9l6.6,10h0.1l6.7-10.1v15.4h5.2
	v-23.7h-5.6l-6.2,10l-6.2-10h-5.6v23.7h5.1V350.9z M1519,399.3h5.2v-9.2h11.3v-4.7h-11.3v-5h12.8v-4.7h-18V399.3z M1547.1,389.7
	h11.2v-4.6h-11.2v-4.8h12.7v-4.6h-17.8v23.7h18v-4.6h-12.9V389.7L1547.1,389.7z M1576.1,385.2c-4.1-1.1-5.1-1.6-5.1-3.1V382
	c0-1.1,1.1-2.1,3-2.1s4.1,0.9,6.2,2.3l2.7-3.9c-2.4-1.9-5.3-3-8.8-3c-4.8,0-8.3,2.8-8.3,7.1v0.1c0,4.7,3.1,6,7.8,7.2
	c4,1,4.8,1.7,4.8,3v0.1c0,1.4-1.3,2.2-3.4,2.2c-2.7,0-4.9-1.1-7.1-2.9l-3.1,3.7c2.8,2.5,6.4,3.8,10,3.8c5.1,0,8.7-2.6,8.7-7.3v-0.1
	C1583.6,388.1,1580.9,386.4,1576.1,385.2z M1587,380.5h7.2v18.9h5.2v-18.9h7.2v-4.8H1587V380.5z M1641.7,399.5l9.5-23.8h-5.6
	l-6.2,16.7l-6.2-16.7h-5.7l9.6,23.8H1641.7z M1668.4,394l2.2,5.3h5.4l-10.1-23.8h-4.8l-10.1,23.8h5.3l2.2-5.3H1668.4z M1663.4,381.7
	l3.1,7.7h-6.3L1663.4,381.7z M1697.1,394.6h-11.8v-18.9h-5.2v23.7h17V394.6L1697.1,394.6z M1614.2,418.2h5.3V295.6h-5.3V418.2z"/>
<g>
	<path class="st0" d="M1550.6,479.8c-34.6-2-61.5-23.3-75.5-53.7c-5.7-12.6-7.6-26.8-7.2-41.9c0.8-26.8,13.4-50.8,33.2-69
		c0.1-0.1,0.1-0.1,0.2,0c0.1,0.1,0.2,0.2,0.4,0.2c0.1,0,0.2,0,0.1,0.1c-21,18.7-33.2,47.1-32.4,75.1c0.9,40,26.7,73.9,62,84
		c5.9,1.7,12.1,2.9,18.4,3.3C1550.2,478.4,1550.5,479,1550.6,479.8z"/>
	<g>
		<path class="st0" d="M1459.6,418.3c3,2.7,7.7,5.2,12.4,3.8c0.3,0.3,1.7,1.8,1.9,2c0.2,0.3,0.7,0.5,1,0.3c0.2-0.1,0.3-0.4,0.1-0.7
			c-0.7-0.7-1.5-1.4-2.4-2.1c-1.9-6.2-4.3-10.3-9-14.4c-5.4-4.6-10.7-6.5-13.9-7.2c-0.5-0.1-0.9-0.2-1.4-0.2
			c-0.1,2.5,1.5,5.9,2.7,7.9C1453.4,411.6,1455.8,415.1,1459.6,418.3z"/>
		<path class="st0" d="M1493.5,326.8c-0.4,0.2-2.7,0.8-3,0.4c-0.1-0.1,0-0.5,0.2-0.5c0.9-0.1,1.8-0.2,2.6-0.4c1.2-4.1,5.2-6.1,9-7
			c4.6-1.1,9.7-0.2,15.2,0.2c0.3,0,0.6,0,0.9,0c-0.1,0.2-0.2,0.3-0.3,0.4c-2.1,2.8-5.4,5.4-8.8,6.8c-2.3,1-5,1.6-7.8,1.7
			C1498.6,328.4,1496.1,328,1493.5,326.8z"/>
		<path class="st0" d="M1501.7,315.3c0.2,0,0.2,0,0.5-0.2c0.6-0.5,1.1-0.9,1.8-1.4c3.7-0.2,7.1-1.3,10.3-3.4c1.4-0.9,2.8-2,3.9-3.3
			c2.7-2.8,4.8-6.9,5.6-10.6c0-0.2,0.1-0.4,0.1-0.5c-0.3,0.1-0.5,0.2-0.8,0.4c-5.8,2.4-11.5,3.7-16,7.9c-3,2.8-4.5,6.1-3.6,9.1
			c-0.7,0.5-1.4,1.1-2.1,1.7C1501,315.1,1501.4,315.3,1501.7,315.3z"/>
		<path class="st0" d="M1482.2,344.3c-0.4,0.2-2.6,1.3-2.9,1c-0.2-0.1-0.1-0.5,0.1-0.6c0.8-0.3,1.8-0.5,2.6-0.9
			c0.1-2.8,1.7-5.6,5.3-7.6c5.5-2.9,12-2.8,18.1-3.7c0.3,0,0.6-0.1,0.9-0.1c-0.1,0.2-0.2,0.3-0.2,0.5c-1.8,3.1-4.8,6.5-8,8.5
			c-2.1,1.4-4.8,2.5-7.6,3.2C1487.4,345.1,1484.9,345,1482.2,344.3z"/>
		<path class="st0" d="M1455.9,389.8c2.1,3.4,5.8,7.1,10.7,7c0.2,0.4,1.2,2,1.4,2.3c0.1,0.4,0.5,0.7,0.9,0.5
			c0.2-0.1,0.4-0.3,0.3-0.7c-0.5-0.9-1.2-1.6-1.8-2.5c-0.1-6.5-0.9-11.2-4.3-16.3c-3.8-5.9-8.7-9.2-11.6-10.7
			c-0.4-0.2-0.8-0.4-1.2-0.6c-0.4,2.5,0.1,6.4,0.7,8.6C1452,381.9,1453.4,385.9,1455.9,389.8z"/>
		<path class="st0" d="M1459.3,363.6c1.1,3.7,3.4,7.4,8,8.7c0.1,0.4,0.7,2.2,0.8,2.5c0,0.4,0.2,0.8,0.7,0.7c0.2,0,0.4-0.2,0.4-0.5
			c-0.3-1-0.7-2.1-1-3.1c1.1-4.6,1.6-8.8,0.9-13.3c-0.9-6.2-4.1-11.5-8.8-15.6c-0.4-0.3-0.7-0.6-1-0.9c-1.1,2.2-1.6,6-1.6,8.2
			C1457.6,354.7,1458,359.2,1459.3,363.6z"/>
		<path class="st0" d="M1468.5,339.3c0.2,3.9,1.6,8.1,5.7,10.4c0,0.4,0.1,2.3,0.1,2.5c0,0.4,0,0.8,0.5,0.9c0.2,0,0.4,0,0.5-0.4
			c0-1-0.1-2.5-0.1-3.5c2.9-4.9,4.2-10.1,3.8-15.9c-0.4-6.8-2.8-10.9-4.6-13.5c-0.2-0.4-0.5-0.7-0.7-1.1c-1.6,1.9-2.9,5.3-3.5,7.5
			C1469,330.4,1468.2,334.8,1468.5,339.3z"/>
		<path class="st0" d="M1483.7,316.7c-0.7,3.7,0,9,3.4,11c-0.1,0.5-0.2,2.1-0.2,2.5c-0.1,0.4-0.2,0.8,0.2,0.9c0.2,0,0.3,0,0.4-0.3
			c0.1-1,0.1-1.9,0.2-2.9c4.2-4.4,6.5-8.6,7.5-14.2c1-5.9,0.4-10.5-0.5-13.7c-0.1-0.4-0.3-0.8-0.4-1.2c-3.8,2.9-6.3,6.7-8.4,10.9
			C1484.8,311.9,1483.9,314.2,1483.7,316.7z"/>
		<path class="st0" d="M1473.8,367.1c-0.4,0.3-2.3,2.1-2.8,1.9c-0.2-0.1-0.3-0.6-0.1-0.7c0.7-0.6,1.7-1,2.4-1.6
			c-0.5-3.1,0.1-6.3,3.2-9.5c4.8-4.5,11.6-6.4,17.6-8.9c0.3-0.1,0.5-0.3,0.9-0.4c0,0.2-0.1,0.4-0.1,0.6c-0.9,3.7-3,8.1-5.8,11.2
			c-1.8,2-4.3,4-6.9,5.4C1479.5,366.4,1476.8,367,1473.8,367.1z"/>
		<path class="st0" d="M1471.6,392.7c-0.2,0.4-1.7,2.8-2.2,2.7c-0.2,0-0.5-0.5-0.3-0.7c0.6-0.8,1.4-1.4,2-2.3
			c-1.3-2.8-1.1-7,1.1-11.1c3.6-6,9.2-9.2,14.5-13.5c0.2-0.2,0.5-0.4,0.7-0.7c0,0.2,0.1,0.4,0.1,0.6c0.2,4-0.6,9-2.5,12.9
			c-1.2,2.6-3.1,5.3-5.3,7.5C1477.2,390.4,1474.6,391.8,1471.6,392.7z"/>
		<path class="st0" d="M1476.5,417.5c-0.2,0.5-1.1,3.2-1.6,3.3c-0.2,0-0.6-0.4-0.5-0.7c0.4-0.9,0.8-2,1.2-2.9c-2-1.4-3-5.6-1.9-10.2
			c2-6.7,7.3-12,11.5-17.7c0.2-0.3,0.4-0.5,0.6-0.8c0.1,0.2,0.1,0.4,0.2,0.6c1.1,3.8,1.5,8.8,0.6,13.1c-0.6,2.8-1.8,5.9-3.5,8.7
			C1481.3,413.7,1479.2,415.8,1476.5,417.5z"/>
		<path class="st0" d="M1472,447c3.6,1.7,10,2.8,14.1,0.2c0.4,0.2,2.2,1,2.5,1.1c0.3,0.2,0.8,0.4,1,0c0.1-0.2,0.2-0.4-0.1-0.7
			c-0.9-0.5-2-0.7-3-1.2c-3.7-5.5-7.6-9.2-13.2-11.7c-6.4-3-11.6-2.7-14.9-2.5c-0.5,0-0.9,0.1-1.4,0.1
			C1458.3,437.9,1467.2,444.9,1472,447z"/>
		<path class="st0" d="M1488.7,441.6c0,0.4-0.1,2-0.3,3c-0.1,0.3-0.1,0.7-0.5,0.6c-0.2,0-0.4-0.4-0.4-0.5c0.2-1,0.2-2.1,0.2-3
			c-2.2-1-4.2-4.7-4.9-9.2c-0.2-7,3-13.5,5.4-20.2c0.1-0.3,0.2-0.6,0.3-0.9c0.1,0.2,0.2,0.3,0.4,0.5c2.3,3.3,4.2,8,4.6,12.4
			c0.4,2.8,0.2,6.2-0.6,9.3C1492.1,436.6,1490.7,439.2,1488.7,441.6z"/>
		<path class="st0" d="M1492.8,469.7c4.1,0.4,9.5,0,12.6-3.9c0.9,0,2.3,0.2,3.2,0.2c0.2,0,0.4-0.2,0.5-0.4c0-0.2,0-0.4-0.5-0.6
			c-1-0.1-2,0-3.1-0.2c-4.9-4.2-9.3-6.4-15.5-7c-7.2-0.7-13.1,1.2-16.1,2.5c-0.4,0.2-0.9,0.4-1.2,0.5c1.3,2.1,4.8,4.1,7,5.1
			C1483.7,467.9,1487.9,469.3,1492.8,469.7z"/>
		<path class="st0" d="M1506.3,459.4c0.1,0.4,0.3,2,0.4,3c0,0.3,0.1,0.7-0.4,0.7c-0.2,0-0.5-0.2-0.5-0.4c-0.2-1-0.2-2-0.5-3
			c-2.4-0.5-5.8-3.3-7.6-7.5c-2.2-6.6-1-13.6-0.7-20.8c0-0.3,0-0.6,0-1c0.2,0.1,0.4,0.2,0.5,0.4c3.1,2.5,6.4,6.5,8.1,10.4
			c1.2,2.6,2,5.9,2.2,9C1508.1,453.7,1507.5,456.5,1506.3,459.4z"/>
		<path class="st0" d="M1529.9,471.8c0.2,0.3,0.6,1.6,1,2.5c0.1,0.2,0.3,0.6-0.1,0.7c-0.2,0.1-0.5,0-0.6-0.2
			c-0.5-0.8-0.5-1.7-1.1-2.5c-2.3,0.6-6.5-1.6-9.4-4.7c-4.1-5.3-5-11.9-7-18.4c-0.1-0.3-0.2-0.6-0.3-0.9c0.2,0,0.4,0.1,0.6,0.2
			c3.6,1.3,7.8,3.7,10.6,6.8c1.9,2,3.8,4.8,4.9,7.6C1529.8,465.8,1530.1,468.7,1529.9,471.8z"/>
		<path class="st0" d="M1518.3,484.9c4.1-0.7,9.2-2.6,11.2-7.2c0.8-0.2,2.3-0.5,3.1-0.7c0.2,0,0.4-0.3,0.4-0.5
			c0-0.2-0.2-0.4-0.6-0.4c-1,0.2-2,0.5-3.1,0.7c-6.2-2.7-11.1-3.7-17.3-2.6c-7.1,1.3-12.1,4.6-14.7,6.8c-0.4,0.3-0.7,0.6-1.1,0.9
			c1.9,1.7,5.9,2.7,8.2,3C1508.9,485.6,1513.4,485.8,1518.3,484.9z"/>
	</g>
</g>
<g>
	<path class="st0" d="M1710.4,479.8c34.6-2,61.5-23.3,75.5-53.7c5.7-12.6,7.6-26.8,7.2-41.9c-0.8-26.8-13.4-50.9-33.2-69
		c-0.1-0.1-0.1-0.1-0.2,0c-0.1,0.1-0.2,0.2-0.4,0.2c-0.1,0-0.2,0-0.1,0.1c21,18.7,33.2,47.1,32.4,75.1c-0.9,40-26.7,73.9-62,84
		c-5.9,1.7-12.1,2.9-18.4,3.3C1710.8,478.4,1710.5,479,1710.4,479.8z"/>
	<g>
		<path class="st0" d="M1801.4,418.3c-3,2.7-7.7,5.2-12.4,3.8c-0.3,0.3-1.7,1.8-1.9,2c-0.2,0.3-0.7,0.5-1,0.3
			c-0.2-0.1-0.3-0.4-0.1-0.7c0.7-0.7,1.5-1.4,2.4-2.1c1.9-6.2,4.3-10.3,9-14.4c5.4-4.6,10.7-6.5,13.9-7.2c0.5-0.1,0.9-0.2,1.4-0.2
			c0.1,2.5-1.5,5.9-2.7,7.9C1807.6,411.6,1805.1,415.1,1801.4,418.3z"/>
		<path class="st0" d="M1767.4,326.8c0.4,0.2,2.7,0.8,3,0.4c0.1-0.1,0-0.5-0.2-0.5c-0.9-0.1-1.8-0.2-2.6-0.4c-1.2-4.1-5.2-6.1-9-7
			c-4.6-1.1-9.7-0.2-15.2,0.2c-0.3,0-0.6,0-0.9,0c0.1,0.2,0.2,0.3,0.3,0.4c2.1,2.8,5.4,5.4,8.8,6.8c2.3,1,5,1.6,7.8,1.7
			C1762.3,328.4,1764.8,328,1767.4,326.8z"/>
		<path class="st0" d="M1759.3,315.3c-0.2,0-0.2,0-0.5-0.2c-0.6-0.5-1.1-0.9-1.8-1.4c-3.7-0.2-7.1-1.3-10.3-3.4
			c-1.4-0.9-2.8-2-3.9-3.3c-2.7-2.8-4.8-6.9-5.6-10.6c0-0.2-0.1-0.4-0.1-0.5c0.3,0.1,0.5,0.2,0.8,0.4c5.8,2.4,11.5,3.7,16,7.9
			c3,2.8,4.5,6.1,3.6,9.1c0.7,0.5,1.4,1.1,2.1,1.7C1759.9,315.1,1759.5,315.3,1759.3,315.3z"/>
		<path class="st0" d="M1778.8,344.3c0.4,0.2,2.6,1.3,2.9,1c0.2-0.1,0.1-0.5-0.1-0.6c-0.8-0.3-1.8-0.5-2.6-0.9
			c-0.1-2.8-1.7-5.6-5.3-7.6c-5.5-2.9-12-2.8-18.1-3.7c-0.3,0-0.6-0.1-0.9-0.1c0.1,0.2,0.2,0.3,0.2,0.5c1.8,3.1,4.8,6.5,8,8.5
			c2.1,1.4,4.8,2.5,7.6,3.2C1773.5,345.1,1776.1,345,1778.8,344.3z"/>
		<path class="st0" d="M1805,389.8c-2.1,3.4-5.8,7.1-10.7,7c-0.2,0.4-1.2,2-1.4,2.3c-0.1,0.4-0.5,0.7-0.9,0.5
			c-0.2-0.1-0.4-0.3-0.3-0.7c0.5-0.9,1.2-1.6,1.8-2.5c0.1-6.5,0.9-11.2,4.3-16.3c3.8-5.9,8.7-9.2,11.6-10.7c0.4-0.2,0.8-0.4,1.2-0.6
			c0.4,2.5-0.1,6.4-0.7,8.6C1809,381.9,1807.5,385.9,1805,389.8z"/>
		<path class="st0" d="M1801.7,363.6c-1.1,3.7-3.4,7.4-8,8.7c-0.1,0.4-0.7,2.2-0.8,2.5c0,0.4-0.2,0.8-0.7,0.7
			c-0.2,0-0.4-0.2-0.4-0.5c0.3-1,0.7-2.1,1-3.1c-1.1-4.6-1.6-8.8-0.9-13.3c0.9-6.2,4.1-11.5,8.8-15.6c0.4-0.3,0.7-0.6,1-0.9
			c1.1,2.2,1.6,6,1.6,8.2C1803.4,354.7,1803,359.2,1801.7,363.6z"/>
		<path class="st0" d="M1792.5,339.3c-0.2,3.9-1.6,8.1-5.7,10.4c0,0.4-0.1,2.3-0.1,2.5c0,0.4,0,0.8-0.5,0.9c-0.2,0-0.4,0-0.5-0.4
			c0-1,0.1-2.5,0.1-3.5c-2.9-4.9-4.2-10.1-3.8-15.9c0.4-6.8,2.8-10.9,4.6-13.5c0.2-0.4,0.5-0.7,0.7-1.1c1.6,1.9,2.9,5.3,3.5,7.5
			C1792,330.4,1792.7,334.8,1792.5,339.3z"/>
		<path class="st0" d="M1777.3,316.7c0.7,3.7,0,9-3.4,11c0.1,0.5,0.2,2.1,0.2,2.5c0.1,0.4,0.2,0.8-0.2,0.9c-0.2,0-0.3,0-0.4-0.3
			c-0.1-1-0.1-1.9-0.2-2.9c-4.2-4.4-6.5-8.6-7.5-14.2c-1-5.9-0.4-10.5,0.5-13.7c0.1-0.4,0.3-0.8,0.4-1.2c3.8,2.9,6.3,6.7,8.4,10.9
			C1776.2,311.9,1777,314.2,1777.3,316.7z"/>
		<path class="st0" d="M1787.2,367.1c0.4,0.3,2.3,2.1,2.8,1.9c0.2-0.1,0.3-0.6,0.1-0.7c-0.7-0.6-1.7-1-2.4-1.6
			c0.5-3.1-0.1-6.3-3.2-9.5c-4.8-4.5-11.6-6.4-17.6-8.9c-0.3-0.1-0.5-0.3-0.9-0.4c0,0.2,0.1,0.4,0.1,0.6c0.9,3.7,3,8.1,5.8,11.2
			c1.8,2,4.3,4,6.9,5.4C1781.5,366.4,1784.2,367,1787.2,367.1z"/>
		<path class="st0" d="M1789.4,392.7c0.2,0.4,1.7,2.8,2.2,2.7c0.2,0,0.5-0.5,0.3-0.7c-0.6-0.8-1.4-1.4-2-2.3c1.3-2.8,1.1-7-1.1-11.1
			c-3.6-6-9.2-9.2-14.5-13.5c-0.2-0.2-0.5-0.4-0.7-0.7c0,0.2-0.1,0.4-0.1,0.6c-0.2,4,0.6,9,2.5,12.9c1.2,2.6,3.1,5.3,5.3,7.5
			C1783.8,390.4,1786.4,391.8,1789.4,392.7z"/>
		<path class="st0" d="M1784.5,417.5c0.2,0.5,1.1,3.2,1.6,3.3c0.2,0,0.6-0.4,0.5-0.7c-0.4-0.9-0.8-2-1.2-2.9c2-1.4,3-5.7,1.9-10.2
			c-2-6.7-7.3-12-11.5-17.7c-0.2-0.3-0.4-0.5-0.6-0.8c-0.1,0.2-0.1,0.4-0.2,0.6c-1.1,3.8-1.5,8.8-0.6,13.1c0.6,2.8,1.8,5.9,3.5,8.7
			C1779.7,413.7,1781.8,415.8,1784.5,417.5z"/>
		<path class="st0" d="M1789,447c-3.6,1.7-10,2.8-14.1,0.2c-0.4,0.2-2.2,1-2.5,1.1c-0.3,0.2-0.8,0.4-1,0c-0.1-0.2-0.2-0.4,0.1-0.7
			c0.9-0.5,2-0.7,3-1.2c3.7-5.5,7.6-9.2,13.2-11.7c6.4-3,11.6-2.7,14.9-2.5c0.5,0,0.9,0.1,1.4,0.1
			C1802.7,437.9,1793.8,444.9,1789,447z"/>
		<path class="st0" d="M1772.3,441.6c0,0.4,0.1,2,0.3,3c0.1,0.3,0.1,0.7,0.5,0.6c0.2,0,0.4-0.4,0.4-0.5c-0.2-1-0.2-2.1-0.2-3
			c2.2-1,4.2-4.7,4.9-9.2c0.2-7-3-13.5-5.4-20.2c-0.1-0.3-0.2-0.6-0.3-0.9c-0.1,0.2-0.2,0.3-0.4,0.5c-2.3,3.3-4.2,8-4.6,12.4
			c-0.4,2.8-0.2,6.2,0.6,9.3C1768.9,436.6,1770.3,439.2,1772.3,441.6z"/>
		<path class="st0" d="M1768.2,469.7c-4.1,0.4-9.5,0-12.6-3.9c-0.9,0-2.3,0.2-3.2,0.2c-0.2,0-0.4-0.2-0.5-0.4c0-0.2,0-0.4,0.5-0.6
			c1-0.1,2,0,3.1-0.2c4.9-4.2,9.3-6.4,15.5-7c7.2-0.7,13.1,1.2,16.1,2.5c0.4,0.2,0.9,0.4,1.2,0.5c-1.3,2.1-4.8,4.1-7,5.1
			C1777.3,467.9,1773.1,469.3,1768.2,469.7z"/>
		<path class="st0" d="M1754.7,459.4c-0.1,0.4-0.3,2-0.4,3c0,0.3-0.1,0.7,0.4,0.7c0.2,0,0.5-0.2,0.5-0.4c0.2-1,0.2-2,0.5-3
			c2.4-0.5,5.8-3.3,7.6-7.5c2.2-6.6,1-13.6,0.7-20.8c0-0.3,0-0.6,0-1c-0.2,0.1-0.4,0.2-0.5,0.4c-3.1,2.5-6.4,6.5-8.1,10.4
			c-1.2,2.6-2,5.9-2.2,9C1752.9,453.7,1753.4,456.5,1754.7,459.4z"/>
		<path class="st0" d="M1731.1,471.8c-0.2,0.3-0.6,1.6-1,2.5c-0.1,0.2-0.3,0.6,0.1,0.7c0.2,0.1,0.5,0,0.6-0.2
			c0.5-0.8,0.5-1.7,1.1-2.5c2.3,0.6,6.5-1.6,9.4-4.7c4.1-5.3,5-11.9,7-18.4c0.1-0.3,0.2-0.6,0.3-0.9c-0.2,0-0.4,0.1-0.6,0.2
			c-3.6,1.3-7.8,3.7-10.6,6.8c-1.9,2-3.8,4.8-4.9,7.6C1731.1,465.8,1730.9,468.7,1731.1,471.8z"/>
		<path class="st0" d="M1742.7,484.9c-4.1-0.7-9.2-2.6-11.2-7.2c-0.8-0.2-2.3-0.5-3.1-0.7c-0.2,0-0.4-0.3-0.4-0.5
			c0-0.2,0.2-0.4,0.6-0.4c1,0.2,2,0.5,3.1,0.7c6.2-2.7,11.1-3.7,17.3-2.6c7.1,1.3,12.1,4.6,14.7,6.8c0.4,0.3,0.7,0.6,1.1,0.9
			c-1.9,1.7-5.9,2.7-8.2,3C1752,485.6,1747.5,485.8,1742.7,484.9z"/>
	</g>
</g>
<path class="st0" d="M1556.6,470.9l15.4-11.8c3.8-3,5.4-4.9,5.4-7.4c0-2.7-1.8-4.2-4.6-4.2c-2.8,0-4.9,1.7-8.2,5.4l-7.7-6.4
	c4.4-5.7,8.8-8.8,16.8-8.8c9,0,15.2,5.4,15.2,13.1v0.1c0,6.6-3.4,10-9.5,14.4l-7.1,4.9h17v9.3h-32.6V470.9z"/>
<path class="st0" d="M1596.2,459v-0.1c0-11.7,7.4-21.4,19.1-21.4s19,9.7,19,21.3v0.1c0,11.7-7.4,21.4-19.1,21.4
	C1603.5,480.3,1596.2,470.6,1596.2,459z M1622.8,459v-0.1c0-6.6-3.1-11.4-7.7-11.4c-4.5,0-7.5,4.6-7.5,11.2v0.1
	c0,6.6,3.1,11.3,7.7,11.3C1619.9,470.2,1622.8,465.5,1622.8,459z"/>
<path class="st0" d="M1648.4,448.6l-6.9,1.7l-2.2-8.8l12.1-3.4h8.3v41.5h-11.3L1648.4,448.6L1648.4,448.6z"/>
<g>
	<path class="st0" d="M1577.5,494.6c-0.6,0.6-1.4,1-2.4,1c-1,0-1.8-0.3-2.4-1c-0.9-0.9-0.9-2-0.9-3.5c0-1.5,0-2.6,0.9-3.5
		c0.6-0.6,1.4-1,2.4-1s1.7,0.3,2.4,1c0.9,0.9,0.9,2,0.9,3.5C1578.3,492.7,1578.4,493.8,1577.5,494.6z M1576.2,488.7
		c-0.2-0.3-0.6-0.5-1.1-0.5s-0.8,0.2-1.1,0.5c-0.3,0.4-0.4,0.8-0.4,2.4c0,1.7,0.1,2.1,0.4,2.4c0.2,0.3,0.6,0.5,1.1,0.5
		s0.8-0.2,1.1-0.5c0.3-0.4,0.4-0.8,0.4-2.4C1576.6,489.5,1576.5,489.1,1576.2,488.7z"/>
	<path class="st0" d="M1581.8,488.3v2.1h3.4v1.5h-3.4v3.5h-1.7v-8.7h5.7v1.5L1581.8,488.3L1581.8,488.3z"/>
	<path class="st0" d="M1589,488.3v2.1h3.4v1.5h-3.4v3.5h-1.7v-8.7h5.7v1.5L1589,488.3L1589,488.3z"/>
	<path class="st0" d="M1594.5,495.5v-8.7h1.7v8.7H1594.5z"/>
	<path class="st0" d="M1601.2,495.6c-0.9,0-1.7-0.3-2.4-1c-0.4-0.4-0.6-0.8-0.7-1.3c-0.1-0.5-0.2-1.2-0.2-2.2s0.1-1.7,0.2-2.2
		c0.1-0.5,0.3-0.9,0.7-1.3c0.6-0.6,1.4-1,2.4-1c1.7,0,2.9,1,3.2,2.7h-1.7c-0.2-0.8-0.6-1.2-1.5-1.2c-0.5,0-0.8,0.2-1.1,0.5
		c-0.4,0.4-0.4,0.8-0.4,2.5s0.1,2.1,0.4,2.5c0.3,0.3,0.6,0.5,1.1,0.5c0.8,0,1.3-0.5,1.5-1.2h1.7
		C1604.1,494.6,1602.8,495.6,1601.2,495.6z"/>
	<path class="st0" d="M1605.8,495.5v-8.7h1.7v8.7H1605.8z"/>
	<path class="st0" d="M1614.5,495.5l-0.5-1.5h-3.1l-0.5,1.5h-1.8l3.2-8.7h1.3l3.2,8.7H1614.5z M1612.5,489.4l-1.1,3.2h2.2
		L1612.5,489.4z"/>
	<path class="st0" d="M1617.4,495.5v-8.7h1.7v7.2h4v1.5H1617.4z"/>
	<path class="st0" d="M1629.6,495.6c-1.3,0-2.3-0.3-3.2-1.1l1.1-1.1c0.5,0.5,1.3,0.7,2.1,0.7c1,0,1.5-0.4,1.5-1.1
		c0-0.3-0.1-0.6-0.3-0.7c-0.2-0.2-0.4-0.2-0.8-0.3l-1.1-0.2c-0.8-0.1-1.3-0.3-1.7-0.7c-0.4-0.4-0.6-1-0.6-1.7c0-1.6,1.1-2.6,3-2.6
		c1.2,0,2.1,0.3,2.8,1l-1.1,1.1c-0.5-0.5-1.2-0.6-1.8-0.6c-0.9,0-1.4,0.5-1.4,1.1c0,0.2,0.1,0.5,0.3,0.6c0.2,0.2,0.5,0.3,0.8,0.3
		l1,0.2c0.8,0.1,1.3,0.3,1.7,0.7c0.5,0.4,0.7,1.1,0.7,1.8C1632.9,494.6,1631.5,495.6,1629.6,495.6z"/>
	<path class="st0" d="M1634.5,495.5v-8.7h5.7v1.5h-4v2.1h3.4v1.5h-3.4v2.1h4v1.5L1634.5,495.5L1634.5,495.5z"/>
	<path class="st0" d="M1641.9,495.5v-8.7h1.7v7.2h4v1.5H1641.9z"/>
	<path class="st0" d="M1648.9,495.5v-8.7h5.7v1.5h-4v2.1h3.4v1.5h-3.4v2.1h4v1.5L1648.9,495.5L1648.9,495.5z"/>
	<path class="st0" d="M1659.2,495.6c-0.9,0-1.7-0.3-2.4-1c-0.4-0.4-0.6-0.8-0.7-1.3c-0.1-0.5-0.2-1.2-0.2-2.2s0.1-1.7,0.2-2.2
		c0.1-0.5,0.3-0.9,0.7-1.3c0.6-0.6,1.4-1,2.4-1c1.7,0,2.9,1,3.2,2.7h-1.7c-0.2-0.8-0.6-1.2-1.5-1.2c-0.5,0-0.8,0.2-1.1,0.5
		c-0.4,0.4-0.4,0.8-0.4,2.5s0.1,2.1,0.4,2.5c0.3,0.3,0.6,0.5,1.1,0.5c0.8,0,1.3-0.5,1.5-1.2h1.7
		C1662.1,494.6,1660.9,495.6,1659.2,495.6z"/>
	<path class="st0" d="M1667,488.3v7.2h-1.7v-7.2h-2.3v-1.5h6.2v1.5H1667z"/>
	<path class="st0" d="M1670.6,495.5v-8.7h1.7v8.7H1670.6z"/>
	<path class="st0" d="M1679.6,494.6c-0.6,0.6-1.4,1-2.4,1c-1,0-1.8-0.3-2.4-1c-0.9-0.9-0.9-2-0.9-3.5c0-1.5,0-2.6,0.9-3.5
		c0.6-0.6,1.4-1,2.4-1c1,0,1.7,0.3,2.4,1c0.9,0.9,0.9,2,0.9,3.5C1680.5,492.7,1680.5,493.8,1679.6,494.6z M1678.4,488.7
		c-0.2-0.3-0.6-0.5-1.1-0.5s-0.8,0.2-1.1,0.5c-0.3,0.4-0.4,0.8-0.4,2.4c0,1.7,0.1,2.1,0.4,2.4c0.2,0.3,0.6,0.5,1.1,0.5
		c0.5,0,0.8-0.2,1.1-0.5c0.3-0.4,0.4-0.8,0.4-2.4C1678.8,489.5,1678.7,489.1,1678.4,488.7z"/>
	<path class="st0" d="M1687.4,495.5l-3.4-5.3v5.3h-1.7v-8.7h1.5l3.4,5.3v-5.3h1.7v8.7H1687.4z"/>
</g>
<g>
	<path class="st0" d="M1667.4,473.4l6.6-7.7c3.3,2.8,6.5,4.5,10.1,4.5c3.8,0,6-1.9,6-4.9v-0.1c0-3-2.5-4.8-6.1-4.8
		c-2.5,0-4.7,0.9-6.6,2.1l-6.8-3.9l1.2-21h27.7v9.5h-18.7l-0.4,6.3c1.9-0.9,3.9-1.5,6.6-1.5c7.5,0,14.2,4.1,14.2,13.2v0.1
		c0,9.2-7.1,14.8-17.1,14.8C1676.8,479.9,1671.7,477.4,1667.4,473.4z"/>
</g>
</svg>
